<svg width="24" height="42" viewBox="0 0 24 42" fill="none" xmlns="http://www.w3.org/2000/svg">
<path d="M23.056 20.4446C23.9791 18.2529 22.3698 15.829 19.9917 15.829C18.1553 15.829 16.6667 14.3403 16.6667 12.5039V9.49737C16.6667 7.74985 18.16 7.91448 20 7.91448C21.8409 7.91448 23.3333 6.42209 23.3333 4.58114V3.95724C23.3333 1.77172 21.5616 0 19.3761 0H16.6667C11.1433 0 6.66667 4.25166 6.66667 9.49737V12.4956C6.66667 14.3366 5.17428 15.829 3.33333 15.829C1.49238 15.829 0 17.3213 0 19.1623V20.4101C0 22.251 1.49238 23.7434 3.33333 23.7434C5.17428 23.7434 6.66667 25.2358 6.66667 27.0768V36.1553C6.66667 38.9167 8.90524 41.1553 11.6667 41.1553C14.4281 41.1553 16.6667 38.9167 16.6667 36.1553V26.7484C16.6667 25.0888 18.012 23.7434 19.6716 23.7434C20.8806 23.7434 21.9718 23.019 22.441 21.9048L23.056 20.4446Z" fill="black"/>
</svg>
