<svg width="207" height="230" viewBox="0 0 207 230" fill="none" xmlns="http://www.w3.org/2000/svg">
<g id="Frame" clip-path="url(#clip0)">
<path id="Vector" d="M121.971 1.66748L1.19189 30.4071V176.529L78.0196 228.642L152.425 185.705V17.4224" stroke="white" stroke-width="2" stroke-miterlimit="10"/>
<path id="Vector_2" d="M10.1899 110.047L66.9455 71.0928" stroke="white" stroke-miterlimit="10"/>
<path id="Vector_3" d="M90.0454 70.7164L143.73 113.401" stroke="white" stroke-miterlimit="10"/>
<path id="Vector_4" d="M16.4187 167.7L76.808 207.693" stroke="white" stroke-miterlimit="10"/>
<path id="Vector_5" d="M156.405 194.188L201.221 227.256" stroke="white" stroke-miterlimit="10"/>
<path id="Vector_6" d="M162.461 187.956L205.72 219.812" stroke="white" stroke-miterlimit="10"/>
<path id="O" d="M95.3008 45.4229C95.3008 48.4326 94.7767 51.0755 93.7285 53.3516C92.6953 55.6276 91.2129 57.3796 89.2812 58.6074C87.3496 59.8353 85.1185 60.4492 82.5879 60.4492C78.7695 60.4492 75.6849 59.0866 73.334 56.3613C70.9831 53.6211 69.8076 49.93 69.8076 45.2881V41.9189C69.8076 38.9391 70.3317 36.3037 71.3799 34.0127C72.443 31.7067 73.9404 29.9398 75.8721 28.7119C77.8037 27.4691 80.0273 26.8477 82.543 26.8477C85.0586 26.8477 87.2747 27.4541 89.1914 28.667C91.123 29.8799 92.613 31.5944 93.6611 33.8105C94.7093 36.0267 95.2559 38.5947 95.3008 41.5146V45.4229ZM92.5381 41.874C92.5381 37.9359 91.6471 34.8512 89.8652 32.6201C88.0833 30.389 85.6426 29.2734 82.543 29.2734C79.5033 29.2734 77.0775 30.3965 75.2656 32.6426C73.4688 34.8737 72.5703 37.9958 72.5703 42.0088V45.4229C72.5703 49.3011 73.4688 52.3783 75.2656 54.6543C77.0625 56.9154 79.5033 58.0459 82.5879 58.0459C85.7174 58.0459 88.1582 56.9303 89.9102 54.6992C91.6621 52.4531 92.5381 49.3311 92.5381 45.333V41.874Z" fill="white"/>
</g>
<defs>
<clipPath id="clip0">
<rect width="205.912" height="228.878" fill="white" transform="translate(0.32666 0.801758)"/>
</clipPath>
</defs>
</svg>
