<svg width="980" height="76" viewBox="0 0 980 76" fill="none" xmlns="http://www.w3.org/2000/svg">
<path id="GOGOLCHEMICAL LAB" d="M34.7 42.6H62.4V46.3C62.4 50.2333 61.6667 53.9 60.2 57.3C58.7333 60.6333 56.7 63.5333 54.1 66C51.5667 68.4 48.5667 70.3 45.1 71.7C41.6333 73.0333 37.9333 73.7 34 73.7C28.7333 73.7 24.1 72.7667 20.1 70.9C16.1667 69.0333 12.8667 66.5 10.2 63.3C7.53333 60.1 5.53333 56.3667 4.2 52.1C2.86667 47.7667 2.2 43.1667 2.2 38.3C2.2 33.4333 2.9 28.8667 4.3 24.6C5.7 20.2667 7.73333 16.5 10.4 13.3C13.1333 10.1 16.4333 7.56666 20.3 5.7C24.2333 3.83333 28.7 2.9 33.7 2.9C37.4333 2.9 40.8333 3.43333 43.9 4.49999C47.0333 5.5 49.7667 6.96667 52.1 8.9C54.5 10.8333 56.4667 13.1667 58 15.9C59.6 18.5667 60.7 21.5667 61.3 24.9H63.3C62.7 21.2333 61.5667 17.9333 59.9 15C58.3 12.0667 56.2 9.56667 53.6 7.5C51.0667 5.36666 48.1 3.73333 44.7 2.6C41.3667 1.46666 37.7 0.899999 33.7 0.899999C28.4333 0.899999 23.7333 1.86667 19.6 3.8C15.4667 5.73333 11.9667 8.4 9.1 11.8C6.23333 15.1333 4.03333 19.1 2.5 23.7C0.966667 28.2333 0.2 33.1 0.2 38.3C0.2 43.4333 0.9 48.2667 2.3 52.8C3.76667 57.3333 5.9 61.3 8.7 64.7C11.5 68.0333 15 70.7 19.2 72.7C23.4 74.6333 28.2333 75.6 33.7 75.6C40.7667 75.6 46.8 73.9 51.8 70.5C56.8 67.1 60.2667 62.3667 62.2 56.3H62.4V74H64.4V40.6H34.7V42.6ZM65.368 38.3C65.368 33.2333 66.068 28.4333 67.468 23.9C68.9346 19.3667 71.0346 15.4 73.768 12C76.568 8.6 80.0013 5.9 84.068 3.9C88.2013 1.9 92.9346 0.899999 98.268 0.899999C103.601 0.899999 108.301 1.9 112.368 3.9C116.501 5.9 119.935 8.6 122.668 12C125.468 15.4 127.568 19.3667 128.968 23.9C130.435 28.4333 131.168 33.2333 131.168 38.3C131.168 43.3667 130.435 48.1667 128.968 52.7C127.568 57.2333 125.468 61.2 122.668 64.6C119.935 68 116.501 70.7 112.368 72.7C108.301 74.6333 103.601 75.6 98.268 75.6C92.9346 75.6 88.2013 74.6333 84.068 72.7C80.0013 70.7 76.568 68 73.768 64.6C71.0346 61.2 68.9346 57.2333 67.468 52.7C66.068 48.1667 65.368 43.3667 65.368 38.3ZM67.368 38.3C67.4346 43.4333 68.168 48.1667 69.568 52.5C71.0346 56.8333 73.068 60.5667 75.668 63.7C78.3346 66.8333 81.568 69.3 85.368 71.1C89.168 72.8333 93.468 73.7 98.268 73.7C103.068 73.7 107.368 72.8333 111.168 71.1C114.968 69.3 118.168 66.8333 120.768 63.7C123.435 60.5667 125.468 56.8333 126.868 52.5C128.335 48.1667 129.101 43.4333 129.168 38.3C129.101 33.1667 128.335 28.4333 126.868 24.1C125.468 19.7667 123.435 16.0333 120.768 12.9C118.168 9.76666 114.968 7.33333 111.168 5.6C107.368 3.8 103.068 2.9 98.268 2.9C93.468 2.9 89.168 3.8 85.368 5.6C81.568 7.33333 78.3346 9.76666 75.668 12.9C73.068 16.0333 71.0346 19.7667 69.568 24.1C68.168 28.4333 67.4346 33.1667 67.368 38.3ZM164.938 42.6H192.638V46.3C192.638 50.2333 191.905 53.9 190.438 57.3C188.972 60.6333 186.938 63.5333 184.338 66C181.805 68.4 178.805 70.3 175.338 71.7C171.872 73.0333 168.172 73.7 164.238 73.7C158.972 73.7 154.338 72.7667 150.338 70.9C146.405 69.0333 143.105 66.5 140.438 63.3C137.772 60.1 135.772 56.3667 134.438 52.1C133.105 47.7667 132.438 43.1667 132.438 38.3C132.438 33.4333 133.138 28.8667 134.538 24.6C135.938 20.2667 137.972 16.5 140.638 13.3C143.372 10.1 146.672 7.56666 150.538 5.7C154.472 3.83333 158.938 2.9 163.938 2.9C167.672 2.9 171.072 3.43333 174.138 4.49999C177.272 5.5 180.005 6.96667 182.338 8.9C184.738 10.8333 186.705 13.1667 188.238 15.9C189.838 18.5667 190.938 21.5667 191.538 24.9H193.538C192.938 21.2333 191.805 17.9333 190.138 15C188.538 12.0667 186.438 9.56667 183.838 7.5C181.305 5.36666 178.338 3.73333 174.938 2.6C171.605 1.46666 167.938 0.899999 163.938 0.899999C158.672 0.899999 153.972 1.86667 149.838 3.8C145.705 5.73333 142.205 8.4 139.338 11.8C136.472 15.1333 134.272 19.1 132.738 23.7C131.205 28.2333 130.438 33.1 130.438 38.3C130.438 43.4333 131.138 48.2667 132.538 52.8C134.005 57.3333 136.138 61.3 138.938 64.7C141.738 68.0333 145.238 70.7 149.438 72.7C153.638 74.6333 158.472 75.6 163.938 75.6C171.005 75.6 177.038 73.9 182.038 70.5C187.038 67.1 190.505 62.3667 192.438 56.3H192.638V74H194.638V40.6H164.938V42.6ZM195.606 38.3C195.606 33.2333 196.306 28.4333 197.706 23.9C199.173 19.3667 201.273 15.4 204.006 12C206.806 8.6 210.24 5.9 214.306 3.9C218.44 1.9 223.173 0.899999 228.506 0.899999C233.84 0.899999 238.54 1.9 242.606 3.9C246.74 5.9 250.173 8.6 252.906 12C255.706 15.4 257.806 19.3667 259.206 23.9C260.673 28.4333 261.406 33.2333 261.406 38.3C261.406 43.3667 260.673 48.1667 259.206 52.7C257.806 57.2333 255.706 61.2 252.906 64.6C250.173 68 246.74 70.7 242.606 72.7C238.54 74.6333 233.84 75.6 228.506 75.6C223.173 75.6 218.44 74.6333 214.306 72.7C210.24 70.7 206.806 68 204.006 64.6C201.273 61.2 199.173 57.2333 197.706 52.7C196.306 48.1667 195.606 43.3667 195.606 38.3ZM197.606 38.3C197.673 43.4333 198.406 48.1667 199.806 52.5C201.273 56.8333 203.306 60.5667 205.906 63.7C208.573 66.8333 211.806 69.3 215.606 71.1C219.406 72.8333 223.706 73.7 228.506 73.7C233.306 73.7 237.606 72.8333 241.406 71.1C245.206 69.3 248.406 66.8333 251.006 63.7C253.673 60.5667 255.706 56.8333 257.106 52.5C258.573 48.1667 259.34 43.4333 259.406 38.3C259.34 33.1667 258.573 28.4333 257.106 24.1C255.706 19.7667 253.673 16.0333 251.006 12.9C248.406 9.76666 245.206 7.33333 241.406 5.6C237.606 3.8 233.306 2.9 228.506 2.9C223.706 2.9 219.406 3.8 215.606 5.6C211.806 7.33333 208.573 9.76666 205.906 12.9C203.306 16.0333 201.273 19.7667 199.806 24.1C198.406 28.4333 197.673 33.1667 197.606 38.3ZM306.577 72H264.877V2.6H262.877V74H306.577V72ZM353.121 26.6H368.321C367.854 22.4667 366.721 18.8 364.921 15.6C363.121 12.4 360.821 9.73333 358.021 7.6C355.288 5.4 352.154 3.73333 348.621 2.6C345.154 1.46666 341.454 0.899999 337.521 0.899999C332.054 0.899999 327.121 1.86667 322.721 3.8C318.388 5.73333 314.721 8.4 311.721 11.8C308.721 15.2 306.421 19.2 304.821 23.8C303.221 28.3333 302.421 33.2667 302.421 38.6C302.421 43.8 303.221 48.6667 304.821 53.2C306.421 57.6667 308.721 61.5667 311.721 64.9C314.721 68.2333 318.388 70.8667 322.721 72.8C327.121 74.6667 332.054 75.6 337.521 75.6C341.921 75.6 345.954 74.9333 349.621 73.6C353.288 72.2667 356.488 70.3333 359.221 67.8C361.954 65.2667 364.154 62.2 365.821 58.6C367.488 55 368.521 50.9667 368.921 46.5H353.721C353.121 51.3 351.454 55.1667 348.721 58.1C346.054 61.0333 342.321 62.5 337.521 62.5C333.988 62.5 330.988 61.8333 328.521 60.5C326.054 59.1 324.054 57.2667 322.521 55C320.988 52.7333 319.854 50.2 319.121 47.4C318.454 44.5333 318.121 41.6 318.121 38.6C318.121 35.4667 318.454 32.4333 319.121 29.5C319.854 26.5667 320.988 23.9667 322.521 21.7C324.054 19.3667 326.054 17.5333 328.521 16.2C330.988 14.8 333.988 14.1 337.521 14.1C339.454 14.1 341.288 14.4333 343.021 15.1C344.821 15.7 346.421 16.5667 347.821 17.7C349.221 18.8333 350.388 20.1667 351.321 21.7C352.254 23.1667 352.854 24.8 353.121 26.6ZM372.642 2.6V74H388.342V43.2H417.242V74H432.942V2.6H417.242V30H388.342V2.6H372.642ZM439.763 2.6V74H493.963V60.8H455.463V43.3H490.063V31.1H455.463V15.8H493.163V2.6H439.763ZM497.607 2.6V74H512.307V23.9H512.507L530.007 74H542.107L559.607 23.4H559.807V74H574.507V2.6H552.407L536.607 51.7H536.407L519.707 2.6H497.607ZM581.33 2.6V74H597.03V2.6H581.33ZM651.422 26.6H666.622C666.155 22.4667 665.022 18.8 663.222 15.6C661.422 12.4 659.122 9.73333 656.322 7.6C653.589 5.4 650.455 3.73333 646.922 2.6C643.455 1.46666 639.755 0.899999 635.822 0.899999C630.355 0.899999 625.422 1.86667 621.022 3.8C616.689 5.73333 613.022 8.4 610.022 11.8C607.022 15.2 604.722 19.2 603.122 23.8C601.522 28.3333 600.722 33.2667 600.722 38.6C600.722 43.8 601.522 48.6667 603.122 53.2C604.722 57.6667 607.022 61.5667 610.022 64.9C613.022 68.2333 616.689 70.8667 621.022 72.8C625.422 74.6667 630.355 75.6 635.822 75.6C640.222 75.6 644.255 74.9333 647.922 73.6C651.589 72.2667 654.789 70.3333 657.522 67.8C660.255 65.2667 662.455 62.2 664.122 58.6C665.789 55 666.822 50.9667 667.222 46.5H652.022C651.422 51.3 649.755 55.1667 647.022 58.1C644.355 61.0333 640.622 62.5 635.822 62.5C632.289 62.5 629.289 61.8333 626.822 60.5C624.355 59.1 622.355 57.2667 620.822 55C619.289 52.7333 618.155 50.2 617.422 47.4C616.755 44.5333 616.422 41.6 616.422 38.6C616.422 35.4667 616.755 32.4333 617.422 29.5C618.155 26.5667 619.289 23.9667 620.822 21.7C622.355 19.3667 624.355 17.5333 626.822 16.2C629.289 14.8 632.289 14.1 635.822 14.1C637.755 14.1 639.589 14.4333 641.322 15.1C643.122 15.7 644.722 16.5667 646.122 17.7C647.522 18.8333 648.689 20.1667 649.622 21.7C650.555 23.1667 651.155 24.8 651.422 26.6ZM688.943 46.4L698.243 20.2H698.443L707.443 46.4H688.943ZM690.443 2.6L663.443 74H679.243L684.843 58.1H711.543L716.943 74H733.243L706.543 2.6H690.443ZM732.4 2.6V74H782.9V60.8H748.1V2.6H732.4ZM805.509 2.6V74H856.009V60.8H821.209V2.6H805.509ZM875.787 46.4L885.087 20.2H885.287L894.287 46.4H875.787ZM877.287 2.6L850.287 74H866.087L871.687 58.1H898.387L903.787 74H920.087L893.387 2.6H877.287ZM934.944 31.5V14.8H949.644C951.044 14.8 952.377 14.9333 953.644 15.2C954.977 15.4 956.144 15.8 957.144 16.4C958.144 17 958.944 17.8333 959.544 18.9C960.144 19.9667 960.444 21.3333 960.444 23C960.444 26 959.544 28.1667 957.744 29.5C955.944 30.8333 953.644 31.5 950.844 31.5H934.944ZM919.244 2.6V74H953.844C957.044 74 960.144 73.6 963.144 72.8C966.21 72 968.91 70.7667 971.244 69.1C973.644 67.4333 975.544 65.3 976.944 62.7C978.344 60.0333 979.044 56.9 979.044 53.3C979.044 48.8333 977.944 45.0333 975.744 41.9C973.61 38.7 970.344 36.4667 965.944 35.2C969.144 33.6667 971.544 31.7 973.144 29.3C974.81 26.9 975.644 23.9 975.644 20.3C975.644 16.9667 975.077 14.1667 973.944 11.9C972.877 9.63333 971.344 7.83333 969.344 6.5C967.344 5.1 964.944 4.1 962.144 3.5C959.344 2.9 956.244 2.6 952.844 2.6H919.244ZM934.944 61.8V42.2H952.044C955.444 42.2 958.177 43 960.244 44.6C962.31 46.1333 963.344 48.7333 963.344 52.4C963.344 54.2667 963.01 55.8 962.344 57C961.744 58.2 960.91 59.1667 959.844 59.9C958.777 60.5667 957.544 61.0667 956.144 61.4C954.744 61.6667 953.277 61.8 951.744 61.8H934.944Z" fill="black"/>
</svg>
