<svg width="714" height="47" viewBox="0 0 714 47" fill="none" xmlns="http://www.w3.org/2000/svg">
<path d="M227.183 46.974C222.926 46.9174 218.723 45.9993 214.826 44.2746C211.211 42.2624 208.232 39.2689 206.229 35.6362C204.031 32.0752 202.911 27.9482 203.006 23.7586C202.926 19.4006 204.041 15.1046 206.229 11.341C208.49 7.83176 211.596 4.95281 215.259 2.97088C218.922 0.988951 223.023 -0.0318555 227.183 0.00317672C230.863 0.0907282 234.499 0.821554 237.929 2.1628C241.023 3.51224 243.777 5.54157 245.988 8.10159L239.541 14.5804C238.123 12.8197 236.317 11.415 234.265 10.4779C232.214 9.54073 229.973 9.09684 227.721 9.18144C225.129 9.19472 222.568 9.74609 220.199 10.8011C218.174 12.1791 216.514 14.0322 215.363 16.2C214.295 18.5753 213.743 21.152 213.743 23.7586C213.743 26.3651 214.295 28.9417 215.363 31.317C216.405 33.4226 218.103 35.1288 220.199 36.1761C222.437 37.63 225.056 38.3817 227.721 38.3357C229.956 38.3085 232.161 37.8146 234.196 36.8851C236.231 35.9557 238.051 34.6111 239.541 32.9367L245.988 38.8756C243.924 41.5908 241.127 43.6523 237.929 44.8144C234.578 46.4105 230.887 47.1523 227.183 46.974ZM294.344 1.08303V46.4341H284.135V27.5378H263.719V46.4341H252.973V1.08303H263.719V18.8995H284.135V1.08303H294.344ZM340.013 37.7958V46.4341H305.089V1.08303H339.476V9.18144H315.298V19.4394H336.252V27.5378H315.298V37.7958H340.013ZM389.443 46.4341V18.8995L376.011 41.5751H371.175L358.28 19.4394V46.4341H348.609V1.08303H357.206L373.862 29.1575L390.517 1.08303H399.114V46.4341H389.443ZM409.86 1.08303H420.605V46.4341H409.86V1.08303ZM452.842 46.974C448.405 46.9756 444.015 46.0566 439.947 44.2746C436.45 42.1085 433.506 39.1502 431.351 35.6362C429.152 32.0752 428.032 27.9482 428.127 23.7586C428.048 19.4006 429.163 15.1046 431.351 11.341C433.668 8.10779 436.587 5.35742 439.947 3.24257C443.89 1.0492 448.336 -0.0677207 452.842 0.00317672C456.515 0.150328 460.141 0.879207 463.588 2.1628C466.435 3.66422 468.984 5.67701 471.11 8.10159L464.662 14.5804C463.328 12.862 461.614 11.4795 459.655 10.5424C457.697 9.60528 455.548 9.13933 453.38 9.18144C450.783 9.14352 448.211 9.69721 445.858 10.8011C443.806 12.3181 441.994 14.1383 440.485 16.2C439.417 18.5753 438.864 21.152 438.864 23.7586C438.864 26.3651 439.417 28.9417 440.485 31.317C441.856 33.3514 443.7 35.0193 445.858 36.1761C448.066 37.6955 450.706 38.4534 453.38 38.3357C455.523 38.2358 457.625 37.7069 459.563 36.7798C461.5 35.8527 463.234 34.5461 464.662 32.9367L471.11 38.8756C469.137 41.4569 466.55 43.4989 463.588 44.8144C460.218 46.3512 456.541 47.0901 452.842 46.974ZM507.108 36.716H486.154L482.393 46.4341H471.647L491.527 1.08303H501.735L522.152 46.4341H511.406L507.108 36.716ZM503.884 28.6176L496.899 11.341L489.377 28.6176H503.884ZM526.987 1.08303H537.196V37.7958H559.762V46.4341H526.987V1.08303ZM583.939 1.08303H594.685V37.7958H617.251V46.4341H583.939V1.08303ZM653.249 36.716H632.295L627.996 46.4341H617.251L637.668 1.08303H647.876L667.755 46.4341H657.01L653.249 36.716ZM650.025 28.6176L642.503 11.341L635.518 28.6176H650.025ZM705.902 22.6788C708.261 23.4869 710.321 24.9924 711.813 26.9979C713.415 28.9649 714.186 31.4846 713.962 34.0165C714.004 35.7767 713.637 37.5225 712.891 39.1156C712.145 40.7087 711.04 42.1053 709.663 43.1947C705.607 45.5942 700.93 46.7222 696.231 46.4341H672.591V1.08303H694.62C699.141 0.870241 703.625 1.9966 707.514 4.32235C708.882 5.29693 709.989 6.59485 710.738 8.10142C711.488 9.60799 711.857 11.2769 711.813 12.9607C711.78 15.0449 711.226 17.0872 710.201 18.8995C709.031 20.433 707.57 21.7177 705.902 22.6788ZM682.799 8.64151V19.4394H693.545L699.455 18.3596C700.025 17.804 700.464 17.1285 700.743 16.3817C701.022 15.6349 701.132 14.8353 701.067 14.0405C701.09 13.3304 700.957 12.624 700.678 11.971C700.4 11.3181 699.982 10.7345 699.455 10.2612C697.712 9.09204 695.638 8.52361 693.545 8.64151H682.799ZM695.157 38.3357L701.604 37.2559C702.848 36.1483 703.618 34.601 703.753 32.9367C703.753 29.1575 700.53 26.9979 695.157 26.9979H682.799V38.3357H695.157Z" fill="black"/>
<path d="M23.0366 2.6702C19.2715 2.39682 15.5176 3.33256 12.3245 5.3404C9.14163 7.4547 6.41093 10.1774 4.29043 13.351C2.59882 16.6634 1.68315 20.3154 1.6124 24.0318C1.60182 27.8304 2.72007 31.5471 4.82603 34.7126C6.58446 37.9874 9.16899 40.7485 12.3245 42.7232C15.2562 44.4208 18.5756 45.3402 21.9654 45.3934H27.8571L32.6775 43.2572V29.9062H18.2162V27.7701H34.8199V42.1891V44.3253L28.9283 46.4614H22.501C18.5924 46.4735 14.737 45.5583 11.2533 43.7912C7.64941 41.8009 4.67975 38.8399 2.6836 35.2466C0.971221 31.562 0.058631 27.5583 0.00557032 23.4977C-0.0892122 19.3535 1.02737 15.2713 3.21919 11.7489C5.02236 8.19303 7.81065 5.22751 11.2533 3.20419C14.6535 1.16582 18.534 0.0604176 22.501 0L28.9283 1.06806L34.8199 3.20419V5.87439C33.1041 4.40473 31.0965 3.31289 28.9283 2.6702H23.0366ZM63.7426 46.9955C59.7554 47.0802 55.8354 45.9634 52.4949 43.7912C48.891 41.8009 45.9214 38.8399 43.9252 35.2466C41.8131 31.69 40.7028 27.631 40.7116 23.4977C40.7722 19.5423 41.8809 15.6732 43.9252 12.2829C45.9214 8.6896 48.891 5.72858 52.4949 3.73826C55.8616 1.62388 59.7638 0.512176 63.7426 0.533991C67.888 0.52525 71.9589 1.63229 75.5259 3.73826C78.8557 5.89896 81.6121 8.83052 83.56 12.2829C85.6043 15.6732 86.7131 19.5423 86.7737 23.4977C86.8684 27.642 85.7518 31.7241 83.56 35.2466C81.6121 38.699 78.8557 41.6305 75.5259 43.7912C71.9589 45.8972 67.888 47.0043 63.7426 46.9955ZM63.7426 45.3934C67.4699 45.3228 71.1326 44.4098 74.4547 42.7232C77.6102 40.7485 80.1948 37.9874 81.9532 34.7126C83.9011 31.5011 84.8343 27.7794 84.6312 24.0318C84.9054 20.2777 83.9669 16.5348 81.9532 13.351C80.3407 9.97457 77.7219 7.17695 74.4547 5.3404C71.2339 3.39821 67.5012 2.46778 63.7426 2.6702C60.1536 2.47427 56.5935 3.40837 53.5661 5.3404C50.2592 7.29971 47.4971 10.0537 45.532 13.351C43.7633 16.6341 42.8429 20.305 42.854 24.0318C42.9247 27.7482 43.8404 31.4002 45.532 34.7126C47.6525 37.8862 50.3832 40.6089 53.5661 42.7232C56.6911 44.4224 60.1835 45.3388 63.7426 45.3934ZM115.161 2.6702C111.402 2.46778 107.669 3.39821 104.449 5.3404C101.421 7.46503 98.8673 10.1927 96.9501 13.351C95.2143 16.6452 94.3073 20.3106 94.3073 24.0318C94.3073 27.753 95.2143 31.4184 96.9501 34.7126C99.0223 37.7508 101.551 40.4527 104.449 42.7232C107.574 44.4224 111.066 45.3388 114.625 45.3934H120.517L125.337 43.2572V29.9062H110.876V27.7701H126.944V42.1891H127.48V44.3253L121.588 46.9955H115.161C111.088 46.9426 107.073 46.0327 103.377 44.3253C100.048 42.1646 97.2913 39.2331 95.3433 35.7806C93.2312 32.2241 92.1209 28.1651 92.1297 24.0318C92.0349 19.8876 93.1515 15.8054 95.3433 12.2829C97.3395 8.6896 100.309 5.72858 103.913 3.73826C107.313 1.6999 111.194 0.594408 115.161 0.533991L121.588 1.60214L127.48 3.73826V6.40846L121.588 3.20419L115.161 2.6702ZM156.402 46.9955C152.257 47.0043 148.186 45.8972 144.619 43.7912C141.289 41.6305 138.533 38.699 136.585 35.2466C134.473 31.69 133.363 27.631 133.371 23.4977C133.432 19.5423 134.541 15.6732 136.585 12.2829C138.581 8.6896 141.551 5.72858 145.155 3.73826C148.536 1.65881 152.43 0.557541 156.402 0.557541C160.375 0.557541 164.269 1.65881 167.65 3.73826C171.254 5.72858 174.224 8.6896 176.22 12.2829C178.264 15.6732 179.373 19.5423 179.433 23.4977C179.528 27.642 178.412 31.7241 176.22 35.2466C174.224 38.8399 171.254 41.8009 167.65 43.7912C164.31 45.9634 160.39 47.0802 156.402 46.9955ZM156.402 45.3934C160.123 45.2708 163.774 44.3606 167.114 42.7232C170.142 40.5985 172.696 37.8709 174.613 34.7126C176.305 31.4002 177.22 27.7482 177.291 24.0318C177.302 20.305 176.382 16.6341 174.613 13.351C172.835 10.0903 170.254 7.33376 167.114 5.3404C163.811 3.60962 160.134 2.70532 156.402 2.70532C152.67 2.70532 148.994 3.60962 145.69 5.3404C142.55 7.33376 139.97 10.0903 138.192 13.351C136.178 16.5348 135.24 20.2777 135.514 24.0318C135.311 27.7794 136.244 31.5011 138.192 34.7126C140.109 37.8709 142.662 40.5985 145.69 42.7232C149.012 44.4098 152.675 45.3228 156.402 45.3934ZM187.467 2.13613H189.074V44.3253H203V45.9274H187.467V2.13613Z" fill="black"/>
</svg>
