<svg width="447" height="219" viewBox="0 0 447 219" fill="none" xmlns="http://www.w3.org/2000/svg">
<g id="Group 163">
<path id="chemical lab" d="M83.6175 23.0421C87.0666 23.0361 89.8693 23.8696 92.0256 25.5428C94.2009 27.2159 95.5113 30.1006 95.9567 34.1969L90.9545 34.2056C90.6463 32.3196 89.9481 30.7582 88.8597 29.5215C87.7713 28.2657 86.0266 27.6399 83.6256 27.6441C80.3479 27.6498 78.0068 29.2546 76.6023 32.4585C75.6912 34.5372 75.2384 37.101 75.2437 40.1499C75.249 43.2179 75.9014 45.7989 77.2009 47.8928C78.5004 49.9867 80.5412 51.0312 83.3234 51.0263C85.4576 51.0226 87.1429 50.3718 88.3793 49.0738C89.6347 47.7568 90.4986 45.964 90.9711 43.6955L95.9733 43.6868C95.4087 47.7467 93.9847 50.7219 91.7012 52.6124C89.4178 54.4839 86.4943 55.4228 82.9309 55.429C78.9291 55.436 75.7347 53.9837 73.3476 51.0723C70.9605 48.1419 69.7631 44.4852 69.7555 40.1023C69.7461 34.7286 71.0441 30.5435 73.6496 27.5472C76.255 24.5508 79.5777 23.0491 83.6175 23.0421ZM101.064 12.3784L106.209 12.3694L106.236 28.0334C107.453 26.4877 108.547 25.3996 109.518 24.7691C111.174 23.68 113.24 23.1333 115.718 23.129C120.158 23.1212 123.171 24.669 124.758 27.7724C125.619 29.4669 126.052 31.8195 126.057 34.8304L126.091 54.4675L120.803 54.4768L120.769 35.1826C120.765 32.934 120.477 31.2862 119.903 30.2391C118.967 28.5638 117.212 27.7284 114.639 27.7329C112.505 27.7366 110.572 28.4736 108.841 29.944C107.109 31.4143 106.247 34.1885 106.254 38.2664L106.282 54.5021L101.137 54.5111L101.064 12.3784ZM146.417 23.1326C148.589 23.1288 150.696 23.6396 152.737 24.6651C154.777 25.6715 156.333 26.9836 157.403 28.6015C158.434 30.1433 159.123 31.9428 159.47 34.0003C159.777 35.4099 159.934 37.6582 159.939 40.7453L137.501 40.7845C137.601 43.8904 138.34 46.3855 139.715 48.2696C141.09 50.1347 143.216 51.0647 146.094 51.0597C148.781 51.055 150.923 50.1652 152.521 48.3902C153.434 47.3596 154.079 46.1674 154.458 44.8138L159.518 44.805C159.386 45.9295 158.94 47.188 158.181 48.5804C157.44 49.9537 156.603 51.0795 155.671 51.9577C154.111 53.4849 152.179 54.5173 149.874 55.0549C148.636 55.3619 147.236 55.5168 145.673 55.5196C141.862 55.5262 138.629 54.1503 135.976 51.3918C133.322 48.6143 131.991 44.7291 131.982 39.7365C131.974 34.82 133.301 30.8255 135.963 27.7528C138.626 24.6802 142.11 23.1401 146.417 23.1326ZM154.644 36.667C154.431 34.4378 153.941 32.657 153.177 31.3244C151.762 28.8496 149.407 27.615 146.11 27.6208C143.747 27.6249 141.767 28.4859 140.169 30.2037C138.571 31.9025 137.727 34.0668 137.637 36.6967L154.644 36.667ZM166.255 23.7839L171.343 23.7751L171.351 28.1198C172.568 26.6123 173.671 25.5146 174.661 24.8269C176.355 23.6615 178.278 23.0769 180.432 23.0732C182.871 23.0689 184.835 23.6658 186.323 24.8637C187.163 25.5483 187.927 26.5569 188.615 27.8896C189.756 26.2488 191.097 25.0364 192.639 24.2524C194.181 23.4494 195.915 23.0462 197.839 23.0428C201.955 23.0356 204.759 24.5171 206.251 27.4872C207.054 29.0865 207.458 31.2392 207.463 33.9451L207.498 54.3255L202.153 54.3348L202.116 33.0683C202.112 31.0293 201.595 29.6296 200.565 28.8692C199.554 28.1087 198.314 27.7298 196.847 27.7323C194.827 27.7358 193.085 28.4154 191.62 29.7709C190.174 31.1264 189.454 33.3858 189.459 36.5491L189.49 54.3569L184.259 54.366L184.225 34.3858C184.221 32.3087 183.971 30.7942 183.473 29.8423C182.69 28.4145 181.231 27.7024 179.096 27.7061C177.153 27.7095 175.382 28.4653 173.784 29.9735C172.205 31.4817 171.419 34.2081 171.425 38.1527L171.454 54.3884L166.309 54.3973L166.255 23.7839ZM215.02 23.8418L220.251 23.8326L220.304 54.3031L215.073 54.3122L215.02 23.8418ZM215 12.3224L220.23 12.3133L220.241 18.1444L215.01 18.1536L215 12.3224ZM239.857 22.7694C243.306 22.7634 246.109 23.5969 248.265 25.2701C250.441 26.9432 251.751 29.8279 252.197 33.9242L247.194 33.9329C246.886 32.0469 246.188 30.4855 245.1 29.2488C244.011 27.993 242.266 27.3672 239.865 27.3714C236.588 27.3771 234.247 28.9819 232.842 32.1858C231.931 34.2645 231.478 36.8283 231.483 39.8772C231.489 42.9453 232.141 45.5262 233.441 47.6201C234.74 49.714 236.781 50.7585 239.563 50.7537C241.697 50.7499 243.383 50.0991 244.619 48.8011C245.875 47.4841 246.738 45.6913 247.211 43.4228L252.213 43.4141C251.648 47.474 250.224 50.4492 247.941 52.3397C245.658 54.2112 242.734 55.1501 239.171 55.1563C235.169 55.1633 231.975 53.7111 229.587 50.7997C227.2 47.8692 226.003 44.2125 225.995 39.8297C225.986 34.4559 227.284 30.2708 229.889 27.2745C232.495 24.2781 235.817 22.7764 239.857 22.7694ZM261.307 46.0851C261.31 47.5715 261.855 48.7425 262.943 49.5981C264.031 50.4537 265.318 50.8802 266.804 50.8776C268.614 50.8745 270.367 50.4522 272.061 49.6107C274.917 48.2147 276.342 45.935 276.337 42.7717L276.33 38.627C275.701 39.0283 274.892 39.3632 273.902 39.6317C272.911 39.9002 271.94 40.0925 270.987 40.2085L267.872 40.6141C266.005 40.8651 264.605 41.2582 263.672 41.7934C262.092 42.6918 261.304 44.1223 261.307 46.0851ZM273.752 35.6588C274.933 35.5043 275.723 35.0074 276.122 34.1683C276.35 33.7105 276.463 33.0529 276.461 32.1954C276.458 30.4422 275.827 29.1761 274.568 28.397C273.328 27.5988 271.546 27.2018 269.221 27.2058C266.534 27.2105 264.63 27.938 263.508 29.3882C262.88 30.1896 262.473 31.3813 262.285 32.9633L257.483 32.9717C257.572 29.1985 258.787 26.5761 261.128 25.1047C263.488 23.6142 266.222 22.8663 269.328 22.8609C272.929 22.8546 275.855 23.5355 278.106 24.9036C280.338 26.2717 281.457 28.4041 281.462 31.3006L281.493 48.9369C281.494 49.4704 281.599 49.899 281.809 50.2226C282.039 50.5461 282.506 50.7073 283.211 50.7061C283.44 50.7057 283.697 50.6957 283.983 50.6761C284.268 50.6375 284.573 50.5893 284.897 50.5316L284.904 54.3333C284.104 54.5633 283.494 54.7073 283.075 54.7652C282.656 54.8231 282.084 54.8527 281.36 54.854C279.588 54.8571 278.301 54.2305 277.498 52.9742C277.078 52.3079 276.781 51.3652 276.607 50.1459C275.561 51.5198 274.058 52.7134 272.097 53.7268C270.136 54.7402 267.974 55.2489 265.611 55.2531C262.772 55.258 260.445 54.4046 258.632 52.6927C256.838 50.9617 255.938 48.8004 255.934 46.2088C255.929 43.3695 256.811 41.167 258.581 39.6013C260.35 38.0356 262.673 37.0692 265.55 36.7021L273.752 35.6588ZM290.032 12.1915L295.178 12.1825L295.251 54.1723L290.106 54.1813L290.032 12.1915ZM319.36 12.1403L324.505 12.1313L324.578 54.1211L319.433 54.1301L319.36 12.1403ZM336.255 45.9543C336.257 47.4407 336.802 48.6116 337.89 49.4673C338.978 50.3229 340.265 50.7494 341.751 50.7468C343.561 50.7437 345.314 50.3214 347.008 49.4799C349.864 48.0839 351.29 45.8042 351.284 42.6409L351.277 38.4962C350.649 38.8975 349.839 39.2324 348.849 39.5009C347.858 39.7694 346.887 39.9617 345.934 40.0777L342.819 40.4833C340.952 40.7343 339.552 41.1274 338.62 41.6626C337.039 42.5609 336.251 43.9915 336.255 45.9543ZM348.699 35.528C349.88 35.3735 350.67 34.8766 351.069 34.0375C351.297 33.5797 351.41 32.9221 351.408 32.0646C351.405 30.3114 350.774 29.0453 349.515 28.2662C348.275 27.468 346.493 27.071 344.168 27.075C341.481 27.0797 339.577 27.8072 338.455 29.2574C337.828 30.0588 337.42 31.2505 337.232 32.8325L332.43 32.8409C332.519 29.0676 333.734 26.4453 336.075 24.9739C338.435 23.4834 341.169 22.7355 344.275 22.7301C347.876 22.7238 350.803 23.4047 353.054 24.7728C355.286 26.1409 356.404 28.2732 356.409 31.1698L356.44 48.806C356.441 49.3396 356.546 49.7682 356.757 50.0918C356.986 50.4153 357.453 50.5765 358.158 50.5753C358.387 50.5749 358.644 50.5649 358.93 50.5453C359.215 50.5067 359.52 50.4585 359.844 50.4008L359.851 54.2025C359.051 54.4325 358.441 54.5765 358.022 54.6344C357.603 54.6923 357.031 54.7219 356.307 54.7232C354.535 54.7263 353.248 54.0997 352.445 52.8434C352.025 52.1771 351.728 51.2344 351.554 50.0151C350.508 51.389 349.005 52.5826 347.044 53.596C345.083 54.6094 342.921 55.1181 340.558 55.1222C337.719 55.1272 335.393 54.2737 333.579 52.5619C331.785 50.8309 330.886 48.6696 330.881 46.078C330.876 43.2387 331.758 41.0362 333.528 39.4705C335.297 37.9048 337.62 36.9384 340.497 36.5713L348.699 35.528ZM364.436 11.9187L369.438 11.91L369.465 27.1452C370.587 25.6759 371.928 24.5588 373.489 23.7938C375.051 23.0098 376.746 22.6162 378.575 22.613C382.387 22.6064 385.476 23.9158 387.843 26.5414C390.23 29.148 391.428 33.0047 391.437 38.1117C391.445 42.9519 390.28 46.9748 387.942 50.1803C385.604 53.3858 382.357 54.9921 378.203 54.9994C375.878 55.0034 373.915 54.4447 372.312 53.3232C371.358 52.6579 370.337 51.5926 369.248 50.1271L369.255 54.0431L364.51 54.0514L364.436 11.9187ZM377.881 50.4551C380.663 50.4502 382.738 49.3414 384.106 47.1285C385.493 44.9155 386.184 41.9988 386.178 38.3781C386.172 35.1577 385.472 32.4911 384.077 30.3783C382.701 28.2655 380.67 27.2114 377.983 27.2161C375.639 27.2202 373.583 28.0908 371.814 29.828C370.063 31.5652 369.192 34.4251 369.199 38.4078C369.204 41.2852 369.57 43.6189 370.297 45.4089C371.656 48.7795 374.184 50.4615 377.881 50.4551Z" fill="black"/>
<path id="&#196;&#161;ogo&#197;&#128;" d="M43.8555 85.2269C51.0591 85.2144 57.351 86.9757 62.7313 90.5109C65.6505 92.5068 68.6285 95.4174 71.6652 99.2425L71.645 87.6654L85.8806 87.6405L86.0264 171.168C86.0468 182.83 84.3477 192.038 80.9292 198.79C74.5478 211.265 62.467 217.517 44.6868 217.548C34.7962 217.566 26.4739 215.351 19.7199 210.903C12.966 206.513 9.18064 199.601 8.36378 190.17L24.0573 190.142C24.8077 194.257 26.2997 197.428 28.5332 199.653C32.0266 203.078 37.5181 204.783 45.0075 204.77C56.8419 204.749 64.5813 200.562 68.2257 192.209C70.3896 187.289 71.3748 178.511 71.1812 165.877C68.1022 170.57 64.3921 174.064 60.0511 176.358C55.7101 178.653 49.9664 179.806 42.82 179.819C32.8722 179.836 24.1475 176.335 16.6458 169.316C9.20119 162.24 5.46466 150.555 5.43622 134.261C5.40938 118.882 9.13314 106.87 16.6075 98.2238C24.139 89.5778 33.2217 85.2455 43.8555 85.2269ZM71.723 132.345C71.7032 120.968 69.3444 112.539 64.6468 107.059C59.9492 101.578 53.97 98.8446 46.7093 98.8573C35.8468 98.8763 28.4234 103.977 24.4392 114.161C22.3333 119.596 21.2881 126.716 21.3035 135.52C21.3215 145.868 23.422 153.754 27.605 159.178C31.8451 164.544 37.5097 167.222 44.5989 167.209C55.6901 167.19 63.4852 162.174 67.9843 152.161C70.4899 146.497 71.7362 139.891 71.723 132.345ZM35.5655 52.3965L51.6021 52.3685L51.6332 70.2059L35.5967 70.2339L35.5655 52.3965ZM145.795 168.576C156.028 168.558 163.025 164.687 166.785 156.962C170.602 149.181 172.502 140.544 172.485 131.054C172.47 122.478 171.086 115.506 168.332 110.136C163.973 101.683 156.476 97.4651 145.842 97.4837C136.409 97.5002 129.554 101.114 125.279 108.325C121.004 115.536 118.875 124.23 118.893 134.406C118.91 144.182 121.068 152.326 125.367 158.836C129.667 165.346 136.476 168.593 145.795 168.576ZM146.247 84.0191C158.082 83.9985 168.093 87.9258 176.283 95.8012C184.472 103.677 188.58 115.275 188.607 130.597C188.633 145.404 185.052 157.645 177.865 167.32C170.679 176.994 159.51 181.845 144.36 181.871C131.725 181.893 121.684 177.651 114.237 169.146C106.79 160.583 103.054 149.098 103.028 134.691C103.001 119.255 106.896 106.956 114.713 97.7953C122.529 88.6342 133.041 84.0422 146.247 84.0191ZM239.381 84.8857C246.584 84.8731 252.876 86.6344 258.257 90.1697C261.176 92.1656 264.154 95.0761 267.191 98.9013L267.17 87.3241L281.406 87.2993L281.552 170.826C281.572 182.489 279.873 191.697 276.455 198.449C270.073 210.923 257.992 217.176 240.212 217.207C230.321 217.224 221.999 215.009 215.245 210.562C208.491 206.171 204.706 199.26 203.889 189.828L219.583 189.801C220.333 193.916 221.825 197.086 224.059 199.312C227.552 202.736 233.043 204.442 240.533 204.429C252.367 204.408 260.107 200.221 263.751 191.868C265.915 186.947 266.9 178.17 266.707 165.535C263.627 170.229 259.917 173.723 255.576 176.017C251.235 178.311 245.492 179.465 238.345 179.477C228.398 179.495 219.673 175.994 212.171 168.975C204.726 161.899 200.99 150.214 200.962 133.92C200.935 118.541 204.658 106.528 212.133 97.8825C219.664 89.2365 228.747 84.9042 239.381 84.8857ZM267.248 132.003C267.228 120.626 264.87 112.198 260.172 106.717C255.474 101.237 249.495 98.5034 242.235 98.516C231.372 98.535 223.949 103.636 219.964 113.82C217.859 119.255 216.813 126.374 216.829 135.179C216.847 145.527 218.947 153.413 223.13 158.837C227.37 164.203 233.035 166.88 240.124 166.868C251.215 166.849 259.011 161.833 263.51 151.82C266.015 146.155 267.261 139.55 267.248 132.003ZM341.32 168.235C351.553 168.217 358.55 164.346 362.31 156.621C366.127 148.839 368.027 140.203 368.01 130.713C367.996 122.137 366.611 115.165 363.858 109.795C359.498 101.341 352.001 97.1239 341.367 97.1424C331.934 97.1589 325.08 100.773 320.804 107.984C316.529 115.195 314.4 123.888 314.418 134.065C314.435 143.841 316.593 151.984 320.893 158.494C325.192 165.004 332.001 168.251 341.32 168.235ZM341.773 83.6779C353.607 83.6572 363.619 87.5846 371.808 95.4599C379.997 103.335 384.105 114.934 384.132 130.256C384.158 145.063 380.577 157.304 373.391 166.978C366.204 176.653 355.035 181.503 339.885 181.53C327.25 181.552 317.209 177.31 309.762 168.805C302.315 160.242 298.579 148.757 298.554 134.35C298.527 118.914 302.422 106.615 310.238 97.454C318.054 88.293 328.566 83.7009 341.773 83.6779ZM402.862 52.0985L418.298 52.0715L418.518 178.048L403.082 178.075L402.862 52.0985ZM429.186 99.1331L445.222 99.1051L445.253 116.942L429.217 116.97L429.186 99.1331Z" fill="black"/>
</g>
</svg>
