<svg width="245" height="245" viewBox="0 0 245 245" fill="none" xmlns="http://www.w3.org/2000/svg">
<g id="Group 150">
<rect id="Rectangle 121" width="245" height="245" rx="20" fill="#8C8C8C"/>
<g id="Group 100">
<path id="O" d="M110.054 113.18C108.482 113.18 107.264 112.772 106.4 111.956C105.548 111.128 105.098 109.886 105.05 108.23C105.038 107.87 105.032 107.36 105.032 106.7C105.032 106.04 105.038 105.536 105.05 105.188C105.098 103.568 105.566 102.338 106.454 101.498C107.342 100.646 108.542 100.22 110.054 100.22C111.554 100.22 112.748 100.646 113.636 101.498C114.524 102.338 114.992 103.568 115.04 105.188C115.064 105.884 115.076 106.388 115.076 106.7C115.076 107 115.064 107.51 115.04 108.23C114.992 109.886 114.536 111.128 113.672 111.956C112.82 112.772 111.614 113.18 110.054 113.18ZM110.054 111.65C111.002 111.65 111.758 111.362 112.322 110.786C112.886 110.21 113.192 109.328 113.24 108.14C113.264 107.42 113.276 106.94 113.276 106.7C113.276 106.436 113.264 105.956 113.24 105.26C113.192 104.072 112.88 103.19 112.304 102.614C111.74 102.038 110.99 101.75 110.054 101.75C109.106 101.75 108.344 102.038 107.768 102.614C107.204 103.19 106.898 104.072 106.85 105.26C106.838 105.608 106.832 106.088 106.832 106.7C106.832 107.3 106.838 107.78 106.85 108.14C106.898 109.328 107.204 110.21 107.768 110.786C108.344 111.362 109.106 111.65 110.054 111.65Z" fill="white"/>
<path id="OH" d="M176.849 58.18C175.277 58.18 174.059 57.772 173.195 56.956C172.343 56.128 171.893 54.886 171.845 53.23C171.833 52.87 171.827 52.36 171.827 51.7C171.827 51.04 171.833 50.536 171.845 50.188C171.893 48.568 172.361 47.338 173.249 46.498C174.137 45.646 175.337 45.22 176.849 45.22C178.349 45.22 179.543 45.646 180.431 46.498C181.319 47.338 181.787 48.568 181.835 50.188C181.859 50.884 181.871 51.388 181.871 51.7C181.871 52 181.859 52.51 181.835 53.23C181.787 54.886 181.331 56.128 180.467 56.956C179.615 57.772 178.409 58.18 176.849 58.18ZM176.849 56.65C177.797 56.65 178.553 56.362 179.117 55.786C179.681 55.21 179.987 54.328 180.035 53.14C180.059 52.42 180.071 51.94 180.071 51.7C180.071 51.436 180.059 50.956 180.035 50.26C179.987 49.072 179.675 48.19 179.099 47.614C178.535 47.038 177.785 46.75 176.849 46.75C175.901 46.75 175.139 47.038 174.563 47.614C173.999 48.19 173.693 49.072 173.645 50.26C173.633 50.608 173.627 51.088 173.627 51.7C173.627 52.3 173.633 52.78 173.645 53.14C173.693 54.328 173.999 55.21 174.563 55.786C175.139 56.362 175.901 56.65 176.849 56.65ZM184.909 58C184.789 58 184.687 57.964 184.603 57.892C184.531 57.808 184.495 57.706 184.495 57.586V45.832C184.495 45.7 184.531 45.598 184.603 45.526C184.687 45.442 184.789 45.4 184.909 45.4H185.827C185.959 45.4 186.061 45.442 186.133 45.526C186.217 45.598 186.259 45.7 186.259 45.832V50.8H192.451V45.832C192.451 45.7 192.487 45.598 192.559 45.526C192.643 45.442 192.745 45.4 192.865 45.4H193.783C193.915 45.4 194.017 45.442 194.089 45.526C194.173 45.598 194.215 45.7 194.215 45.832V57.586C194.215 57.706 194.173 57.808 194.089 57.892C194.005 57.964 193.903 58 193.783 58H192.865C192.745 58 192.643 57.964 192.559 57.892C192.487 57.808 192.451 57.706 192.451 57.586V52.42H186.259V57.586C186.259 57.706 186.217 57.808 186.133 57.892C186.049 57.964 185.947 58 185.827 58H184.909Z" fill="white"/>
<path id="OH_2" d="M187.054 131.18C185.482 131.18 184.264 130.772 183.4 129.956C182.548 129.128 182.098 127.886 182.05 126.23C182.038 125.87 182.032 125.36 182.032 124.7C182.032 124.04 182.038 123.536 182.05 123.188C182.098 121.568 182.566 120.338 183.454 119.498C184.342 118.646 185.542 118.22 187.054 118.22C188.554 118.22 189.748 118.646 190.636 119.498C191.524 120.338 191.992 121.568 192.04 123.188C192.064 123.884 192.076 124.388 192.076 124.7C192.076 125 192.064 125.51 192.04 126.23C191.992 127.886 191.536 129.128 190.672 129.956C189.82 130.772 188.614 131.18 187.054 131.18ZM187.054 129.65C188.002 129.65 188.758 129.362 189.322 128.786C189.886 128.21 190.192 127.328 190.24 126.14C190.264 125.42 190.276 124.94 190.276 124.7C190.276 124.436 190.264 123.956 190.24 123.26C190.192 122.072 189.88 121.19 189.304 120.614C188.74 120.038 187.99 119.75 187.054 119.75C186.106 119.75 185.344 120.038 184.768 120.614C184.204 121.19 183.898 122.072 183.85 123.26C183.838 123.608 183.832 124.088 183.832 124.7C183.832 125.3 183.838 125.78 183.85 126.14C183.898 127.328 184.204 128.21 184.768 128.786C185.344 129.362 186.106 129.65 187.054 129.65ZM195.114 131C194.994 131 194.892 130.964 194.808 130.892C194.736 130.808 194.7 130.706 194.7 130.586V118.832C194.7 118.7 194.736 118.598 194.808 118.526C194.892 118.442 194.994 118.4 195.114 118.4H196.032C196.164 118.4 196.266 118.442 196.338 118.526C196.422 118.598 196.464 118.7 196.464 118.832V123.8H202.656V118.832C202.656 118.7 202.692 118.598 202.764 118.526C202.848 118.442 202.95 118.4 203.07 118.4H203.988C204.12 118.4 204.222 118.442 204.294 118.526C204.378 118.598 204.42 118.7 204.42 118.832V130.586C204.42 130.706 204.378 130.808 204.294 130.892C204.21 130.964 204.108 131 203.988 131H203.07C202.95 131 202.848 130.964 202.764 130.892C202.692 130.808 202.656 130.706 202.656 130.586V125.42H196.464V130.586C196.464 130.706 196.422 130.808 196.338 130.892C196.254 130.964 196.152 131 196.032 131H195.114Z" fill="white"/>
<path id="OH_3" d="M140.102 196.18C138.53 196.18 137.312 195.772 136.448 194.956C135.596 194.128 135.146 192.886 135.098 191.23C135.086 190.87 135.08 190.36 135.08 189.7C135.08 189.04 135.086 188.536 135.098 188.188C135.146 186.568 135.614 185.338 136.502 184.498C137.39 183.646 138.59 183.22 140.102 183.22C141.602 183.22 142.796 183.646 143.684 184.498C144.572 185.338 145.04 186.568 145.088 188.188C145.112 188.884 145.124 189.388 145.124 189.7C145.124 190 145.112 190.51 145.088 191.23C145.04 192.886 144.584 194.128 143.72 194.956C142.868 195.772 141.662 196.18 140.102 196.18ZM140.102 194.65C141.05 194.65 141.806 194.362 142.37 193.786C142.934 193.21 143.24 192.328 143.288 191.14C143.312 190.42 143.324 189.94 143.324 189.7C143.324 189.436 143.312 188.956 143.288 188.26C143.24 187.072 142.928 186.19 142.352 185.614C141.788 185.038 141.038 184.75 140.102 184.75C139.154 184.75 138.392 185.038 137.816 185.614C137.252 186.19 136.946 187.072 136.898 188.26C136.886 188.608 136.88 189.088 136.88 189.7C136.88 190.3 136.886 190.78 136.898 191.14C136.946 192.328 137.252 193.21 137.816 193.786C138.392 194.362 139.154 194.65 140.102 194.65ZM148.162 196C148.042 196 147.94 195.964 147.856 195.892C147.784 195.808 147.748 195.706 147.748 195.586V183.832C147.748 183.7 147.784 183.598 147.856 183.526C147.94 183.442 148.042 183.4 148.162 183.4H149.08C149.212 183.4 149.314 183.442 149.386 183.526C149.47 183.598 149.512 183.7 149.512 183.832V188.8H155.704V183.832C155.704 183.7 155.74 183.598 155.812 183.526C155.896 183.442 155.998 183.4 156.118 183.4H157.036C157.168 183.4 157.27 183.442 157.342 183.526C157.426 183.598 157.468 183.7 157.468 183.832V195.586C157.468 195.706 157.426 195.808 157.342 195.892C157.258 195.964 157.156 196 157.036 196H156.118C155.998 196 155.896 195.964 155.812 195.892C155.74 195.808 155.704 195.706 155.704 195.586V190.42H149.512V195.586C149.512 195.706 149.47 195.808 149.386 195.892C149.302 195.964 149.2 196 149.08 196H148.162Z" fill="white"/>
<path id="O_2" d="M58.102 125.18C56.53 125.18 55.312 124.772 54.448 123.956C53.596 123.128 53.146 121.886 53.098 120.23C53.086 119.87 53.08 119.36 53.08 118.7C53.08 118.04 53.086 117.536 53.098 117.188C53.146 115.568 53.614 114.338 54.502 113.498C55.39 112.646 56.59 112.22 58.102 112.22C59.602 112.22 60.796 112.646 61.684 113.498C62.572 114.338 63.04 115.568 63.088 117.188C63.112 117.884 63.124 118.388 63.124 118.7C63.124 119 63.112 119.51 63.088 120.23C63.04 121.886 62.584 123.128 61.72 123.956C60.868 124.772 59.662 125.18 58.102 125.18ZM58.102 123.65C59.05 123.65 59.806 123.362 60.37 122.786C60.934 122.21 61.24 121.328 61.288 120.14C61.312 119.42 61.324 118.94 61.324 118.7C61.324 118.436 61.312 117.956 61.288 117.26C61.24 116.072 60.928 115.19 60.352 114.614C59.788 114.038 59.038 113.75 58.102 113.75C57.154 113.75 56.392 114.038 55.816 114.614C55.252 115.19 54.946 116.072 54.898 117.26C54.886 117.608 54.88 118.088 54.88 118.7C54.88 119.3 54.886 119.78 54.898 120.14C54.946 121.328 55.252 122.21 55.816 122.786C56.392 123.362 57.154 123.65 58.102 123.65Z" fill="white"/>
<g id="Group">
<path id="Vector" d="M65.916 102.38L73.4929 77.9524L110.261 59.7986L148.822 77.0514L157.786 117.33L131.402 150.968H91.4203L72.9855 132.447" stroke="white" stroke-miterlimit="10"/>
<path id="Vector_2" d="M109.833 60L105.808 92.5701L116.97 92.2697L109.833 60Z" fill="white"/>
<path id="Vector_3" d="M131.783 151L136.383 174.693L144.062 171.29L131.783 151Z" fill="white"/>
<path id="Vector_4" d="M149.409 76.1538L170.55 64.0068L164.732 58L149.409 76.1538Z" fill="white"/>
<path id="Vector_5" d="M90.9639 151.934L111.293 128.34L101.213 122L90.9639 151.934Z" fill="white"/>
<g id="Group_2">
<path id="Vector_6" d="M165.665 121.27L166.545 118.033H165.631L164.854 120.836L165.665 121.27Z" fill="white"/>
<path id="Vector_7" d="M169.829 123.439L171.317 118.033H170.167L168.848 122.939L169.829 123.439Z" fill="white"/>
<path id="Vector_8" d="M176.324 126.877L178.759 118H177.677L175.377 126.376L176.324 126.877Z" fill="white"/>
<path id="Vector_9" d="M172.028 124.607L173.821 118H172.671L171.014 124.074L172.028 124.607Z" fill="white"/>
<path id="Vector_10" d="M174.192 125.775L176.323 118H175.173L173.211 125.242L174.192 125.775Z" fill="white"/>
<path id="Vector_11" d="M167.631 122.305L168.814 118.033H167.901L166.853 121.871L167.631 122.305Z" fill="white"/>
<path id="Vector_12" d="M159.614 118.031L161.711 119.165L162.016 118.031H159.614Z" fill="white"/>
<path id="Vector_13" d="M162.893 119.802L163.671 120.202L164.279 118.033H163.366L162.893 119.802Z" fill="white"/>
</g>
</g>
</g>
<path id="levoglucosan" d="M58.68 233C58.5467 233 58.4267 232.953 58.32 232.86C58.2267 232.753 58.18 232.633 58.18 232.5V219.3C58.18 219.153 58.2267 219.033 58.32 218.94C58.4267 218.847 58.5467 218.8 58.68 218.8H61.04C61.1867 218.8 61.3067 218.847 61.4 218.94C61.4933 219.033 61.54 219.153 61.54 219.3V232.5C61.54 232.647 61.4933 232.767 61.4 232.86C61.3067 232.953 61.1867 233 61.04 233H58.68ZM68.7027 233.2C67.1027 233.2 65.8427 232.767 64.9227 231.9C64.0027 231.033 63.5227 229.773 63.4827 228.12V227.42C63.536 225.847 64.0227 224.62 64.9427 223.74C65.876 222.847 67.1227 222.4 68.6827 222.4C69.816 222.4 70.7693 222.633 71.5427 223.1C72.3293 223.553 72.916 224.18 73.3027 224.98C73.7027 225.78 73.9027 226.7 73.9027 227.74V228.22C73.9027 228.353 73.856 228.473 73.7627 228.58C73.6693 228.673 73.5493 228.72 73.4027 228.72H67.0027V228.86C67.0293 229.487 67.1827 229.993 67.4627 230.38C67.7427 230.767 68.1493 230.96 68.6827 230.96C69.016 230.96 69.2893 230.893 69.5027 230.76C69.716 230.613 69.9093 230.44 70.0827 230.24C70.2027 230.093 70.296 230.007 70.3627 229.98C70.4427 229.94 70.5627 229.92 70.7227 229.92H73.2027C73.3227 229.92 73.4227 229.96 73.5027 230.04C73.596 230.107 73.6427 230.2 73.6427 230.32C73.6427 230.667 73.4427 231.067 73.0427 231.52C72.656 231.973 72.0893 232.367 71.3427 232.7C70.596 233.033 69.716 233.2 68.7027 233.2ZM70.3827 226.74V226.7C70.3827 226.047 70.2293 225.533 69.9227 225.16C69.6293 224.773 69.216 224.58 68.6827 224.58C68.1627 224.58 67.7493 224.773 67.4427 225.16C67.1493 225.533 67.0027 226.047 67.0027 226.7V226.74H70.3827ZM79.087 233C78.9004 233 78.7537 232.96 78.647 232.88C78.5537 232.787 78.4737 232.66 78.407 232.5L74.627 223.22L74.587 223.04C74.587 222.92 74.627 222.82 74.707 222.74C74.8004 222.647 74.9137 222.6 75.047 222.6H77.307C77.6004 222.6 77.7937 222.74 77.887 223.02L80.147 229.16L82.427 223.02C82.5204 222.74 82.7137 222.6 83.007 222.6H85.267C85.387 222.6 85.4937 222.647 85.587 222.74C85.6804 222.82 85.727 222.92 85.727 223.04L85.687 223.22L81.907 232.5C81.8404 232.66 81.7537 232.787 81.647 232.88C81.5404 232.96 81.3937 233 81.207 233H79.087ZM91.8109 233.2C90.1576 233.2 88.8843 232.807 87.9909 232.02C87.0976 231.233 86.6109 230.127 86.5309 228.7C86.5176 228.527 86.5109 228.227 86.5109 227.8C86.5109 227.373 86.5176 227.073 86.5309 226.9C86.6109 225.487 87.1109 224.387 88.0309 223.6C88.9509 222.8 90.2109 222.4 91.8109 222.4C93.4243 222.4 94.6909 222.8 95.6109 223.6C96.5309 224.387 97.0309 225.487 97.1109 226.9C97.1243 227.073 97.1309 227.373 97.1309 227.8C97.1309 228.227 97.1243 228.527 97.1109 228.7C97.0309 230.127 96.5443 231.233 95.6509 232.02C94.7576 232.807 93.4776 233.2 91.8109 233.2ZM91.8109 230.76C92.3976 230.76 92.8309 230.587 93.1109 230.24C93.3909 229.88 93.5509 229.333 93.5909 228.6C93.6043 228.467 93.6109 228.2 93.6109 227.8C93.6109 227.4 93.6043 227.133 93.5909 227C93.5509 226.28 93.3843 225.74 93.0909 225.38C92.8109 225.02 92.3843 224.84 91.8109 224.84C90.7043 224.84 90.1176 225.56 90.0509 227L90.0309 227.8L90.0509 228.6C90.0776 229.333 90.2309 229.88 90.5109 230.24C90.8043 230.587 91.2376 230.76 91.8109 230.76ZM104.218 237.4C102.951 237.4 101.924 237.193 101.138 236.78C100.351 236.367 99.7842 235.893 99.4375 235.36C99.1042 234.827 98.9375 234.38 98.9375 234.02C98.9375 233.9 98.9908 233.793 99.0975 233.7C99.2042 233.607 99.3242 233.56 99.4575 233.56H101.998C102.131 233.56 102.231 233.587 102.298 233.64C102.378 233.707 102.451 233.813 102.518 233.96C102.651 234.267 102.831 234.507 103.058 234.68C103.284 234.867 103.638 234.96 104.118 234.96C104.731 234.96 105.184 234.807 105.478 234.5C105.771 234.207 105.918 233.707 105.918 233V231.66C105.238 232.407 104.264 232.78 102.998 232.78C101.651 232.78 100.618 232.387 99.8975 231.6C99.1908 230.8 98.8042 229.647 98.7375 228.14L98.7175 227.6C98.7175 225.987 99.0775 224.72 99.7975 223.8C100.518 222.867 101.584 222.4 102.998 222.4C103.678 222.4 104.278 222.533 104.798 222.8C105.318 223.053 105.758 223.4 106.118 223.84V223.1C106.118 222.953 106.164 222.833 106.258 222.74C106.364 222.647 106.484 222.6 106.618 222.6H108.918C109.064 222.6 109.184 222.653 109.278 222.76C109.384 222.853 109.438 222.967 109.438 223.1V232.72C109.438 234.24 108.984 235.4 108.078 236.2C107.171 237 105.884 237.4 104.218 237.4ZM104.078 230.18C104.678 230.18 105.124 230 105.418 229.64C105.711 229.267 105.878 228.8 105.918 228.24C105.931 228.147 105.938 227.94 105.938 227.62C105.938 227.313 105.931 227.113 105.918 227.02C105.891 226.46 105.724 226 105.418 225.64C105.124 225.267 104.678 225.08 104.078 225.08C103.451 225.08 102.998 225.267 102.718 225.64C102.438 226.013 102.284 226.527 102.258 227.18L102.238 227.62C102.238 228.407 102.371 229.033 102.638 229.5C102.904 229.953 103.384 230.18 104.078 230.18ZM112.293 233C112.16 233 112.04 232.953 111.933 232.86C111.84 232.753 111.793 232.633 111.793 232.5V219.3C111.793 219.153 111.84 219.033 111.933 218.94C112.04 218.847 112.16 218.8 112.293 218.8H114.653C114.8 218.8 114.92 218.847 115.013 218.94C115.107 219.033 115.153 219.153 115.153 219.3V232.5C115.153 232.647 115.107 232.767 115.013 232.86C114.92 232.953 114.8 233 114.653 233H112.293ZM121.336 233.2C120.163 233.2 119.216 232.807 118.496 232.02C117.776 231.22 117.416 230.107 117.416 228.68V223.1C117.416 222.953 117.463 222.833 117.556 222.74C117.649 222.647 117.769 222.6 117.916 222.6H120.416C120.563 222.6 120.683 222.647 120.776 222.74C120.883 222.833 120.936 222.953 120.936 223.1V228.56C120.936 229.867 121.516 230.52 122.676 230.52C123.236 230.52 123.676 230.347 123.996 230C124.316 229.653 124.476 229.173 124.476 228.56V223.1C124.476 222.953 124.523 222.833 124.616 222.74C124.723 222.647 124.843 222.6 124.976 222.6H127.476C127.623 222.6 127.743 222.647 127.836 222.74C127.929 222.833 127.976 222.953 127.976 223.1V232.5C127.976 232.633 127.929 232.753 127.836 232.86C127.743 232.953 127.623 233 127.476 233H125.156C125.023 233 124.903 232.953 124.796 232.86C124.703 232.753 124.656 232.633 124.656 232.5V231.74C123.963 232.713 122.856 233.2 121.336 233.2ZM135.108 233.2C133.602 233.2 132.382 232.8 131.448 232C130.515 231.187 130.015 230.06 129.948 228.62L129.928 227.82L129.948 227C130.002 225.56 130.495 224.433 131.428 223.62C132.375 222.807 133.602 222.4 135.108 222.4C136.242 222.4 137.195 222.607 137.968 223.02C138.755 223.42 139.335 223.907 139.708 224.48C140.095 225.04 140.302 225.553 140.328 226.02C140.342 226.153 140.295 226.273 140.188 226.38C140.095 226.473 139.975 226.52 139.828 226.52H137.288C137.142 226.52 137.028 226.487 136.948 226.42C136.868 226.353 136.795 226.253 136.728 226.12C136.568 225.707 136.362 225.413 136.108 225.24C135.868 225.067 135.555 224.98 135.168 224.98C134.075 224.98 133.508 225.687 133.468 227.1L133.448 227.86L133.468 228.52C133.495 229.24 133.648 229.773 133.928 230.12C134.222 230.453 134.635 230.62 135.168 230.62C135.582 230.62 135.908 230.533 136.148 230.36C136.388 230.187 136.582 229.893 136.728 229.48C136.795 229.347 136.868 229.247 136.948 229.18C137.028 229.113 137.142 229.08 137.288 229.08H139.828C139.962 229.08 140.075 229.127 140.168 229.22C140.275 229.3 140.328 229.407 140.328 229.54C140.328 229.967 140.142 230.467 139.768 231.04C139.408 231.613 138.835 232.12 138.048 232.56C137.262 232.987 136.282 233.2 135.108 233.2ZM147.045 233.2C145.392 233.2 144.119 232.807 143.225 232.02C142.332 231.233 141.845 230.127 141.765 228.7C141.752 228.527 141.745 228.227 141.745 227.8C141.745 227.373 141.752 227.073 141.765 226.9C141.845 225.487 142.345 224.387 143.265 223.6C144.185 222.8 145.445 222.4 147.045 222.4C148.659 222.4 149.925 222.8 150.845 223.6C151.765 224.387 152.265 225.487 152.345 226.9C152.359 227.073 152.365 227.373 152.365 227.8C152.365 228.227 152.359 228.527 152.345 228.7C152.265 230.127 151.779 231.233 150.885 232.02C149.992 232.807 148.712 233.2 147.045 233.2ZM147.045 230.76C147.632 230.76 148.065 230.587 148.345 230.24C148.625 229.88 148.785 229.333 148.825 228.6C148.839 228.467 148.845 228.2 148.845 227.8C148.845 227.4 148.839 227.133 148.825 227C148.785 226.28 148.619 225.74 148.325 225.38C148.045 225.02 147.619 224.84 147.045 224.84C145.939 224.84 145.352 225.56 145.285 227L145.265 227.8L145.285 228.6C145.312 229.333 145.465 229.88 145.745 230.24C146.039 230.587 146.472 230.76 147.045 230.76ZM158.632 233.2C157.552 233.2 156.645 233.047 155.912 232.74C155.192 232.433 154.659 232.067 154.312 231.64C153.965 231.213 153.792 230.833 153.792 230.5C153.792 230.367 153.839 230.26 153.932 230.18C154.039 230.087 154.152 230.04 154.272 230.04H156.552C156.632 230.04 156.705 230.073 156.772 230.14C156.932 230.247 157.052 230.333 157.132 230.4C157.425 230.613 157.679 230.773 157.892 230.88C158.119 230.973 158.392 231.02 158.712 231.02C159.099 231.02 159.412 230.947 159.652 230.8C159.905 230.64 160.032 230.42 160.032 230.14C160.032 229.913 159.965 229.733 159.832 229.6C159.712 229.467 159.472 229.34 159.112 229.22C158.752 229.087 158.205 228.947 157.472 228.8C156.365 228.573 155.512 228.207 154.912 227.7C154.325 227.18 154.032 226.487 154.032 225.62C154.032 225.073 154.205 224.553 154.552 224.06C154.899 223.567 155.412 223.167 156.092 222.86C156.785 222.553 157.605 222.4 158.552 222.4C159.499 222.4 160.325 222.547 161.032 222.84C161.739 223.133 162.272 223.493 162.632 223.92C163.005 224.333 163.192 224.713 163.192 225.06C163.192 225.18 163.145 225.287 163.052 225.38C162.972 225.473 162.872 225.52 162.752 225.52H160.672C160.565 225.52 160.465 225.487 160.372 225.42C160.199 225.327 160.045 225.227 159.912 225.12C159.685 224.947 159.472 224.813 159.272 224.72C159.072 224.627 158.825 224.58 158.532 224.58C158.185 224.58 157.905 224.66 157.692 224.82C157.492 224.98 157.392 225.187 157.392 225.44C157.392 225.64 157.445 225.807 157.552 225.94C157.672 226.073 157.912 226.207 158.272 226.34C158.645 226.46 159.192 226.587 159.912 226.72C161.205 226.947 162.145 227.347 162.732 227.92C163.332 228.493 163.632 229.167 163.632 229.94C163.632 230.927 163.192 231.72 162.312 232.32C161.432 232.907 160.205 233.2 158.632 233.2ZM168.527 233.2C167.82 233.2 167.173 233.067 166.587 232.8C166.013 232.52 165.56 232.147 165.227 231.68C164.907 231.2 164.747 230.673 164.747 230.1C164.747 229.18 165.12 228.44 165.867 227.88C166.627 227.32 167.667 226.933 168.987 226.72L171.487 226.34V226.06C171.487 225.553 171.38 225.18 171.167 224.94C170.953 224.7 170.593 224.58 170.087 224.58C169.78 224.58 169.527 224.633 169.327 224.74C169.127 224.847 168.92 224.993 168.707 225.18C168.52 225.34 168.38 225.447 168.287 225.5C168.247 225.607 168.173 225.66 168.067 225.66H165.887C165.753 225.66 165.64 225.62 165.547 225.54C165.467 225.447 165.433 225.34 165.447 225.22C165.46 224.86 165.633 224.46 165.967 224.02C166.313 223.58 166.833 223.2 167.527 222.88C168.233 222.56 169.1 222.4 170.127 222.4C171.767 222.4 172.98 222.767 173.767 223.5C174.553 224.22 174.947 225.193 174.947 226.42V232.5C174.947 232.633 174.9 232.753 174.807 232.86C174.713 232.953 174.593 233 174.447 233H172.127C171.993 233 171.873 232.953 171.767 232.86C171.673 232.753 171.627 232.633 171.627 232.5V231.8C171.333 232.213 170.92 232.553 170.387 232.82C169.867 233.073 169.247 233.2 168.527 233.2ZM169.467 230.92C170.08 230.92 170.573 230.72 170.947 230.32C171.333 229.92 171.527 229.333 171.527 228.56V228.28L169.827 228.58C168.627 228.793 168.027 229.213 168.027 229.84C168.027 230.173 168.167 230.44 168.447 230.64C168.727 230.827 169.067 230.92 169.467 230.92ZM177.703 233C177.557 233 177.437 232.953 177.343 232.86C177.25 232.767 177.203 232.647 177.203 232.5V223.1C177.203 222.953 177.25 222.833 177.343 222.74C177.437 222.647 177.557 222.6 177.703 222.6H180.003C180.15 222.6 180.27 222.647 180.363 222.74C180.47 222.833 180.523 222.953 180.523 223.1V223.86C180.883 223.42 181.343 223.067 181.903 222.8C182.477 222.533 183.123 222.4 183.843 222.4C185.017 222.4 185.97 222.8 186.703 223.6C187.437 224.387 187.803 225.493 187.803 226.92V232.5C187.803 232.633 187.757 232.753 187.663 232.86C187.57 232.953 187.45 233 187.303 233H184.783C184.65 233 184.53 232.953 184.423 232.86C184.33 232.753 184.283 232.633 184.283 232.5V227.04C184.283 226.413 184.13 225.933 183.823 225.6C183.517 225.253 183.077 225.08 182.503 225.08C181.943 225.08 181.503 225.253 181.183 225.6C180.863 225.933 180.703 226.413 180.703 227.04V232.5C180.703 232.633 180.657 232.753 180.563 232.86C180.47 232.953 180.35 233 180.203 233H177.703Z" fill="white"/>
</g>
</svg>
