<svg width="461" height="237" viewBox="0 0 461 237" fill="none" xmlns="http://www.w3.org/2000/svg">
<g id="Group 120">
<g id="Group 117">
<rect id="Rectangle 123" width="461" height="237" fill="#8C8C8C"/>
<g id="Group 102">
<g id="Group 72">
<path id="Vector 30" d="M146.553 82.9826L154.647 76.0411" stroke="white" stroke-width="2"/>
<path id="Vector 31" d="M142.534 78.4686L152.972 70.1189" stroke="white" stroke-width="2"/>
<path id="Vector 23" d="M55.2373 54.4629L93.1929 77.4247" stroke="white" stroke-width="2"/>
<path id="Vector 24" d="M127.354 65.9441L87.501 79.5124V137.961L138.741 155.704L171.003 108.737L217.499 137.961L264.944 108.737L310.49 137.961L357.935 108.737L406.328 137.961" stroke="white" stroke-width="2"/>
<path id="Vector 22" d="M50.4932 60.7253L87.4999 84.7309" stroke="white" stroke-width="2"/>
<g id="Vector 25">
<path d="M186.184 69.0747L171.001 108.736L193.775 74.2933L186.184 69.0747Z" fill="white"/>
<path d="M166.257 104.561L168.155 102.474M171.001 108.736L186.184 69.0747L193.775 74.2933L171.001 108.736Z" stroke="white" stroke-width="2"/>
</g>
<path id="Vector 26" d="M162.653 101.677L166.067 98.0532" stroke="white" stroke-width="2"/>
<path id="Vector 27" d="M158.667 96.2117L162.463 92.0369" stroke="white" stroke-width="2"/>
<path id="Vector 28" d="M155.125 91.3595L160.313 86.4517" stroke="white" stroke-width="2"/>
<path id="Vector 29" d="M151.076 86.818L157.718 80.5557" stroke="white" stroke-width="2"/>
</g>
<path id="H" d="M194.348 56.938C194.231 56.938 194.135 56.9007 194.06 56.826C193.985 56.7513 193.948 56.6553 193.948 56.538V46.138C193.948 46.0207 193.985 45.9247 194.06 45.85C194.145 45.7753 194.241 45.738 194.348 45.738H196.412C196.529 45.738 196.625 45.7753 196.7 45.85C196.785 45.9247 196.828 46.0207 196.828 46.138V49.994H200.764V46.138C200.764 46.0207 200.801 45.9247 200.876 45.85C200.951 45.7753 201.047 45.738 201.164 45.738H203.228C203.345 45.738 203.441 45.7753 203.516 45.85C203.591 45.9247 203.628 46.0207 203.628 46.138V56.538C203.628 56.6553 203.591 56.7513 203.516 56.826C203.441 56.9007 203.345 56.938 203.228 56.938H201.164C201.047 56.938 200.951 56.9007 200.876 56.826C200.801 56.7513 200.764 56.6553 200.764 56.538V52.554H196.828V56.538C196.828 56.6553 196.785 56.7513 196.7 56.826C196.625 56.9007 196.529 56.938 196.412 56.938H194.348Z" fill="white"/>
<path id="O" d="M138.776 57.617C137.325 57.617 136.194 57.249 135.384 56.513C134.573 55.777 134.146 54.6837 134.104 53.233C134.093 52.9237 134.088 52.4704 134.088 51.873C134.088 51.265 134.093 50.8064 134.104 50.497C134.146 49.0784 134.584 47.9904 135.416 47.233C136.248 46.4757 137.368 46.097 138.776 46.097C140.184 46.097 141.304 46.4757 142.136 47.233C142.978 47.9904 143.421 49.0784 143.464 50.497C143.485 51.1157 143.496 51.5744 143.496 51.873C143.496 52.161 143.485 52.6144 143.464 53.233C143.41 54.6837 142.978 55.777 142.168 56.513C141.357 57.249 140.226 57.617 138.776 57.617ZM138.776 55.777C139.49 55.777 140.061 55.5637 140.488 55.137C140.914 54.6997 141.144 54.0384 141.176 53.153C141.197 52.513 141.208 52.081 141.208 51.857C141.208 51.6117 141.197 51.1797 141.176 50.561C141.144 49.6757 140.914 49.0197 140.488 48.593C140.061 48.1557 139.49 47.937 138.776 47.937C138.072 47.937 137.506 48.1557 137.08 48.593C136.653 49.0197 136.424 49.6757 136.392 50.561C136.381 50.8704 136.376 51.3024 136.376 51.857C136.376 52.401 136.381 52.833 136.392 53.153C136.424 54.0384 136.648 54.6997 137.064 55.137C137.49 55.5637 138.061 55.777 138.776 55.777Z" fill="white"/>
<path id="O_2" d="M44.386 49.6078C42.9353 49.6078 41.8047 49.2398 40.994 48.5038C40.1833 47.7678 39.7567 46.6744 39.714 45.2238C39.7033 44.9144 39.698 44.4611 39.698 43.8638C39.698 43.2558 39.7033 42.7971 39.714 42.4878C39.7567 41.0691 40.194 39.9811 41.026 39.2238C41.858 38.4664 42.978 38.0878 44.386 38.0878C45.794 38.0878 46.914 38.4664 47.746 39.2238C48.5887 39.9811 49.0313 41.0691 49.074 42.4878C49.0953 43.1064 49.106 43.5651 49.106 43.8638C49.106 44.1518 49.0953 44.6051 49.074 45.2238C49.0207 46.6744 48.5887 47.7678 47.778 48.5038C46.9673 49.2398 45.8367 49.6078 44.386 49.6078ZM44.386 47.7678C45.1007 47.7678 45.6713 47.5544 46.098 47.1278C46.5247 46.6904 46.754 46.0291 46.786 45.1438C46.8073 44.5038 46.818 44.0718 46.818 43.8478C46.818 43.6024 46.8073 43.1704 46.786 42.5518C46.754 41.6664 46.5247 41.0104 46.098 40.5838C45.6713 40.1464 45.1007 39.9278 44.386 39.9278C43.682 39.9278 43.1167 40.1464 42.69 40.5838C42.2633 41.0104 42.034 41.6664 42.002 42.5518C41.9913 42.8611 41.986 43.2931 41.986 43.8478C41.986 44.3918 41.9913 44.8238 42.002 45.1438C42.034 46.0291 42.258 46.6904 42.674 47.1278C43.1007 47.5544 43.6713 47.7678 44.386 47.7678Z" fill="white"/>
</g>
<path id="Figure 3. Chemical structure of (+)-&#206;&#179;-pelargonolactone" d="M68.224 214C68.144 214 68.076 213.972 68.02 213.916C67.964 213.86 67.936 213.792 67.936 213.712V205.9C67.936 205.812 67.96 205.74 68.008 205.684C68.064 205.628 68.136 205.6 68.224 205.6H73.432C73.52 205.6 73.592 205.628 73.648 205.684C73.704 205.74 73.732 205.812 73.732 205.9V206.74C73.732 206.828 73.704 206.9 73.648 206.956C73.592 207.004 73.52 207.028 73.432 207.028H69.58V209.308H73.192C73.28 209.308 73.352 209.336 73.408 209.392C73.464 209.448 73.492 209.52 73.492 209.608V210.448C73.492 210.536 73.464 210.608 73.408 210.664C73.352 210.712 73.28 210.736 73.192 210.736H69.58V213.712C69.58 213.8 69.552 213.872 69.496 213.928C69.44 213.976 69.368 214 69.28 214H68.224ZM75.239 206.728C75.159 206.728 75.091 206.7 75.035 206.644C74.979 206.588 74.951 206.52 74.951 206.44V205.576C74.951 205.496 74.979 205.428 75.035 205.372C75.091 205.316 75.159 205.288 75.239 205.288H76.331C76.411 205.288 76.479 205.316 76.535 205.372C76.599 205.428 76.631 205.496 76.631 205.576V206.44C76.631 206.52 76.603 206.588 76.547 206.644C76.491 206.7 76.419 206.728 76.331 206.728H75.239ZM75.287 214C75.207 214 75.139 213.972 75.083 213.916C75.027 213.86 74.999 213.792 74.999 213.712V208.048C74.999 207.968 75.027 207.9 75.083 207.844C75.139 207.788 75.207 207.76 75.287 207.76H76.283C76.371 207.76 76.439 207.788 76.487 207.844C76.543 207.892 76.571 207.96 76.571 208.048V213.712C76.571 213.792 76.543 213.86 76.487 213.916C76.439 213.972 76.371 214 76.283 214H75.287ZM80.9831 216.64C80.2711 216.64 79.6951 216.52 79.2551 216.28C78.8151 216.048 78.5031 215.78 78.3191 215.476C78.1351 215.172 78.0431 214.912 78.0431 214.696C78.0431 214.624 78.0711 214.56 78.1271 214.504C78.1911 214.448 78.2591 214.42 78.3311 214.42H79.3751C79.4471 214.42 79.5071 214.436 79.5551 214.468C79.6111 214.508 79.6551 214.576 79.6871 214.672C79.7671 214.888 79.8951 215.068 80.0711 215.212C80.2551 215.364 80.5391 215.44 80.9231 215.44C81.4031 215.44 81.7551 215.332 81.9791 215.116C82.2111 214.9 82.3271 214.528 82.3271 214V213.184C81.8871 213.704 81.2711 213.964 80.4791 213.964C79.6471 213.964 79.0191 213.708 78.5951 213.196C78.1791 212.684 77.9551 211.996 77.9231 211.132L77.9111 210.808L77.9231 210.484C77.9551 209.636 78.1831 208.952 78.6071 208.432C79.0311 207.904 79.6551 207.64 80.4791 207.64C80.9031 207.64 81.2751 207.72 81.5951 207.88C81.9151 208.04 82.1831 208.26 82.3991 208.54V208.06C82.3991 207.972 82.4271 207.9 82.4831 207.844C82.5391 207.788 82.6071 207.76 82.6871 207.76H83.6591C83.7391 207.76 83.8071 207.792 83.8631 207.856C83.9191 207.912 83.9471 207.98 83.9471 208.06L83.9591 213.844C83.9591 214.732 83.7111 215.42 83.2151 215.908C82.7191 216.396 81.9751 216.64 80.9831 216.64ZM80.9231 212.692C81.3791 212.692 81.7191 212.548 81.9431 212.26C82.1751 211.972 82.3031 211.62 82.3271 211.204C82.3351 211.14 82.3391 211.008 82.3391 210.808C82.3391 210.616 82.3351 210.488 82.3271 210.424C82.3031 210 82.1751 209.644 81.9431 209.356C81.7191 209.068 81.3791 208.924 80.9231 208.924C80.0591 208.924 79.6031 209.456 79.5551 210.52L79.5431 210.808C79.5431 211.376 79.6431 211.832 79.8431 212.176C80.0511 212.52 80.4111 212.692 80.9231 212.692ZM87.8736 214.12C87.1376 214.12 86.5576 213.88 86.1336 213.4C85.7096 212.912 85.4976 212.252 85.4976 211.42V208.048C85.4976 207.968 85.5256 207.9 85.5816 207.844C85.6376 207.788 85.7056 207.76 85.7856 207.76H86.8416C86.9296 207.76 86.9976 207.788 87.0456 207.844C87.1016 207.892 87.1296 207.96 87.1296 208.048V211.348C87.1296 212.34 87.5656 212.836 88.4376 212.836C88.8536 212.836 89.1816 212.704 89.4216 212.44C89.6696 212.176 89.7936 211.812 89.7936 211.348V208.048C89.7936 207.968 89.8216 207.9 89.8776 207.844C89.9336 207.788 90.0016 207.76 90.0816 207.76H91.1376C91.2256 207.76 91.2936 207.788 91.3416 207.844C91.3976 207.892 91.4256 207.96 91.4256 208.048V213.712C91.4256 213.792 91.3976 213.86 91.3416 213.916C91.2936 213.972 91.2256 214 91.1376 214H90.1656C90.0856 214 90.0176 213.972 89.9616 213.916C89.9056 213.86 89.8776 213.792 89.8776 213.712V213.22C89.4296 213.82 88.7616 214.12 87.8736 214.12ZM93.2988 214C93.2188 214 93.1508 213.972 93.0948 213.916C93.0388 213.86 93.0107 213.792 93.0107 213.712V208.06C93.0107 207.98 93.0388 207.912 93.0948 207.856C93.1508 207.792 93.2188 207.76 93.2988 207.76H94.2708C94.3588 207.76 94.4308 207.788 94.4868 207.844C94.5428 207.9 94.5708 207.972 94.5708 208.06V208.552C94.7628 208.296 95.0028 208.1 95.2908 207.964C95.5868 207.828 95.9228 207.76 96.2988 207.76H96.7908C96.8788 207.76 96.9468 207.788 96.9948 207.844C97.0508 207.892 97.0788 207.96 97.0788 208.048V208.912C97.0788 208.992 97.0508 209.06 96.9948 209.116C96.9468 209.172 96.8788 209.2 96.7908 209.2H95.8548C95.4788 209.2 95.1828 209.308 94.9668 209.524C94.7508 209.74 94.6428 210.036 94.6428 210.412V213.712C94.6428 213.792 94.6148 213.86 94.5588 213.916C94.5028 213.972 94.4308 214 94.3428 214H93.2988ZM100.621 214.12C99.7326 214.12 99.0246 213.864 98.4966 213.352C97.9766 212.832 97.7006 212.104 97.6686 211.168L97.6566 210.868L97.6686 210.568C97.7086 209.656 97.9886 208.94 98.5086 208.42C99.0366 207.9 99.7406 207.64 100.621 207.64C101.565 207.64 102.293 207.928 102.805 208.504C103.325 209.08 103.585 209.848 103.585 210.808V211.06C103.585 211.14 103.557 211.208 103.501 211.264C103.445 211.32 103.373 211.348 103.285 211.348H99.3006V211.444C99.3166 211.884 99.4366 212.256 99.6606 212.56C99.8926 212.856 100.209 213.004 100.609 213.004C101.081 213.004 101.461 212.82 101.749 212.452C101.821 212.364 101.877 212.308 101.917 212.284C101.965 212.26 102.033 212.248 102.121 212.248H103.153C103.225 212.248 103.285 212.272 103.333 212.32C103.389 212.36 103.417 212.412 103.417 212.476C103.417 212.668 103.301 212.896 103.069 213.16C102.845 213.416 102.521 213.64 102.097 213.832C101.673 214.024 101.181 214.12 100.621 214.12ZM101.953 210.34V210.304C101.953 209.832 101.833 209.452 101.593 209.164C101.361 208.876 101.037 208.732 100.621 208.732C100.205 208.732 99.8806 208.876 99.6486 209.164C99.4166 209.452 99.3006 209.832 99.3006 210.304V210.34H101.953ZM110.541 214.12C109.837 214.12 109.237 214.008 108.741 213.784C108.253 213.56 107.885 213.28 107.637 212.944C107.397 212.6 107.269 212.248 107.253 211.888C107.253 211.816 107.277 211.76 107.325 211.72C107.381 211.672 107.445 211.648 107.517 211.648H108.597C108.773 211.648 108.889 211.728 108.945 211.888C109.121 212.464 109.657 212.752 110.553 212.752C111.041 212.752 111.425 212.64 111.705 212.416C111.985 212.184 112.125 211.856 112.125 211.432C112.125 210.632 111.625 210.232 110.625 210.232H109.389C109.301 210.232 109.229 210.204 109.173 210.148C109.117 210.092 109.089 210.024 109.089 209.944V209.44C109.089 209.312 109.145 209.192 109.257 209.08L111.405 206.98H107.973C107.893 206.98 107.825 206.952 107.769 206.896C107.713 206.84 107.685 206.772 107.685 206.692V205.9C107.685 205.812 107.709 205.74 107.757 205.684C107.813 205.628 107.885 205.6 107.973 205.6H113.121C113.209 205.6 113.281 205.628 113.337 205.684C113.393 205.74 113.421 205.812 113.421 205.9V206.62C113.421 206.74 113.369 206.852 113.265 206.956L111.189 209.092L111.333 209.104C112.101 209.168 112.709 209.4 113.157 209.8C113.613 210.2 113.841 210.772 113.841 211.516C113.841 212.044 113.697 212.504 113.409 212.896C113.129 213.288 112.737 213.592 112.233 213.808C111.737 214.016 111.173 214.12 110.541 214.12ZM115.375 214C115.295 214 115.227 213.972 115.171 213.916C115.115 213.86 115.087 213.792 115.087 213.712V212.524C115.087 212.444 115.115 212.376 115.171 212.32C115.227 212.256 115.295 212.224 115.375 212.224H116.575C116.655 212.224 116.723 212.256 116.779 212.32C116.835 212.376 116.863 212.444 116.863 212.524V213.712C116.863 213.792 116.835 213.86 116.779 213.916C116.723 213.972 116.655 214 116.575 214H115.375ZM124.496 214.12C123.392 214.12 122.536 213.836 121.928 213.268C121.328 212.7 121.008 211.9 120.968 210.868C120.96 210.652 120.956 210.3 120.956 209.812C120.956 209.316 120.96 208.956 120.968 208.732C121.008 207.708 121.332 206.912 121.94 206.344C122.556 205.768 123.408 205.48 124.496 205.48C125.208 205.48 125.828 205.604 126.356 205.852C126.884 206.092 127.292 206.424 127.58 206.848C127.868 207.264 128.02 207.736 128.036 208.264V208.288C128.036 208.352 128.008 208.408 127.952 208.456C127.904 208.496 127.848 208.516 127.784 208.516H126.644C126.548 208.516 126.476 208.496 126.428 208.456C126.38 208.416 126.34 208.34 126.308 208.228C126.18 207.724 125.968 207.372 125.672 207.172C125.376 206.964 124.98 206.86 124.484 206.86C123.332 206.86 122.732 207.504 122.684 208.792C122.676 209.008 122.672 209.34 122.672 209.788C122.672 210.236 122.676 210.576 122.684 210.808C122.732 212.096 123.332 212.74 124.484 212.74C124.98 212.74 125.376 212.636 125.672 212.428C125.976 212.22 126.188 211.868 126.308 211.372C126.332 211.26 126.368 211.184 126.416 211.144C126.472 211.104 126.548 211.084 126.644 211.084H127.784C127.856 211.084 127.916 211.108 127.964 211.156C128.02 211.204 128.044 211.264 128.036 211.336C128.02 211.864 127.868 212.34 127.58 212.764C127.292 213.18 126.884 213.512 126.356 213.76C125.828 214 125.208 214.12 124.496 214.12ZM129.615 214C129.535 214 129.467 213.972 129.411 213.916C129.355 213.86 129.327 213.792 129.327 213.712V205.768C129.327 205.68 129.355 205.612 129.411 205.564C129.467 205.508 129.535 205.48 129.615 205.48H130.683C130.771 205.48 130.839 205.508 130.887 205.564C130.943 205.612 130.971 205.68 130.971 205.768V208.504C131.451 207.928 132.099 207.64 132.915 207.64C133.651 207.64 134.239 207.884 134.679 208.372C135.119 208.852 135.339 209.508 135.339 210.34V213.712C135.339 213.792 135.311 213.86 135.255 213.916C135.207 213.972 135.139 214 135.051 214H133.971C133.891 214 133.823 213.972 133.767 213.916C133.711 213.86 133.683 213.792 133.683 213.712V210.412C133.683 209.94 133.567 209.576 133.335 209.32C133.111 209.056 132.783 208.924 132.351 208.924C131.927 208.924 131.591 209.056 131.343 209.32C131.095 209.584 130.971 209.948 130.971 210.412V213.712C130.971 213.792 130.943 213.86 130.887 213.916C130.839 213.972 130.771 214 130.683 214H129.615ZM139.55 214.12C138.662 214.12 137.954 213.864 137.426 213.352C136.906 212.832 136.63 212.104 136.598 211.168L136.586 210.868L136.598 210.568C136.638 209.656 136.918 208.94 137.438 208.42C137.966 207.9 138.67 207.64 139.55 207.64C140.494 207.64 141.222 207.928 141.734 208.504C142.254 209.08 142.514 209.848 142.514 210.808V211.06C142.514 211.14 142.486 211.208 142.43 211.264C142.374 211.32 142.302 211.348 142.214 211.348H138.23V211.444C138.246 211.884 138.366 212.256 138.59 212.56C138.822 212.856 139.138 213.004 139.538 213.004C140.01 213.004 140.39 212.82 140.678 212.452C140.75 212.364 140.806 212.308 140.846 212.284C140.894 212.26 140.962 212.248 141.05 212.248H142.082C142.154 212.248 142.214 212.272 142.262 212.32C142.318 212.36 142.346 212.412 142.346 212.476C142.346 212.668 142.23 212.896 141.998 213.16C141.774 213.416 141.45 213.64 141.026 213.832C140.602 214.024 140.11 214.12 139.55 214.12ZM140.882 210.34V210.304C140.882 209.832 140.762 209.452 140.522 209.164C140.29 208.876 139.966 208.732 139.55 208.732C139.134 208.732 138.81 208.876 138.578 209.164C138.346 209.452 138.23 209.832 138.23 210.304V210.34H140.882ZM144.076 214C143.996 214 143.928 213.972 143.872 213.916C143.816 213.86 143.788 213.792 143.788 213.712V208.048C143.788 207.968 143.816 207.9 143.872 207.844C143.928 207.788 143.996 207.76 144.076 207.76H145.012C145.092 207.76 145.16 207.788 145.216 207.844C145.272 207.9 145.3 207.968 145.3 208.048V208.456C145.716 207.912 146.296 207.64 147.04 207.64C147.928 207.64 148.548 207.996 148.9 208.708C149.092 208.388 149.364 208.132 149.716 207.94C150.068 207.74 150.448 207.64 150.856 207.64C151.512 207.64 152.048 207.864 152.464 208.312C152.88 208.76 153.088 209.412 153.088 210.268V213.712C153.088 213.792 153.06 213.86 153.004 213.916C152.956 213.972 152.888 214 152.8 214H151.816C151.736 214 151.668 213.972 151.612 213.916C151.556 213.86 151.528 213.792 151.528 213.712V210.364C151.528 209.86 151.42 209.496 151.204 209.272C150.996 209.04 150.716 208.924 150.364 208.924C150.052 208.924 149.784 209.04 149.56 209.272C149.344 209.504 149.236 209.868 149.236 210.364V213.712C149.236 213.792 149.208 213.86 149.152 213.916C149.096 213.972 149.028 214 148.948 214H147.964C147.884 214 147.816 213.972 147.76 213.916C147.704 213.86 147.676 213.792 147.676 213.712V210.364C147.676 209.86 147.564 209.496 147.34 209.272C147.124 209.04 146.848 208.924 146.512 208.924C146.192 208.924 145.92 209.04 145.696 209.272C145.48 209.504 145.372 209.868 145.372 210.364V213.712C145.372 213.792 145.344 213.86 145.288 213.916C145.232 213.972 145.164 214 145.084 214H144.076ZM154.856 206.728C154.776 206.728 154.708 206.7 154.652 206.644C154.596 206.588 154.568 206.52 154.568 206.44V205.576C154.568 205.496 154.596 205.428 154.652 205.372C154.708 205.316 154.776 205.288 154.856 205.288H155.948C156.028 205.288 156.096 205.316 156.152 205.372C156.216 205.428 156.248 205.496 156.248 205.576V206.44C156.248 206.52 156.22 206.588 156.164 206.644C156.108 206.7 156.036 206.728 155.948 206.728H154.856ZM154.904 214C154.824 214 154.756 213.972 154.7 213.916C154.644 213.86 154.616 213.792 154.616 213.712V208.048C154.616 207.968 154.644 207.9 154.7 207.844C154.756 207.788 154.824 207.76 154.904 207.76H155.9C155.988 207.76 156.056 207.788 156.104 207.844C156.16 207.892 156.188 207.96 156.188 208.048V213.712C156.188 213.792 156.16 213.86 156.104 213.916C156.056 213.972 155.988 214 155.9 214H154.904ZM160.48 214.12C159.6 214.12 158.896 213.876 158.368 213.388C157.848 212.9 157.572 212.224 157.54 211.36L157.528 210.88L157.54 210.4C157.572 209.536 157.848 208.86 158.368 208.372C158.896 207.884 159.6 207.64 160.48 207.64C161.104 207.64 161.632 207.752 162.064 207.976C162.504 208.2 162.828 208.476 163.036 208.804C163.252 209.124 163.368 209.428 163.384 209.716C163.392 209.796 163.364 209.864 163.3 209.92C163.244 209.976 163.176 210.004 163.096 210.004H162.04C161.96 210.004 161.896 209.988 161.848 209.956C161.808 209.916 161.768 209.852 161.728 209.764C161.608 209.452 161.448 209.228 161.248 209.092C161.056 208.956 160.808 208.888 160.504 208.888C160.096 208.888 159.776 209.02 159.544 209.284C159.312 209.54 159.188 209.932 159.172 210.46L159.16 210.904L159.172 211.3C159.204 212.348 159.648 212.872 160.504 212.872C160.816 212.872 161.068 212.804 161.26 212.668C161.452 212.532 161.608 212.308 161.728 211.996C161.768 211.908 161.808 211.848 161.848 211.816C161.896 211.776 161.96 211.756 162.04 211.756H163.096C163.176 211.756 163.244 211.784 163.3 211.84C163.364 211.896 163.392 211.964 163.384 212.044C163.368 212.324 163.256 212.624 163.048 212.944C162.84 213.264 162.52 213.54 162.088 213.772C161.656 214.004 161.12 214.12 160.48 214.12ZM166.448 214.12C166.04 214.12 165.664 214.04 165.32 213.88C164.984 213.712 164.716 213.488 164.516 213.208C164.324 212.928 164.228 212.62 164.228 212.284C164.228 211.74 164.448 211.3 164.888 210.964C165.328 210.628 165.932 210.4 166.7 210.28L168.344 210.04V209.788C168.344 209.436 168.256 209.172 168.08 208.996C167.904 208.82 167.62 208.732 167.228 208.732C166.964 208.732 166.748 208.784 166.58 208.888C166.42 208.984 166.292 209.08 166.196 209.176C166.1 209.28 166.036 209.348 166.004 209.38C165.972 209.476 165.912 209.524 165.824 209.524H164.9C164.828 209.524 164.764 209.5 164.708 209.452C164.66 209.404 164.636 209.34 164.636 209.26C164.644 209.06 164.74 208.832 164.924 208.576C165.116 208.32 165.408 208.1 165.8 207.916C166.192 207.732 166.672 207.64 167.24 207.64C168.184 207.64 168.872 207.852 169.304 208.276C169.736 208.7 169.952 209.256 169.952 209.944V213.712C169.952 213.792 169.924 213.86 169.868 213.916C169.82 213.972 169.752 214 169.664 214H168.692C168.612 214 168.544 213.972 168.488 213.916C168.432 213.86 168.404 213.792 168.404 213.712V213.244C168.228 213.5 167.976 213.712 167.648 213.88C167.328 214.04 166.928 214.12 166.448 214.12ZM166.856 212.98C167.296 212.98 167.656 212.836 167.936 212.548C168.216 212.26 168.356 211.84 168.356 211.288V211.036L167.156 211.228C166.692 211.3 166.34 211.416 166.1 211.576C165.868 211.736 165.752 211.932 165.752 212.164C165.752 212.42 165.86 212.62 166.076 212.764C166.292 212.908 166.552 212.98 166.856 212.98ZM171.791 214C171.711 214 171.643 213.972 171.587 213.916C171.531 213.86 171.503 213.792 171.503 213.712V205.768C171.503 205.68 171.531 205.612 171.587 205.564C171.643 205.508 171.711 205.48 171.791 205.48H172.787C172.875 205.48 172.943 205.508 172.991 205.564C173.047 205.612 173.075 205.68 173.075 205.768V213.712C173.075 213.792 173.047 213.86 172.991 213.916C172.943 213.972 172.875 214 172.787 214H171.791ZM179.773 214.12C179.173 214.12 178.669 214.032 178.261 213.856C177.853 213.672 177.549 213.46 177.349 213.22C177.157 212.972 177.061 212.76 177.061 212.584C177.061 212.504 177.089 212.44 177.145 212.392C177.201 212.344 177.265 212.32 177.337 212.32H178.285C178.357 212.32 178.417 212.348 178.465 212.404C178.497 212.428 178.581 212.5 178.717 212.62C178.853 212.748 179.013 212.848 179.197 212.92C179.381 212.992 179.585 213.028 179.809 213.028C180.129 213.028 180.393 212.964 180.601 212.836C180.809 212.708 180.913 212.532 180.913 212.308C180.913 212.14 180.865 212.004 180.769 211.9C180.681 211.796 180.517 211.704 180.277 211.624C180.037 211.536 179.681 211.444 179.209 211.348C178.529 211.204 178.025 210.984 177.697 210.688C177.377 210.392 177.217 210 177.217 209.512C177.217 209.192 177.313 208.892 177.505 208.612C177.697 208.324 177.981 208.092 178.357 207.916C178.741 207.732 179.197 207.64 179.725 207.64C180.261 207.64 180.725 207.728 181.117 207.904C181.509 208.072 181.805 208.276 182.005 208.516C182.213 208.748 182.317 208.956 182.317 209.14C182.317 209.212 182.289 209.276 182.233 209.332C182.185 209.38 182.125 209.404 182.053 209.404H181.165C181.101 209.404 181.033 209.376 180.961 209.32C180.905 209.28 180.817 209.204 180.697 209.092C180.577 208.98 180.437 208.892 180.277 208.828C180.117 208.764 179.929 208.732 179.713 208.732C179.417 208.732 179.185 208.796 179.017 208.924C178.857 209.052 178.777 209.22 178.777 209.428C178.777 209.58 178.817 209.704 178.897 209.8C178.977 209.896 179.133 209.988 179.365 210.076C179.597 210.164 179.945 210.252 180.409 210.34C181.177 210.492 181.725 210.728 182.053 211.048C182.389 211.368 182.557 211.76 182.557 212.224C182.557 212.784 182.313 213.24 181.825 213.592C181.337 213.944 180.653 214.12 179.773 214.12ZM186.592 214C185.864 214 185.316 213.812 184.948 213.436C184.588 213.052 184.408 212.492 184.408 211.756V209.032H183.46C183.38 209.032 183.312 209.004 183.256 208.948C183.2 208.884 183.172 208.812 183.172 208.732V208.048C183.172 207.968 183.2 207.9 183.256 207.844C183.312 207.788 183.38 207.76 183.46 207.76H184.408V205.768C184.408 205.68 184.436 205.612 184.492 205.564C184.548 205.508 184.616 205.48 184.696 205.48H185.668C185.756 205.48 185.824 205.508 185.872 205.564C185.928 205.612 185.956 205.68 185.956 205.768V207.76H187.456C187.544 207.76 187.612 207.788 187.66 207.844C187.716 207.892 187.744 207.96 187.744 208.048V208.732C187.744 208.82 187.716 208.892 187.66 208.948C187.604 209.004 187.536 209.032 187.456 209.032H185.956V211.636C185.956 211.98 186.016 212.24 186.136 212.416C186.256 212.592 186.456 212.68 186.736 212.68H187.564C187.644 212.68 187.712 212.708 187.768 212.764C187.824 212.82 187.852 212.888 187.852 212.968V213.712C187.852 213.792 187.824 213.86 187.768 213.916C187.72 213.972 187.652 214 187.564 214H186.592ZM189.205 214C189.125 214 189.057 213.972 189.001 213.916C188.945 213.86 188.917 213.792 188.917 213.712V208.06C188.917 207.98 188.945 207.912 189.001 207.856C189.057 207.792 189.125 207.76 189.205 207.76H190.177C190.265 207.76 190.337 207.788 190.393 207.844C190.449 207.9 190.477 207.972 190.477 208.06V208.552C190.669 208.296 190.909 208.1 191.197 207.964C191.493 207.828 191.829 207.76 192.205 207.76H192.697C192.785 207.76 192.853 207.788 192.901 207.844C192.957 207.892 192.985 207.96 192.985 208.048V208.912C192.985 208.992 192.957 209.06 192.901 209.116C192.853 209.172 192.785 209.2 192.697 209.2H191.761C191.385 209.2 191.089 209.308 190.873 209.524C190.657 209.74 190.549 210.036 190.549 210.412V213.712C190.549 213.792 190.521 213.86 190.465 213.916C190.409 213.972 190.337 214 190.249 214H189.205ZM196.237 214.12C195.501 214.12 194.921 213.88 194.497 213.4C194.073 212.912 193.861 212.252 193.861 211.42V208.048C193.861 207.968 193.889 207.9 193.945 207.844C194.001 207.788 194.069 207.76 194.149 207.76H195.205C195.293 207.76 195.361 207.788 195.409 207.844C195.465 207.892 195.493 207.96 195.493 208.048V211.348C195.493 212.34 195.929 212.836 196.801 212.836C197.217 212.836 197.545 212.704 197.785 212.44C198.033 212.176 198.157 211.812 198.157 211.348V208.048C198.157 207.968 198.185 207.9 198.241 207.844C198.297 207.788 198.365 207.76 198.445 207.76H199.501C199.589 207.76 199.657 207.788 199.705 207.844C199.761 207.892 199.789 207.96 199.789 208.048V213.712C199.789 213.792 199.761 213.86 199.705 213.916C199.657 213.972 199.589 214 199.501 214H198.529C198.449 214 198.381 213.972 198.325 213.916C198.269 213.86 198.241 213.792 198.241 213.712V213.22C197.793 213.82 197.125 214.12 196.237 214.12ZM204.074 214.12C203.194 214.12 202.49 213.876 201.962 213.388C201.442 212.9 201.166 212.224 201.134 211.36L201.122 210.88L201.134 210.4C201.166 209.536 201.442 208.86 201.962 208.372C202.49 207.884 203.194 207.64 204.074 207.64C204.698 207.64 205.226 207.752 205.658 207.976C206.098 208.2 206.422 208.476 206.63 208.804C206.846 209.124 206.962 209.428 206.978 209.716C206.986 209.796 206.958 209.864 206.894 209.92C206.838 209.976 206.77 210.004 206.69 210.004H205.634C205.554 210.004 205.49 209.988 205.442 209.956C205.402 209.916 205.362 209.852 205.322 209.764C205.202 209.452 205.042 209.228 204.842 209.092C204.65 208.956 204.402 208.888 204.098 208.888C203.69 208.888 203.37 209.02 203.138 209.284C202.906 209.54 202.782 209.932 202.766 210.46L202.754 210.904L202.766 211.3C202.798 212.348 203.242 212.872 204.098 212.872C204.41 212.872 204.662 212.804 204.854 212.668C205.046 212.532 205.202 212.308 205.322 211.996C205.362 211.908 205.402 211.848 205.442 211.816C205.49 211.776 205.554 211.756 205.634 211.756H206.69C206.77 211.756 206.838 211.784 206.894 211.84C206.958 211.896 206.986 211.964 206.978 212.044C206.962 212.324 206.85 212.624 206.642 212.944C206.434 213.264 206.114 213.54 205.682 213.772C205.25 214.004 204.714 214.12 204.074 214.12ZM211.05 214C210.322 214 209.774 213.812 209.406 213.436C209.046 213.052 208.866 212.492 208.866 211.756V209.032H207.918C207.838 209.032 207.77 209.004 207.714 208.948C207.658 208.884 207.63 208.812 207.63 208.732V208.048C207.63 207.968 207.658 207.9 207.714 207.844C207.77 207.788 207.838 207.76 207.918 207.76H208.866V205.768C208.866 205.68 208.894 205.612 208.95 205.564C209.006 205.508 209.074 205.48 209.154 205.48H210.126C210.214 205.48 210.282 205.508 210.33 205.564C210.386 205.612 210.414 205.68 210.414 205.768V207.76H211.914C212.002 207.76 212.07 207.788 212.118 207.844C212.174 207.892 212.202 207.96 212.202 208.048V208.732C212.202 208.82 212.174 208.892 212.118 208.948C212.062 209.004 211.994 209.032 211.914 209.032H210.414V211.636C210.414 211.98 210.474 212.24 210.594 212.416C210.714 212.592 210.914 212.68 211.194 212.68H212.022C212.102 212.68 212.17 212.708 212.226 212.764C212.282 212.82 212.31 212.888 212.31 212.968V213.712C212.31 213.792 212.282 213.86 212.226 213.916C212.178 213.972 212.11 214 212.022 214H211.05ZM215.69 214.12C214.954 214.12 214.374 213.88 213.95 213.4C213.526 212.912 213.314 212.252 213.314 211.42V208.048C213.314 207.968 213.342 207.9 213.398 207.844C213.454 207.788 213.522 207.76 213.602 207.76H214.658C214.746 207.76 214.814 207.788 214.862 207.844C214.918 207.892 214.946 207.96 214.946 208.048V211.348C214.946 212.34 215.382 212.836 216.254 212.836C216.67 212.836 216.998 212.704 217.238 212.44C217.486 212.176 217.61 211.812 217.61 211.348V208.048C217.61 207.968 217.638 207.9 217.694 207.844C217.75 207.788 217.818 207.76 217.898 207.76H218.954C219.042 207.76 219.11 207.788 219.158 207.844C219.214 207.892 219.242 207.96 219.242 208.048V213.712C219.242 213.792 219.214 213.86 219.158 213.916C219.11 213.972 219.042 214 218.954 214H217.982C217.902 214 217.834 213.972 217.778 213.916C217.722 213.86 217.694 213.792 217.694 213.712V213.22C217.246 213.82 216.578 214.12 215.69 214.12ZM221.115 214C221.035 214 220.967 213.972 220.911 213.916C220.855 213.86 220.827 213.792 220.827 213.712V208.06C220.827 207.98 220.855 207.912 220.911 207.856C220.967 207.792 221.035 207.76 221.115 207.76H222.087C222.175 207.76 222.247 207.788 222.303 207.844C222.359 207.9 222.387 207.972 222.387 208.06V208.552C222.579 208.296 222.819 208.1 223.107 207.964C223.403 207.828 223.739 207.76 224.115 207.76H224.607C224.695 207.76 224.763 207.788 224.811 207.844C224.867 207.892 224.895 207.96 224.895 208.048V208.912C224.895 208.992 224.867 209.06 224.811 209.116C224.763 209.172 224.695 209.2 224.607 209.2H223.671C223.295 209.2 222.999 209.308 222.783 209.524C222.567 209.74 222.459 210.036 222.459 210.412V213.712C222.459 213.792 222.431 213.86 222.375 213.916C222.319 213.972 222.247 214 222.159 214H221.115ZM228.437 214.12C227.549 214.12 226.841 213.864 226.313 213.352C225.793 212.832 225.517 212.104 225.485 211.168L225.473 210.868L225.485 210.568C225.525 209.656 225.805 208.94 226.325 208.42C226.853 207.9 227.557 207.64 228.437 207.64C229.381 207.64 230.109 207.928 230.621 208.504C231.141 209.08 231.401 209.848 231.401 210.808V211.06C231.401 211.14 231.373 211.208 231.317 211.264C231.261 211.32 231.189 211.348 231.101 211.348H227.117V211.444C227.133 211.884 227.253 212.256 227.477 212.56C227.709 212.856 228.025 213.004 228.425 213.004C228.897 213.004 229.277 212.82 229.565 212.452C229.637 212.364 229.693 212.308 229.733 212.284C229.781 212.26 229.849 212.248 229.937 212.248H230.969C231.041 212.248 231.101 212.272 231.149 212.32C231.205 212.36 231.233 212.412 231.233 212.476C231.233 212.668 231.117 212.896 230.885 213.16C230.661 213.416 230.337 213.64 229.913 213.832C229.489 214.024 228.997 214.12 228.437 214.12ZM229.769 210.34V210.304C229.769 209.832 229.649 209.452 229.409 209.164C229.177 208.876 228.853 208.732 228.437 208.732C228.021 208.732 227.697 208.876 227.465 209.164C227.233 209.452 227.117 209.832 227.117 210.304V210.34H229.769ZM238.177 214.12C237.241 214.12 236.517 213.88 236.005 213.4C235.493 212.912 235.217 212.248 235.177 211.408L235.165 210.88L235.177 210.352C235.217 209.52 235.497 208.86 236.017 208.372C236.537 207.884 237.257 207.64 238.177 207.64C239.097 207.64 239.817 207.884 240.337 208.372C240.857 208.86 241.137 209.52 241.177 210.352C241.185 210.448 241.189 210.624 241.189 210.88C241.189 211.136 241.185 211.312 241.177 211.408C241.137 212.248 240.861 212.912 240.349 213.4C239.837 213.88 239.113 214.12 238.177 214.12ZM238.177 212.932C238.601 212.932 238.929 212.8 239.161 212.536C239.393 212.264 239.521 211.868 239.545 211.348C239.553 211.268 239.557 211.112 239.557 210.88C239.557 210.648 239.553 210.492 239.545 210.412C239.521 209.892 239.393 209.5 239.161 209.236C238.929 208.964 238.601 208.828 238.177 208.828C237.753 208.828 237.425 208.964 237.193 209.236C236.961 209.5 236.833 209.892 236.809 210.412L236.797 210.88L236.809 211.348C236.833 211.868 236.961 212.264 237.193 212.536C237.425 212.8 237.753 212.932 238.177 212.932ZM243.408 214C243.328 214 243.26 213.972 243.204 213.916C243.148 213.86 243.12 213.792 243.12 213.712V209.032H242.148C242.068 209.032 242 209.004 241.944 208.948C241.888 208.884 241.86 208.812 241.86 208.732V208.048C241.86 207.968 241.888 207.9 241.944 207.844C242 207.788 242.068 207.76 242.148 207.76H243.12V207.268C243.12 205.836 243.904 205.12 245.472 205.12H246.288C246.376 205.12 246.444 205.148 246.492 205.204C246.548 205.252 246.576 205.32 246.576 205.408V206.092C246.576 206.18 246.548 206.252 246.492 206.308C246.436 206.364 246.368 206.392 246.288 206.392H245.52C245.208 206.392 244.988 206.468 244.86 206.62C244.74 206.772 244.68 207.008 244.68 207.328V207.76H246.168C246.256 207.76 246.324 207.788 246.372 207.844C246.428 207.892 246.456 207.96 246.456 208.048V208.732C246.456 208.82 246.428 208.892 246.372 208.948C246.316 209.004 246.248 209.032 246.168 209.032H244.68V213.712C244.68 213.792 244.652 213.86 244.596 213.916C244.54 213.972 244.472 214 244.392 214H243.408ZM252.865 215.908C251.785 215.908 250.989 215.46 250.477 214.564C249.965 213.676 249.709 212.252 249.709 210.292C249.709 208.332 249.965 206.908 250.477 206.02C250.989 205.132 251.785 204.688 252.865 204.688C252.945 204.688 253.013 204.716 253.069 204.772C253.125 204.828 253.153 204.896 253.153 204.976V205.696C253.153 205.776 253.125 205.844 253.069 205.9C253.021 205.956 252.961 205.984 252.889 205.984C252.449 206 252.105 206.16 251.857 206.464C251.609 206.768 251.429 207.228 251.317 207.844C251.213 208.46 251.161 209.276 251.161 210.292C251.161 211.308 251.213 212.128 251.317 212.752C251.429 213.368 251.609 213.828 251.857 214.132C252.105 214.436 252.449 214.596 252.889 214.612C252.961 214.612 253.021 214.64 253.069 214.696C253.125 214.752 253.153 214.82 253.153 214.9V215.62C253.153 215.7 253.125 215.768 253.069 215.824C253.013 215.88 252.945 215.908 252.865 215.908ZM256.781 213.604C256.701 213.604 256.633 213.576 256.577 213.52C256.521 213.464 256.493 213.396 256.493 213.316V210.976H254.189C254.109 210.976 254.041 210.948 253.985 210.892C253.929 210.836 253.901 210.764 253.901 210.676V210.052C253.901 209.964 253.929 209.896 253.985 209.848C254.041 209.792 254.109 209.764 254.189 209.764H256.493V207.484C256.493 207.396 256.521 207.328 256.577 207.28C256.633 207.224 256.701 207.196 256.781 207.196H257.477C257.565 207.196 257.633 207.224 257.681 207.28C257.737 207.328 257.765 207.396 257.765 207.484V209.764H260.069C260.157 209.764 260.225 209.792 260.273 209.848C260.329 209.896 260.357 209.964 260.357 210.052V210.676C260.357 210.764 260.329 210.836 260.273 210.892C260.217 210.948 260.149 210.976 260.069 210.976H257.765V213.316C257.765 213.396 257.737 213.464 257.681 213.52C257.633 213.576 257.565 213.604 257.477 213.604H256.781ZM261.392 215.908C261.312 215.908 261.244 215.88 261.188 215.824C261.132 215.768 261.104 215.7 261.104 215.62V214.9C261.104 214.82 261.132 214.752 261.188 214.696C261.244 214.64 261.304 214.612 261.368 214.612C261.808 214.596 262.152 214.436 262.4 214.132C262.656 213.828 262.836 213.368 262.94 212.752C263.052 212.128 263.108 211.308 263.108 210.292C263.108 209.276 263.052 208.46 262.94 207.844C262.836 207.228 262.656 206.768 262.4 206.464C262.152 206.16 261.808 206 261.368 205.984C261.304 205.984 261.244 205.956 261.188 205.9C261.132 205.844 261.104 205.776 261.104 205.696V204.976C261.104 204.896 261.132 204.828 261.188 204.772C261.244 204.716 261.312 204.688 261.392 204.688C262.472 204.688 263.268 205.132 263.78 206.02C264.292 206.908 264.548 208.332 264.548 210.292C264.548 212.252 264.292 213.676 263.78 214.564C263.268 215.46 262.472 215.908 261.392 215.908ZM266.196 211.084C266.116 211.084 266.048 211.056 265.992 211C265.936 210.944 265.908 210.876 265.908 210.796V210.004C265.908 209.916 265.936 209.848 265.992 209.8C266.048 209.744 266.116 209.716 266.196 209.716H269.88C269.968 209.716 270.036 209.744 270.084 209.8C270.14 209.848 270.168 209.916 270.168 210.004V210.796C270.168 210.876 270.14 210.944 270.084 211C270.036 211.056 269.968 211.084 269.88 211.084H266.196ZM274.71 213.844C274.59 214.164 274.486 214.508 274.398 214.876C274.31 215.244 274.242 215.6 274.194 215.944C274.146 216.296 274.122 216.608 274.122 216.88H272.982C272.982 216.656 273.006 216.376 273.054 216.04C273.11 215.704 273.182 215.348 273.27 214.972C273.366 214.604 273.474 214.256 273.594 213.928L270.99 207.568H272.082L273.438 210.94C273.526 211.148 273.614 211.38 273.702 211.636C273.79 211.892 273.87 212.136 273.942 212.368C274.014 212.6 274.062 212.788 274.086 212.932H274.134C274.158 212.804 274.202 212.62 274.266 212.38C274.338 212.14 274.414 211.892 274.494 211.636C274.582 211.38 274.658 211.164 274.722 210.988L275.994 207.568H277.086L274.71 213.844ZM278.185 211.084C278.105 211.084 278.037 211.056 277.981 211C277.925 210.944 277.897 210.876 277.897 210.796V210.004C277.897 209.916 277.925 209.848 277.981 209.8C278.037 209.744 278.105 209.716 278.185 209.716H281.869C281.957 209.716 282.025 209.744 282.073 209.8C282.129 209.848 282.157 209.916 282.157 210.004V210.796C282.157 210.876 282.129 210.944 282.073 211C282.025 211.056 281.957 211.084 281.869 211.084H278.185ZM284.01 216.28C283.93 216.28 283.862 216.252 283.806 216.196C283.75 216.148 283.722 216.08 283.722 215.992V208.048C283.722 207.96 283.75 207.892 283.806 207.844C283.862 207.788 283.93 207.76 284.01 207.76H284.958C285.046 207.76 285.114 207.788 285.162 207.844C285.218 207.892 285.246 207.96 285.246 208.048V208.528C285.694 207.936 286.334 207.64 287.166 207.64C287.974 207.64 288.594 207.896 289.026 208.408C289.458 208.912 289.69 209.596 289.722 210.46C289.73 210.556 289.734 210.696 289.734 210.88C289.734 211.072 289.73 211.216 289.722 211.312C289.69 212.152 289.458 212.832 289.026 213.352C288.594 213.864 287.974 214.12 287.166 214.12C286.358 214.12 285.742 213.836 285.318 213.268V215.992C285.318 216.08 285.29 216.148 285.234 216.196C285.186 216.252 285.118 216.28 285.03 216.28H284.01ZM286.722 212.836C287.586 212.836 288.046 212.304 288.102 211.24C288.11 211.16 288.114 211.04 288.114 210.88C288.114 210.72 288.11 210.6 288.102 210.52C288.046 209.456 287.586 208.924 286.722 208.924C286.258 208.924 285.914 209.072 285.69 209.368C285.466 209.664 285.342 210.028 285.318 210.46L285.306 210.916L285.318 211.384C285.334 211.784 285.458 212.128 285.69 212.416C285.93 212.696 286.274 212.836 286.722 212.836ZM293.769 214.12C292.881 214.12 292.173 213.864 291.645 213.352C291.125 212.832 290.849 212.104 290.817 211.168L290.805 210.868L290.817 210.568C290.857 209.656 291.137 208.94 291.657 208.42C292.185 207.9 292.889 207.64 293.769 207.64C294.713 207.64 295.441 207.928 295.953 208.504C296.473 209.08 296.733 209.848 296.733 210.808V211.06C296.733 211.14 296.705 211.208 296.649 211.264C296.593 211.32 296.521 211.348 296.433 211.348H292.449V211.444C292.465 211.884 292.585 212.256 292.809 212.56C293.041 212.856 293.357 213.004 293.757 213.004C294.229 213.004 294.609 212.82 294.897 212.452C294.969 212.364 295.025 212.308 295.065 212.284C295.113 212.26 295.181 212.248 295.269 212.248H296.301C296.373 212.248 296.433 212.272 296.481 212.32C296.537 212.36 296.565 212.412 296.565 212.476C296.565 212.668 296.449 212.896 296.217 213.16C295.993 213.416 295.669 213.64 295.245 213.832C294.821 214.024 294.329 214.12 293.769 214.12ZM295.101 210.34V210.304C295.101 209.832 294.981 209.452 294.741 209.164C294.509 208.876 294.185 208.732 293.769 208.732C293.353 208.732 293.029 208.876 292.797 209.164C292.565 209.452 292.449 209.832 292.449 210.304V210.34H295.101ZM298.307 214C298.227 214 298.159 213.972 298.103 213.916C298.047 213.86 298.019 213.792 298.019 213.712V205.768C298.019 205.68 298.047 205.612 298.103 205.564C298.159 205.508 298.227 205.48 298.307 205.48H299.303C299.391 205.48 299.459 205.508 299.507 205.564C299.563 205.612 299.591 205.68 299.591 205.768V213.712C299.591 213.792 299.563 213.86 299.507 213.916C299.459 213.972 299.391 214 299.303 214H298.307ZM302.995 214.12C302.587 214.12 302.211 214.04 301.867 213.88C301.531 213.712 301.263 213.488 301.063 213.208C300.871 212.928 300.775 212.62 300.775 212.284C300.775 211.74 300.995 211.3 301.435 210.964C301.875 210.628 302.479 210.4 303.247 210.28L304.891 210.04V209.788C304.891 209.436 304.803 209.172 304.627 208.996C304.451 208.82 304.167 208.732 303.775 208.732C303.511 208.732 303.295 208.784 303.127 208.888C302.967 208.984 302.839 209.08 302.743 209.176C302.647 209.28 302.583 209.348 302.551 209.38C302.519 209.476 302.459 209.524 302.371 209.524H301.447C301.375 209.524 301.311 209.5 301.255 209.452C301.207 209.404 301.183 209.34 301.183 209.26C301.191 209.06 301.287 208.832 301.471 208.576C301.663 208.32 301.955 208.1 302.347 207.916C302.739 207.732 303.219 207.64 303.787 207.64C304.731 207.64 305.419 207.852 305.851 208.276C306.283 208.7 306.499 209.256 306.499 209.944V213.712C306.499 213.792 306.471 213.86 306.415 213.916C306.367 213.972 306.299 214 306.211 214H305.239C305.159 214 305.091 213.972 305.035 213.916C304.979 213.86 304.951 213.792 304.951 213.712V213.244C304.775 213.5 304.523 213.712 304.195 213.88C303.875 214.04 303.475 214.12 302.995 214.12ZM303.403 212.98C303.843 212.98 304.203 212.836 304.483 212.548C304.763 212.26 304.903 211.84 304.903 211.288V211.036L303.703 211.228C303.239 211.3 302.887 211.416 302.647 211.576C302.415 211.736 302.299 211.932 302.299 212.164C302.299 212.42 302.407 212.62 302.623 212.764C302.839 212.908 303.099 212.98 303.403 212.98ZM308.326 214C308.246 214 308.178 213.972 308.122 213.916C308.066 213.86 308.038 213.792 308.038 213.712V208.06C308.038 207.98 308.066 207.912 308.122 207.856C308.178 207.792 308.246 207.76 308.326 207.76H309.298C309.386 207.76 309.458 207.788 309.514 207.844C309.57 207.9 309.598 207.972 309.598 208.06V208.552C309.79 208.296 310.03 208.1 310.318 207.964C310.614 207.828 310.95 207.76 311.326 207.76H311.818C311.906 207.76 311.974 207.788 312.022 207.844C312.078 207.892 312.106 207.96 312.106 208.048V208.912C312.106 208.992 312.078 209.06 312.022 209.116C311.974 209.172 311.906 209.2 311.818 209.2H310.882C310.506 209.2 310.21 209.308 309.994 209.524C309.778 209.74 309.67 210.036 309.67 210.412V213.712C309.67 213.792 309.642 213.86 309.586 213.916C309.53 213.972 309.458 214 309.37 214H308.326ZM315.768 216.64C315.056 216.64 314.48 216.52 314.04 216.28C313.6 216.048 313.288 215.78 313.104 215.476C312.92 215.172 312.828 214.912 312.828 214.696C312.828 214.624 312.856 214.56 312.912 214.504C312.976 214.448 313.044 214.42 313.116 214.42H314.16C314.232 214.42 314.292 214.436 314.34 214.468C314.396 214.508 314.44 214.576 314.472 214.672C314.552 214.888 314.68 215.068 314.856 215.212C315.04 215.364 315.324 215.44 315.708 215.44C316.188 215.44 316.54 215.332 316.764 215.116C316.996 214.9 317.112 214.528 317.112 214V213.184C316.672 213.704 316.056 213.964 315.264 213.964C314.432 213.964 313.804 213.708 313.38 213.196C312.964 212.684 312.74 211.996 312.708 211.132L312.696 210.808L312.708 210.484C312.74 209.636 312.968 208.952 313.392 208.432C313.816 207.904 314.44 207.64 315.264 207.64C315.688 207.64 316.06 207.72 316.38 207.88C316.7 208.04 316.968 208.26 317.184 208.54V208.06C317.184 207.972 317.212 207.9 317.268 207.844C317.324 207.788 317.392 207.76 317.472 207.76H318.444C318.524 207.76 318.592 207.792 318.648 207.856C318.704 207.912 318.732 207.98 318.732 208.06L318.744 213.844C318.744 214.732 318.496 215.42 318 215.908C317.504 216.396 316.76 216.64 315.768 216.64ZM315.708 212.692C316.164 212.692 316.504 212.548 316.728 212.26C316.96 211.972 317.088 211.62 317.112 211.204C317.12 211.14 317.124 211.008 317.124 210.808C317.124 210.616 317.12 210.488 317.112 210.424C317.088 210 316.96 209.644 316.728 209.356C316.504 209.068 316.164 208.924 315.708 208.924C314.844 208.924 314.388 209.456 314.34 210.52L314.328 210.808C314.328 211.376 314.428 211.832 314.628 212.176C314.836 212.52 315.196 212.692 315.708 212.692ZM323.103 214.12C322.167 214.12 321.443 213.88 320.931 213.4C320.419 212.912 320.143 212.248 320.103 211.408L320.091 210.88L320.103 210.352C320.143 209.52 320.423 208.86 320.943 208.372C321.463 207.884 322.183 207.64 323.103 207.64C324.023 207.64 324.743 207.884 325.263 208.372C325.783 208.86 326.063 209.52 326.103 210.352C326.111 210.448 326.115 210.624 326.115 210.88C326.115 211.136 326.111 211.312 326.103 211.408C326.063 212.248 325.787 212.912 325.275 213.4C324.763 213.88 324.039 214.12 323.103 214.12ZM323.103 212.932C323.527 212.932 323.855 212.8 324.087 212.536C324.319 212.264 324.447 211.868 324.471 211.348C324.479 211.268 324.483 211.112 324.483 210.88C324.483 210.648 324.479 210.492 324.471 210.412C324.447 209.892 324.319 209.5 324.087 209.236C323.855 208.964 323.527 208.828 323.103 208.828C322.679 208.828 322.351 208.964 322.119 209.236C321.887 209.5 321.759 209.892 321.735 210.412L321.723 210.88L321.735 211.348C321.759 211.868 321.887 212.264 322.119 212.536C322.351 212.8 322.679 212.932 323.103 212.932ZM327.732 214C327.652 214 327.584 213.972 327.528 213.916C327.472 213.86 327.444 213.792 327.444 213.712V208.048C327.444 207.968 327.472 207.9 327.528 207.844C327.584 207.788 327.652 207.76 327.732 207.76H328.716C328.796 207.76 328.864 207.788 328.92 207.844C328.976 207.9 329.004 207.968 329.004 208.048V208.54C329.476 207.94 330.144 207.64 331.008 207.64C331.744 207.64 332.328 207.884 332.76 208.372C333.192 208.852 333.408 209.508 333.408 210.34V213.712C333.408 213.792 333.38 213.86 333.324 213.916C333.276 213.972 333.208 214 333.12 214H332.064C331.984 214 331.916 213.972 331.86 213.916C331.804 213.86 331.776 213.792 331.776 213.712V210.412C331.776 209.94 331.66 209.576 331.428 209.32C331.204 209.056 330.876 208.924 330.444 208.924C330.02 208.924 329.684 209.056 329.436 209.32C329.196 209.584 329.076 209.948 329.076 210.412V213.712C329.076 213.792 329.048 213.86 328.992 213.916C328.944 213.972 328.876 214 328.788 214H327.732ZM337.693 214.12C336.757 214.12 336.033 213.88 335.521 213.4C335.009 212.912 334.733 212.248 334.693 211.408L334.681 210.88L334.693 210.352C334.733 209.52 335.013 208.86 335.533 208.372C336.053 207.884 336.773 207.64 337.693 207.64C338.613 207.64 339.333 207.884 339.853 208.372C340.373 208.86 340.653 209.52 340.693 210.352C340.701 210.448 340.705 210.624 340.705 210.88C340.705 211.136 340.701 211.312 340.693 211.408C340.653 212.248 340.377 212.912 339.865 213.4C339.353 213.88 338.629 214.12 337.693 214.12ZM337.693 212.932C338.117 212.932 338.445 212.8 338.677 212.536C338.909 212.264 339.037 211.868 339.061 211.348C339.069 211.268 339.073 211.112 339.073 210.88C339.073 210.648 339.069 210.492 339.061 210.412C339.037 209.892 338.909 209.5 338.677 209.236C338.445 208.964 338.117 208.828 337.693 208.828C337.269 208.828 336.941 208.964 336.709 209.236C336.477 209.5 336.349 209.892 336.325 210.412L336.313 210.88L336.325 211.348C336.349 211.868 336.477 212.264 336.709 212.536C336.941 212.8 337.269 212.932 337.693 212.932ZM342.334 214C342.254 214 342.186 213.972 342.13 213.916C342.074 213.86 342.046 213.792 342.046 213.712V205.768C342.046 205.68 342.074 205.612 342.13 205.564C342.186 205.508 342.254 205.48 342.334 205.48H343.33C343.418 205.48 343.486 205.508 343.534 205.564C343.59 205.612 343.618 205.68 343.618 205.768V213.712C343.618 213.792 343.59 213.86 343.534 213.916C343.486 213.972 343.418 214 343.33 214H342.334ZM347.022 214.12C346.614 214.12 346.238 214.04 345.894 213.88C345.558 213.712 345.29 213.488 345.09 213.208C344.898 212.928 344.802 212.62 344.802 212.284C344.802 211.74 345.022 211.3 345.462 210.964C345.902 210.628 346.506 210.4 347.274 210.28L348.918 210.04V209.788C348.918 209.436 348.83 209.172 348.654 208.996C348.478 208.82 348.194 208.732 347.802 208.732C347.538 208.732 347.322 208.784 347.154 208.888C346.994 208.984 346.866 209.08 346.77 209.176C346.674 209.28 346.61 209.348 346.578 209.38C346.546 209.476 346.486 209.524 346.398 209.524H345.474C345.402 209.524 345.338 209.5 345.282 209.452C345.234 209.404 345.21 209.34 345.21 209.26C345.218 209.06 345.314 208.832 345.498 208.576C345.69 208.32 345.982 208.1 346.374 207.916C346.766 207.732 347.246 207.64 347.814 207.64C348.758 207.64 349.446 207.852 349.878 208.276C350.31 208.7 350.526 209.256 350.526 209.944V213.712C350.526 213.792 350.498 213.86 350.442 213.916C350.394 213.972 350.326 214 350.238 214H349.266C349.186 214 349.118 213.972 349.062 213.916C349.006 213.86 348.978 213.792 348.978 213.712V213.244C348.802 213.5 348.55 213.712 348.222 213.88C347.902 214.04 347.502 214.12 347.022 214.12ZM347.43 212.98C347.87 212.98 348.23 212.836 348.51 212.548C348.79 212.26 348.93 211.84 348.93 211.288V211.036L347.73 211.228C347.266 211.3 346.914 211.416 346.674 211.576C346.442 211.736 346.326 211.932 346.326 212.164C346.326 212.42 346.434 212.62 346.65 212.764C346.866 212.908 347.126 212.98 347.43 212.98ZM354.765 214.12C353.885 214.12 353.181 213.876 352.653 213.388C352.133 212.9 351.857 212.224 351.825 211.36L351.813 210.88L351.825 210.4C351.857 209.536 352.133 208.86 352.653 208.372C353.181 207.884 353.885 207.64 354.765 207.64C355.389 207.64 355.917 207.752 356.349 207.976C356.789 208.2 357.113 208.476 357.321 208.804C357.537 209.124 357.653 209.428 357.669 209.716C357.677 209.796 357.649 209.864 357.585 209.92C357.529 209.976 357.461 210.004 357.381 210.004H356.325C356.245 210.004 356.181 209.988 356.133 209.956C356.093 209.916 356.053 209.852 356.013 209.764C355.893 209.452 355.733 209.228 355.533 209.092C355.341 208.956 355.093 208.888 354.789 208.888C354.381 208.888 354.061 209.02 353.829 209.284C353.597 209.54 353.473 209.932 353.457 210.46L353.445 210.904L353.457 211.3C353.489 212.348 353.933 212.872 354.789 212.872C355.101 212.872 355.353 212.804 355.545 212.668C355.737 212.532 355.893 212.308 356.013 211.996C356.053 211.908 356.093 211.848 356.133 211.816C356.181 211.776 356.245 211.756 356.325 211.756H357.381C357.461 211.756 357.529 211.784 357.585 211.84C357.649 211.896 357.677 211.964 357.669 212.044C357.653 212.324 357.541 212.624 357.333 212.944C357.125 213.264 356.805 213.54 356.373 213.772C355.941 214.004 355.405 214.12 354.765 214.12ZM361.741 214C361.013 214 360.465 213.812 360.097 213.436C359.737 213.052 359.557 212.492 359.557 211.756V209.032H358.609C358.529 209.032 358.461 209.004 358.405 208.948C358.349 208.884 358.321 208.812 358.321 208.732V208.048C358.321 207.968 358.349 207.9 358.405 207.844C358.461 207.788 358.529 207.76 358.609 207.76H359.557V205.768C359.557 205.68 359.585 205.612 359.641 205.564C359.697 205.508 359.765 205.48 359.845 205.48H360.817C360.905 205.48 360.973 205.508 361.021 205.564C361.077 205.612 361.105 205.68 361.105 205.768V207.76H362.605C362.693 207.76 362.761 207.788 362.809 207.844C362.865 207.892 362.893 207.96 362.893 208.048V208.732C362.893 208.82 362.865 208.892 362.809 208.948C362.753 209.004 362.685 209.032 362.605 209.032H361.105V211.636C361.105 211.98 361.165 212.24 361.285 212.416C361.405 212.592 361.605 212.68 361.885 212.68H362.713C362.793 212.68 362.861 212.708 362.917 212.764C362.973 212.82 363.001 212.888 363.001 212.968V213.712C363.001 213.792 362.973 213.86 362.917 213.916C362.869 213.972 362.801 214 362.713 214H361.741ZM366.825 214.12C365.889 214.12 365.165 213.88 364.653 213.4C364.141 212.912 363.865 212.248 363.825 211.408L363.813 210.88L363.825 210.352C363.865 209.52 364.145 208.86 364.665 208.372C365.185 207.884 365.905 207.64 366.825 207.64C367.745 207.64 368.465 207.884 368.985 208.372C369.505 208.86 369.785 209.52 369.825 210.352C369.833 210.448 369.837 210.624 369.837 210.88C369.837 211.136 369.833 211.312 369.825 211.408C369.785 212.248 369.509 212.912 368.997 213.4C368.485 213.88 367.761 214.12 366.825 214.12ZM366.825 212.932C367.249 212.932 367.577 212.8 367.809 212.536C368.041 212.264 368.169 211.868 368.193 211.348C368.201 211.268 368.205 211.112 368.205 210.88C368.205 210.648 368.201 210.492 368.193 210.412C368.169 209.892 368.041 209.5 367.809 209.236C367.577 208.964 367.249 208.828 366.825 208.828C366.401 208.828 366.073 208.964 365.841 209.236C365.609 209.5 365.481 209.892 365.457 210.412L365.445 210.88L365.457 211.348C365.481 211.868 365.609 212.264 365.841 212.536C366.073 212.8 366.401 212.932 366.825 212.932ZM371.455 214C371.375 214 371.307 213.972 371.251 213.916C371.195 213.86 371.167 213.792 371.167 213.712V208.048C371.167 207.968 371.195 207.9 371.251 207.844C371.307 207.788 371.375 207.76 371.455 207.76H372.439C372.519 207.76 372.587 207.788 372.643 207.844C372.699 207.9 372.727 207.968 372.727 208.048V208.54C373.199 207.94 373.867 207.64 374.731 207.64C375.467 207.64 376.051 207.884 376.483 208.372C376.915 208.852 377.131 209.508 377.131 210.34V213.712C377.131 213.792 377.103 213.86 377.047 213.916C376.999 213.972 376.931 214 376.843 214H375.787C375.707 214 375.639 213.972 375.583 213.916C375.527 213.86 375.499 213.792 375.499 213.712V210.412C375.499 209.94 375.383 209.576 375.151 209.32C374.927 209.056 374.599 208.924 374.167 208.924C373.743 208.924 373.407 209.056 373.159 209.32C372.919 209.584 372.799 209.948 372.799 210.412V213.712C372.799 213.792 372.771 213.86 372.715 213.916C372.667 213.972 372.599 214 372.511 214H371.455ZM381.343 214.12C380.455 214.12 379.747 213.864 379.219 213.352C378.699 212.832 378.423 212.104 378.391 211.168L378.379 210.868L378.391 210.568C378.431 209.656 378.711 208.94 379.231 208.42C379.759 207.9 380.463 207.64 381.343 207.64C382.287 207.64 383.015 207.928 383.527 208.504C384.047 209.08 384.307 209.848 384.307 210.808V211.06C384.307 211.14 384.279 211.208 384.223 211.264C384.167 211.32 384.095 211.348 384.007 211.348H380.023V211.444C380.039 211.884 380.159 212.256 380.383 212.56C380.615 212.856 380.931 213.004 381.331 213.004C381.803 213.004 382.183 212.82 382.471 212.452C382.543 212.364 382.599 212.308 382.639 212.284C382.687 212.26 382.755 212.248 382.843 212.248H383.875C383.947 212.248 384.007 212.272 384.055 212.32C384.111 212.36 384.139 212.412 384.139 212.476C384.139 212.668 384.023 212.896 383.791 213.16C383.567 213.416 383.243 213.64 382.819 213.832C382.395 214.024 381.903 214.12 381.343 214.12ZM382.675 210.34V210.304C382.675 209.832 382.555 209.452 382.315 209.164C382.083 208.876 381.759 208.732 381.343 208.732C380.927 208.732 380.603 208.876 380.371 209.164C380.139 209.452 380.023 209.832 380.023 210.304V210.34H382.675Z" fill="white"/>
</g>
</g>
</svg>
