<svg width="491" height="288" viewBox="0 0 491 288" fill="none" xmlns="http://www.w3.org/2000/svg">
<g id="Group 126">
<g id="Group 99">
<rect id="Rectangle 114" width="490.996" height="288" fill="#8C8C8C"/>
<g id="Group 84">
<path id="Vector 113" d="M395.043 35.0537H403.423V237.364H395.043" stroke="white"/>
<path id="Vector 112" d="M304.063 85.3322L347.159 126.034" stroke="white"/>
<path id="Vector 111" d="M304.063 84.1349V123.639L324.414 141.596" stroke="white"/>
<path id="Vector 110" d="M330.399 147.581L347.159 163.144" stroke="white"/>
<path id="Vector 109" d="M301.67 166.735L347.16 126.033L377.087 143.99L347.16 164.341L304.064 203.845V169.129" stroke="white"/>
<path id="Vector 107" d="M299.275 84.1349V122.442" stroke="white"/>
<path id="Vector 108" d="M299.275 167.932V205.042" stroke="white"/>
<path id="Vector 106" d="M265.756 158.355L290.895 183.494" stroke="white"/>
<path id="Vector 105" d="M264.56 132.019L289.699 105.683" stroke="white"/>
<path id="Vector 103" d="M141.258 145.187L154.426 148.778" stroke="white"/>
<path id="Vector 104" d="M141.258 149.975L153.229 153.567" stroke="white"/>
<path id="Vector 101" d="M195.127 103.288L221.463 128.428" stroke="white"/>
<path id="Vector 102" d="M195.127 185.889L220.266 159.552" stroke="white"/>
<path id="Vector 99" d="M105.345 67.3755L116.119 106.88" stroke="white"/>
<path id="Vector 100" d="M106.542 172.72L117.316 130.822" stroke="white"/>
<path id="Vector 114" d="M56.2638 35.0546H50.2783V236.168H58.658" stroke="white"/>
<g id="Vector 98">
<path d="M136.469 147.581L152.032 201.451L141.258 147.581L154.426 93.7117L105.345 66.1783L149.637 96.1059L136.469 147.581Z" fill="white"/>
<path d="M69.4316 76.9523V172.72H105.345L152.032 201.451M152.032 201.451H179.565M152.032 201.451L136.469 147.581L149.637 96.1059L105.345 66.1783M152.032 201.451L141.258 147.581L154.426 93.7117M105.345 66.1783H80.2055M105.345 66.1783L154.426 93.7117M154.426 93.7117H177.171" stroke="white"/>
</g>
</g>
<path id="O" d="M65.2795 62.1845C63.8821 62.1845 62.7995 61.8219 62.0315 61.0965C61.2741 60.3605 60.8741 59.2565 60.8315 57.7845C60.8208 57.4645 60.8155 57.0112 60.8155 56.4245C60.8155 55.8379 60.8208 55.3899 60.8315 55.0805C60.8741 53.6405 61.2901 52.5472 62.0795 51.8005C62.8688 51.0432 63.9355 50.6645 65.2795 50.6645C66.6128 50.6645 67.6741 51.0432 68.4635 51.8005C69.2528 52.5472 69.6688 53.6405 69.7115 55.0805C69.7328 55.6992 69.7435 56.1472 69.7435 56.4245C69.7435 56.6912 69.7328 57.1445 69.7115 57.7845C69.6688 59.2565 69.2635 60.3605 68.4955 61.0965C67.7381 61.8219 66.6661 62.1845 65.2795 62.1845ZM65.2795 60.8245C66.1221 60.8245 66.7941 60.5685 67.2955 60.0565C67.7968 59.5445 68.0688 58.7605 68.1115 57.7045C68.1328 57.0645 68.1435 56.6379 68.1435 56.4245C68.1435 56.1899 68.1328 55.7632 68.1115 55.1445C68.0688 54.0885 67.7915 53.3045 67.2795 52.7925C66.7781 52.2805 66.1115 52.0245 65.2795 52.0245C64.4368 52.0245 63.7595 52.2805 63.2475 52.7925C62.7461 53.3045 62.4741 54.0885 62.4315 55.1445C62.4208 55.4539 62.4155 55.8805 62.4155 56.4245C62.4155 56.9579 62.4208 57.3845 62.4315 57.7045C62.4741 58.7605 62.7461 59.5445 63.2475 60.0565C63.7595 60.5685 64.4368 60.8245 65.2795 60.8245Z" fill="white"/>
<path id="O_2" d="M117.951 119.645C116.554 119.645 115.471 119.283 114.703 118.557C113.946 117.821 113.546 116.717 113.503 115.245C113.493 114.925 113.487 114.472 113.487 113.885C113.487 113.299 113.493 112.851 113.503 112.541C113.546 111.101 113.962 110.008 114.751 109.261C115.541 108.504 116.607 108.125 117.951 108.125C119.285 108.125 120.346 108.504 121.135 109.261C121.925 110.008 122.341 111.101 122.383 112.541C122.405 113.16 122.415 113.608 122.415 113.885C122.415 114.152 122.405 114.605 122.383 115.245C122.341 116.717 121.935 117.821 121.167 118.557C120.41 119.283 119.338 119.645 117.951 119.645ZM117.951 118.285C118.794 118.285 119.466 118.029 119.967 117.517C120.469 117.005 120.741 116.221 120.783 115.165C120.805 114.525 120.815 114.099 120.815 113.885C120.815 113.651 120.805 113.224 120.783 112.605C120.741 111.549 120.463 110.765 119.951 110.253C119.45 109.741 118.783 109.485 117.951 109.485C117.109 109.485 116.431 109.741 115.919 110.253C115.418 110.765 115.146 111.549 115.103 112.605C115.093 112.915 115.087 113.341 115.087 113.885C115.087 114.419 115.093 114.845 115.103 115.165C115.146 116.221 115.418 117.005 115.919 117.517C116.431 118.029 117.109 118.285 117.951 118.285Z" fill="white"/>
<path id="O_3" d="M163.442 155.559C162.044 155.559 160.962 155.196 160.194 154.471C159.436 153.735 159.036 152.631 158.994 151.159C158.983 150.839 158.978 150.385 158.978 149.799C158.978 149.212 158.983 148.764 158.994 148.455C159.036 147.015 159.452 145.921 160.242 145.175C161.031 144.417 162.098 144.039 163.442 144.039C164.775 144.039 165.836 144.417 166.626 145.175C167.415 145.921 167.831 147.015 167.874 148.455C167.895 149.073 167.906 149.521 167.906 149.799C167.906 150.065 167.895 150.519 167.874 151.159C167.831 152.631 167.426 153.735 166.658 154.471C165.9 155.196 164.828 155.559 163.442 155.559ZM163.442 154.199C164.284 154.199 164.956 153.943 165.458 153.431C165.959 152.919 166.231 152.135 166.274 151.079C166.295 150.439 166.306 150.012 166.306 149.799C166.306 149.564 166.295 149.137 166.274 148.519C166.231 147.463 165.954 146.679 165.442 146.167C164.94 145.655 164.274 145.399 163.442 145.399C162.599 145.399 161.922 145.655 161.41 146.167C160.908 146.679 160.636 147.463 160.594 148.519C160.583 148.828 160.578 149.255 160.578 149.799C160.578 150.332 160.583 150.759 160.594 151.079C160.636 152.135 160.908 152.919 161.41 153.431C161.922 153.943 162.599 154.199 163.442 154.199Z" fill="white"/>
<path id="P" d="M181.325 93.149C181.219 93.149 181.128 93.117 181.053 93.053C180.989 92.9784 180.957 92.8877 180.957 92.781V82.333C180.957 82.2157 180.989 82.125 181.053 82.061C181.128 81.9864 181.219 81.949 181.325 81.949H185.389C186.595 81.949 187.544 82.2424 188.237 82.829C188.931 83.4157 189.277 84.2637 189.277 85.373C189.277 86.4824 188.931 87.3304 188.237 87.917C187.555 88.493 186.605 88.781 185.389 88.781H182.557V92.781C182.557 92.8877 182.52 92.9784 182.445 93.053C182.371 93.117 182.28 93.149 182.173 93.149H181.325ZM185.309 87.437C186.088 87.437 186.675 87.261 187.069 86.909C187.475 86.557 187.677 86.045 187.677 85.373C187.677 84.701 187.48 84.189 187.085 83.837C186.691 83.4744 186.099 83.293 185.309 83.293H182.541V87.437H185.309Z" fill="white"/>
<path id="P_2" d="M183.719 205.677C183.612 205.677 183.522 205.645 183.447 205.581C183.383 205.506 183.351 205.415 183.351 205.309V194.861C183.351 194.743 183.383 194.653 183.447 194.589C183.522 194.514 183.612 194.477 183.719 194.477H187.783C188.988 194.477 189.938 194.77 190.631 195.357C191.324 195.943 191.671 196.791 191.671 197.901C191.671 199.01 191.324 199.858 190.631 200.445C189.948 201.021 188.999 201.309 187.783 201.309H184.951V205.309C184.951 205.415 184.914 205.506 184.839 205.581C184.764 205.645 184.674 205.677 184.567 205.677H183.719ZM187.703 199.965C188.482 199.965 189.068 199.789 189.463 199.437C189.868 199.085 190.071 198.573 190.071 197.901C190.071 197.229 189.874 196.717 189.479 196.365C189.084 196.002 188.492 195.821 187.703 195.821H184.935V199.965H187.703Z" fill="white"/>
<path id="4" d="M460.1 170.34C460.053 170.34 460.014 170.326 459.981 170.298C459.953 170.266 459.939 170.226 459.939 170.179V169.171H457.671C457.624 169.171 457.585 169.157 457.552 169.129C457.524 169.097 457.51 169.057 457.51 169.01V168.73C457.51 168.66 457.536 168.59 457.587 168.52L459.687 165.559C459.71 165.522 459.745 165.494 459.792 165.475C459.839 165.452 459.89 165.44 459.946 165.44H460.45C460.497 165.44 460.534 165.457 460.562 165.489C460.595 165.517 460.611 165.555 460.611 165.601V168.562H461.241C461.288 168.562 461.327 168.579 461.36 168.611C461.393 168.639 461.409 168.677 461.409 168.723V169.01C461.409 169.057 461.393 169.097 461.36 169.129C461.332 169.157 461.295 169.171 461.248 169.171H460.611V170.179C460.611 170.226 460.595 170.266 460.562 170.298C460.534 170.326 460.497 170.34 460.45 170.34H460.1ZM459.946 168.576V166.175L458.259 168.576H459.946Z" fill="white"/>
<path id="-" d="M467.513 156.563C467.466 156.563 467.427 156.549 467.394 156.521C467.366 156.489 467.352 156.449 467.352 156.402V156.136C467.352 156.09 467.366 156.052 467.394 156.024C467.427 155.992 467.466 155.975 467.513 155.975H469.613C469.66 155.975 469.697 155.992 469.725 156.024C469.758 156.052 469.774 156.09 469.774 156.136V156.402C469.774 156.449 469.758 156.489 469.725 156.521C469.697 156.549 469.66 156.563 469.613 156.563H467.513Z" fill="white"/>
<path id="+" d="M406.671 21.6689C406.624 21.6689 406.585 21.6549 406.552 21.6269C406.524 21.5942 406.51 21.5546 406.51 21.5079V20.0519H405.075C405.028 20.0519 404.989 20.0379 404.956 20.0099C404.928 19.9772 404.914 19.9376 404.914 19.8909V19.6669C404.914 19.6202 404.928 19.5829 404.956 19.5549C404.989 19.5222 405.028 19.5059 405.075 19.5059H406.51V18.0919C406.51 18.0452 406.524 18.0079 406.552 17.9799C406.585 17.9472 406.624 17.9309 406.671 17.9309H406.916C406.963 17.9309 407 17.9472 407.028 17.9799C407.061 18.0079 407.077 18.0452 407.077 18.0919V19.5059H408.519C408.566 19.5059 408.603 19.5222 408.631 19.5549C408.664 19.5829 408.68 19.6202 408.68 19.6669V19.8909C408.68 19.9376 408.664 19.9772 408.631 20.0099C408.603 20.0379 408.566 20.0519 408.519 20.0519H407.077V21.5079C407.077 21.5546 407.061 21.5942 407.028 21.6269C407 21.6549 406.963 21.6689 406.916 21.6689H406.671Z" fill="white"/>
<path id="Rh" d="M229.209 145.822C229.103 145.822 229.012 145.79 228.937 145.726C228.873 145.651 228.841 145.56 228.841 145.454V135.006C228.841 134.888 228.873 134.798 228.937 134.734C229.012 134.659 229.103 134.622 229.209 134.622H233.113C234.34 134.622 235.3 134.91 235.993 135.486C236.687 136.062 237.033 136.894 237.033 137.982C237.033 138.792 236.831 139.459 236.425 139.982C236.031 140.504 235.471 140.867 234.745 141.07L237.209 145.326C237.241 145.39 237.257 145.448 237.257 145.502C237.257 145.587 237.22 145.662 237.145 145.726C237.081 145.79 237.007 145.822 236.921 145.822H236.153C235.993 145.822 235.865 145.784 235.769 145.71C235.684 145.635 235.604 145.528 235.529 145.39L233.209 141.326H230.409V145.454C230.409 145.56 230.372 145.651 230.297 145.726C230.223 145.79 230.132 145.822 230.025 145.822H229.209ZM233.049 139.966C234.639 139.966 235.433 139.299 235.433 137.966C235.433 136.632 234.639 135.966 233.049 135.966H230.409V139.966H233.049ZM239.502 145.822C239.395 145.822 239.304 145.79 239.23 145.726C239.166 145.651 239.134 145.56 239.134 145.454V134.83C239.134 134.723 239.166 134.638 239.23 134.574C239.304 134.499 239.395 134.462 239.502 134.462H240.302C240.408 134.462 240.494 134.499 240.558 134.574C240.632 134.638 240.67 134.723 240.67 134.83V138.558C240.979 138.163 241.342 137.864 241.758 137.662C242.174 137.448 242.691 137.342 243.31 137.342C244.334 137.342 245.128 137.672 245.694 138.334C246.27 138.984 246.558 139.854 246.558 140.942V145.454C246.558 145.56 246.52 145.651 246.446 145.726C246.382 145.79 246.296 145.822 246.19 145.822H245.39C245.283 145.822 245.192 145.79 245.118 145.726C245.054 145.651 245.022 145.56 245.022 145.454V141.022C245.022 140.264 244.835 139.678 244.462 139.262C244.099 138.846 243.571 138.638 242.878 138.638C242.206 138.638 241.667 138.851 241.262 139.278C240.867 139.694 240.67 140.275 240.67 141.022V145.454C240.67 145.56 240.632 145.651 240.558 145.726C240.494 145.79 240.408 145.822 240.302 145.822H239.502Z" fill="white"/>
<path id="ClO" d="M424.409 162.741C422.98 162.741 421.892 162.357 421.145 161.589C420.409 160.821 420.015 159.76 419.961 158.405C419.951 158.117 419.945 157.648 419.945 156.997C419.945 156.336 419.951 155.856 419.961 155.557C420.015 154.213 420.415 153.157 421.161 152.389C421.908 151.61 422.991 151.221 424.409 151.221C425.359 151.221 426.164 151.392 426.825 151.733C427.487 152.064 427.988 152.501 428.329 153.045C428.671 153.589 428.857 154.17 428.889 154.789V154.821C428.889 154.906 428.852 154.981 428.777 155.045C428.713 155.098 428.639 155.125 428.553 155.125H427.673C427.46 155.125 427.327 155.002 427.273 154.757C427.092 153.957 426.767 153.397 426.297 153.077C425.828 152.746 425.199 152.581 424.409 152.581C422.575 152.581 421.625 153.6 421.561 155.637C421.551 155.925 421.545 156.368 421.545 156.965C421.545 157.562 421.551 158.016 421.561 158.325C421.625 160.362 422.575 161.381 424.409 161.381C425.199 161.381 425.828 161.221 426.297 160.901C426.777 160.57 427.103 160.005 427.273 159.205C427.305 159.066 427.353 158.97 427.417 158.917C427.481 158.864 427.567 158.837 427.673 158.837H428.553C428.649 158.837 428.729 158.869 428.793 158.933C428.868 158.986 428.9 159.061 428.889 159.157C428.857 159.786 428.671 160.373 428.329 160.917C427.988 161.461 427.487 161.904 426.825 162.245C426.164 162.576 425.359 162.741 424.409 162.741ZM431.21 162.581C431.103 162.581 431.012 162.549 430.938 162.485C430.874 162.41 430.842 162.32 430.842 162.213V151.589C430.842 151.482 430.874 151.397 430.938 151.333C431.012 151.258 431.103 151.221 431.21 151.221H431.962C432.068 151.221 432.154 151.258 432.218 151.333C432.292 151.397 432.33 151.482 432.33 151.589V162.213C432.33 162.32 432.292 162.41 432.218 162.485C432.154 162.549 432.068 162.581 431.962 162.581H431.21ZM438.956 162.741C437.559 162.741 436.476 162.378 435.708 161.653C434.951 160.917 434.551 159.813 434.508 158.341C434.498 158.021 434.492 157.568 434.492 156.981C434.492 156.394 434.498 155.946 434.508 155.637C434.551 154.197 434.967 153.104 435.756 152.357C436.546 151.6 437.612 151.221 438.956 151.221C440.29 151.221 441.351 151.6 442.14 152.357C442.93 153.104 443.346 154.197 443.388 155.637C443.41 156.256 443.42 156.704 443.42 156.981C443.42 157.248 443.41 157.701 443.388 158.341C443.346 159.813 442.94 160.917 442.172 161.653C441.415 162.378 440.343 162.741 438.956 162.741ZM438.956 161.381C439.799 161.381 440.471 161.125 440.972 160.613C441.474 160.101 441.746 159.317 441.788 158.261C441.81 157.621 441.82 157.194 441.82 156.981C441.82 156.746 441.81 156.32 441.788 155.701C441.746 154.645 441.468 153.861 440.956 153.349C440.455 152.837 439.788 152.581 438.956 152.581C438.114 152.581 437.436 152.837 436.924 153.349C436.423 153.861 436.151 154.645 436.108 155.701C436.098 156.01 436.092 156.437 436.092 156.981C436.092 157.514 436.098 157.941 436.108 158.261C436.151 159.317 436.423 160.101 436.924 160.613C437.436 161.125 438.114 161.381 438.956 161.381Z" fill="white"/>
</g>
<path id="Figure 3. Chiral rhodium catalyst, using levoglucosan" d="M96.224 269C96.144 269 96.076 268.972 96.02 268.916C95.964 268.86 95.936 268.792 95.936 268.712V260.9C95.936 260.812 95.96 260.74 96.008 260.684C96.064 260.628 96.136 260.6 96.224 260.6H101.432C101.52 260.6 101.592 260.628 101.648 260.684C101.704 260.74 101.732 260.812 101.732 260.9V261.74C101.732 261.828 101.704 261.9 101.648 261.956C101.592 262.004 101.52 262.028 101.432 262.028H97.58V264.308H101.192C101.28 264.308 101.352 264.336 101.408 264.392C101.464 264.448 101.492 264.52 101.492 264.608V265.448C101.492 265.536 101.464 265.608 101.408 265.664C101.352 265.712 101.28 265.736 101.192 265.736H97.58V268.712C97.58 268.8 97.552 268.872 97.496 268.928C97.44 268.976 97.368 269 97.28 269H96.224ZM103.239 261.728C103.159 261.728 103.091 261.7 103.035 261.644C102.979 261.588 102.951 261.52 102.951 261.44V260.576C102.951 260.496 102.979 260.428 103.035 260.372C103.091 260.316 103.159 260.288 103.239 260.288H104.331C104.411 260.288 104.479 260.316 104.535 260.372C104.599 260.428 104.631 260.496 104.631 260.576V261.44C104.631 261.52 104.603 261.588 104.547 261.644C104.491 261.7 104.419 261.728 104.331 261.728H103.239ZM103.287 269C103.207 269 103.139 268.972 103.083 268.916C103.027 268.86 102.999 268.792 102.999 268.712V263.048C102.999 262.968 103.027 262.9 103.083 262.844C103.139 262.788 103.207 262.76 103.287 262.76H104.283C104.371 262.76 104.439 262.788 104.487 262.844C104.543 262.892 104.571 262.96 104.571 263.048V268.712C104.571 268.792 104.543 268.86 104.487 268.916C104.439 268.972 104.371 269 104.283 269H103.287ZM108.983 271.64C108.271 271.64 107.695 271.52 107.255 271.28C106.815 271.048 106.503 270.78 106.319 270.476C106.135 270.172 106.043 269.912 106.043 269.696C106.043 269.624 106.071 269.56 106.127 269.504C106.191 269.448 106.259 269.42 106.331 269.42H107.375C107.447 269.42 107.507 269.436 107.555 269.468C107.611 269.508 107.655 269.576 107.687 269.672C107.767 269.888 107.895 270.068 108.071 270.212C108.255 270.364 108.539 270.44 108.923 270.44C109.403 270.44 109.755 270.332 109.979 270.116C110.211 269.9 110.327 269.528 110.327 269V268.184C109.887 268.704 109.271 268.964 108.479 268.964C107.647 268.964 107.019 268.708 106.595 268.196C106.179 267.684 105.955 266.996 105.923 266.132L105.911 265.808L105.923 265.484C105.955 264.636 106.183 263.952 106.607 263.432C107.031 262.904 107.655 262.64 108.479 262.64C108.903 262.64 109.275 262.72 109.595 262.88C109.915 263.04 110.183 263.26 110.399 263.54V263.06C110.399 262.972 110.427 262.9 110.483 262.844C110.539 262.788 110.607 262.76 110.687 262.76H111.659C111.739 262.76 111.807 262.792 111.863 262.856C111.919 262.912 111.947 262.98 111.947 263.06L111.959 268.844C111.959 269.732 111.711 270.42 111.215 270.908C110.719 271.396 109.975 271.64 108.983 271.64ZM108.923 267.692C109.379 267.692 109.719 267.548 109.943 267.26C110.175 266.972 110.303 266.62 110.327 266.204C110.335 266.14 110.339 266.008 110.339 265.808C110.339 265.616 110.335 265.488 110.327 265.424C110.303 265 110.175 264.644 109.943 264.356C109.719 264.068 109.379 263.924 108.923 263.924C108.059 263.924 107.603 264.456 107.555 265.52L107.543 265.808C107.543 266.376 107.643 266.832 107.843 267.176C108.051 267.52 108.411 267.692 108.923 267.692ZM115.874 269.12C115.138 269.12 114.558 268.88 114.134 268.4C113.71 267.912 113.498 267.252 113.498 266.42V263.048C113.498 262.968 113.526 262.9 113.582 262.844C113.638 262.788 113.706 262.76 113.786 262.76H114.842C114.93 262.76 114.998 262.788 115.046 262.844C115.102 262.892 115.13 262.96 115.13 263.048V266.348C115.13 267.34 115.566 267.836 116.438 267.836C116.854 267.836 117.182 267.704 117.422 267.44C117.67 267.176 117.794 266.812 117.794 266.348V263.048C117.794 262.968 117.822 262.9 117.878 262.844C117.934 262.788 118.002 262.76 118.082 262.76H119.138C119.226 262.76 119.294 262.788 119.342 262.844C119.398 262.892 119.426 262.96 119.426 263.048V268.712C119.426 268.792 119.398 268.86 119.342 268.916C119.294 268.972 119.226 269 119.138 269H118.166C118.086 269 118.018 268.972 117.962 268.916C117.906 268.86 117.878 268.792 117.878 268.712V268.22C117.43 268.82 116.762 269.12 115.874 269.12ZM121.299 269C121.219 269 121.151 268.972 121.095 268.916C121.039 268.86 121.011 268.792 121.011 268.712V263.06C121.011 262.98 121.039 262.912 121.095 262.856C121.151 262.792 121.219 262.76 121.299 262.76H122.271C122.359 262.76 122.431 262.788 122.487 262.844C122.543 262.9 122.571 262.972 122.571 263.06V263.552C122.763 263.296 123.003 263.1 123.291 262.964C123.587 262.828 123.923 262.76 124.299 262.76H124.791C124.879 262.76 124.947 262.788 124.995 262.844C125.051 262.892 125.079 262.96 125.079 263.048V263.912C125.079 263.992 125.051 264.06 124.995 264.116C124.947 264.172 124.879 264.2 124.791 264.2H123.855C123.479 264.2 123.183 264.308 122.967 264.524C122.751 264.74 122.643 265.036 122.643 265.412V268.712C122.643 268.792 122.615 268.86 122.559 268.916C122.503 268.972 122.431 269 122.343 269H121.299ZM128.621 269.12C127.733 269.12 127.025 268.864 126.497 268.352C125.977 267.832 125.701 267.104 125.669 266.168L125.657 265.868L125.669 265.568C125.709 264.656 125.989 263.94 126.509 263.42C127.037 262.9 127.741 262.64 128.621 262.64C129.565 262.64 130.293 262.928 130.805 263.504C131.325 264.08 131.585 264.848 131.585 265.808V266.06C131.585 266.14 131.557 266.208 131.501 266.264C131.445 266.32 131.373 266.348 131.285 266.348H127.301V266.444C127.317 266.884 127.437 267.256 127.661 267.56C127.893 267.856 128.209 268.004 128.609 268.004C129.081 268.004 129.461 267.82 129.749 267.452C129.821 267.364 129.877 267.308 129.917 267.284C129.965 267.26 130.033 267.248 130.121 267.248H131.153C131.225 267.248 131.285 267.272 131.333 267.32C131.389 267.36 131.417 267.412 131.417 267.476C131.417 267.668 131.301 267.896 131.069 268.16C130.845 268.416 130.521 268.64 130.097 268.832C129.673 269.024 129.181 269.12 128.621 269.12ZM129.953 265.34V265.304C129.953 264.832 129.833 264.452 129.593 264.164C129.361 263.876 129.037 263.732 128.621 263.732C128.205 263.732 127.881 263.876 127.649 264.164C127.417 264.452 127.301 264.832 127.301 265.304V265.34H129.953ZM138.541 269.12C137.837 269.12 137.237 269.008 136.741 268.784C136.253 268.56 135.885 268.28 135.637 267.944C135.397 267.6 135.269 267.248 135.253 266.888C135.253 266.816 135.277 266.76 135.325 266.72C135.381 266.672 135.445 266.648 135.517 266.648H136.597C136.773 266.648 136.889 266.728 136.945 266.888C137.121 267.464 137.657 267.752 138.553 267.752C139.041 267.752 139.425 267.64 139.705 267.416C139.985 267.184 140.125 266.856 140.125 266.432C140.125 265.632 139.625 265.232 138.625 265.232H137.389C137.301 265.232 137.229 265.204 137.173 265.148C137.117 265.092 137.089 265.024 137.089 264.944V264.44C137.089 264.312 137.145 264.192 137.257 264.08L139.405 261.98H135.973C135.893 261.98 135.825 261.952 135.769 261.896C135.713 261.84 135.685 261.772 135.685 261.692V260.9C135.685 260.812 135.709 260.74 135.757 260.684C135.813 260.628 135.885 260.6 135.973 260.6H141.121C141.209 260.6 141.281 260.628 141.337 260.684C141.393 260.74 141.421 260.812 141.421 260.9V261.62C141.421 261.74 141.369 261.852 141.265 261.956L139.189 264.092L139.333 264.104C140.101 264.168 140.709 264.4 141.157 264.8C141.613 265.2 141.841 265.772 141.841 266.516C141.841 267.044 141.697 267.504 141.409 267.896C141.129 268.288 140.737 268.592 140.233 268.808C139.737 269.016 139.173 269.12 138.541 269.12ZM143.375 269C143.295 269 143.227 268.972 143.171 268.916C143.115 268.86 143.087 268.792 143.087 268.712V267.524C143.087 267.444 143.115 267.376 143.171 267.32C143.227 267.256 143.295 267.224 143.375 267.224H144.575C144.655 267.224 144.723 267.256 144.779 267.32C144.835 267.376 144.863 267.444 144.863 267.524V268.712C144.863 268.792 144.835 268.86 144.779 268.916C144.723 268.972 144.655 269 144.575 269H143.375ZM152.496 269.12C151.392 269.12 150.536 268.836 149.928 268.268C149.328 267.7 149.008 266.9 148.968 265.868C148.96 265.652 148.956 265.3 148.956 264.812C148.956 264.316 148.96 263.956 148.968 263.732C149.008 262.708 149.332 261.912 149.94 261.344C150.556 260.768 151.408 260.48 152.496 260.48C153.208 260.48 153.828 260.604 154.356 260.852C154.884 261.092 155.292 261.424 155.58 261.848C155.868 262.264 156.02 262.736 156.036 263.264V263.288C156.036 263.352 156.008 263.408 155.952 263.456C155.904 263.496 155.848 263.516 155.784 263.516H154.644C154.548 263.516 154.476 263.496 154.428 263.456C154.38 263.416 154.34 263.34 154.308 263.228C154.18 262.724 153.968 262.372 153.672 262.172C153.376 261.964 152.98 261.86 152.484 261.86C151.332 261.86 150.732 262.504 150.684 263.792C150.676 264.008 150.672 264.34 150.672 264.788C150.672 265.236 150.676 265.576 150.684 265.808C150.732 267.096 151.332 267.74 152.484 267.74C152.98 267.74 153.376 267.636 153.672 267.428C153.976 267.22 154.188 266.868 154.308 266.372C154.332 266.26 154.368 266.184 154.416 266.144C154.472 266.104 154.548 266.084 154.644 266.084H155.784C155.856 266.084 155.916 266.108 155.964 266.156C156.02 266.204 156.044 266.264 156.036 266.336C156.02 266.864 155.868 267.34 155.58 267.764C155.292 268.18 154.884 268.512 154.356 268.76C153.828 269 153.208 269.12 152.496 269.12ZM157.615 269C157.535 269 157.467 268.972 157.411 268.916C157.355 268.86 157.327 268.792 157.327 268.712V260.768C157.327 260.68 157.355 260.612 157.411 260.564C157.467 260.508 157.535 260.48 157.615 260.48H158.683C158.771 260.48 158.839 260.508 158.887 260.564C158.943 260.612 158.971 260.68 158.971 260.768V263.504C159.451 262.928 160.099 262.64 160.915 262.64C161.651 262.64 162.239 262.884 162.679 263.372C163.119 263.852 163.339 264.508 163.339 265.34V268.712C163.339 268.792 163.311 268.86 163.255 268.916C163.207 268.972 163.139 269 163.051 269H161.971C161.891 269 161.823 268.972 161.767 268.916C161.711 268.86 161.683 268.792 161.683 268.712V265.412C161.683 264.94 161.567 264.576 161.335 264.32C161.111 264.056 160.783 263.924 160.351 263.924C159.927 263.924 159.591 264.056 159.343 264.32C159.095 264.584 158.971 264.948 158.971 265.412V268.712C158.971 268.792 158.943 268.86 158.887 268.916C158.839 268.972 158.771 269 158.683 269H157.615ZM165.102 261.728C165.022 261.728 164.954 261.7 164.898 261.644C164.842 261.588 164.814 261.52 164.814 261.44V260.576C164.814 260.496 164.842 260.428 164.898 260.372C164.954 260.316 165.022 260.288 165.102 260.288H166.194C166.274 260.288 166.342 260.316 166.398 260.372C166.462 260.428 166.494 260.496 166.494 260.576V261.44C166.494 261.52 166.466 261.588 166.41 261.644C166.354 261.7 166.282 261.728 166.194 261.728H165.102ZM165.15 269C165.07 269 165.002 268.972 164.946 268.916C164.89 268.86 164.862 268.792 164.862 268.712V263.048C164.862 262.968 164.89 262.9 164.946 262.844C165.002 262.788 165.07 262.76 165.15 262.76H166.146C166.234 262.76 166.302 262.788 166.35 262.844C166.406 262.892 166.434 262.96 166.434 263.048V268.712C166.434 268.792 166.406 268.86 166.35 268.916C166.302 268.972 166.234 269 166.146 269H165.15ZM168.314 269C168.234 269 168.166 268.972 168.11 268.916C168.054 268.86 168.026 268.792 168.026 268.712V263.06C168.026 262.98 168.054 262.912 168.11 262.856C168.166 262.792 168.234 262.76 168.314 262.76H169.286C169.374 262.76 169.446 262.788 169.502 262.844C169.558 262.9 169.586 262.972 169.586 263.06V263.552C169.778 263.296 170.018 263.1 170.306 262.964C170.602 262.828 170.938 262.76 171.314 262.76H171.806C171.894 262.76 171.962 262.788 172.01 262.844C172.066 262.892 172.094 262.96 172.094 263.048V263.912C172.094 263.992 172.066 264.06 172.01 264.116C171.962 264.172 171.894 264.2 171.806 264.2H170.87C170.494 264.2 170.198 264.308 169.982 264.524C169.766 264.74 169.658 265.036 169.658 265.412V268.712C169.658 268.792 169.63 268.86 169.574 268.916C169.518 268.972 169.446 269 169.358 269H168.314ZM174.749 269.12C174.341 269.12 173.965 269.04 173.621 268.88C173.285 268.712 173.017 268.488 172.817 268.208C172.625 267.928 172.529 267.62 172.529 267.284C172.529 266.74 172.749 266.3 173.189 265.964C173.629 265.628 174.233 265.4 175.001 265.28L176.645 265.04V264.788C176.645 264.436 176.557 264.172 176.381 263.996C176.205 263.82 175.921 263.732 175.529 263.732C175.265 263.732 175.049 263.784 174.881 263.888C174.721 263.984 174.593 264.08 174.497 264.176C174.401 264.28 174.337 264.348 174.305 264.38C174.273 264.476 174.213 264.524 174.125 264.524H173.201C173.129 264.524 173.065 264.5 173.009 264.452C172.961 264.404 172.937 264.34 172.937 264.26C172.945 264.06 173.041 263.832 173.225 263.576C173.417 263.32 173.709 263.1 174.101 262.916C174.493 262.732 174.973 262.64 175.541 262.64C176.485 262.64 177.173 262.852 177.605 263.276C178.037 263.7 178.253 264.256 178.253 264.944V268.712C178.253 268.792 178.225 268.86 178.169 268.916C178.121 268.972 178.053 269 177.965 269H176.993C176.913 269 176.845 268.972 176.789 268.916C176.733 268.86 176.705 268.792 176.705 268.712V268.244C176.529 268.5 176.277 268.712 175.949 268.88C175.629 269.04 175.229 269.12 174.749 269.12ZM175.157 267.98C175.597 267.98 175.957 267.836 176.237 267.548C176.517 267.26 176.657 266.84 176.657 266.288V266.036L175.457 266.228C174.993 266.3 174.641 266.416 174.401 266.576C174.169 266.736 174.053 266.932 174.053 267.164C174.053 267.42 174.161 267.62 174.377 267.764C174.593 267.908 174.853 267.98 175.157 267.98ZM180.092 269C180.012 269 179.944 268.972 179.888 268.916C179.832 268.86 179.804 268.792 179.804 268.712V260.768C179.804 260.68 179.832 260.612 179.888 260.564C179.944 260.508 180.012 260.48 180.092 260.48H181.088C181.176 260.48 181.244 260.508 181.292 260.564C181.348 260.612 181.376 260.68 181.376 260.768V268.712C181.376 268.792 181.348 268.86 181.292 268.916C181.244 268.972 181.176 269 181.088 269H180.092ZM185.998 269C185.918 269 185.85 268.972 185.794 268.916C185.738 268.86 185.71 268.792 185.71 268.712V263.06C185.71 262.98 185.738 262.912 185.794 262.856C185.85 262.792 185.918 262.76 185.998 262.76H186.97C187.058 262.76 187.13 262.788 187.186 262.844C187.242 262.9 187.27 262.972 187.27 263.06V263.552C187.462 263.296 187.702 263.1 187.99 262.964C188.286 262.828 188.622 262.76 188.998 262.76H189.49C189.578 262.76 189.646 262.788 189.694 262.844C189.75 262.892 189.778 262.96 189.778 263.048V263.912C189.778 263.992 189.75 264.06 189.694 264.116C189.646 264.172 189.578 264.2 189.49 264.2H188.554C188.178 264.2 187.882 264.308 187.666 264.524C187.45 264.74 187.342 265.036 187.342 265.412V268.712C187.342 268.792 187.314 268.86 187.258 268.916C187.202 268.972 187.13 269 187.042 269H185.998ZM191.014 269C190.934 269 190.866 268.972 190.81 268.916C190.754 268.86 190.726 268.792 190.726 268.712V260.768C190.726 260.68 190.754 260.612 190.81 260.564C190.866 260.508 190.934 260.48 191.014 260.48H192.082C192.17 260.48 192.238 260.508 192.286 260.564C192.342 260.612 192.37 260.68 192.37 260.768V263.504C192.85 262.928 193.498 262.64 194.314 262.64C195.05 262.64 195.638 262.884 196.078 263.372C196.518 263.852 196.738 264.508 196.738 265.34V268.712C196.738 268.792 196.71 268.86 196.654 268.916C196.606 268.972 196.538 269 196.45 269H195.37C195.29 269 195.222 268.972 195.166 268.916C195.11 268.86 195.082 268.792 195.082 268.712V265.412C195.082 264.94 194.966 264.576 194.734 264.32C194.51 264.056 194.182 263.924 193.75 263.924C193.326 263.924 192.99 264.056 192.742 264.32C192.494 264.584 192.37 264.948 192.37 265.412V268.712C192.37 268.792 192.342 268.86 192.286 268.916C192.238 268.972 192.17 269 192.082 269H191.014ZM201.021 269.12C200.085 269.12 199.361 268.88 198.849 268.4C198.337 267.912 198.061 267.248 198.021 266.408L198.009 265.88L198.021 265.352C198.061 264.52 198.341 263.86 198.861 263.372C199.381 262.884 200.101 262.64 201.021 262.64C201.941 262.64 202.661 262.884 203.181 263.372C203.701 263.86 203.981 264.52 204.021 265.352C204.029 265.448 204.033 265.624 204.033 265.88C204.033 266.136 204.029 266.312 204.021 266.408C203.981 267.248 203.705 267.912 203.193 268.4C202.681 268.88 201.957 269.12 201.021 269.12ZM201.021 267.932C201.445 267.932 201.773 267.8 202.005 267.536C202.237 267.264 202.365 266.868 202.389 266.348C202.397 266.268 202.401 266.112 202.401 265.88C202.401 265.648 202.397 265.492 202.389 265.412C202.365 264.892 202.237 264.5 202.005 264.236C201.773 263.964 201.445 263.828 201.021 263.828C200.597 263.828 200.269 263.964 200.037 264.236C199.805 264.5 199.677 264.892 199.653 265.412L199.641 265.88L199.653 266.348C199.677 266.868 199.805 267.264 200.037 267.536C200.269 267.8 200.597 267.932 201.021 267.932ZM207.678 269.12C206.87 269.12 206.25 268.86 205.818 268.34C205.386 267.82 205.154 267.128 205.122 266.264L205.11 265.868L205.122 265.484C205.146 264.644 205.374 263.96 205.806 263.432C206.246 262.904 206.87 262.64 207.678 262.64C208.454 262.64 209.07 262.904 209.526 263.432V260.768C209.526 260.68 209.554 260.612 209.61 260.564C209.666 260.508 209.734 260.48 209.814 260.48H210.834C210.922 260.48 210.99 260.508 211.038 260.564C211.094 260.612 211.122 260.68 211.122 260.768V268.712C211.122 268.792 211.094 268.86 211.038 268.916C210.99 268.972 210.922 269 210.834 269H209.886C209.806 269 209.738 268.972 209.682 268.916C209.626 268.86 209.598 268.792 209.598 268.712V268.268C209.142 268.836 208.502 269.12 207.678 269.12ZM208.122 267.836C208.586 267.836 208.93 267.688 209.154 267.392C209.378 267.096 209.502 266.732 209.526 266.3C209.534 266.204 209.538 266.048 209.538 265.832C209.538 265.624 209.534 265.472 209.526 265.376C209.51 264.976 209.382 264.636 209.142 264.356C208.91 264.068 208.57 263.924 208.122 263.924C207.258 263.924 206.798 264.456 206.742 265.52L206.73 265.88L206.742 266.24C206.798 267.304 207.258 267.836 208.122 267.836ZM212.962 261.728C212.882 261.728 212.814 261.7 212.758 261.644C212.702 261.588 212.674 261.52 212.674 261.44V260.576C212.674 260.496 212.702 260.428 212.758 260.372C212.814 260.316 212.882 260.288 212.962 260.288H214.054C214.134 260.288 214.202 260.316 214.258 260.372C214.322 260.428 214.354 260.496 214.354 260.576V261.44C214.354 261.52 214.326 261.588 214.27 261.644C214.214 261.7 214.142 261.728 214.054 261.728H212.962ZM213.01 269C212.93 269 212.862 268.972 212.806 268.916C212.75 268.86 212.722 268.792 212.722 268.712V263.048C212.722 262.968 212.75 262.9 212.806 262.844C212.862 262.788 212.93 262.76 213.01 262.76H214.006C214.094 262.76 214.162 262.788 214.21 262.844C214.266 262.892 214.294 262.96 214.294 263.048V268.712C214.294 268.792 214.266 268.86 214.21 268.916C214.162 268.972 214.094 269 214.006 269H213.01ZM218.202 269.12C217.466 269.12 216.886 268.88 216.462 268.4C216.038 267.912 215.826 267.252 215.826 266.42V263.048C215.826 262.968 215.854 262.9 215.91 262.844C215.966 262.788 216.034 262.76 216.114 262.76H217.17C217.258 262.76 217.326 262.788 217.374 262.844C217.43 262.892 217.458 262.96 217.458 263.048V266.348C217.458 267.34 217.894 267.836 218.766 267.836C219.182 267.836 219.51 267.704 219.75 267.44C219.998 267.176 220.122 266.812 220.122 266.348V263.048C220.122 262.968 220.15 262.9 220.206 262.844C220.262 262.788 220.33 262.76 220.41 262.76H221.466C221.554 262.76 221.622 262.788 221.67 262.844C221.726 262.892 221.754 262.96 221.754 263.048V268.712C221.754 268.792 221.726 268.86 221.67 268.916C221.622 268.972 221.554 269 221.466 269H220.494C220.414 269 220.346 268.972 220.29 268.916C220.234 268.86 220.206 268.792 220.206 268.712V268.22C219.758 268.82 219.09 269.12 218.202 269.12ZM223.627 269C223.547 269 223.479 268.972 223.423 268.916C223.367 268.86 223.339 268.792 223.339 268.712V263.048C223.339 262.968 223.367 262.9 223.423 262.844C223.479 262.788 223.547 262.76 223.627 262.76H224.563C224.643 262.76 224.711 262.788 224.767 262.844C224.823 262.9 224.851 262.968 224.851 263.048V263.456C225.267 262.912 225.847 262.64 226.591 262.64C227.479 262.64 228.099 262.996 228.451 263.708C228.643 263.388 228.915 263.132 229.267 262.94C229.619 262.74 229.999 262.64 230.407 262.64C231.063 262.64 231.599 262.864 232.015 263.312C232.431 263.76 232.639 264.412 232.639 265.268V268.712C232.639 268.792 232.611 268.86 232.555 268.916C232.507 268.972 232.439 269 232.351 269H231.367C231.287 269 231.219 268.972 231.163 268.916C231.107 268.86 231.079 268.792 231.079 268.712V265.364C231.079 264.86 230.971 264.496 230.755 264.272C230.547 264.04 230.267 263.924 229.915 263.924C229.603 263.924 229.335 264.04 229.111 264.272C228.895 264.504 228.787 264.868 228.787 265.364V268.712C228.787 268.792 228.759 268.86 228.703 268.916C228.647 268.972 228.579 269 228.499 269H227.515C227.435 269 227.367 268.972 227.311 268.916C227.255 268.86 227.227 268.792 227.227 268.712V265.364C227.227 264.86 227.115 264.496 226.891 264.272C226.675 264.04 226.399 263.924 226.063 263.924C225.743 263.924 225.471 264.04 225.247 264.272C225.031 264.504 224.923 264.868 224.923 265.364V268.712C224.923 268.792 224.895 268.86 224.839 268.916C224.783 268.972 224.715 269 224.635 269H223.627ZM239.609 269.12C238.729 269.12 238.025 268.876 237.497 268.388C236.977 267.9 236.701 267.224 236.669 266.36L236.657 265.88L236.669 265.4C236.701 264.536 236.977 263.86 237.497 263.372C238.025 262.884 238.729 262.64 239.609 262.64C240.233 262.64 240.761 262.752 241.193 262.976C241.633 263.2 241.957 263.476 242.165 263.804C242.381 264.124 242.497 264.428 242.513 264.716C242.521 264.796 242.493 264.864 242.429 264.92C242.373 264.976 242.305 265.004 242.225 265.004H241.169C241.089 265.004 241.025 264.988 240.977 264.956C240.937 264.916 240.897 264.852 240.857 264.764C240.737 264.452 240.577 264.228 240.377 264.092C240.185 263.956 239.937 263.888 239.633 263.888C239.225 263.888 238.905 264.02 238.673 264.284C238.441 264.54 238.317 264.932 238.301 265.46L238.289 265.904L238.301 266.3C238.333 267.348 238.777 267.872 239.633 267.872C239.945 267.872 240.197 267.804 240.389 267.668C240.581 267.532 240.737 267.308 240.857 266.996C240.897 266.908 240.937 266.848 240.977 266.816C241.025 266.776 241.089 266.756 241.169 266.756H242.225C242.305 266.756 242.373 266.784 242.429 266.84C242.493 266.896 242.521 266.964 242.513 267.044C242.497 267.324 242.385 267.624 242.177 267.944C241.969 268.264 241.649 268.54 241.217 268.772C240.785 269.004 240.249 269.12 239.609 269.12ZM245.577 269.12C245.169 269.12 244.793 269.04 244.449 268.88C244.113 268.712 243.845 268.488 243.645 268.208C243.453 267.928 243.357 267.62 243.357 267.284C243.357 266.74 243.577 266.3 244.017 265.964C244.457 265.628 245.061 265.4 245.829 265.28L247.473 265.04V264.788C247.473 264.436 247.385 264.172 247.209 263.996C247.033 263.82 246.749 263.732 246.357 263.732C246.093 263.732 245.877 263.784 245.709 263.888C245.549 263.984 245.421 264.08 245.325 264.176C245.229 264.28 245.165 264.348 245.133 264.38C245.101 264.476 245.041 264.524 244.953 264.524H244.029C243.957 264.524 243.893 264.5 243.837 264.452C243.789 264.404 243.765 264.34 243.765 264.26C243.773 264.06 243.869 263.832 244.053 263.576C244.245 263.32 244.537 263.1 244.929 262.916C245.321 262.732 245.801 262.64 246.369 262.64C247.313 262.64 248.001 262.852 248.433 263.276C248.865 263.7 249.081 264.256 249.081 264.944V268.712C249.081 268.792 249.053 268.86 248.997 268.916C248.949 268.972 248.881 269 248.793 269H247.821C247.741 269 247.673 268.972 247.617 268.916C247.561 268.86 247.533 268.792 247.533 268.712V268.244C247.357 268.5 247.105 268.712 246.777 268.88C246.457 269.04 246.057 269.12 245.577 269.12ZM245.985 267.98C246.425 267.98 246.785 267.836 247.065 267.548C247.345 267.26 247.485 266.84 247.485 266.288V266.036L246.285 266.228C245.821 266.3 245.469 266.416 245.229 266.576C244.997 266.736 244.881 266.932 244.881 267.164C244.881 267.42 244.989 267.62 245.205 267.764C245.421 267.908 245.681 267.98 245.985 267.98ZM253.382 269C252.654 269 252.106 268.812 251.738 268.436C251.378 268.052 251.198 267.492 251.198 266.756V264.032H250.25C250.17 264.032 250.102 264.004 250.046 263.948C249.99 263.884 249.962 263.812 249.962 263.732V263.048C249.962 262.968 249.99 262.9 250.046 262.844C250.102 262.788 250.17 262.76 250.25 262.76H251.198V260.768C251.198 260.68 251.226 260.612 251.282 260.564C251.338 260.508 251.406 260.48 251.486 260.48H252.458C252.546 260.48 252.614 260.508 252.662 260.564C252.718 260.612 252.746 260.68 252.746 260.768V262.76H254.246C254.334 262.76 254.402 262.788 254.45 262.844C254.506 262.892 254.534 262.96 254.534 263.048V263.732C254.534 263.82 254.506 263.892 254.45 263.948C254.394 264.004 254.326 264.032 254.246 264.032H252.746V266.636C252.746 266.98 252.806 267.24 252.926 267.416C253.046 267.592 253.246 267.68 253.526 267.68H254.354C254.434 267.68 254.502 267.708 254.558 267.764C254.614 267.82 254.642 267.888 254.642 267.968V268.712C254.642 268.792 254.614 268.86 254.558 268.916C254.51 268.972 254.442 269 254.354 269H253.382ZM257.518 269.12C257.11 269.12 256.734 269.04 256.39 268.88C256.054 268.712 255.786 268.488 255.586 268.208C255.394 267.928 255.298 267.62 255.298 267.284C255.298 266.74 255.518 266.3 255.958 265.964C256.398 265.628 257.002 265.4 257.77 265.28L259.414 265.04V264.788C259.414 264.436 259.326 264.172 259.15 263.996C258.974 263.82 258.69 263.732 258.298 263.732C258.034 263.732 257.818 263.784 257.65 263.888C257.49 263.984 257.362 264.08 257.266 264.176C257.17 264.28 257.106 264.348 257.074 264.38C257.042 264.476 256.982 264.524 256.894 264.524H255.97C255.898 264.524 255.834 264.5 255.778 264.452C255.73 264.404 255.706 264.34 255.706 264.26C255.714 264.06 255.81 263.832 255.994 263.576C256.186 263.32 256.478 263.1 256.87 262.916C257.262 262.732 257.742 262.64 258.31 262.64C259.254 262.64 259.942 262.852 260.374 263.276C260.806 263.7 261.022 264.256 261.022 264.944V268.712C261.022 268.792 260.994 268.86 260.938 268.916C260.89 268.972 260.822 269 260.734 269H259.762C259.682 269 259.614 268.972 259.558 268.916C259.502 268.86 259.474 268.792 259.474 268.712V268.244C259.298 268.5 259.046 268.712 258.718 268.88C258.398 269.04 257.998 269.12 257.518 269.12ZM257.926 267.98C258.366 267.98 258.726 267.836 259.006 267.548C259.286 267.26 259.426 266.84 259.426 266.288V266.036L258.226 266.228C257.762 266.3 257.41 266.416 257.17 266.576C256.938 266.736 256.822 266.932 256.822 267.164C256.822 267.42 256.93 267.62 257.146 267.764C257.362 267.908 257.622 267.98 257.926 267.98ZM262.862 269C262.782 269 262.714 268.972 262.658 268.916C262.602 268.86 262.574 268.792 262.574 268.712V260.768C262.574 260.68 262.602 260.612 262.658 260.564C262.714 260.508 262.782 260.48 262.862 260.48H263.858C263.946 260.48 264.014 260.508 264.062 260.564C264.118 260.612 264.146 260.68 264.146 260.768V268.712C264.146 268.792 264.118 268.86 264.062 268.916C264.014 268.972 263.946 269 263.858 269H262.862ZM266.865 271.28C266.801 271.28 266.745 271.256 266.697 271.208C266.649 271.16 266.625 271.104 266.625 271.04C266.625 270.968 266.641 270.904 266.673 270.848L267.609 268.628L265.305 263.192C265.273 263.12 265.257 263.064 265.257 263.024C265.265 262.952 265.293 262.892 265.341 262.844C265.389 262.788 265.449 262.76 265.521 262.76H266.493C266.645 262.76 266.753 262.836 266.817 262.988L268.413 266.912L270.057 262.988C270.121 262.836 270.229 262.76 270.381 262.76H271.341C271.405 262.76 271.461 262.784 271.509 262.832C271.565 262.88 271.593 262.936 271.593 263C271.593 263.056 271.577 263.12 271.545 263.192L268.149 271.052C268.077 271.204 267.965 271.28 267.813 271.28H266.865ZM274.804 269.12C274.204 269.12 273.7 269.032 273.292 268.856C272.884 268.672 272.58 268.46 272.38 268.22C272.188 267.972 272.092 267.76 272.092 267.584C272.092 267.504 272.12 267.44 272.176 267.392C272.232 267.344 272.296 267.32 272.368 267.32H273.316C273.388 267.32 273.448 267.348 273.496 267.404C273.528 267.428 273.612 267.5 273.748 267.62C273.884 267.748 274.044 267.848 274.228 267.92C274.412 267.992 274.616 268.028 274.84 268.028C275.16 268.028 275.424 267.964 275.632 267.836C275.84 267.708 275.944 267.532 275.944 267.308C275.944 267.14 275.896 267.004 275.8 266.9C275.712 266.796 275.548 266.704 275.308 266.624C275.068 266.536 274.712 266.444 274.24 266.348C273.56 266.204 273.056 265.984 272.728 265.688C272.408 265.392 272.248 265 272.248 264.512C272.248 264.192 272.344 263.892 272.536 263.612C272.728 263.324 273.012 263.092 273.388 262.916C273.772 262.732 274.228 262.64 274.756 262.64C275.292 262.64 275.756 262.728 276.148 262.904C276.54 263.072 276.836 263.276 277.036 263.516C277.244 263.748 277.348 263.956 277.348 264.14C277.348 264.212 277.32 264.276 277.264 264.332C277.216 264.38 277.156 264.404 277.084 264.404H276.196C276.132 264.404 276.064 264.376 275.992 264.32C275.936 264.28 275.848 264.204 275.728 264.092C275.608 263.98 275.468 263.892 275.308 263.828C275.148 263.764 274.96 263.732 274.744 263.732C274.448 263.732 274.216 263.796 274.048 263.924C273.888 264.052 273.808 264.22 273.808 264.428C273.808 264.58 273.848 264.704 273.928 264.8C274.008 264.896 274.164 264.988 274.396 265.076C274.628 265.164 274.976 265.252 275.44 265.34C276.208 265.492 276.756 265.728 277.084 266.048C277.42 266.368 277.588 266.76 277.588 267.224C277.588 267.784 277.344 268.24 276.856 268.592C276.368 268.944 275.684 269.12 274.804 269.12ZM281.624 269C280.896 269 280.348 268.812 279.98 268.436C279.62 268.052 279.44 267.492 279.44 266.756V264.032H278.492C278.412 264.032 278.344 264.004 278.288 263.948C278.232 263.884 278.204 263.812 278.204 263.732V263.048C278.204 262.968 278.232 262.9 278.288 262.844C278.344 262.788 278.412 262.76 278.492 262.76H279.44V260.768C279.44 260.68 279.468 260.612 279.524 260.564C279.58 260.508 279.648 260.48 279.728 260.48H280.7C280.788 260.48 280.856 260.508 280.904 260.564C280.96 260.612 280.988 260.68 280.988 260.768V262.76H282.488C282.576 262.76 282.644 262.788 282.692 262.844C282.748 262.892 282.776 262.96 282.776 263.048V263.732C282.776 263.82 282.748 263.892 282.692 263.948C282.636 264.004 282.568 264.032 282.488 264.032H280.988V266.636C280.988 266.98 281.048 267.24 281.168 267.416C281.288 267.592 281.488 267.68 281.768 267.68H282.596C282.676 267.68 282.744 267.708 282.8 267.764C282.856 267.82 282.884 267.888 282.884 267.968V268.712C282.884 268.792 282.856 268.86 282.8 268.916C282.752 268.972 282.684 269 282.596 269H281.624ZM283.876 269.9C283.804 269.9 283.748 269.876 283.708 269.828C283.668 269.78 283.652 269.72 283.66 269.648L283.984 267.608C284 267.496 284.04 267.404 284.104 267.332C284.168 267.26 284.256 267.224 284.368 267.224H285.472C285.528 267.224 285.576 267.248 285.616 267.296C285.664 267.336 285.688 267.388 285.688 267.452C285.688 267.492 285.676 267.544 285.652 267.608L284.884 269.6C284.844 269.696 284.792 269.768 284.728 269.816C284.672 269.872 284.592 269.9 284.488 269.9H283.876ZM292.171 269.12C291.435 269.12 290.855 268.88 290.431 268.4C290.007 267.912 289.795 267.252 289.795 266.42V263.048C289.795 262.968 289.823 262.9 289.879 262.844C289.935 262.788 290.003 262.76 290.083 262.76H291.139C291.227 262.76 291.295 262.788 291.343 262.844C291.399 262.892 291.427 262.96 291.427 263.048V266.348C291.427 267.34 291.863 267.836 292.735 267.836C293.151 267.836 293.479 267.704 293.719 267.44C293.967 267.176 294.091 266.812 294.091 266.348V263.048C294.091 262.968 294.119 262.9 294.175 262.844C294.231 262.788 294.299 262.76 294.379 262.76H295.435C295.523 262.76 295.591 262.788 295.639 262.844C295.695 262.892 295.723 262.96 295.723 263.048V268.712C295.723 268.792 295.695 268.86 295.639 268.916C295.591 268.972 295.523 269 295.435 269H294.463C294.383 269 294.315 268.972 294.259 268.916C294.203 268.86 294.175 268.792 294.175 268.712V268.22C293.727 268.82 293.059 269.12 292.171 269.12ZM299.672 269.12C299.072 269.12 298.568 269.032 298.16 268.856C297.752 268.672 297.448 268.46 297.248 268.22C297.056 267.972 296.96 267.76 296.96 267.584C296.96 267.504 296.988 267.44 297.044 267.392C297.1 267.344 297.164 267.32 297.236 267.32H298.184C298.256 267.32 298.316 267.348 298.364 267.404C298.396 267.428 298.48 267.5 298.616 267.62C298.752 267.748 298.912 267.848 299.096 267.92C299.28 267.992 299.484 268.028 299.708 268.028C300.028 268.028 300.292 267.964 300.5 267.836C300.708 267.708 300.812 267.532 300.812 267.308C300.812 267.14 300.764 267.004 300.668 266.9C300.58 266.796 300.416 266.704 300.176 266.624C299.936 266.536 299.58 266.444 299.108 266.348C298.428 266.204 297.924 265.984 297.596 265.688C297.276 265.392 297.116 265 297.116 264.512C297.116 264.192 297.212 263.892 297.404 263.612C297.596 263.324 297.88 263.092 298.256 262.916C298.64 262.732 299.096 262.64 299.624 262.64C300.16 262.64 300.624 262.728 301.016 262.904C301.408 263.072 301.704 263.276 301.904 263.516C302.112 263.748 302.216 263.956 302.216 264.14C302.216 264.212 302.188 264.276 302.132 264.332C302.084 264.38 302.024 264.404 301.952 264.404H301.064C301 264.404 300.932 264.376 300.86 264.32C300.804 264.28 300.716 264.204 300.596 264.092C300.476 263.98 300.336 263.892 300.176 263.828C300.016 263.764 299.828 263.732 299.612 263.732C299.316 263.732 299.084 263.796 298.916 263.924C298.756 264.052 298.676 264.22 298.676 264.428C298.676 264.58 298.716 264.704 298.796 264.8C298.876 264.896 299.032 264.988 299.264 265.076C299.496 265.164 299.844 265.252 300.308 265.34C301.076 265.492 301.624 265.728 301.952 266.048C302.288 266.368 302.456 266.76 302.456 267.224C302.456 267.784 302.212 268.24 301.724 268.592C301.236 268.944 300.552 269.12 299.672 269.12ZM303.934 261.728C303.854 261.728 303.786 261.7 303.73 261.644C303.674 261.588 303.646 261.52 303.646 261.44V260.576C303.646 260.496 303.674 260.428 303.73 260.372C303.786 260.316 303.854 260.288 303.934 260.288H305.026C305.106 260.288 305.174 260.316 305.23 260.372C305.294 260.428 305.326 260.496 305.326 260.576V261.44C305.326 261.52 305.298 261.588 305.242 261.644C305.186 261.7 305.114 261.728 305.026 261.728H303.934ZM303.982 269C303.902 269 303.834 268.972 303.778 268.916C303.722 268.86 303.694 268.792 303.694 268.712V263.048C303.694 262.968 303.722 262.9 303.778 262.844C303.834 262.788 303.902 262.76 303.982 262.76H304.978C305.066 262.76 305.134 262.788 305.182 262.844C305.238 262.892 305.266 262.96 305.266 263.048V268.712C305.266 268.792 305.238 268.86 305.182 268.916C305.134 268.972 305.066 269 304.978 269H303.982ZM307.146 269C307.066 269 306.998 268.972 306.942 268.916C306.886 268.86 306.858 268.792 306.858 268.712V263.048C306.858 262.968 306.886 262.9 306.942 262.844C306.998 262.788 307.066 262.76 307.146 262.76H308.13C308.21 262.76 308.278 262.788 308.334 262.844C308.39 262.9 308.418 262.968 308.418 263.048V263.54C308.89 262.94 309.558 262.64 310.422 262.64C311.158 262.64 311.742 262.884 312.174 263.372C312.606 263.852 312.822 264.508 312.822 265.34V268.712C312.822 268.792 312.794 268.86 312.738 268.916C312.69 268.972 312.622 269 312.534 269H311.478C311.398 269 311.33 268.972 311.274 268.916C311.218 268.86 311.19 268.792 311.19 268.712V265.412C311.19 264.94 311.074 264.576 310.842 264.32C310.618 264.056 310.29 263.924 309.858 263.924C309.434 263.924 309.098 264.056 308.85 264.32C308.61 264.584 308.49 264.948 308.49 265.412V268.712C308.49 268.792 308.462 268.86 308.406 268.916C308.358 268.972 308.29 269 308.202 269H307.146ZM317.167 271.64C316.455 271.64 315.879 271.52 315.439 271.28C314.999 271.048 314.687 270.78 314.503 270.476C314.319 270.172 314.227 269.912 314.227 269.696C314.227 269.624 314.255 269.56 314.311 269.504C314.375 269.448 314.443 269.42 314.515 269.42H315.559C315.631 269.42 315.691 269.436 315.739 269.468C315.795 269.508 315.839 269.576 315.871 269.672C315.951 269.888 316.079 270.068 316.255 270.212C316.439 270.364 316.723 270.44 317.107 270.44C317.587 270.44 317.939 270.332 318.163 270.116C318.395 269.9 318.511 269.528 318.511 269V268.184C318.071 268.704 317.455 268.964 316.663 268.964C315.831 268.964 315.203 268.708 314.779 268.196C314.363 267.684 314.139 266.996 314.107 266.132L314.095 265.808L314.107 265.484C314.139 264.636 314.367 263.952 314.791 263.432C315.215 262.904 315.839 262.64 316.663 262.64C317.087 262.64 317.459 262.72 317.779 262.88C318.099 263.04 318.367 263.26 318.583 263.54V263.06C318.583 262.972 318.611 262.9 318.667 262.844C318.723 262.788 318.791 262.76 318.871 262.76H319.843C319.923 262.76 319.991 262.792 320.047 262.856C320.103 262.912 320.131 262.98 320.131 263.06L320.143 268.844C320.143 269.732 319.895 270.42 319.399 270.908C318.903 271.396 318.159 271.64 317.167 271.64ZM317.107 267.692C317.563 267.692 317.903 267.548 318.127 267.26C318.359 266.972 318.487 266.62 318.511 266.204C318.519 266.14 318.523 266.008 318.523 265.808C318.523 265.616 318.519 265.488 318.511 265.424C318.487 265 318.359 264.644 318.127 264.356C317.903 264.068 317.563 263.924 317.107 263.924C316.243 263.924 315.787 264.456 315.739 265.52L315.727 265.808C315.727 266.376 315.827 266.832 316.027 267.176C316.235 267.52 316.595 267.692 317.107 267.692ZM324.783 269C324.703 269 324.635 268.972 324.579 268.916C324.523 268.86 324.495 268.792 324.495 268.712V260.768C324.495 260.68 324.523 260.612 324.579 260.564C324.635 260.508 324.703 260.48 324.783 260.48H325.779C325.867 260.48 325.935 260.508 325.983 260.564C326.039 260.612 326.067 260.68 326.067 260.768V268.712C326.067 268.792 326.039 268.86 325.983 268.916C325.935 268.972 325.867 269 325.779 269H324.783ZM330.347 269.12C329.459 269.12 328.751 268.864 328.223 268.352C327.703 267.832 327.427 267.104 327.395 266.168L327.383 265.868L327.395 265.568C327.435 264.656 327.715 263.94 328.235 263.42C328.763 262.9 329.467 262.64 330.347 262.64C331.291 262.64 332.019 262.928 332.531 263.504C333.051 264.08 333.311 264.848 333.311 265.808V266.06C333.311 266.14 333.283 266.208 333.227 266.264C333.171 266.32 333.099 266.348 333.011 266.348H329.027V266.444C329.043 266.884 329.163 267.256 329.387 267.56C329.619 267.856 329.935 268.004 330.335 268.004C330.807 268.004 331.187 267.82 331.475 267.452C331.547 267.364 331.603 267.308 331.643 267.284C331.691 267.26 331.759 267.248 331.847 267.248H332.879C332.951 267.248 333.011 267.272 333.059 267.32C333.115 267.36 333.143 267.412 333.143 267.476C333.143 267.668 333.027 267.896 332.795 268.16C332.571 268.416 332.247 268.64 331.823 268.832C331.399 269.024 330.907 269.12 330.347 269.12ZM331.679 265.34V265.304C331.679 264.832 331.559 264.452 331.319 264.164C331.087 263.876 330.763 263.732 330.347 263.732C329.931 263.732 329.607 263.876 329.375 264.164C329.143 264.452 329.027 264.832 329.027 265.304V265.34H331.679ZM336.57 269C336.45 269 336.358 268.976 336.294 268.928C336.23 268.872 336.178 268.796 336.138 268.7L333.894 263.132L333.87 263.024C333.87 262.952 333.894 262.892 333.942 262.844C333.998 262.788 334.062 262.76 334.134 262.76H335.106C335.258 262.76 335.362 262.836 335.418 262.988L337.014 267.2L338.61 262.988C338.634 262.932 338.67 262.88 338.718 262.832C338.774 262.784 338.842 262.76 338.922 262.76H339.906C339.97 262.76 340.026 262.788 340.074 262.844C340.13 262.892 340.158 262.952 340.158 263.024C340.158 263.072 340.154 263.108 340.146 263.132L337.89 268.7C337.85 268.796 337.798 268.872 337.734 268.928C337.67 268.976 337.578 269 337.458 269H336.57ZM343.79 269.12C342.854 269.12 342.13 268.88 341.618 268.4C341.106 267.912 340.83 267.248 340.79 266.408L340.778 265.88L340.79 265.352C340.83 264.52 341.11 263.86 341.63 263.372C342.15 262.884 342.87 262.64 343.79 262.64C344.71 262.64 345.43 262.884 345.95 263.372C346.47 263.86 346.75 264.52 346.79 265.352C346.798 265.448 346.802 265.624 346.802 265.88C346.802 266.136 346.798 266.312 346.79 266.408C346.75 267.248 346.474 267.912 345.962 268.4C345.45 268.88 344.726 269.12 343.79 269.12ZM343.79 267.932C344.214 267.932 344.542 267.8 344.774 267.536C345.006 267.264 345.134 266.868 345.158 266.348C345.166 266.268 345.17 266.112 345.17 265.88C345.17 265.648 345.166 265.492 345.158 265.412C345.134 264.892 345.006 264.5 344.774 264.236C344.542 263.964 344.214 263.828 343.79 263.828C343.366 263.828 343.038 263.964 342.806 264.236C342.574 264.5 342.446 264.892 342.422 265.412L342.41 265.88L342.422 266.348C342.446 266.868 342.574 267.264 342.806 267.536C343.038 267.8 343.366 267.932 343.79 267.932ZM350.952 271.64C350.24 271.64 349.664 271.52 349.224 271.28C348.784 271.048 348.472 270.78 348.288 270.476C348.104 270.172 348.012 269.912 348.012 269.696C348.012 269.624 348.04 269.56 348.096 269.504C348.16 269.448 348.228 269.42 348.3 269.42H349.344C349.416 269.42 349.476 269.436 349.524 269.468C349.58 269.508 349.624 269.576 349.656 269.672C349.736 269.888 349.864 270.068 350.04 270.212C350.224 270.364 350.508 270.44 350.892 270.44C351.372 270.44 351.724 270.332 351.948 270.116C352.18 269.9 352.296 269.528 352.296 269V268.184C351.856 268.704 351.24 268.964 350.448 268.964C349.616 268.964 348.988 268.708 348.564 268.196C348.148 267.684 347.924 266.996 347.892 266.132L347.88 265.808L347.892 265.484C347.924 264.636 348.152 263.952 348.576 263.432C349 262.904 349.624 262.64 350.448 262.64C350.872 262.64 351.244 262.72 351.564 262.88C351.884 263.04 352.152 263.26 352.368 263.54V263.06C352.368 262.972 352.396 262.9 352.452 262.844C352.508 262.788 352.576 262.76 352.656 262.76H353.628C353.708 262.76 353.776 262.792 353.832 262.856C353.888 262.912 353.916 262.98 353.916 263.06L353.928 268.844C353.928 269.732 353.68 270.42 353.184 270.908C352.688 271.396 351.944 271.64 350.952 271.64ZM350.892 267.692C351.348 267.692 351.688 267.548 351.912 267.26C352.144 266.972 352.272 266.62 352.296 266.204C352.304 266.14 352.308 266.008 352.308 265.808C352.308 265.616 352.304 265.488 352.296 265.424C352.272 265 352.144 264.644 351.912 264.356C351.688 264.068 351.348 263.924 350.892 263.924C350.028 263.924 349.572 264.456 349.524 265.52L349.512 265.808C349.512 266.376 349.612 266.832 349.812 267.176C350.02 267.52 350.38 267.692 350.892 267.692ZM355.826 269C355.746 269 355.678 268.972 355.622 268.916C355.566 268.86 355.538 268.792 355.538 268.712V260.768C355.538 260.68 355.566 260.612 355.622 260.564C355.678 260.508 355.746 260.48 355.826 260.48H356.822C356.91 260.48 356.978 260.508 357.026 260.564C357.082 260.612 357.11 260.68 357.11 260.768V268.712C357.11 268.792 357.082 268.86 357.026 268.916C356.978 268.972 356.91 269 356.822 269H355.826ZM361.018 269.12C360.282 269.12 359.702 268.88 359.278 268.4C358.854 267.912 358.642 267.252 358.642 266.42V263.048C358.642 262.968 358.67 262.9 358.726 262.844C358.782 262.788 358.85 262.76 358.93 262.76H359.986C360.074 262.76 360.142 262.788 360.19 262.844C360.246 262.892 360.274 262.96 360.274 263.048V266.348C360.274 267.34 360.71 267.836 361.582 267.836C361.998 267.836 362.326 267.704 362.566 267.44C362.814 267.176 362.938 266.812 362.938 266.348V263.048C362.938 262.968 362.966 262.9 363.022 262.844C363.078 262.788 363.146 262.76 363.226 262.76H364.282C364.37 262.76 364.438 262.788 364.486 262.844C364.542 262.892 364.57 262.96 364.57 263.048V268.712C364.57 268.792 364.542 268.86 364.486 268.916C364.438 268.972 364.37 269 364.282 269H363.31C363.23 269 363.162 268.972 363.106 268.916C363.05 268.86 363.022 268.792 363.022 268.712V268.22C362.574 268.82 361.906 269.12 361.018 269.12ZM368.855 269.12C367.975 269.12 367.271 268.876 366.743 268.388C366.223 267.9 365.947 267.224 365.915 266.36L365.903 265.88L365.915 265.4C365.947 264.536 366.223 263.86 366.743 263.372C367.271 262.884 367.975 262.64 368.855 262.64C369.479 262.64 370.007 262.752 370.439 262.976C370.879 263.2 371.203 263.476 371.411 263.804C371.627 264.124 371.743 264.428 371.759 264.716C371.767 264.796 371.739 264.864 371.675 264.92C371.619 264.976 371.551 265.004 371.471 265.004H370.415C370.335 265.004 370.271 264.988 370.223 264.956C370.183 264.916 370.143 264.852 370.103 264.764C369.983 264.452 369.823 264.228 369.623 264.092C369.431 263.956 369.183 263.888 368.879 263.888C368.471 263.888 368.151 264.02 367.919 264.284C367.687 264.54 367.563 264.932 367.547 265.46L367.535 265.904L367.547 266.3C367.579 267.348 368.023 267.872 368.879 267.872C369.191 267.872 369.443 267.804 369.635 267.668C369.827 267.532 369.983 267.308 370.103 266.996C370.143 266.908 370.183 266.848 370.223 266.816C370.271 266.776 370.335 266.756 370.415 266.756H371.471C371.551 266.756 371.619 266.784 371.675 266.84C371.739 266.896 371.767 266.964 371.759 267.044C371.743 267.324 371.631 267.624 371.423 267.944C371.215 268.264 370.895 268.54 370.463 268.772C370.031 269.004 369.495 269.12 368.855 269.12ZM375.771 269.12C374.835 269.12 374.111 268.88 373.599 268.4C373.087 267.912 372.811 267.248 372.771 266.408L372.759 265.88L372.771 265.352C372.811 264.52 373.091 263.86 373.611 263.372C374.131 262.884 374.851 262.64 375.771 262.64C376.691 262.64 377.411 262.884 377.931 263.372C378.451 263.86 378.731 264.52 378.771 265.352C378.779 265.448 378.783 265.624 378.783 265.88C378.783 266.136 378.779 266.312 378.771 266.408C378.731 267.248 378.455 267.912 377.943 268.4C377.431 268.88 376.707 269.12 375.771 269.12ZM375.771 267.932C376.195 267.932 376.523 267.8 376.755 267.536C376.987 267.264 377.115 266.868 377.139 266.348C377.147 266.268 377.151 266.112 377.151 265.88C377.151 265.648 377.147 265.492 377.139 265.412C377.115 264.892 376.987 264.5 376.755 264.236C376.523 263.964 376.195 263.828 375.771 263.828C375.347 263.828 375.019 263.964 374.787 264.236C374.555 264.5 374.427 264.892 374.403 265.412L374.391 265.88L374.403 266.348C374.427 266.868 374.555 267.264 374.787 267.536C375.019 267.8 375.347 267.932 375.771 267.932ZM382.476 269.12C381.876 269.12 381.372 269.032 380.964 268.856C380.556 268.672 380.252 268.46 380.052 268.22C379.86 267.972 379.764 267.76 379.764 267.584C379.764 267.504 379.792 267.44 379.848 267.392C379.904 267.344 379.968 267.32 380.04 267.32H380.988C381.06 267.32 381.12 267.348 381.168 267.404C381.2 267.428 381.284 267.5 381.42 267.62C381.556 267.748 381.716 267.848 381.9 267.92C382.084 267.992 382.288 268.028 382.512 268.028C382.832 268.028 383.096 267.964 383.304 267.836C383.512 267.708 383.616 267.532 383.616 267.308C383.616 267.14 383.568 267.004 383.472 266.9C383.384 266.796 383.22 266.704 382.98 266.624C382.74 266.536 382.384 266.444 381.912 266.348C381.232 266.204 380.728 265.984 380.4 265.688C380.08 265.392 379.92 265 379.92 264.512C379.92 264.192 380.016 263.892 380.208 263.612C380.4 263.324 380.684 263.092 381.06 262.916C381.444 262.732 381.9 262.64 382.428 262.64C382.964 262.64 383.428 262.728 383.82 262.904C384.212 263.072 384.508 263.276 384.708 263.516C384.916 263.748 385.02 263.956 385.02 264.14C385.02 264.212 384.992 264.276 384.936 264.332C384.888 264.38 384.828 264.404 384.756 264.404H383.868C383.804 264.404 383.736 264.376 383.664 264.32C383.608 264.28 383.52 264.204 383.4 264.092C383.28 263.98 383.14 263.892 382.98 263.828C382.82 263.764 382.632 263.732 382.416 263.732C382.12 263.732 381.888 263.796 381.72 263.924C381.56 264.052 381.48 264.22 381.48 264.428C381.48 264.58 381.52 264.704 381.6 264.8C381.68 264.896 381.836 264.988 382.068 265.076C382.3 265.164 382.648 265.252 383.112 265.34C383.88 265.492 384.428 265.728 384.756 266.048C385.092 266.368 385.26 266.76 385.26 267.224C385.26 267.784 385.016 268.24 384.528 268.592C384.04 268.944 383.356 269.12 382.476 269.12ZM388.311 269.12C387.903 269.12 387.527 269.04 387.183 268.88C386.847 268.712 386.579 268.488 386.379 268.208C386.187 267.928 386.091 267.62 386.091 267.284C386.091 266.74 386.311 266.3 386.751 265.964C387.191 265.628 387.795 265.4 388.563 265.28L390.207 265.04V264.788C390.207 264.436 390.119 264.172 389.943 263.996C389.767 263.82 389.483 263.732 389.091 263.732C388.827 263.732 388.611 263.784 388.443 263.888C388.283 263.984 388.155 264.08 388.059 264.176C387.963 264.28 387.899 264.348 387.867 264.38C387.835 264.476 387.775 264.524 387.687 264.524H386.763C386.691 264.524 386.627 264.5 386.571 264.452C386.523 264.404 386.499 264.34 386.499 264.26C386.507 264.06 386.603 263.832 386.787 263.576C386.979 263.32 387.271 263.1 387.663 262.916C388.055 262.732 388.535 262.64 389.103 262.64C390.047 262.64 390.735 262.852 391.167 263.276C391.599 263.7 391.815 264.256 391.815 264.944V268.712C391.815 268.792 391.787 268.86 391.731 268.916C391.683 268.972 391.615 269 391.527 269H390.555C390.475 269 390.407 268.972 390.351 268.916C390.295 268.86 390.267 268.792 390.267 268.712V268.244C390.091 268.5 389.839 268.712 389.511 268.88C389.191 269.04 388.791 269.12 388.311 269.12ZM388.719 267.98C389.159 267.98 389.519 267.836 389.799 267.548C390.079 267.26 390.219 266.84 390.219 266.288V266.036L389.019 266.228C388.555 266.3 388.203 266.416 387.963 266.576C387.731 266.736 387.615 266.932 387.615 267.164C387.615 267.42 387.723 267.62 387.939 267.764C388.155 267.908 388.415 267.98 388.719 267.98ZM393.643 269C393.563 269 393.495 268.972 393.439 268.916C393.383 268.86 393.354 268.792 393.354 268.712V263.048C393.354 262.968 393.383 262.9 393.439 262.844C393.495 262.788 393.563 262.76 393.643 262.76H394.627C394.707 262.76 394.775 262.788 394.831 262.844C394.887 262.9 394.915 262.968 394.915 263.048V263.54C395.387 262.94 396.055 262.64 396.919 262.64C397.655 262.64 398.239 262.884 398.671 263.372C399.103 263.852 399.319 264.508 399.319 265.34V268.712C399.319 268.792 399.291 268.86 399.235 268.916C399.187 268.972 399.119 269 399.031 269H397.975C397.895 269 397.827 268.972 397.771 268.916C397.715 268.86 397.687 268.792 397.687 268.712V265.412C397.687 264.94 397.571 264.576 397.339 264.32C397.115 264.056 396.787 263.924 396.355 263.924C395.931 263.924 395.595 264.056 395.347 264.32C395.107 264.584 394.987 264.948 394.987 265.412V268.712C394.987 268.792 394.959 268.86 394.903 268.916C394.855 268.972 394.787 269 394.699 269H393.643Z" fill="white"/>
</g>
</svg>
