<svg width="245" height="245" viewBox="0 0 245 245" fill="none" xmlns="http://www.w3.org/2000/svg">
<g id="Group 111">
<rect id="Rectangle 121" x="0.5" y="0.5" width="244" height="244" rx="19.5" fill="#C4C4C4" fill-opacity="0.3" stroke="#3D9BD0"/>
<g id="Group 100">
<path id="O" d="M90.6613 97.3241C89.264 97.3241 88.1813 96.9614 87.4133 96.2361C86.656 95.5001 86.256 94.3961 86.2133 92.9241C86.2026 92.6041 86.1973 92.1507 86.1973 91.5641C86.1973 90.9774 86.2026 90.5294 86.2133 90.2201C86.256 88.7801 86.672 87.6867 87.4613 86.9401C88.2506 86.1827 89.3173 85.8041 90.6613 85.8041C91.9946 85.8041 93.056 86.1827 93.8453 86.9401C94.6346 87.6867 95.0506 88.7801 95.0933 90.2201C95.1146 90.8387 95.1253 91.2867 95.1253 91.5641C95.1253 91.8307 95.1146 92.2841 95.0933 92.9241C95.0506 94.3961 94.6453 95.5001 93.8773 96.2361C93.12 96.9614 92.048 97.3241 90.6613 97.3241ZM90.6613 95.9641C91.504 95.9641 92.176 95.7081 92.6773 95.1961C93.1786 94.6841 93.4506 93.9001 93.4933 92.8441C93.5146 92.2041 93.5253 91.7774 93.5253 91.5641C93.5253 91.3294 93.5146 90.9027 93.4933 90.2841C93.4506 89.2281 93.1733 88.4441 92.6613 87.9321C92.16 87.4201 91.4933 87.1641 90.6613 87.1641C89.8186 87.1641 89.1413 87.4201 88.6293 87.9321C88.128 88.4441 87.856 89.2281 87.8133 90.2841C87.8026 90.5934 87.7973 91.0201 87.7973 91.5641C87.7973 92.0974 87.8026 92.5241 87.8133 92.8441C87.856 93.9001 88.128 94.6841 88.6293 95.1961C89.1413 95.7081 89.8186 95.9641 90.6613 95.9641Z" fill="white"/>
<path id="OH" d="M168.791 34.16C167.394 34.16 166.311 33.7973 165.543 33.072C164.786 32.336 164.386 31.232 164.343 29.76C164.333 29.44 164.327 28.9867 164.327 28.4C164.327 27.8133 164.333 27.3653 164.343 27.056C164.386 25.616 164.802 24.5227 165.591 23.776C166.381 23.0187 167.447 22.64 168.791 22.64C170.125 22.64 171.186 23.0187 171.975 23.776C172.765 24.5227 173.181 25.616 173.223 27.056C173.245 27.6747 173.255 28.1227 173.255 28.4C173.255 28.6667 173.245 29.12 173.223 29.76C173.181 31.232 172.775 32.336 172.007 33.072C171.25 33.7973 170.178 34.16 168.791 34.16ZM168.791 32.8C169.634 32.8 170.306 32.544 170.807 32.032C171.309 31.52 171.581 30.736 171.623 29.68C171.645 29.04 171.655 28.6133 171.655 28.4C171.655 28.1653 171.645 27.7387 171.623 27.12C171.581 26.064 171.303 25.28 170.791 24.768C170.29 24.256 169.623 24 168.791 24C167.949 24 167.271 24.256 166.759 24.768C166.258 25.28 165.986 26.064 165.943 27.12C165.933 27.4293 165.927 27.856 165.927 28.4C165.927 28.9333 165.933 29.36 165.943 29.68C165.986 30.736 166.258 31.52 166.759 32.032C167.271 32.544 167.949 32.8 168.791 32.8ZM175.955 34C175.849 34 175.758 33.968 175.683 33.904C175.619 33.8293 175.587 33.7387 175.587 33.632V23.184C175.587 23.0667 175.619 22.976 175.683 22.912C175.758 22.8373 175.849 22.8 175.955 22.8H176.771C176.889 22.8 176.979 22.8373 177.043 22.912C177.118 22.976 177.155 23.0667 177.155 23.184V27.6H182.659V23.184C182.659 23.0667 182.691 22.976 182.755 22.912C182.83 22.8373 182.921 22.8 183.027 22.8H183.843C183.961 22.8 184.051 22.8373 184.115 22.912C184.19 22.976 184.227 23.0667 184.227 23.184V33.632C184.227 33.7387 184.19 33.8293 184.115 33.904C184.041 33.968 183.95 34 183.843 34H183.027C182.921 34 182.83 33.968 182.755 33.904C182.691 33.8293 182.659 33.7387 182.659 33.632V29.04H177.155V33.632C177.155 33.7387 177.118 33.8293 177.043 33.904C176.969 33.968 176.878 34 176.771 34H175.955Z" fill="white"/>
<path id="OH_2" d="M183.424 116.16C182.027 116.16 180.944 115.797 180.176 115.072C179.419 114.336 179.019 113.232 178.976 111.76C178.965 111.44 178.96 110.987 178.96 110.4C178.96 109.813 178.965 109.365 178.976 109.056C179.019 107.616 179.435 106.523 180.224 105.776C181.013 105.019 182.08 104.64 183.424 104.64C184.757 104.64 185.819 105.019 186.608 105.776C187.397 106.523 187.813 107.616 187.856 109.056C187.877 109.675 187.888 110.123 187.888 110.4C187.888 110.667 187.877 111.12 187.856 111.76C187.813 113.232 187.408 114.336 186.64 115.072C185.883 115.797 184.811 116.16 183.424 116.16ZM183.424 114.8C184.267 114.8 184.939 114.544 185.44 114.032C185.941 113.52 186.213 112.736 186.256 111.68C186.277 111.04 186.288 110.613 186.288 110.4C186.288 110.165 186.277 109.739 186.256 109.12C186.213 108.064 185.936 107.28 185.424 106.768C184.923 106.256 184.256 106 183.424 106C182.581 106 181.904 106.256 181.392 106.768C180.891 107.28 180.619 108.064 180.576 109.12C180.565 109.429 180.56 109.856 180.56 110.4C180.56 110.933 180.565 111.36 180.576 111.68C180.619 112.736 180.891 113.52 181.392 114.032C181.904 114.544 182.581 114.8 183.424 114.8ZM190.588 116C190.481 116 190.391 115.968 190.316 115.904C190.252 115.829 190.22 115.739 190.22 115.632V105.184C190.22 105.067 190.252 104.976 190.316 104.912C190.391 104.837 190.481 104.8 190.588 104.8H191.404C191.521 104.8 191.612 104.837 191.676 104.912C191.751 104.976 191.788 105.067 191.788 105.184V109.6H197.292V105.184C197.292 105.067 197.324 104.976 197.388 104.912C197.463 104.837 197.553 104.8 197.66 104.8H198.476C198.593 104.8 198.684 104.837 198.748 104.912C198.823 104.976 198.86 105.067 198.86 105.184V115.632C198.86 115.739 198.823 115.829 198.748 115.904C198.673 115.968 198.583 116 198.476 116H197.66C197.553 116 197.463 115.968 197.388 115.904C197.324 115.829 197.292 115.739 197.292 115.632V111.04H191.788V115.632C191.788 115.739 191.751 115.829 191.676 115.904C191.601 115.968 191.511 116 191.404 116H190.588Z" fill="white"/>
<path id="OH_3" d="M130.424 190.16C129.027 190.16 127.944 189.797 127.176 189.072C126.419 188.336 126.019 187.232 125.976 185.76C125.965 185.44 125.96 184.987 125.96 184.4C125.96 183.813 125.965 183.365 125.976 183.056C126.019 181.616 126.435 180.523 127.224 179.776C128.013 179.019 129.08 178.64 130.424 178.64C131.757 178.64 132.819 179.019 133.608 179.776C134.397 180.523 134.813 181.616 134.856 183.056C134.877 183.675 134.888 184.123 134.888 184.4C134.888 184.667 134.877 185.12 134.856 185.76C134.813 187.232 134.408 188.336 133.64 189.072C132.883 189.797 131.811 190.16 130.424 190.16ZM130.424 188.8C131.267 188.8 131.939 188.544 132.44 188.032C132.941 187.52 133.213 186.736 133.256 185.68C133.277 185.04 133.288 184.613 133.288 184.4C133.288 184.165 133.277 183.739 133.256 183.12C133.213 182.064 132.936 181.28 132.424 180.768C131.923 180.256 131.256 180 130.424 180C129.581 180 128.904 180.256 128.392 180.768C127.891 181.28 127.619 182.064 127.576 183.12C127.565 183.429 127.56 183.856 127.56 184.4C127.56 184.933 127.565 185.36 127.576 185.68C127.619 186.736 127.891 187.52 128.392 188.032C128.904 188.544 129.581 188.8 130.424 188.8ZM137.588 190C137.481 190 137.391 189.968 137.316 189.904C137.252 189.829 137.22 189.739 137.22 189.632V179.184C137.22 179.067 137.252 178.976 137.316 178.912C137.391 178.837 137.481 178.8 137.588 178.8H138.404C138.521 178.8 138.612 178.837 138.676 178.912C138.751 178.976 138.788 179.067 138.788 179.184V183.6H144.292V179.184C144.292 179.067 144.324 178.976 144.388 178.912C144.463 178.837 144.553 178.8 144.66 178.8H145.476C145.593 178.8 145.684 178.837 145.748 178.912C145.823 178.976 145.86 179.067 145.86 179.184V189.632C145.86 189.739 145.823 189.829 145.748 189.904C145.673 189.968 145.583 190 145.476 190H144.66C144.553 190 144.463 189.968 144.388 189.904C144.324 189.829 144.292 189.739 144.292 189.632V185.04H138.788V189.632C138.788 189.739 138.751 189.829 138.676 189.904C138.601 189.968 138.511 190 138.404 190H137.588Z" fill="white"/>
<path id="O_2" d="M30.424 112.16C29.0267 112.16 27.944 111.797 27.176 111.072C26.4187 110.336 26.0187 109.232 25.976 107.76C25.9653 107.44 25.96 106.987 25.96 106.4C25.96 105.813 25.9653 105.365 25.976 105.056C26.0187 103.616 26.4347 102.523 27.224 101.776C28.0133 101.019 29.08 100.64 30.424 100.64C31.7573 100.64 32.8187 101.019 33.608 101.776C34.3973 102.523 34.8133 103.616 34.856 105.056C34.8773 105.675 34.888 106.123 34.888 106.4C34.888 106.667 34.8773 107.12 34.856 107.76C34.8133 109.232 34.408 110.336 33.64 111.072C32.8827 111.797 31.8107 112.16 30.424 112.16ZM30.424 110.8C31.2667 110.8 31.9387 110.544 32.44 110.032C32.9413 109.52 33.2133 108.736 33.256 107.68C33.2773 107.04 33.288 106.613 33.288 106.4C33.288 106.165 33.2773 105.739 33.256 105.12C33.2133 104.064 32.936 103.28 32.424 102.768C31.9227 102.256 31.256 102 30.424 102C29.5813 102 28.904 102.256 28.392 102.768C27.8907 103.28 27.6187 104.064 27.576 105.12C27.5653 105.429 27.56 105.856 27.56 106.4C27.56 106.933 27.5653 107.36 27.576 107.68C27.6187 108.736 27.8907 109.52 28.392 110.032C28.904 110.544 29.5813 110.8 30.424 110.8Z" fill="white"/>
<g id="Group">
<path id="Vector" d="M36 76.0837L45.1316 46.4512L89.4442 24.4292L135.917 45.3582L146.72 94.2195L114.923 135.025H66.7375L44.5201 112.558" stroke="#3D9BD0" stroke-miterlimit="10"/>
<path id="Vector_2" d="M89.4439 24.4292L84.5928 63.9392L98.0455 63.5749L89.4439 24.4292Z" fill="#3D9BD0"/>
<path id="Vector_3" d="M114.596 134.618L120.14 163.36L129.394 159.231L114.596 134.618Z" fill="#3D9BD0"/>
<path id="Vector_4" d="M136.081 45.4785L161.56 30.7432L154.548 23.4565L136.081 45.4785Z" fill="#3D9BD0"/>
<path id="Vector_5" d="M66.5342 135.023L91.0346 106.402L78.8863 98.7109L66.5342 135.023Z" fill="#3D9BD0"/>
<g id="Group_2">
<path id="Vector_6" d="M156.623 98.307L157.683 94.3804H156.582L155.645 97.7808L156.623 98.307Z" fill="#3D9BD0"/>
<path id="Vector_7" d="M161.639 100.938L163.433 94.3804H162.047L160.457 100.331L161.639 100.938Z" fill="#3D9BD0"/>
<path id="Vector_8" d="M169.469 105.109L172.404 94.3413H171.099L168.327 104.502L169.469 105.109Z" fill="#3D9BD0"/>
<path id="Vector_9" d="M164.29 102.357L166.451 94.3413H165.065L163.067 101.709L164.29 102.357Z" fill="#3D9BD0"/>
<path id="Vector_10" d="M166.899 103.774L169.467 94.3413H168.081L165.717 103.126L166.899 103.774Z" fill="#3D9BD0"/>
<path id="Vector_11" d="M158.99 99.562L160.417 94.3804H159.316L158.053 99.0358L158.99 99.562Z" fill="#3D9BD0"/>
<path id="Vector_12" d="M149.33 94.376L151.858 95.7524L152.224 94.376H149.33Z" fill="#3D9BD0"/>
<path id="Vector_13" d="M153.28 96.5259L154.218 97.0117L154.952 94.3804H153.851L153.28 96.5259Z" fill="#3D9BD0"/>
</g>
</g>
</g>
<path id="levoglucosan" d="M53.82 230C53.6867 230 53.5733 229.953 53.48 229.86C53.3867 229.767 53.34 229.653 53.34 229.52V216.28C53.34 216.133 53.3867 216.02 53.48 215.94C53.5733 215.847 53.6867 215.8 53.82 215.8H55.48C55.6267 215.8 55.74 215.847 55.82 215.94C55.9133 216.02 55.96 216.133 55.96 216.28V229.52C55.96 229.653 55.9133 229.767 55.82 229.86C55.74 229.953 55.6267 230 55.48 230H53.82ZM63.093 230.2C61.613 230.2 60.433 229.773 59.553 228.92C58.6863 228.053 58.2263 226.84 58.173 225.28L58.153 224.78L58.173 224.28C58.2396 222.76 58.7063 221.567 59.573 220.7C60.453 219.833 61.6263 219.4 63.093 219.4C64.6663 219.4 65.8796 219.88 66.733 220.84C67.5996 221.8 68.033 223.08 68.033 224.68V225.1C68.033 225.233 67.9863 225.347 67.893 225.44C67.7996 225.533 67.6796 225.58 67.533 225.58H60.893V225.74C60.9196 226.473 61.1196 227.093 61.493 227.6C61.8796 228.093 62.4063 228.34 63.073 228.34C63.8596 228.34 64.493 228.033 64.973 227.42C65.093 227.273 65.1863 227.18 65.253 227.14C65.333 227.1 65.4463 227.08 65.593 227.08H67.313C67.433 227.08 67.533 227.12 67.613 227.2C67.7063 227.267 67.753 227.353 67.753 227.46C67.753 227.78 67.5596 228.16 67.173 228.6C66.7996 229.027 66.2596 229.4 65.553 229.72C64.8463 230.04 64.0263 230.2 63.093 230.2ZM65.313 223.9V223.84C65.313 223.053 65.113 222.42 64.713 221.94C64.3263 221.46 63.7863 221.22 63.093 221.22C62.3996 221.22 61.8596 221.46 61.473 221.94C61.0863 222.42 60.893 223.053 60.893 223.84V223.9H65.313ZM73.4648 230C73.2648 230 73.1115 229.96 73.0048 229.88C72.8982 229.787 72.8115 229.66 72.7448 229.5L69.0048 220.22L68.9648 220.04C68.9648 219.92 69.0048 219.82 69.0848 219.74C69.1782 219.647 69.2848 219.6 69.4048 219.6H71.0248C71.2782 219.6 71.4515 219.727 71.5448 219.98L74.2048 227L76.8648 219.98C76.9048 219.887 76.9648 219.8 77.0448 219.72C77.1382 219.64 77.2515 219.6 77.3848 219.6H79.0248C79.1315 219.6 79.2248 219.647 79.3048 219.74C79.3982 219.82 79.4448 219.92 79.4448 220.04C79.4448 220.12 79.4382 220.18 79.4248 220.22L75.6648 229.5C75.5982 229.66 75.5115 229.787 75.4048 229.88C75.2982 229.96 75.1448 230 74.9448 230H73.4648ZM85.4981 230.2C83.9381 230.2 82.7315 229.8 81.8781 229C81.0248 228.187 80.5648 227.08 80.4981 225.68L80.4781 224.8L80.4981 223.92C80.5648 222.533 81.0315 221.433 81.8981 220.62C82.7648 219.807 83.9648 219.4 85.4981 219.4C87.0315 219.4 88.2315 219.807 89.0981 220.62C89.9648 221.433 90.4315 222.533 90.4981 223.92C90.5115 224.08 90.5181 224.373 90.5181 224.8C90.5181 225.227 90.5115 225.52 90.4981 225.68C90.4315 227.08 89.9715 228.187 89.1181 229C88.2648 229.8 87.0581 230.2 85.4981 230.2ZM85.4981 228.22C86.2048 228.22 86.7515 228 87.1381 227.56C87.5248 227.107 87.7381 226.447 87.7781 225.58C87.7915 225.447 87.7981 225.187 87.7981 224.8C87.7981 224.413 87.7915 224.153 87.7781 224.02C87.7381 223.153 87.5248 222.5 87.1381 222.06C86.7515 221.607 86.2048 221.38 85.4981 221.38C84.7915 221.38 84.2448 221.607 83.8581 222.06C83.4715 222.5 83.2581 223.153 83.2181 224.02L83.1981 224.8L83.2181 225.58C83.2581 226.447 83.4715 227.107 83.8581 227.56C84.2448 228 84.7915 228.22 85.4981 228.22ZM97.4341 234.4C96.2474 234.4 95.2874 234.2 94.5541 233.8C93.8207 233.413 93.3007 232.967 92.9941 232.46C92.6874 231.953 92.5341 231.52 92.5341 231.16C92.5341 231.04 92.5807 230.933 92.6741 230.84C92.7807 230.747 92.8941 230.7 93.0141 230.7H94.7541C94.8741 230.7 94.9741 230.727 95.0541 230.78C95.1474 230.847 95.2207 230.96 95.2741 231.12C95.4074 231.48 95.6207 231.78 95.9141 232.02C96.2207 232.273 96.6941 232.4 97.3341 232.4C98.1341 232.4 98.7207 232.22 99.0941 231.86C99.4807 231.5 99.6741 230.88 99.6741 230V228.64C98.9407 229.507 97.9141 229.94 96.5941 229.94C95.2074 229.94 94.1607 229.513 93.4541 228.66C92.7607 227.807 92.3874 226.66 92.3341 225.22L92.3141 224.68L92.3341 224.14C92.3874 222.727 92.7674 221.587 93.4741 220.72C94.1807 219.84 95.2207 219.4 96.5941 219.4C97.3007 219.4 97.9207 219.533 98.4541 219.8C98.9874 220.067 99.4341 220.433 99.7941 220.9V220.1C99.7941 219.953 99.8407 219.833 99.9341 219.74C100.027 219.647 100.141 219.6 100.274 219.6H101.894C102.027 219.6 102.141 219.653 102.234 219.76C102.327 219.853 102.374 219.967 102.374 220.1L102.394 229.74C102.394 231.22 101.981 232.367 101.154 233.18C100.327 233.993 99.0874 234.4 97.4341 234.4ZM97.3341 227.82C98.0941 227.82 98.6607 227.58 99.0341 227.1C99.4207 226.62 99.6341 226.033 99.6741 225.34C99.6874 225.233 99.6941 225.013 99.6941 224.68C99.6941 224.36 99.6874 224.147 99.6741 224.04C99.6341 223.333 99.4207 222.74 99.0341 222.26C98.6607 221.78 98.0941 221.54 97.3341 221.54C95.8941 221.54 95.1341 222.427 95.0541 224.2L95.0341 224.68C95.0341 225.627 95.2007 226.387 95.5341 226.96C95.8807 227.533 96.4807 227.82 97.3341 227.82ZM105.558 230C105.425 230 105.312 229.953 105.218 229.86C105.125 229.767 105.078 229.653 105.078 229.52V216.28C105.078 216.133 105.125 216.02 105.218 215.94C105.312 215.847 105.425 215.8 105.558 215.8H107.218C107.365 215.8 107.478 215.847 107.558 215.94C107.652 216.02 107.698 216.133 107.698 216.28V229.52C107.698 229.653 107.652 229.767 107.558 229.86C107.478 229.953 107.365 230 107.218 230H105.558ZM114.211 230.2C112.985 230.2 112.018 229.8 111.311 229C110.605 228.187 110.251 227.087 110.251 225.7V220.08C110.251 219.947 110.298 219.833 110.391 219.74C110.485 219.647 110.598 219.6 110.731 219.6H112.491C112.638 219.6 112.751 219.647 112.831 219.74C112.925 219.82 112.971 219.933 112.971 220.08V225.58C112.971 227.233 113.698 228.06 115.151 228.06C115.845 228.06 116.391 227.84 116.791 227.4C117.205 226.96 117.411 226.353 117.411 225.58V220.08C117.411 219.947 117.458 219.833 117.551 219.74C117.645 219.647 117.758 219.6 117.891 219.6H119.651C119.798 219.6 119.911 219.647 119.991 219.74C120.085 219.82 120.131 219.933 120.131 220.08V229.52C120.131 229.653 120.085 229.767 119.991 229.86C119.911 229.953 119.798 230 119.651 230H118.031C117.898 230 117.785 229.953 117.691 229.86C117.598 229.767 117.551 229.653 117.551 229.52V228.7C116.805 229.7 115.691 230.2 114.211 230.2ZM127.273 230.2C125.806 230.2 124.633 229.793 123.753 228.98C122.886 228.167 122.426 227.04 122.373 225.6L122.353 224.8L122.373 224C122.426 222.56 122.886 221.433 123.753 220.62C124.633 219.807 125.806 219.4 127.273 219.4C128.313 219.4 129.193 219.587 129.913 219.96C130.646 220.333 131.186 220.793 131.533 221.34C131.893 221.873 132.086 222.38 132.113 222.86C132.126 222.993 132.08 223.107 131.973 223.2C131.88 223.293 131.766 223.34 131.633 223.34H129.873C129.74 223.34 129.633 223.313 129.553 223.26C129.486 223.193 129.42 223.087 129.353 222.94C129.153 222.42 128.886 222.047 128.553 221.82C128.233 221.593 127.82 221.48 127.313 221.48C126.633 221.48 126.1 221.7 125.713 222.14C125.326 222.567 125.12 223.22 125.093 224.1L125.073 224.84L125.093 225.5C125.146 227.247 125.886 228.12 127.313 228.12C127.833 228.12 128.253 228.007 128.573 227.78C128.893 227.553 129.153 227.18 129.353 226.66C129.42 226.513 129.486 226.413 129.553 226.36C129.633 226.293 129.74 226.26 129.873 226.26H131.633C131.766 226.26 131.88 226.307 131.973 226.4C132.08 226.493 132.126 226.607 132.113 226.74C132.086 227.207 131.9 227.707 131.553 228.24C131.206 228.773 130.673 229.233 129.953 229.62C129.233 230.007 128.34 230.2 127.273 230.2ZM138.799 230.2C137.239 230.2 136.032 229.8 135.179 229C134.326 228.187 133.866 227.08 133.799 225.68L133.779 224.8L133.799 223.92C133.866 222.533 134.332 221.433 135.199 220.62C136.066 219.807 137.266 219.4 138.799 219.4C140.332 219.4 141.532 219.807 142.399 220.62C143.266 221.433 143.732 222.533 143.799 223.92C143.812 224.08 143.819 224.373 143.819 224.8C143.819 225.227 143.812 225.52 143.799 225.68C143.732 227.08 143.272 228.187 142.419 229C141.566 229.8 140.359 230.2 138.799 230.2ZM138.799 228.22C139.506 228.22 140.052 228 140.439 227.56C140.826 227.107 141.039 226.447 141.079 225.58C141.092 225.447 141.099 225.187 141.099 224.8C141.099 224.413 141.092 224.153 141.079 224.02C141.039 223.153 140.826 222.5 140.439 222.06C140.052 221.607 139.506 221.38 138.799 221.38C138.092 221.38 137.546 221.607 137.159 222.06C136.772 222.5 136.559 223.153 136.519 224.02L136.499 224.8L136.519 225.58C136.559 226.447 136.772 227.107 137.159 227.56C137.546 228 138.092 228.22 138.799 228.22ZM149.975 230.2C148.975 230.2 148.135 230.053 147.455 229.76C146.775 229.453 146.268 229.1 145.935 228.7C145.615 228.287 145.455 227.933 145.455 227.64C145.455 227.507 145.502 227.4 145.595 227.32C145.688 227.24 145.795 227.2 145.915 227.2H147.495C147.615 227.2 147.715 227.247 147.795 227.34C147.848 227.38 147.988 227.5 148.215 227.7C148.442 227.913 148.708 228.08 149.015 228.2C149.322 228.32 149.662 228.38 150.035 228.38C150.568 228.38 151.008 228.273 151.355 228.06C151.702 227.847 151.875 227.553 151.875 227.18C151.875 226.9 151.795 226.673 151.635 226.5C151.488 226.327 151.215 226.173 150.815 226.04C150.415 225.893 149.822 225.74 149.035 225.58C147.902 225.34 147.062 224.973 146.515 224.48C145.982 223.987 145.715 223.333 145.715 222.52C145.715 221.987 145.875 221.487 146.195 221.02C146.515 220.54 146.988 220.153 147.615 219.86C148.255 219.553 149.015 219.4 149.895 219.4C150.788 219.4 151.562 219.547 152.215 219.84C152.868 220.12 153.362 220.46 153.695 220.86C154.042 221.247 154.215 221.593 154.215 221.9C154.215 222.02 154.168 222.127 154.075 222.22C153.995 222.3 153.895 222.34 153.775 222.34H152.295C152.188 222.34 152.075 222.293 151.955 222.2C151.862 222.133 151.715 222.007 151.515 221.82C151.315 221.633 151.082 221.487 150.815 221.38C150.548 221.273 150.235 221.22 149.875 221.22C149.382 221.22 148.995 221.327 148.715 221.54C148.448 221.753 148.315 222.033 148.315 222.38C148.315 222.633 148.382 222.84 148.515 223C148.648 223.16 148.908 223.313 149.295 223.46C149.682 223.607 150.262 223.753 151.035 223.9C152.315 224.153 153.228 224.547 153.775 225.08C154.335 225.613 154.615 226.267 154.615 227.04C154.615 227.973 154.208 228.733 153.395 229.32C152.582 229.907 151.442 230.2 149.975 230.2ZM159.699 230.2C159.019 230.2 158.393 230.067 157.819 229.8C157.259 229.52 156.813 229.147 156.479 228.68C156.159 228.213 155.999 227.7 155.999 227.14C155.999 226.233 156.366 225.5 157.099 224.94C157.833 224.38 158.839 224 160.119 223.8L162.859 223.4V222.98C162.859 222.393 162.713 221.953 162.419 221.66C162.126 221.367 161.653 221.22 160.999 221.22C160.559 221.22 160.199 221.307 159.919 221.48C159.653 221.64 159.439 221.8 159.279 221.96C159.119 222.133 159.013 222.247 158.959 222.3C158.906 222.46 158.806 222.54 158.659 222.54H157.119C156.999 222.54 156.893 222.5 156.799 222.42C156.719 222.34 156.679 222.233 156.679 222.1C156.693 221.767 156.853 221.387 157.159 220.96C157.479 220.533 157.966 220.167 158.619 219.86C159.273 219.553 160.073 219.4 161.019 219.4C162.593 219.4 163.739 219.753 164.459 220.46C165.179 221.167 165.539 222.093 165.539 223.24V229.52C165.539 229.653 165.493 229.767 165.399 229.86C165.319 229.953 165.206 230 165.059 230H163.439C163.306 230 163.193 229.953 163.099 229.86C163.006 229.767 162.959 229.653 162.959 229.52V228.74C162.666 229.167 162.246 229.52 161.699 229.8C161.166 230.067 160.499 230.2 159.699 230.2ZM160.379 228.3C161.113 228.3 161.713 228.06 162.179 227.58C162.646 227.1 162.879 226.4 162.879 225.48V225.06L160.879 225.38C160.106 225.5 159.519 225.693 159.119 225.96C158.733 226.227 158.539 226.553 158.539 226.94C158.539 227.367 158.719 227.7 159.079 227.94C159.439 228.18 159.873 228.3 160.379 228.3ZM168.585 230C168.452 230 168.338 229.953 168.245 229.86C168.152 229.767 168.105 229.653 168.105 229.52V220.08C168.105 219.947 168.152 219.833 168.245 219.74C168.338 219.647 168.452 219.6 168.585 219.6H170.225C170.358 219.6 170.472 219.647 170.565 219.74C170.658 219.833 170.705 219.947 170.705 220.08V220.9C171.492 219.9 172.605 219.4 174.045 219.4C175.272 219.4 176.245 219.807 176.965 220.62C177.685 221.42 178.045 222.513 178.045 223.9V229.52C178.045 229.653 177.998 229.767 177.905 229.86C177.825 229.953 177.712 230 177.565 230H175.805C175.672 230 175.558 229.953 175.465 229.86C175.372 229.767 175.325 229.653 175.325 229.52V224.02C175.325 223.233 175.132 222.627 174.745 222.2C174.372 221.76 173.825 221.54 173.105 221.54C172.398 221.54 171.838 221.76 171.425 222.2C171.025 222.64 170.825 223.247 170.825 224.02V229.52C170.825 229.653 170.778 229.767 170.685 229.86C170.605 229.953 170.492 230 170.345 230H168.585Z" fill="white"/>
</g>
</svg>
