<svg width="245" height="245" viewBox="0 0 245 245" fill="none" xmlns="http://www.w3.org/2000/svg">
<g id="Group 123">
<rect id="Rectangle 122" x="0.5" y="0.5" width="244" height="244" rx="19.5" fill="#C4C4C4" fill-opacity="0.3" stroke="#3D9BD0"/>
<g id="Group 101">
<path id="O" d="M94.9885 27.16C93.5911 27.16 92.5085 26.7973 91.7405 26.072C90.9831 25.336 90.5831 24.232 90.5405 22.76C90.5298 22.44 90.5245 21.9867 90.5245 21.4C90.5245 20.8133 90.5298 20.3653 90.5405 20.056C90.5831 18.616 90.9991 17.5227 91.7885 16.776C92.5778 16.0187 93.6445 15.64 94.9885 15.64C96.3218 15.64 97.3831 16.0187 98.1725 16.776C98.9618 17.5227 99.3778 18.616 99.4205 20.056C99.4418 20.6747 99.4525 21.1227 99.4525 21.4C99.4525 21.6667 99.4418 22.12 99.4205 22.76C99.3778 24.232 98.9725 25.336 98.2045 26.072C97.4471 26.7973 96.3751 27.16 94.9885 27.16ZM94.9885 25.8C95.8311 25.8 96.5031 25.544 97.0045 25.032C97.5058 24.52 97.7778 23.736 97.8205 22.68C97.8418 22.04 97.8525 21.6133 97.8525 21.4C97.8525 21.1653 97.8418 20.7387 97.8205 20.12C97.7778 19.064 97.5005 18.28 96.9885 17.768C96.4871 17.256 95.8205 17 94.9885 17C94.1458 17 93.4685 17.256 92.9565 17.768C92.4551 18.28 92.1831 19.064 92.1405 20.12C92.1298 20.4293 92.1245 20.856 92.1245 21.4C92.1245 21.9333 92.1298 22.36 92.1405 22.68C92.1831 23.736 92.4551 24.52 92.9565 25.032C93.4685 25.544 94.1458 25.8 94.9885 25.8Z" fill="white"/>
<path id="O_2" d="M54.424 137.191C53.0267 137.191 51.944 136.829 51.176 136.103C50.4187 135.367 50.0187 134.263 49.976 132.791C49.9653 132.471 49.96 132.018 49.96 131.431C49.96 130.845 49.9653 130.397 49.976 130.087C50.0187 128.647 50.4347 127.554 51.224 126.807C52.0133 126.05 53.08 125.671 54.424 125.671C55.7573 125.671 56.8187 126.05 57.608 126.807C58.3973 127.554 58.8133 128.647 58.856 130.087C58.8773 130.706 58.888 131.154 58.888 131.431C58.888 131.698 58.8773 132.151 58.856 132.791C58.8133 134.263 58.408 135.367 57.64 136.103C56.8827 136.829 55.8107 137.191 54.424 137.191ZM54.424 135.831C55.2667 135.831 55.9387 135.575 56.44 135.063C56.9413 134.551 57.2133 133.767 57.256 132.711C57.2773 132.071 57.288 131.645 57.288 131.431C57.288 131.197 57.2773 130.77 57.256 130.151C57.2133 129.095 56.936 128.311 56.424 127.799C55.9227 127.287 55.256 127.031 54.424 127.031C53.5813 127.031 52.904 127.287 52.392 127.799C51.8907 128.311 51.6187 129.095 51.576 130.151C51.5653 130.461 51.56 130.887 51.56 131.431C51.56 131.965 51.5653 132.391 51.576 132.711C51.6187 133.767 51.8907 134.551 52.392 135.063C52.904 135.575 53.5813 135.831 54.424 135.831Z" fill="white"/>
<path id="O_3" d="M132.424 205.191C131.027 205.191 129.944 204.829 129.176 204.103C128.419 203.367 128.019 202.263 127.976 200.791C127.965 200.471 127.96 200.018 127.96 199.431C127.96 198.845 127.965 198.397 127.976 198.087C128.019 196.647 128.435 195.554 129.224 194.807C130.013 194.05 131.08 193.671 132.424 193.671C133.757 193.671 134.819 194.05 135.608 194.807C136.397 195.554 136.813 196.647 136.856 198.087C136.877 198.706 136.888 199.154 136.888 199.431C136.888 199.698 136.877 200.151 136.856 200.791C136.813 202.263 136.408 203.367 135.64 204.103C134.883 204.829 133.811 205.191 132.424 205.191ZM132.424 203.831C133.267 203.831 133.939 203.575 134.44 203.063C134.941 202.551 135.213 201.767 135.256 200.711C135.277 200.071 135.288 199.645 135.288 199.431C135.288 199.197 135.277 198.77 135.256 198.151C135.213 197.095 134.936 196.311 134.424 195.799C133.923 195.287 133.256 195.031 132.424 195.031C131.581 195.031 130.904 195.287 130.392 195.799C129.891 196.311 129.619 197.095 129.576 198.151C129.565 198.461 129.56 198.887 129.56 199.431C129.56 199.965 129.565 200.391 129.576 200.711C129.619 201.767 129.891 202.551 130.392 203.063C130.904 203.575 131.581 203.831 132.424 203.831Z" fill="white"/>
<g id="Group">
<g id="Group_2">
<g id="Group_3">
<path id="Vector" d="M93.4358 36.2178L100.248 118.509L70.1221 131.253" stroke="#3D9BD0" stroke-width="1.5" stroke-miterlimit="10"/>
<path id="Vector_2" d="M61 116.004L72.2027 83.7342L118.187 61.7505L165.647 79.8654L183.359 129.477L138.813 154.646L100.247 118.507" stroke="#3D9BD0" stroke-width="1.5" stroke-miterlimit="10"/>
<path id="Vector_3" d="M102.556 33.0312L118.186 61.7511" stroke="#3D9BD0" stroke-width="1.5" stroke-miterlimit="10"/>
<path id="Vector_4" d="M134.425 150.504L130.641 188.691" stroke="#3D9BD0" stroke-width="1.5" stroke-miterlimit="10"/>
<path id="Vector_5" d="M143.581 151.961L139.493 190.148" stroke="#3D9BD0" stroke-width="1.5" stroke-miterlimit="10"/>
<path id="Vector_6" d="M158.572 89.7886L171.819 124.653" stroke="#3D9BD0" stroke-width="1.5" stroke-miterlimit="10"/>
</g>
</g>
</g>
</g>
<path id="levoglucosenone" d="M42.82 232C42.6867 232 42.5733 231.953 42.48 231.86C42.3867 231.767 42.34 231.653 42.34 231.52V218.28C42.34 218.133 42.3867 218.02 42.48 217.94C42.5733 217.847 42.6867 217.8 42.82 217.8H44.48C44.6267 217.8 44.74 217.847 44.82 217.94C44.9133 218.02 44.96 218.133 44.96 218.28V231.52C44.96 231.653 44.9133 231.767 44.82 231.86C44.74 231.953 44.6267 232 44.48 232H42.82ZM52.093 232.2C50.613 232.2 49.433 231.773 48.553 230.92C47.6863 230.053 47.2263 228.84 47.173 227.28L47.153 226.78L47.173 226.28C47.2396 224.76 47.7063 223.567 48.573 222.7C49.453 221.833 50.6263 221.4 52.093 221.4C53.6663 221.4 54.8796 221.88 55.733 222.84C56.5996 223.8 57.033 225.08 57.033 226.68V227.1C57.033 227.233 56.9863 227.347 56.893 227.44C56.7996 227.533 56.6796 227.58 56.533 227.58H49.893V227.74C49.9196 228.473 50.1196 229.093 50.493 229.6C50.8796 230.093 51.4063 230.34 52.073 230.34C52.8596 230.34 53.493 230.033 53.973 229.42C54.093 229.273 54.1863 229.18 54.253 229.14C54.333 229.1 54.4463 229.08 54.593 229.08H56.313C56.433 229.08 56.533 229.12 56.613 229.2C56.7063 229.267 56.753 229.353 56.753 229.46C56.753 229.78 56.5596 230.16 56.173 230.6C55.7996 231.027 55.2596 231.4 54.553 231.72C53.8463 232.04 53.0263 232.2 52.093 232.2ZM54.313 225.9V225.84C54.313 225.053 54.113 224.42 53.713 223.94C53.3263 223.46 52.7863 223.22 52.093 223.22C51.3996 223.22 50.8596 223.46 50.473 223.94C50.0863 224.42 49.893 225.053 49.893 225.84V225.9H54.313ZM62.4648 232C62.2648 232 62.1115 231.96 62.0048 231.88C61.8982 231.787 61.8115 231.66 61.7448 231.5L58.0048 222.22L57.9648 222.04C57.9648 221.92 58.0048 221.82 58.0848 221.74C58.1782 221.647 58.2848 221.6 58.4048 221.6H60.0248C60.2782 221.6 60.4515 221.727 60.5448 221.98L63.2048 229L65.8648 221.98C65.9048 221.887 65.9648 221.8 66.0448 221.72C66.1382 221.64 66.2515 221.6 66.3848 221.6H68.0248C68.1315 221.6 68.2248 221.647 68.3048 221.74C68.3982 221.82 68.4448 221.92 68.4448 222.04C68.4448 222.12 68.4382 222.18 68.4248 222.22L64.6648 231.5C64.5982 231.66 64.5115 231.787 64.4048 231.88C64.2982 231.96 64.1448 232 63.9448 232H62.4648ZM74.4981 232.2C72.9381 232.2 71.7315 231.8 70.8781 231C70.0248 230.187 69.5648 229.08 69.4981 227.68L69.4781 226.8L69.4981 225.92C69.5648 224.533 70.0315 223.433 70.8981 222.62C71.7648 221.807 72.9648 221.4 74.4981 221.4C76.0315 221.4 77.2315 221.807 78.0981 222.62C78.9648 223.433 79.4315 224.533 79.4981 225.92C79.5115 226.08 79.5181 226.373 79.5181 226.8C79.5181 227.227 79.5115 227.52 79.4981 227.68C79.4315 229.08 78.9715 230.187 78.1181 231C77.2648 231.8 76.0581 232.2 74.4981 232.2ZM74.4981 230.22C75.2048 230.22 75.7515 230 76.1381 229.56C76.5248 229.107 76.7381 228.447 76.7781 227.58C76.7915 227.447 76.7981 227.187 76.7981 226.8C76.7981 226.413 76.7915 226.153 76.7781 226.02C76.7381 225.153 76.5248 224.5 76.1381 224.06C75.7515 223.607 75.2048 223.38 74.4981 223.38C73.7915 223.38 73.2448 223.607 72.8581 224.06C72.4715 224.5 72.2581 225.153 72.2181 226.02L72.1981 226.8L72.2181 227.58C72.2581 228.447 72.4715 229.107 72.8581 229.56C73.2448 230 73.7915 230.22 74.4981 230.22ZM86.4341 236.4C85.2474 236.4 84.2874 236.2 83.5541 235.8C82.8207 235.413 82.3007 234.967 81.9941 234.46C81.6874 233.953 81.5341 233.52 81.5341 233.16C81.5341 233.04 81.5807 232.933 81.6741 232.84C81.7807 232.747 81.8941 232.7 82.0141 232.7H83.7541C83.8741 232.7 83.9741 232.727 84.0541 232.78C84.1474 232.847 84.2207 232.96 84.2741 233.12C84.4074 233.48 84.6207 233.78 84.9141 234.02C85.2207 234.273 85.6941 234.4 86.3341 234.4C87.1341 234.4 87.7207 234.22 88.0941 233.86C88.4807 233.5 88.6741 232.88 88.6741 232V230.64C87.9407 231.507 86.9141 231.94 85.5941 231.94C84.2074 231.94 83.1607 231.513 82.4541 230.66C81.7607 229.807 81.3874 228.66 81.3341 227.22L81.3141 226.68L81.3341 226.14C81.3874 224.727 81.7674 223.587 82.4741 222.72C83.1807 221.84 84.2207 221.4 85.5941 221.4C86.3007 221.4 86.9207 221.533 87.4541 221.8C87.9874 222.067 88.4341 222.433 88.7941 222.9V222.1C88.7941 221.953 88.8407 221.833 88.9341 221.74C89.0274 221.647 89.1407 221.6 89.2741 221.6H90.8941C91.0274 221.6 91.1407 221.653 91.2341 221.76C91.3274 221.853 91.3741 221.967 91.3741 222.1L91.3941 231.74C91.3941 233.22 90.9807 234.367 90.1541 235.18C89.3274 235.993 88.0874 236.4 86.4341 236.4ZM86.3341 229.82C87.0941 229.82 87.6607 229.58 88.0341 229.1C88.4207 228.62 88.6341 228.033 88.6741 227.34C88.6874 227.233 88.6941 227.013 88.6941 226.68C88.6941 226.36 88.6874 226.147 88.6741 226.04C88.6341 225.333 88.4207 224.74 88.0341 224.26C87.6607 223.78 87.0941 223.54 86.3341 223.54C84.8941 223.54 84.1341 224.427 84.0541 226.2L84.0341 226.68C84.0341 227.627 84.2007 228.387 84.5341 228.96C84.8807 229.533 85.4807 229.82 86.3341 229.82ZM94.5583 232C94.4249 232 94.3116 231.953 94.2183 231.86C94.1249 231.767 94.0783 231.653 94.0783 231.52V218.28C94.0783 218.133 94.1249 218.02 94.2183 217.94C94.3116 217.847 94.4249 217.8 94.5583 217.8H96.2183C96.3649 217.8 96.4783 217.847 96.5583 217.94C96.6516 218.02 96.6983 218.133 96.6983 218.28V231.52C96.6983 231.653 96.6516 231.767 96.5583 231.86C96.4783 231.953 96.3649 232 96.2183 232H94.5583ZM103.211 232.2C101.985 232.2 101.018 231.8 100.311 231C99.6046 230.187 99.2513 229.087 99.2513 227.7V222.08C99.2513 221.947 99.2979 221.833 99.3913 221.74C99.4846 221.647 99.5979 221.6 99.7313 221.6H101.491C101.638 221.6 101.751 221.647 101.831 221.74C101.925 221.82 101.971 221.933 101.971 222.08V227.58C101.971 229.233 102.698 230.06 104.151 230.06C104.845 230.06 105.391 229.84 105.791 229.4C106.205 228.96 106.411 228.353 106.411 227.58V222.08C106.411 221.947 106.458 221.833 106.551 221.74C106.645 221.647 106.758 221.6 106.891 221.6H108.651C108.798 221.6 108.911 221.647 108.991 221.74C109.085 221.82 109.131 221.933 109.131 222.08V231.52C109.131 231.653 109.085 231.767 108.991 231.86C108.911 231.953 108.798 232 108.651 232H107.031C106.898 232 106.785 231.953 106.691 231.86C106.598 231.767 106.551 231.653 106.551 231.52V230.7C105.805 231.7 104.691 232.2 103.211 232.2ZM116.273 232.2C114.806 232.2 113.633 231.793 112.753 230.98C111.886 230.167 111.426 229.04 111.373 227.6L111.353 226.8L111.373 226C111.426 224.56 111.886 223.433 112.753 222.62C113.633 221.807 114.806 221.4 116.273 221.4C117.313 221.4 118.193 221.587 118.913 221.96C119.646 222.333 120.186 222.793 120.533 223.34C120.893 223.873 121.086 224.38 121.113 224.86C121.126 224.993 121.08 225.107 120.973 225.2C120.88 225.293 120.766 225.34 120.633 225.34H118.873C118.74 225.34 118.633 225.313 118.553 225.26C118.486 225.193 118.42 225.087 118.353 224.94C118.153 224.42 117.886 224.047 117.553 223.82C117.233 223.593 116.82 223.48 116.313 223.48C115.633 223.48 115.1 223.7 114.713 224.14C114.326 224.567 114.12 225.22 114.093 226.1L114.073 226.84L114.093 227.5C114.146 229.247 114.886 230.12 116.313 230.12C116.833 230.12 117.253 230.007 117.573 229.78C117.893 229.553 118.153 229.18 118.353 228.66C118.42 228.513 118.486 228.413 118.553 228.36C118.633 228.293 118.74 228.26 118.873 228.26H120.633C120.766 228.26 120.88 228.307 120.973 228.4C121.08 228.493 121.126 228.607 121.113 228.74C121.086 229.207 120.9 229.707 120.553 230.24C120.206 230.773 119.673 231.233 118.953 231.62C118.233 232.007 117.34 232.2 116.273 232.2ZM127.799 232.2C126.239 232.2 125.032 231.8 124.179 231C123.326 230.187 122.866 229.08 122.799 227.68L122.779 226.8L122.799 225.92C122.866 224.533 123.332 223.433 124.199 222.62C125.066 221.807 126.266 221.4 127.799 221.4C129.332 221.4 130.532 221.807 131.399 222.62C132.266 223.433 132.732 224.533 132.799 225.92C132.812 226.08 132.819 226.373 132.819 226.8C132.819 227.227 132.812 227.52 132.799 227.68C132.732 229.08 132.272 230.187 131.419 231C130.566 231.8 129.359 232.2 127.799 232.2ZM127.799 230.22C128.506 230.22 129.052 230 129.439 229.56C129.826 229.107 130.039 228.447 130.079 227.58C130.092 227.447 130.099 227.187 130.099 226.8C130.099 226.413 130.092 226.153 130.079 226.02C130.039 225.153 129.826 224.5 129.439 224.06C129.052 223.607 128.506 223.38 127.799 223.38C127.092 223.38 126.546 223.607 126.159 224.06C125.772 224.5 125.559 225.153 125.519 226.02L125.499 226.8L125.519 227.58C125.559 228.447 125.772 229.107 126.159 229.56C126.546 230 127.092 230.22 127.799 230.22ZM138.975 232.2C137.975 232.2 137.135 232.053 136.455 231.76C135.775 231.453 135.268 231.1 134.935 230.7C134.615 230.287 134.455 229.933 134.455 229.64C134.455 229.507 134.502 229.4 134.595 229.32C134.688 229.24 134.795 229.2 134.915 229.2H136.495C136.615 229.2 136.715 229.247 136.795 229.34C136.848 229.38 136.988 229.5 137.215 229.7C137.442 229.913 137.708 230.08 138.015 230.2C138.322 230.32 138.662 230.38 139.035 230.38C139.568 230.38 140.008 230.273 140.355 230.06C140.702 229.847 140.875 229.553 140.875 229.18C140.875 228.9 140.795 228.673 140.635 228.5C140.488 228.327 140.215 228.173 139.815 228.04C139.415 227.893 138.822 227.74 138.035 227.58C136.902 227.34 136.062 226.973 135.515 226.48C134.982 225.987 134.715 225.333 134.715 224.52C134.715 223.987 134.875 223.487 135.195 223.02C135.515 222.54 135.988 222.153 136.615 221.86C137.255 221.553 138.015 221.4 138.895 221.4C139.788 221.4 140.562 221.547 141.215 221.84C141.868 222.12 142.362 222.46 142.695 222.86C143.042 223.247 143.215 223.593 143.215 223.9C143.215 224.02 143.168 224.127 143.075 224.22C142.995 224.3 142.895 224.34 142.775 224.34H141.295C141.188 224.34 141.075 224.293 140.955 224.2C140.862 224.133 140.715 224.007 140.515 223.82C140.315 223.633 140.082 223.487 139.815 223.38C139.548 223.273 139.235 223.22 138.875 223.22C138.382 223.22 137.995 223.327 137.715 223.54C137.448 223.753 137.315 224.033 137.315 224.38C137.315 224.633 137.382 224.84 137.515 225C137.648 225.16 137.908 225.313 138.295 225.46C138.682 225.607 139.262 225.753 140.035 225.9C141.315 226.153 142.228 226.547 142.775 227.08C143.335 227.613 143.615 228.267 143.615 229.04C143.615 229.973 143.208 230.733 142.395 231.32C141.582 231.907 140.442 232.2 138.975 232.2ZM150.159 232.2C148.679 232.2 147.499 231.773 146.619 230.92C145.753 230.053 145.293 228.84 145.239 227.28L145.219 226.78L145.239 226.28C145.306 224.76 145.773 223.567 146.639 222.7C147.519 221.833 148.693 221.4 150.159 221.4C151.733 221.4 152.946 221.88 153.799 222.84C154.666 223.8 155.099 225.08 155.099 226.68V227.1C155.099 227.233 155.053 227.347 154.959 227.44C154.866 227.533 154.746 227.58 154.599 227.58H147.959V227.74C147.986 228.473 148.186 229.093 148.559 229.6C148.946 230.093 149.473 230.34 150.139 230.34C150.926 230.34 151.559 230.033 152.039 229.42C152.159 229.273 152.253 229.18 152.319 229.14C152.399 229.1 152.513 229.08 152.659 229.08H154.379C154.499 229.08 154.599 229.12 154.679 229.2C154.773 229.267 154.819 229.353 154.819 229.46C154.819 229.78 154.626 230.16 154.239 230.6C153.866 231.027 153.326 231.4 152.619 231.72C151.913 232.04 151.093 232.2 150.159 232.2ZM152.379 225.9V225.84C152.379 225.053 152.179 224.42 151.779 223.94C151.393 223.46 150.853 223.22 150.159 223.22C149.466 223.22 148.926 223.46 148.539 223.94C148.153 224.42 147.959 225.053 147.959 225.84V225.9H152.379ZM157.702 232C157.569 232 157.456 231.953 157.362 231.86C157.269 231.767 157.222 231.653 157.222 231.52V222.08C157.222 221.947 157.269 221.833 157.362 221.74C157.456 221.647 157.569 221.6 157.702 221.6H159.342C159.476 221.6 159.589 221.647 159.682 221.74C159.776 221.833 159.822 221.947 159.822 222.08V222.9C160.609 221.9 161.722 221.4 163.162 221.4C164.389 221.4 165.362 221.807 166.082 222.62C166.802 223.42 167.162 224.513 167.162 225.9V231.52C167.162 231.653 167.116 231.767 167.022 231.86C166.942 231.953 166.829 232 166.682 232H164.922C164.789 232 164.676 231.953 164.582 231.86C164.489 231.767 164.442 231.653 164.442 231.52V226.02C164.442 225.233 164.249 224.627 163.862 224.2C163.489 223.76 162.942 223.54 162.222 223.54C161.516 223.54 160.956 223.76 160.542 224.2C160.142 224.64 159.942 225.247 159.942 226.02V231.52C159.942 231.653 159.896 231.767 159.802 231.86C159.722 231.953 159.609 232 159.462 232H157.702ZM174.303 232.2C172.743 232.2 171.536 231.8 170.683 231C169.829 230.187 169.369 229.08 169.303 227.68L169.283 226.8L169.303 225.92C169.369 224.533 169.836 223.433 170.703 222.62C171.569 221.807 172.769 221.4 174.303 221.4C175.836 221.4 177.036 221.807 177.903 222.62C178.769 223.433 179.236 224.533 179.303 225.92C179.316 226.08 179.323 226.373 179.323 226.8C179.323 227.227 179.316 227.52 179.303 227.68C179.236 229.08 178.776 230.187 177.923 231C177.069 231.8 175.863 232.2 174.303 232.2ZM174.303 230.22C175.009 230.22 175.556 230 175.943 229.56C176.329 229.107 176.543 228.447 176.583 227.58C176.596 227.447 176.603 227.187 176.603 226.8C176.603 226.413 176.596 226.153 176.583 226.02C176.543 225.153 176.329 224.5 175.943 224.06C175.556 223.607 175.009 223.38 174.303 223.38C173.596 223.38 173.049 223.607 172.663 224.06C172.276 224.5 172.063 225.153 172.023 226.02L172.003 226.8L172.023 227.58C172.063 228.447 172.276 229.107 172.663 229.56C173.049 230 173.596 230.22 174.303 230.22ZM182.019 232C181.885 232 181.772 231.953 181.679 231.86C181.585 231.767 181.539 231.653 181.539 231.52V222.08C181.539 221.947 181.585 221.833 181.679 221.74C181.772 221.647 181.885 221.6 182.019 221.6H183.659C183.792 221.6 183.905 221.647 183.999 221.74C184.092 221.833 184.139 221.947 184.139 222.08V222.9C184.925 221.9 186.039 221.4 187.479 221.4C188.705 221.4 189.679 221.807 190.399 222.62C191.119 223.42 191.479 224.513 191.479 225.9V231.52C191.479 231.653 191.432 231.767 191.339 231.86C191.259 231.953 191.145 232 190.999 232H189.239C189.105 232 188.992 231.953 188.899 231.86C188.805 231.767 188.759 231.653 188.759 231.52V226.02C188.759 225.233 188.565 224.627 188.179 224.2C187.805 223.76 187.259 223.54 186.539 223.54C185.832 223.54 185.272 223.76 184.859 224.2C184.459 224.64 184.259 225.247 184.259 226.02V231.52C184.259 231.653 184.212 231.767 184.119 231.86C184.039 231.953 183.925 232 183.779 232H182.019ZM198.499 232.2C197.019 232.2 195.839 231.773 194.959 230.92C194.093 230.053 193.633 228.84 193.579 227.28L193.559 226.78L193.579 226.28C193.646 224.76 194.113 223.567 194.979 222.7C195.859 221.833 197.033 221.4 198.499 221.4C200.073 221.4 201.286 221.88 202.139 222.84C203.006 223.8 203.439 225.08 203.439 226.68V227.1C203.439 227.233 203.393 227.347 203.299 227.44C203.206 227.533 203.086 227.58 202.939 227.58H196.299V227.74C196.326 228.473 196.526 229.093 196.899 229.6C197.286 230.093 197.813 230.34 198.479 230.34C199.266 230.34 199.899 230.033 200.379 229.42C200.499 229.273 200.593 229.18 200.659 229.14C200.739 229.1 200.853 229.08 200.999 229.08H202.719C202.839 229.08 202.939 229.12 203.019 229.2C203.113 229.267 203.159 229.353 203.159 229.46C203.159 229.78 202.966 230.16 202.579 230.6C202.206 231.027 201.666 231.4 200.959 231.72C200.253 232.04 199.433 232.2 198.499 232.2ZM200.719 225.9V225.84C200.719 225.053 200.519 224.42 200.119 223.94C199.733 223.46 199.193 223.22 198.499 223.22C197.806 223.22 197.266 223.46 196.879 223.94C196.493 224.42 196.299 225.053 196.299 225.84V225.9H200.719Z" fill="white"/>
</g>
</svg>
