<svg width="245" height="245" viewBox="0 0 245 245" fill="none" xmlns="http://www.w3.org/2000/svg">
<g id="Group 112">
<rect id="Rectangle 122" x="0.5" y="0.5" width="244" height="244" rx="19.5" fill="#8C8C8C" stroke="white"/>
<g id="Group 101">
<path id="O" d="M97.8105 25.18C96.1785 25.18 94.9065 24.766 93.9945 23.938C93.0825 23.11 92.6025 21.88 92.5545 20.248C92.5425 19.9 92.5365 19.39 92.5365 18.718C92.5365 18.034 92.5425 17.518 92.5545 17.17C92.6025 15.574 93.0945 14.35 94.0305 13.498C94.9665 12.646 96.2265 12.22 97.8105 12.22C99.3945 12.22 100.654 12.646 101.59 13.498C102.538 14.35 103.036 15.574 103.084 17.17C103.108 17.866 103.12 18.382 103.12 18.718C103.12 19.042 103.108 19.552 103.084 20.248C103.024 21.88 102.538 23.11 101.626 23.938C100.714 24.766 99.4425 25.18 97.8105 25.18ZM97.8105 23.11C98.6145 23.11 99.2565 22.87 99.7365 22.39C100.216 21.898 100.474 21.154 100.51 20.158C100.534 19.438 100.546 18.952 100.546 18.7C100.546 18.424 100.534 17.938 100.51 17.242C100.474 16.246 100.216 15.508 99.7365 15.028C99.2565 14.536 98.6145 14.29 97.8105 14.29C97.0185 14.29 96.3825 14.536 95.9025 15.028C95.4225 15.508 95.1645 16.246 95.1285 17.242C95.1165 17.59 95.1105 18.076 95.1105 18.7C95.1105 19.312 95.1165 19.798 95.1285 20.158C95.1645 21.154 95.4165 21.898 95.8845 22.39C96.3645 22.87 97.0065 23.11 97.8105 23.11Z" fill="white"/>
<path id="O_2" d="M57.246 135.211C55.614 135.211 54.342 134.797 53.43 133.969C52.518 133.141 52.038 131.911 51.99 130.279C51.978 129.931 51.972 129.421 51.972 128.749C51.972 128.065 51.978 127.549 51.99 127.201C52.038 125.605 52.53 124.381 53.466 123.529C54.402 122.677 55.662 122.251 57.246 122.251C58.83 122.251 60.09 122.677 61.026 123.529C61.974 124.381 62.472 125.605 62.52 127.201C62.544 127.897 62.556 128.413 62.556 128.749C62.556 129.073 62.544 129.583 62.52 130.279C62.46 131.911 61.974 133.141 61.062 133.969C60.15 134.797 58.878 135.211 57.246 135.211ZM57.246 133.141C58.05 133.141 58.692 132.901 59.172 132.421C59.652 131.929 59.91 131.185 59.946 130.189C59.97 129.469 59.982 128.983 59.982 128.731C59.982 128.455 59.97 127.969 59.946 127.273C59.91 126.277 59.652 125.539 59.172 125.059C58.692 124.567 58.05 124.321 57.246 124.321C56.454 124.321 55.818 124.567 55.338 125.059C54.858 125.539 54.6 126.277 54.564 127.273C54.552 127.621 54.546 128.107 54.546 128.731C54.546 129.343 54.552 129.829 54.564 130.189C54.6 131.185 54.852 131.929 55.32 132.421C55.8 132.901 56.442 133.141 57.246 133.141Z" fill="white"/>
<path id="O_3" d="M135.246 203.211C133.614 203.211 132.342 202.797 131.43 201.969C130.518 201.141 130.038 199.911 129.99 198.279C129.978 197.931 129.972 197.421 129.972 196.749C129.972 196.065 129.978 195.549 129.99 195.201C130.038 193.605 130.53 192.381 131.466 191.529C132.402 190.677 133.662 190.251 135.246 190.251C136.83 190.251 138.09 190.677 139.026 191.529C139.974 192.381 140.472 193.605 140.52 195.201C140.544 195.897 140.556 196.413 140.556 196.749C140.556 197.073 140.544 197.583 140.52 198.279C140.46 199.911 139.974 201.141 139.062 201.969C138.15 202.797 136.878 203.211 135.246 203.211ZM135.246 201.141C136.05 201.141 136.692 200.901 137.172 200.421C137.652 199.929 137.91 199.185 137.946 198.189C137.97 197.469 137.982 196.983 137.982 196.731C137.982 196.455 137.97 195.969 137.946 195.273C137.91 194.277 137.652 193.539 137.172 193.059C136.692 192.567 136.05 192.321 135.246 192.321C134.454 192.321 133.818 192.567 133.338 193.059C132.858 193.539 132.6 194.277 132.564 195.273C132.552 195.621 132.546 196.107 132.546 196.731C132.546 197.343 132.552 197.829 132.564 198.189C132.6 199.185 132.852 199.929 133.32 200.421C133.8 200.901 134.442 201.141 135.246 201.141Z" fill="white"/>
<g id="Group">
<g id="Group_2">
<g id="Group_3">
<path id="Vector" d="M95.4358 32.2175L102.248 114.508L72.1221 127.253" stroke="white" stroke-width="2" stroke-miterlimit="10"/>
<path id="Vector_2" d="M63 112.004L74.2027 79.7342L120.187 57.7505L167.647 75.8654L185.359 125.477L140.813 150.646L102.247 114.507" stroke="white" stroke-width="2" stroke-miterlimit="10"/>
<path id="Vector_3" d="M104.556 29.0312L120.186 57.7511" stroke="white" stroke-width="2" stroke-miterlimit="10"/>
<path id="Vector_4" d="M136.425 146.505L132.641 184.692" stroke="white" stroke-width="2" stroke-miterlimit="10"/>
<path id="Vector_5" d="M145.581 147.961L141.493 186.148" stroke="white" stroke-width="2" stroke-miterlimit="10"/>
<path id="Vector_6" d="M160.572 85.7886L173.819 120.653" stroke="white" stroke-width="2" stroke-miterlimit="10"/>
</g>
</g>
</g>
</g>
<path id="levoglucosenone" d="M48.82 234C48.6867 234 48.5733 233.953 48.48 233.86C48.3867 233.767 48.34 233.653 48.34 233.52V220.28C48.34 220.133 48.3867 220.02 48.48 219.94C48.5733 219.847 48.6867 219.8 48.82 219.8H50.48C50.6267 219.8 50.74 219.847 50.82 219.94C50.9133 220.02 50.96 220.133 50.96 220.28V233.52C50.96 233.653 50.9133 233.767 50.82 233.86C50.74 233.953 50.6267 234 50.48 234H48.82ZM57.293 234.2C55.813 234.2 54.633 233.773 53.753 232.92C52.8863 232.053 52.4263 230.84 52.373 229.28L52.353 228.78L52.373 228.28C52.4396 226.76 52.9063 225.567 53.773 224.7C54.653 223.833 55.8263 223.4 57.293 223.4C58.8663 223.4 60.0796 223.88 60.933 224.84C61.7996 225.8 62.233 227.08 62.233 228.68V229.1C62.233 229.233 62.1863 229.347 62.093 229.44C61.9996 229.533 61.8796 229.58 61.733 229.58H55.093V229.74C55.1196 230.473 55.3196 231.093 55.693 231.6C56.0796 232.093 56.6063 232.34 57.273 232.34C58.0596 232.34 58.693 232.033 59.173 231.42C59.293 231.273 59.3863 231.18 59.453 231.14C59.533 231.1 59.6463 231.08 59.793 231.08H61.513C61.633 231.08 61.733 231.12 61.813 231.2C61.9063 231.267 61.953 231.353 61.953 231.46C61.953 231.78 61.7596 232.16 61.373 232.6C60.9996 233.027 60.4596 233.4 59.753 233.72C59.0463 234.04 58.2263 234.2 57.293 234.2ZM59.513 227.9V227.84C59.513 227.053 59.313 226.42 58.913 225.94C58.5263 225.46 57.9863 225.22 57.293 225.22C56.5996 225.22 56.0596 225.46 55.673 225.94C55.2863 226.42 55.093 227.053 55.093 227.84V227.9H59.513ZM66.8648 234C66.6648 234 66.5115 233.96 66.4048 233.88C66.2982 233.787 66.2115 233.66 66.1448 233.5L62.4048 224.22L62.3648 224.04C62.3648 223.92 62.4048 223.82 62.4848 223.74C62.5782 223.647 62.6848 223.6 62.8048 223.6H64.4248C64.6782 223.6 64.8515 223.727 64.9448 223.98L67.6048 231L70.2648 223.98C70.3048 223.887 70.3648 223.8 70.4448 223.72C70.5382 223.64 70.6515 223.6 70.7848 223.6H72.4248C72.5315 223.6 72.6248 223.647 72.7048 223.74C72.7982 223.82 72.8448 223.92 72.8448 224.04C72.8448 224.12 72.8382 224.18 72.8248 224.22L69.0648 233.5C68.9982 233.66 68.9115 233.787 68.8048 233.88C68.6982 233.96 68.5448 234 68.3448 234H66.8648ZM78.0981 234.2C76.5381 234.2 75.3315 233.8 74.4781 233C73.6248 232.187 73.1648 231.08 73.0981 229.68L73.0781 228.8L73.0981 227.92C73.1648 226.533 73.6315 225.433 74.4981 224.62C75.3648 223.807 76.5648 223.4 78.0981 223.4C79.6315 223.4 80.8315 223.807 81.6981 224.62C82.5648 225.433 83.0315 226.533 83.0981 227.92C83.1115 228.08 83.1181 228.373 83.1181 228.8C83.1181 229.227 83.1115 229.52 83.0981 229.68C83.0315 231.08 82.5715 232.187 81.7181 233C80.8648 233.8 79.6581 234.2 78.0981 234.2ZM78.0981 232.22C78.8048 232.22 79.3515 232 79.7381 231.56C80.1248 231.107 80.3381 230.447 80.3781 229.58C80.3915 229.447 80.3981 229.187 80.3981 228.8C80.3981 228.413 80.3915 228.153 80.3781 228.02C80.3381 227.153 80.1248 226.5 79.7381 226.06C79.3515 225.607 78.8048 225.38 78.0981 225.38C77.3915 225.38 76.8448 225.607 76.4581 226.06C76.0715 226.5 75.8581 227.153 75.8181 228.02L75.7981 228.8L75.8181 229.58C75.8581 230.447 76.0715 231.107 76.4581 231.56C76.8448 232 77.3915 232.22 78.0981 232.22ZM89.2341 238.4C88.0474 238.4 87.0874 238.2 86.3541 237.8C85.6207 237.413 85.1007 236.967 84.7941 236.46C84.4874 235.953 84.3341 235.52 84.3341 235.16C84.3341 235.04 84.3807 234.933 84.4741 234.84C84.5807 234.747 84.6941 234.7 84.8141 234.7H86.5541C86.6741 234.7 86.7741 234.727 86.8541 234.78C86.9474 234.847 87.0207 234.96 87.0741 235.12C87.2074 235.48 87.4207 235.78 87.7141 236.02C88.0207 236.273 88.4941 236.4 89.1341 236.4C89.9341 236.4 90.5207 236.22 90.8941 235.86C91.2807 235.5 91.4741 234.88 91.4741 234V232.64C90.7407 233.507 89.7141 233.94 88.3941 233.94C87.0074 233.94 85.9607 233.513 85.2541 232.66C84.5607 231.807 84.1874 230.66 84.1341 229.22L84.1141 228.68L84.1341 228.14C84.1874 226.727 84.5674 225.587 85.2741 224.72C85.9807 223.84 87.0207 223.4 88.3941 223.4C89.1007 223.4 89.7207 223.533 90.2541 223.8C90.7874 224.067 91.2341 224.433 91.5941 224.9V224.1C91.5941 223.953 91.6407 223.833 91.7341 223.74C91.8274 223.647 91.9407 223.6 92.0741 223.6H93.6941C93.8274 223.6 93.9407 223.653 94.0341 223.76C94.1274 223.853 94.1741 223.967 94.1741 224.1L94.1941 233.74C94.1941 235.22 93.7807 236.367 92.9541 237.18C92.1274 237.993 90.8874 238.4 89.2341 238.4ZM89.1341 231.82C89.8941 231.82 90.4607 231.58 90.8341 231.1C91.2207 230.62 91.4341 230.033 91.4741 229.34C91.4874 229.233 91.4941 229.013 91.4941 228.68C91.4941 228.36 91.4874 228.147 91.4741 228.04C91.4341 227.333 91.2207 226.74 90.8341 226.26C90.4607 225.78 89.8941 225.54 89.1341 225.54C87.6941 225.54 86.9341 226.427 86.8541 228.2L86.8341 228.68C86.8341 229.627 87.0007 230.387 87.3341 230.96C87.6807 231.533 88.2807 231.82 89.1341 231.82ZM96.5583 234C96.4249 234 96.3116 233.953 96.2183 233.86C96.1249 233.767 96.0783 233.653 96.0783 233.52V220.28C96.0783 220.133 96.1249 220.02 96.2183 219.94C96.3116 219.847 96.4249 219.8 96.5583 219.8H98.2183C98.3649 219.8 98.4783 219.847 98.5583 219.94C98.6516 220.02 98.6983 220.133 98.6983 220.28V233.52C98.6983 233.653 98.6516 233.767 98.5583 233.86C98.4783 233.953 98.3649 234 98.2183 234H96.5583ZM104.411 234.2C103.185 234.2 102.218 233.8 101.511 233C100.805 232.187 100.451 231.087 100.451 229.7V224.08C100.451 223.947 100.498 223.833 100.591 223.74C100.685 223.647 100.798 223.6 100.931 223.6H102.691C102.838 223.6 102.951 223.647 103.031 223.74C103.125 223.82 103.171 223.933 103.171 224.08V229.58C103.171 231.233 103.898 232.06 105.351 232.06C106.045 232.06 106.591 231.84 106.991 231.4C107.405 230.96 107.611 230.353 107.611 229.58V224.08C107.611 223.947 107.658 223.833 107.751 223.74C107.845 223.647 107.958 223.6 108.091 223.6H109.851C109.998 223.6 110.111 223.647 110.191 223.74C110.285 223.82 110.331 223.933 110.331 224.08V233.52C110.331 233.653 110.285 233.767 110.191 233.86C110.111 233.953 109.998 234 109.851 234H108.231C108.098 234 107.985 233.953 107.891 233.86C107.798 233.767 107.751 233.653 107.751 233.52V232.7C107.005 233.7 105.891 234.2 104.411 234.2ZM116.673 234.2C115.206 234.2 114.033 233.793 113.153 232.98C112.286 232.167 111.826 231.04 111.773 229.6L111.753 228.8L111.773 228C111.826 226.56 112.286 225.433 113.153 224.62C114.033 223.807 115.206 223.4 116.673 223.4C117.713 223.4 118.593 223.587 119.313 223.96C120.046 224.333 120.586 224.793 120.933 225.34C121.293 225.873 121.486 226.38 121.513 226.86C121.526 226.993 121.48 227.107 121.373 227.2C121.28 227.293 121.166 227.34 121.033 227.34H119.273C119.14 227.34 119.033 227.313 118.953 227.26C118.886 227.193 118.82 227.087 118.753 226.94C118.553 226.42 118.286 226.047 117.953 225.82C117.633 225.593 117.22 225.48 116.713 225.48C116.033 225.48 115.5 225.7 115.113 226.14C114.726 226.567 114.52 227.22 114.493 228.1L114.473 228.84L114.493 229.5C114.546 231.247 115.286 232.12 116.713 232.12C117.233 232.12 117.653 232.007 117.973 231.78C118.293 231.553 118.553 231.18 118.753 230.66C118.82 230.513 118.886 230.413 118.953 230.36C119.033 230.293 119.14 230.26 119.273 230.26H121.033C121.166 230.26 121.28 230.307 121.373 230.4C121.48 230.493 121.526 230.607 121.513 230.74C121.486 231.207 121.3 231.707 120.953 232.24C120.606 232.773 120.073 233.233 119.353 233.62C118.633 234.007 117.74 234.2 116.673 234.2ZM127.399 234.2C125.839 234.2 124.632 233.8 123.779 233C122.926 232.187 122.466 231.08 122.399 229.68L122.379 228.8L122.399 227.92C122.466 226.533 122.932 225.433 123.799 224.62C124.666 223.807 125.866 223.4 127.399 223.4C128.932 223.4 130.132 223.807 130.999 224.62C131.866 225.433 132.332 226.533 132.399 227.92C132.412 228.08 132.419 228.373 132.419 228.8C132.419 229.227 132.412 229.52 132.399 229.68C132.332 231.08 131.872 232.187 131.019 233C130.166 233.8 128.959 234.2 127.399 234.2ZM127.399 232.22C128.106 232.22 128.652 232 129.039 231.56C129.426 231.107 129.639 230.447 129.679 229.58C129.692 229.447 129.699 229.187 129.699 228.8C129.699 228.413 129.692 228.153 129.679 228.02C129.639 227.153 129.426 226.5 129.039 226.06C128.652 225.607 128.106 225.38 127.399 225.38C126.692 225.38 126.146 225.607 125.759 226.06C125.372 226.5 125.159 227.153 125.119 228.02L125.099 228.8L125.119 229.58C125.159 230.447 125.372 231.107 125.759 231.56C126.146 232 126.692 232.22 127.399 232.22ZM137.775 234.2C136.775 234.2 135.935 234.053 135.255 233.76C134.575 233.453 134.068 233.1 133.735 232.7C133.415 232.287 133.255 231.933 133.255 231.64C133.255 231.507 133.302 231.4 133.395 231.32C133.488 231.24 133.595 231.2 133.715 231.2H135.295C135.415 231.2 135.515 231.247 135.595 231.34C135.648 231.38 135.788 231.5 136.015 231.7C136.242 231.913 136.508 232.08 136.815 232.2C137.122 232.32 137.462 232.38 137.835 232.38C138.368 232.38 138.808 232.273 139.155 232.06C139.502 231.847 139.675 231.553 139.675 231.18C139.675 230.9 139.595 230.673 139.435 230.5C139.288 230.327 139.015 230.173 138.615 230.04C138.215 229.893 137.622 229.74 136.835 229.58C135.702 229.34 134.862 228.973 134.315 228.48C133.782 227.987 133.515 227.333 133.515 226.52C133.515 225.987 133.675 225.487 133.995 225.02C134.315 224.54 134.788 224.153 135.415 223.86C136.055 223.553 136.815 223.4 137.695 223.4C138.588 223.4 139.362 223.547 140.015 223.84C140.668 224.12 141.162 224.46 141.495 224.86C141.842 225.247 142.015 225.593 142.015 225.9C142.015 226.02 141.968 226.127 141.875 226.22C141.795 226.3 141.695 226.34 141.575 226.34H140.095C139.988 226.34 139.875 226.293 139.755 226.2C139.662 226.133 139.515 226.007 139.315 225.82C139.115 225.633 138.882 225.487 138.615 225.38C138.348 225.273 138.035 225.22 137.675 225.22C137.182 225.22 136.795 225.327 136.515 225.54C136.248 225.753 136.115 226.033 136.115 226.38C136.115 226.633 136.182 226.84 136.315 227C136.448 227.16 136.708 227.313 137.095 227.46C137.482 227.607 138.062 227.753 138.835 227.9C140.115 228.153 141.028 228.547 141.575 229.08C142.135 229.613 142.415 230.267 142.415 231.04C142.415 231.973 142.008 232.733 141.195 233.32C140.382 233.907 139.242 234.2 137.775 234.2ZM148.159 234.2C146.679 234.2 145.499 233.773 144.619 232.92C143.753 232.053 143.293 230.84 143.239 229.28L143.219 228.78L143.239 228.28C143.306 226.76 143.773 225.567 144.639 224.7C145.519 223.833 146.693 223.4 148.159 223.4C149.733 223.4 150.946 223.88 151.799 224.84C152.666 225.8 153.099 227.08 153.099 228.68V229.1C153.099 229.233 153.053 229.347 152.959 229.44C152.866 229.533 152.746 229.58 152.599 229.58H145.959V229.74C145.986 230.473 146.186 231.093 146.559 231.6C146.946 232.093 147.473 232.34 148.139 232.34C148.926 232.34 149.559 232.033 150.039 231.42C150.159 231.273 150.253 231.18 150.319 231.14C150.399 231.1 150.513 231.08 150.659 231.08H152.379C152.499 231.08 152.599 231.12 152.679 231.2C152.773 231.267 152.819 231.353 152.819 231.46C152.819 231.78 152.626 232.16 152.239 232.6C151.866 233.027 151.326 233.4 150.619 233.72C149.913 234.04 149.093 234.2 148.159 234.2ZM150.379 227.9V227.84C150.379 227.053 150.179 226.42 149.779 225.94C149.393 225.46 148.853 225.22 148.159 225.22C147.466 225.22 146.926 225.46 146.539 225.94C146.153 226.42 145.959 227.053 145.959 227.84V227.9H150.379ZM154.902 234C154.769 234 154.656 233.953 154.562 233.86C154.469 233.767 154.422 233.653 154.422 233.52V224.08C154.422 223.947 154.469 223.833 154.562 223.74C154.656 223.647 154.769 223.6 154.902 223.6H156.542C156.676 223.6 156.789 223.647 156.882 223.74C156.976 223.833 157.022 223.947 157.022 224.08V224.9C157.809 223.9 158.922 223.4 160.362 223.4C161.589 223.4 162.562 223.807 163.282 224.62C164.002 225.42 164.362 226.513 164.362 227.9V233.52C164.362 233.653 164.316 233.767 164.222 233.86C164.142 233.953 164.029 234 163.882 234H162.122C161.989 234 161.876 233.953 161.782 233.86C161.689 233.767 161.642 233.653 161.642 233.52V228.02C161.642 227.233 161.449 226.627 161.062 226.2C160.689 225.76 160.142 225.54 159.422 225.54C158.716 225.54 158.156 225.76 157.742 226.2C157.342 226.64 157.142 227.247 157.142 228.02V233.52C157.142 233.653 157.096 233.767 157.002 233.86C156.922 233.953 156.809 234 156.662 234H154.902ZM170.703 234.2C169.143 234.2 167.936 233.8 167.083 233C166.229 232.187 165.769 231.08 165.703 229.68L165.683 228.8L165.703 227.92C165.769 226.533 166.236 225.433 167.103 224.62C167.969 223.807 169.169 223.4 170.703 223.4C172.236 223.4 173.436 223.807 174.303 224.62C175.169 225.433 175.636 226.533 175.703 227.92C175.716 228.08 175.723 228.373 175.723 228.8C175.723 229.227 175.716 229.52 175.703 229.68C175.636 231.08 175.176 232.187 174.323 233C173.469 233.8 172.263 234.2 170.703 234.2ZM170.703 232.22C171.409 232.22 171.956 232 172.343 231.56C172.729 231.107 172.943 230.447 172.983 229.58C172.996 229.447 173.003 229.187 173.003 228.8C173.003 228.413 172.996 228.153 172.983 228.02C172.943 227.153 172.729 226.5 172.343 226.06C171.956 225.607 171.409 225.38 170.703 225.38C169.996 225.38 169.449 225.607 169.063 226.06C168.676 226.5 168.463 227.153 168.423 228.02L168.403 228.8L168.423 229.58C168.463 230.447 168.676 231.107 169.063 231.56C169.449 232 169.996 232.22 170.703 232.22ZM177.619 234C177.485 234 177.372 233.953 177.279 233.86C177.185 233.767 177.139 233.653 177.139 233.52V224.08C177.139 223.947 177.185 223.833 177.279 223.74C177.372 223.647 177.485 223.6 177.619 223.6H179.259C179.392 223.6 179.505 223.647 179.599 223.74C179.692 223.833 179.739 223.947 179.739 224.08V224.9C180.525 223.9 181.639 223.4 183.079 223.4C184.305 223.4 185.279 223.807 185.999 224.62C186.719 225.42 187.079 226.513 187.079 227.9V233.52C187.079 233.653 187.032 233.767 186.939 233.86C186.859 233.953 186.745 234 186.599 234H184.839C184.705 234 184.592 233.953 184.499 233.86C184.405 233.767 184.359 233.653 184.359 233.52V228.02C184.359 227.233 184.165 226.627 183.779 226.2C183.405 225.76 182.859 225.54 182.139 225.54C181.432 225.54 180.872 225.76 180.459 226.2C180.059 226.64 179.859 227.247 179.859 228.02V233.52C179.859 233.653 179.812 233.767 179.719 233.86C179.639 233.953 179.525 234 179.379 234H177.619ZM193.299 234.2C191.819 234.2 190.639 233.773 189.759 232.92C188.893 232.053 188.433 230.84 188.379 229.28L188.359 228.78L188.379 228.28C188.446 226.76 188.913 225.567 189.779 224.7C190.659 223.833 191.833 223.4 193.299 223.4C194.873 223.4 196.086 223.88 196.939 224.84C197.806 225.8 198.239 227.08 198.239 228.68V229.1C198.239 229.233 198.193 229.347 198.099 229.44C198.006 229.533 197.886 229.58 197.739 229.58H191.099V229.74C191.126 230.473 191.326 231.093 191.699 231.6C192.086 232.093 192.613 232.34 193.279 232.34C194.066 232.34 194.699 232.033 195.179 231.42C195.299 231.273 195.393 231.18 195.459 231.14C195.539 231.1 195.653 231.08 195.799 231.08H197.519C197.639 231.08 197.739 231.12 197.819 231.2C197.913 231.267 197.959 231.353 197.959 231.46C197.959 231.78 197.766 232.16 197.379 232.6C197.006 233.027 196.466 233.4 195.759 233.72C195.053 234.04 194.233 234.2 193.299 234.2ZM195.519 227.9V227.84C195.519 227.053 195.319 226.42 194.919 225.94C194.533 225.46 193.993 225.22 193.299 225.22C192.606 225.22 192.066 225.46 191.679 225.94C191.293 226.42 191.099 227.053 191.099 227.84V227.9H195.519Z" fill="white"/>
</g>
</svg>
