<svg width="368" height="172" viewBox="0 0 368 172" fill="none" xmlns="http://www.w3.org/2000/svg">
<g id="Group 120">
<g id="Group 117">
<rect id="Rectangle 123" x="0.5" y="0.5" width="367" height="171" fill="#C4C4C4" fill-opacity="0.3" stroke="#3D9BD0"/>
<g id="Group 102">
<g id="Group 72">
<path id="Vector 30" d="M116.988 60.2237L123.45 55.186" stroke="#3D9BD0"/>
<path id="Vector 31" d="M113.78 56.9474L122.112 50.8877" stroke="#3D9BD0"/>
<path id="Vector 23" d="M44.0938 39.5259L74.3924 56.1901" stroke="#3D9BD0"/>
<path id="Vector 24" d="M101.662 47.8584L69.8486 57.7055V100.124L110.752 113L136.506 78.9145L173.621 100.124L211.495 78.9145L247.853 100.124L285.726 78.9145L324.357 100.124" stroke="#3D9BD0"/>
<path id="Vector 22" d="M40.3066 44.0708L69.8478 61.4925" stroke="#3D9BD0"/>
<g id="Vector 25">
<path d="M148.624 50.1304L136.504 78.9141L154.683 53.9177L148.624 50.1304Z" fill="#3D9BD0"/>
<path d="M132.717 75.8842L134.232 74.3693M136.504 78.9141L148.624 50.1304L154.683 53.9177L136.504 78.9141Z" stroke="#3D9BD0"/>
</g>
<path id="Vector 26" d="M129.84 73.7906L132.565 71.1607" stroke="#3D9BD0"/>
<path id="Vector 27" d="M126.658 69.8243L129.688 66.7944" stroke="#3D9BD0"/>
<path id="Vector 28" d="M123.831 66.3031L127.972 62.7413" stroke="#3D9BD0"/>
<path id="Vector 29" d="M120.599 63.0072L125.901 58.4624" stroke="#3D9BD0"/>
</g>
<path id="H" d="M155.468 43.436C155.374 43.436 155.295 43.408 155.23 43.352C155.174 43.2867 155.146 43.2074 155.146 43.114V33.972C155.146 33.8694 155.174 33.79 155.23 33.734C155.295 33.6687 155.374 33.636 155.468 33.636H156.182C156.284 33.636 156.364 33.6687 156.42 33.734C156.485 33.79 156.518 33.8694 156.518 33.972V37.836H161.334V33.972C161.334 33.8694 161.362 33.79 161.418 33.734C161.483 33.6687 161.562 33.636 161.656 33.636H162.37C162.472 33.636 162.552 33.6687 162.608 33.734C162.673 33.79 162.706 33.8694 162.706 33.972V43.114C162.706 43.2074 162.673 43.2867 162.608 43.352C162.542 43.408 162.463 43.436 162.37 43.436H161.656C161.562 43.436 161.483 43.408 161.418 43.352C161.362 43.2867 161.334 43.2074 161.334 43.114V39.096H156.518V43.114C156.518 43.2074 156.485 43.2867 156.42 43.352C156.354 43.408 156.275 43.436 156.182 43.436H155.468Z" fill="white"/>
<path id="O" d="M111.094 43.953C109.871 43.953 108.924 43.6357 108.252 43.001C107.589 42.357 107.239 41.391 107.202 40.103C107.192 39.823 107.188 39.4263 107.188 38.913C107.188 38.3997 107.192 38.0077 107.202 37.737C107.239 36.477 107.603 35.5203 108.294 34.867C108.984 34.2043 109.918 33.873 111.094 33.873C112.26 33.873 113.189 34.2043 113.88 34.867C114.57 35.5203 114.934 36.477 114.972 37.737C114.99 38.2783 115 38.6703 115 38.913C115 39.1463 114.99 39.543 114.972 40.103C114.934 41.391 114.58 42.357 113.908 43.001C113.245 43.6357 112.307 43.953 111.094 43.953ZM111.094 42.763C111.831 42.763 112.419 42.539 112.858 42.091C113.296 41.643 113.534 40.957 113.572 40.033C113.59 39.473 113.6 39.0997 113.6 38.913C113.6 38.7077 113.59 38.3343 113.572 37.793C113.534 36.869 113.292 36.183 112.844 35.735C112.405 35.287 111.822 35.063 111.094 35.063C110.356 35.063 109.764 35.287 109.316 35.735C108.877 36.183 108.639 36.869 108.602 37.793C108.592 38.0637 108.588 38.437 108.588 38.913C108.588 39.3797 108.592 39.753 108.602 40.033C108.639 40.957 108.877 41.643 109.316 42.091C109.764 42.539 110.356 42.763 111.094 42.763Z" fill="white"/>
<path id="O_2" d="M35.746 38.14C34.5233 38.14 33.576 37.8227 32.904 37.188C32.2413 36.544 31.8913 35.578 31.854 34.29C31.8447 34.01 31.84 33.6133 31.84 33.1C31.84 32.5867 31.8447 32.1947 31.854 31.924C31.8913 30.664 32.2553 29.7073 32.946 29.054C33.6367 28.3913 34.57 28.06 35.746 28.06C36.9127 28.06 37.8413 28.3913 38.532 29.054C39.2227 29.7073 39.5867 30.664 39.624 31.924C39.6427 32.4653 39.652 32.8573 39.652 33.1C39.652 33.3333 39.6427 33.73 39.624 34.29C39.5867 35.578 39.232 36.544 38.56 37.188C37.8973 37.8227 36.9593 38.14 35.746 38.14ZM35.746 36.95C36.4833 36.95 37.0713 36.726 37.51 36.278C37.9487 35.83 38.1867 35.144 38.224 34.22C38.2427 33.66 38.252 33.2867 38.252 33.1C38.252 32.8947 38.2427 32.5213 38.224 31.98C38.1867 31.056 37.944 30.37 37.496 29.922C37.0573 29.474 36.474 29.25 35.746 29.25C35.0087 29.25 34.416 29.474 33.968 29.922C33.5293 30.37 33.2913 31.056 33.254 31.98C33.2447 32.2507 33.24 32.624 33.24 33.1C33.24 33.5667 33.2447 33.94 33.254 34.22C33.2913 35.144 33.5293 35.83 33.968 36.278C34.416 36.726 35.0087 36.95 35.746 36.95Z" fill="white"/>
</g>
<path id="Figure 3. Chemical structure of (+)-&#206;&#179;-pelargonolactone" d="M60.1 155C60.0333 155 59.9767 154.98 59.93 154.94C59.89 154.893 59.87 154.837 59.87 154.77V148.24C59.87 148.167 59.89 148.11 59.93 148.07C59.9767 148.023 60.0333 148 60.1 148H64.18C64.2533 148 64.31 148.023 64.35 148.07C64.3967 148.11 64.42 148.167 64.42 148.24V148.64C64.42 148.707 64.3967 148.763 64.35 148.81C64.31 148.85 64.2533 148.87 64.18 148.87H60.84V151.2H63.98C64.0533 151.2 64.11 151.223 64.15 151.27C64.1967 151.31 64.22 151.367 64.22 151.44V151.84C64.22 151.907 64.1967 151.963 64.15 152.01C64.1033 152.05 64.0467 152.07 63.98 152.07H60.84V154.77C60.84 154.837 60.8167 154.893 60.77 154.94C60.7233 154.98 60.6667 155 60.6 155H60.1ZM65.7298 148.83C65.6632 148.83 65.6065 148.81 65.5598 148.77C65.5198 148.723 65.4998 148.667 65.4998 148.6V148.06C65.4998 147.993 65.5198 147.937 65.5598 147.89C65.6065 147.843 65.6632 147.82 65.7298 147.82H66.3598C66.4265 147.82 66.4832 147.843 66.5298 147.89C66.5765 147.937 66.5998 147.993 66.5998 148.06V148.6C66.5998 148.667 66.5765 148.723 66.5298 148.77C66.4832 148.81 66.4265 148.83 66.3598 148.83H65.7298ZM65.8098 155C65.7432 155 65.6865 154.98 65.6398 154.94C65.5998 154.893 65.5798 154.837 65.5798 154.77V150.03C65.5798 149.963 65.5998 149.91 65.6398 149.87C65.6865 149.823 65.7432 149.8 65.8098 149.8H66.2898C66.3565 149.8 66.4098 149.823 66.4498 149.87C66.4965 149.91 66.5198 149.963 66.5198 150.03V154.77C66.5198 154.837 66.4965 154.893 66.4498 154.94C66.4098 154.98 66.3565 155 66.2898 155H65.8098ZM70.1317 157.2C69.5851 157.2 69.1451 157.107 68.8117 156.92C68.4784 156.74 68.2417 156.533 68.1017 156.3C67.9617 156.067 67.8851 155.857 67.8717 155.67C67.8651 155.603 67.8851 155.547 67.9317 155.5C67.9851 155.453 68.0417 155.43 68.1017 155.43H68.5817C68.6417 155.43 68.6917 155.443 68.7317 155.47C68.7717 155.503 68.8051 155.56 68.8317 155.64C68.9117 155.853 69.0417 156.037 69.2217 156.19C69.4084 156.35 69.6951 156.43 70.0817 156.43C70.5751 156.43 70.9384 156.323 71.1717 156.11C71.4051 155.903 71.5217 155.533 71.5217 155V154.32C71.3484 154.54 71.1284 154.717 70.8617 154.85C70.5951 154.977 70.2784 155.04 69.9117 155.04C69.2051 155.04 68.6751 154.817 68.3217 154.37C67.9751 153.917 67.7917 153.343 67.7717 152.65L67.7617 152.37L67.7717 152.1C67.7917 151.413 67.9784 150.843 68.3317 150.39C68.6851 149.93 69.2117 149.7 69.9117 149.7C70.6117 149.7 71.1584 149.957 71.5517 150.47V150.04C71.5517 149.973 71.5717 149.917 71.6117 149.87C71.6584 149.823 71.7151 149.8 71.7817 149.8H72.2417C72.3084 149.8 72.3651 149.823 72.4117 149.87C72.4584 149.917 72.4817 149.973 72.4817 150.04V154.89C72.4817 156.43 71.6984 157.2 70.1317 157.2ZM70.1117 154.24C70.5651 154.24 70.9084 154.09 71.1417 153.79C71.3751 153.49 71.5017 153.133 71.5217 152.72C71.5284 152.66 71.5317 152.543 71.5317 152.37C71.5317 152.203 71.5284 152.09 71.5217 152.03C71.5017 151.617 71.3751 151.26 71.1417 150.96C70.9151 150.66 70.5717 150.51 70.1117 150.51C69.6384 150.51 69.2951 150.657 69.0817 150.95C68.8684 151.243 68.7517 151.63 68.7317 152.11L68.7217 152.37L68.7317 152.64C68.7517 153.113 68.8684 153.5 69.0817 153.8C69.2951 154.093 69.6384 154.24 70.1117 154.24ZM75.9085 155.1C75.2752 155.1 74.7852 154.897 74.4385 154.49C74.0918 154.077 73.9185 153.53 73.9185 152.85V150.03C73.9185 149.963 73.9385 149.91 73.9785 149.87C74.0252 149.823 74.0818 149.8 74.1485 149.8H74.6485C74.7152 149.8 74.7685 149.823 74.8085 149.87C74.8552 149.91 74.8785 149.963 74.8785 150.03V152.8C74.8785 153.793 75.3118 154.29 76.1785 154.29C76.5985 154.29 76.9318 154.16 77.1785 153.9C77.4252 153.633 77.5485 153.267 77.5485 152.8V150.03C77.5485 149.963 77.5685 149.91 77.6085 149.87C77.6552 149.823 77.7118 149.8 77.7785 149.8H78.2785C78.3452 149.8 78.3985 149.823 78.4385 149.87C78.4785 149.91 78.4985 149.963 78.4985 150.03V154.77C78.4985 154.837 78.4785 154.893 78.4385 154.94C78.3985 154.98 78.3452 155 78.2785 155H77.8085C77.7418 155 77.6852 154.98 77.6385 154.94C77.5985 154.893 77.5785 154.837 77.5785 154.77V154.33C77.3918 154.583 77.1652 154.777 76.8985 154.91C76.6318 155.037 76.3018 155.1 75.9085 155.1ZM80.2141 155C80.1475 155 80.0908 154.98 80.0441 154.94C80.0041 154.893 79.9841 154.837 79.9841 154.77V150.04C79.9841 149.973 80.0041 149.917 80.0441 149.87C80.0908 149.823 80.1475 149.8 80.2141 149.8H80.6741C80.7408 149.8 80.7975 149.823 80.8441 149.87C80.8908 149.917 80.9141 149.973 80.9141 150.04V150.48C81.1875 150.027 81.6541 149.8 82.3141 149.8H82.7041C82.7708 149.8 82.8241 149.823 82.8641 149.87C82.9108 149.91 82.9341 149.963 82.9341 150.03V150.44C82.9341 150.507 82.9108 150.56 82.8641 150.6C82.8241 150.64 82.7708 150.66 82.7041 150.66H82.1041C81.7441 150.66 81.4608 150.767 81.2541 150.98C81.0475 151.187 80.9441 151.47 80.9441 151.83V154.77C80.9441 154.837 80.9208 154.893 80.8741 154.94C80.8275 154.98 80.7708 155 80.7041 155H80.2141ZM85.7653 155.1C85.0786 155.1 84.5286 154.89 84.1153 154.47C83.7086 154.043 83.4853 153.463 83.4453 152.73L83.4353 152.39L83.4453 152.06C83.492 151.34 83.7186 150.767 84.1253 150.34C84.5386 149.913 85.082 149.7 85.7553 149.7C86.4953 149.7 87.0686 149.937 87.4753 150.41C87.882 150.877 88.0853 151.51 88.0853 152.31V152.48C88.0853 152.547 88.062 152.603 88.0153 152.65C87.9753 152.69 87.922 152.71 87.8553 152.71H84.3953V152.8C84.4153 153.233 84.5453 153.603 84.7853 153.91C85.032 154.21 85.3553 154.36 85.7553 154.36C86.062 154.36 86.312 154.3 86.5053 154.18C86.7053 154.053 86.852 153.923 86.9453 153.79C87.0053 153.71 87.0486 153.663 87.0753 153.65C87.1086 153.63 87.1653 153.62 87.2453 153.62H87.7353C87.7953 153.62 87.8453 153.637 87.8853 153.67C87.9253 153.703 87.9453 153.75 87.9453 153.81C87.9453 153.957 87.852 154.133 87.6653 154.34C87.4853 154.547 87.2286 154.727 86.8953 154.88C86.5686 155.027 86.192 155.1 85.7653 155.1ZM87.1353 152.02V151.99C87.1353 151.53 87.0086 151.157 86.7553 150.87C86.5086 150.577 86.1753 150.43 85.7553 150.43C85.3353 150.43 85.002 150.577 84.7553 150.87C84.5153 151.157 84.3953 151.53 84.3953 151.99V152.02H87.1353ZM93.9722 155.1C93.4455 155.1 92.9889 155.017 92.6022 154.85C92.2222 154.677 91.9322 154.453 91.7322 154.18C91.5389 153.907 91.4355 153.62 91.4222 153.32C91.4222 153.26 91.4422 153.213 91.4822 153.18C91.5222 153.14 91.5722 153.12 91.6322 153.12H92.1222C92.2622 153.12 92.3555 153.193 92.4022 153.34C92.4889 153.673 92.6755 153.91 92.9622 154.05C93.2489 154.183 93.5855 154.25 93.9722 154.25C94.4455 154.25 94.8222 154.14 95.1022 153.92C95.3822 153.693 95.5222 153.37 95.5222 152.95C95.5222 152.143 95.0322 151.74 94.0522 151.74H93.1022C93.0355 151.74 92.9789 151.72 92.9322 151.68C92.8922 151.633 92.8722 151.577 92.8722 151.51V151.24C92.8722 151.147 92.9089 151.057 92.9822 150.97L94.9222 148.85H91.9722C91.9055 148.85 91.8489 148.83 91.8022 148.79C91.7622 148.743 91.7422 148.687 91.7422 148.62V148.24C91.7422 148.173 91.7622 148.117 91.8022 148.07C91.8489 148.023 91.9055 148 91.9722 148H95.9622C96.0355 148 96.0922 148.023 96.1322 148.07C96.1789 148.11 96.2022 148.167 96.2022 148.24V148.6C96.2022 148.68 96.1655 148.757 96.0922 148.83L94.1622 150.98L94.3222 150.99C95.0022 151.01 95.5389 151.187 95.9322 151.52C96.3255 151.853 96.5222 152.34 96.5222 152.98C96.5222 153.413 96.4122 153.79 96.1922 154.11C95.9722 154.43 95.6689 154.677 95.2822 154.85C94.8955 155.017 94.4589 155.1 93.9722 155.1ZM97.898 155C97.8314 155 97.7747 154.98 97.728 154.94C97.688 154.893 97.668 154.837 97.668 154.77V154.05C97.668 153.983 97.688 153.93 97.728 153.89C97.7747 153.843 97.8314 153.82 97.898 153.82H98.618C98.6847 153.82 98.7414 153.843 98.788 153.89C98.8347 153.93 98.858 153.983 98.858 154.05V154.77C98.858 154.837 98.8347 154.893 98.788 154.94C98.7414 154.98 98.6847 155 98.618 155H97.898ZM105.359 155.1C104.465 155.1 103.785 154.86 103.319 154.38C102.859 153.9 102.612 153.237 102.579 152.39C102.572 152.21 102.569 151.917 102.569 151.51C102.569 151.097 102.572 150.797 102.579 150.61C102.612 149.77 102.862 149.11 103.329 148.63C103.795 148.143 104.472 147.9 105.359 147.9C105.952 147.9 106.455 148.007 106.869 148.22C107.282 148.427 107.595 148.7 107.809 149.04C108.022 149.38 108.139 149.743 108.159 150.13V150.15C108.159 150.203 108.135 150.25 108.089 150.29C108.049 150.323 108.002 150.34 107.949 150.34H107.399C107.265 150.34 107.182 150.263 107.149 150.11C107.035 149.61 106.832 149.26 106.539 149.06C106.245 148.853 105.852 148.75 105.359 148.75C104.212 148.75 103.619 149.387 103.579 150.66C103.572 150.84 103.569 151.117 103.569 151.49C103.569 151.863 103.572 152.147 103.579 152.34C103.619 153.613 104.212 154.25 105.359 154.25C105.852 154.25 106.245 154.15 106.539 153.95C106.839 153.743 107.042 153.39 107.149 152.89C107.169 152.803 107.199 152.743 107.239 152.71C107.279 152.677 107.332 152.66 107.399 152.66H107.949C108.009 152.66 108.059 152.68 108.099 152.72C108.145 152.753 108.165 152.8 108.159 152.86C108.139 153.253 108.022 153.62 107.809 153.96C107.595 154.3 107.282 154.577 106.869 154.79C106.455 154.997 105.952 155.1 105.359 155.1ZM109.609 155C109.542 155 109.486 154.98 109.439 154.94C109.399 154.893 109.379 154.837 109.379 154.77V148.13C109.379 148.063 109.399 148.01 109.439 147.97C109.486 147.923 109.542 147.9 109.609 147.9H110.109C110.176 147.9 110.229 147.923 110.269 147.97C110.316 148.01 110.339 148.063 110.339 148.13V150.46C110.532 150.213 110.759 150.027 111.019 149.9C111.279 149.767 111.602 149.7 111.989 149.7C112.629 149.7 113.126 149.907 113.479 150.32C113.839 150.727 114.019 151.27 114.019 151.95V154.77C114.019 154.837 113.996 154.893 113.949 154.94C113.909 154.98 113.856 155 113.789 155H113.289C113.222 155 113.166 154.98 113.119 154.94C113.079 154.893 113.059 154.837 113.059 154.77V152C113.059 151.527 112.942 151.16 112.709 150.9C112.482 150.64 112.152 150.51 111.719 150.51C111.299 150.51 110.962 150.643 110.709 150.91C110.462 151.17 110.339 151.533 110.339 152V154.77C110.339 154.837 110.316 154.893 110.269 154.94C110.229 154.98 110.176 155 110.109 155H109.609ZM117.543 155.1C116.856 155.1 116.306 154.89 115.893 154.47C115.486 154.043 115.263 153.463 115.223 152.73L115.213 152.39L115.223 152.06C115.269 151.34 115.496 150.767 115.903 150.34C116.316 149.913 116.859 149.7 117.533 149.7C118.273 149.7 118.846 149.937 119.253 150.41C119.659 150.877 119.863 151.51 119.863 152.31V152.48C119.863 152.547 119.839 152.603 119.793 152.65C119.753 152.69 119.699 152.71 119.633 152.71H116.173V152.8C116.193 153.233 116.323 153.603 116.563 153.91C116.809 154.21 117.133 154.36 117.533 154.36C117.839 154.36 118.089 154.3 118.283 154.18C118.483 154.053 118.629 153.923 118.723 153.79C118.783 153.71 118.826 153.663 118.853 153.65C118.886 153.63 118.943 153.62 119.023 153.62H119.513C119.573 153.62 119.623 153.637 119.663 153.67C119.703 153.703 119.723 153.75 119.723 153.81C119.723 153.957 119.629 154.133 119.443 154.34C119.263 154.547 119.006 154.727 118.673 154.88C118.346 155.027 117.969 155.1 117.543 155.1ZM118.913 152.02V151.99C118.913 151.53 118.786 151.157 118.533 150.87C118.286 150.577 117.953 150.43 117.533 150.43C117.113 150.43 116.779 150.577 116.533 150.87C116.293 151.157 116.173 151.53 116.173 151.99V152.02H118.913ZM121.288 155C121.222 155 121.165 154.98 121.118 154.94C121.078 154.893 121.058 154.837 121.058 154.77V150.03C121.058 149.963 121.078 149.91 121.118 149.87C121.165 149.823 121.222 149.8 121.288 149.8H121.738C121.805 149.8 121.858 149.823 121.898 149.87C121.945 149.91 121.968 149.963 121.968 150.03V150.38C122.315 149.927 122.798 149.7 123.418 149.7C124.158 149.7 124.682 150.007 124.988 150.62C125.148 150.34 125.375 150.117 125.668 149.95C125.962 149.783 126.292 149.7 126.658 149.7C127.205 149.7 127.652 149.887 127.998 150.26C128.345 150.633 128.518 151.173 128.518 151.88V154.77C128.518 154.837 128.495 154.893 128.448 154.94C128.408 154.98 128.355 155 128.288 155H127.818C127.752 155 127.695 154.98 127.648 154.94C127.608 154.893 127.588 154.837 127.588 154.77V151.97C127.588 151.45 127.478 151.077 127.258 150.85C127.045 150.623 126.762 150.51 126.408 150.51C126.095 150.51 125.825 150.627 125.598 150.86C125.372 151.087 125.258 151.457 125.258 151.97V154.77C125.258 154.837 125.235 154.893 125.188 154.94C125.148 154.98 125.095 155 125.028 155H124.558C124.492 155 124.435 154.98 124.388 154.94C124.348 154.893 124.328 154.837 124.328 154.77V151.97C124.328 151.45 124.215 151.077 123.988 150.85C123.768 150.623 123.488 150.51 123.148 150.51C122.835 150.51 122.565 150.627 122.338 150.86C122.112 151.087 121.998 151.453 121.998 151.96V154.77C121.998 154.837 121.975 154.893 121.928 154.94C121.888 154.98 121.835 155 121.768 155H121.288ZM130.095 148.83C130.028 148.83 129.972 148.81 129.925 148.77C129.885 148.723 129.865 148.667 129.865 148.6V148.06C129.865 147.993 129.885 147.937 129.925 147.89C129.972 147.843 130.028 147.82 130.095 147.82H130.725C130.792 147.82 130.848 147.843 130.895 147.89C130.942 147.937 130.965 147.993 130.965 148.06V148.6C130.965 148.667 130.942 148.723 130.895 148.77C130.848 148.81 130.792 148.83 130.725 148.83H130.095ZM130.175 155C130.108 155 130.052 154.98 130.005 154.94C129.965 154.893 129.945 154.837 129.945 154.77V150.03C129.945 149.963 129.965 149.91 130.005 149.87C130.052 149.823 130.108 149.8 130.175 149.8H130.655C130.722 149.8 130.775 149.823 130.815 149.87C130.862 149.91 130.885 149.963 130.885 150.03V154.77C130.885 154.837 130.862 154.893 130.815 154.94C130.775 154.98 130.722 155 130.655 155H130.175ZM134.467 155.1C133.754 155.1 133.194 154.9 132.787 154.5C132.387 154.093 132.174 153.527 132.147 152.8L132.137 152.4L132.147 152C132.174 151.273 132.387 150.71 132.787 150.31C133.194 149.903 133.754 149.7 134.467 149.7C134.947 149.7 135.354 149.787 135.687 149.96C136.02 150.133 136.267 150.347 136.427 150.6C136.594 150.853 136.684 151.107 136.697 151.36C136.704 151.427 136.684 151.48 136.637 151.52C136.59 151.56 136.534 151.58 136.467 151.58H135.987C135.92 151.58 135.87 151.567 135.837 151.54C135.804 151.513 135.77 151.46 135.737 151.38C135.624 151.06 135.464 150.833 135.257 150.7C135.05 150.56 134.79 150.49 134.477 150.49C134.064 150.49 133.734 150.62 133.487 150.88C133.247 151.133 133.117 151.523 133.097 152.05L133.087 152.41L133.097 152.75C133.117 153.283 133.247 153.677 133.487 153.93C133.727 154.183 134.057 154.31 134.477 154.31C134.79 154.31 135.05 154.243 135.257 154.11C135.464 153.97 135.624 153.74 135.737 153.42C135.77 153.34 135.804 153.287 135.837 153.26C135.87 153.227 135.92 153.21 135.987 153.21H136.467C136.534 153.21 136.59 153.233 136.637 153.28C136.684 153.32 136.704 153.373 136.697 153.44C136.684 153.687 136.594 153.94 136.427 154.2C136.267 154.453 136.02 154.667 135.687 154.84C135.36 155.013 134.954 155.1 134.467 155.1ZM139.335 155.1C139.008 155.1 138.705 155.033 138.425 154.9C138.145 154.767 137.921 154.587 137.755 154.36C137.595 154.127 137.515 153.87 137.515 153.59C137.515 153.15 137.695 152.79 138.055 152.51C138.421 152.223 138.915 152.037 139.535 151.95L141.025 151.74V151.45C141.025 150.77 140.635 150.43 139.855 150.43C139.561 150.43 139.321 150.493 139.135 150.62C138.948 150.74 138.808 150.883 138.715 151.05C138.695 151.11 138.668 151.153 138.635 151.18C138.608 151.207 138.568 151.22 138.515 151.22H138.085C138.025 151.22 137.971 151.2 137.925 151.16C137.885 151.113 137.865 151.06 137.865 151C137.871 150.84 137.945 150.66 138.085 150.46C138.231 150.253 138.455 150.077 138.755 149.93C139.055 149.777 139.425 149.7 139.865 149.7C140.611 149.7 141.148 149.877 141.475 150.23C141.801 150.577 141.965 151.01 141.965 151.53V154.77C141.965 154.837 141.941 154.893 141.895 154.94C141.855 154.98 141.801 155 141.735 155H141.275C141.208 155 141.151 154.98 141.105 154.94C141.065 154.893 141.045 154.837 141.045 154.77V154.34C140.898 154.553 140.685 154.733 140.405 154.88C140.125 155.027 139.768 155.1 139.335 155.1ZM139.545 154.35C139.978 154.35 140.331 154.21 140.605 153.93C140.885 153.643 141.025 153.233 141.025 152.7V152.42L139.865 152.59C139.391 152.657 139.035 152.77 138.795 152.93C138.555 153.083 138.435 153.28 138.435 153.52C138.435 153.787 138.545 153.993 138.765 154.14C138.985 154.28 139.245 154.35 139.545 154.35ZM143.642 155C143.575 155 143.519 154.98 143.472 154.94C143.432 154.893 143.412 154.837 143.412 154.77V148.13C143.412 148.063 143.432 148.01 143.472 147.97C143.519 147.923 143.575 147.9 143.642 147.9H144.112C144.179 147.9 144.232 147.923 144.272 147.97C144.319 148.01 144.342 148.063 144.342 148.13V154.77C144.342 154.837 144.319 154.893 144.272 154.94C144.232 154.98 144.179 155 144.112 155H143.642ZM150.085 155.1C149.618 155.1 149.225 155.027 148.905 154.88C148.592 154.727 148.355 154.553 148.195 154.36C148.042 154.167 147.965 154.007 147.965 153.88C147.965 153.813 147.988 153.763 148.035 153.73C148.088 153.69 148.142 153.67 148.195 153.67H148.645C148.712 153.67 148.772 153.703 148.825 153.77C148.985 153.957 149.158 154.103 149.345 154.21C149.532 154.317 149.782 154.37 150.095 154.37C150.442 154.37 150.722 154.303 150.935 154.17C151.155 154.03 151.265 153.84 151.265 153.6C151.265 153.44 151.218 153.31 151.125 153.21C151.038 153.103 150.885 153.013 150.665 152.94C150.452 152.86 150.132 152.773 149.705 152.68C149.125 152.553 148.712 152.37 148.465 152.13C148.225 151.89 148.105 151.58 148.105 151.2C148.105 150.947 148.178 150.707 148.325 150.48C148.478 150.247 148.698 150.06 148.985 149.92C149.278 149.773 149.628 149.7 150.035 149.7C150.462 149.7 150.825 149.77 151.125 149.91C151.425 150.05 151.648 150.217 151.795 150.41C151.948 150.597 152.025 150.753 152.025 150.88C152.025 150.94 152.002 150.99 151.955 151.03C151.915 151.07 151.865 151.09 151.805 151.09H151.385C151.305 151.09 151.238 151.057 151.185 150.99C151.078 150.863 150.985 150.767 150.905 150.7C150.832 150.627 150.722 150.563 150.575 150.51C150.435 150.457 150.255 150.43 150.035 150.43C149.715 150.43 149.468 150.5 149.295 150.64C149.122 150.773 149.035 150.95 149.035 151.17C149.035 151.31 149.072 151.43 149.145 151.53C149.218 151.623 149.358 151.71 149.565 151.79C149.778 151.87 150.085 151.953 150.485 152.04C151.118 152.173 151.565 152.367 151.825 152.62C152.092 152.867 152.225 153.183 152.225 153.57C152.225 153.857 152.142 154.117 151.975 154.35C151.808 154.583 151.562 154.767 151.235 154.9C150.915 155.033 150.532 155.1 150.085 155.1ZM155.403 155C154.349 155 153.823 154.413 153.823 153.24V150.6H153.043C152.976 150.6 152.919 150.58 152.873 150.54C152.833 150.493 152.813 150.437 152.813 150.37V150.03C152.813 149.963 152.833 149.91 152.873 149.87C152.919 149.823 152.976 149.8 153.043 149.8H153.823V148.13C153.823 148.063 153.843 148.01 153.883 147.97C153.929 147.923 153.986 147.9 154.053 147.9H154.523C154.589 147.9 154.643 147.923 154.683 147.97C154.729 148.01 154.753 148.063 154.753 148.13V149.8H155.993C156.059 149.8 156.113 149.823 156.153 149.87C156.199 149.91 156.223 149.963 156.223 150.03V150.37C156.223 150.437 156.199 150.493 156.153 150.54C156.113 150.58 156.059 150.6 155.993 150.6H154.753V153.17C154.753 153.503 154.809 153.757 154.923 153.93C155.036 154.097 155.223 154.18 155.483 154.18H156.093C156.159 154.18 156.213 154.203 156.253 154.25C156.299 154.29 156.323 154.343 156.323 154.41V154.77C156.323 154.837 156.299 154.893 156.253 154.94C156.213 154.98 156.159 155 156.093 155H155.403ZM157.509 155C157.442 155 157.386 154.98 157.339 154.94C157.299 154.893 157.279 154.837 157.279 154.77V150.04C157.279 149.973 157.299 149.917 157.339 149.87C157.386 149.823 157.442 149.8 157.509 149.8H157.969C158.036 149.8 158.092 149.823 158.139 149.87C158.186 149.917 158.209 149.973 158.209 150.04V150.48C158.482 150.027 158.949 149.8 159.609 149.8H159.999C160.066 149.8 160.119 149.823 160.159 149.87C160.206 149.91 160.229 149.963 160.229 150.03V150.44C160.229 150.507 160.206 150.56 160.159 150.6C160.119 150.64 160.066 150.66 159.999 150.66H159.399C159.039 150.66 158.756 150.767 158.549 150.98C158.342 151.187 158.239 151.47 158.239 151.83V154.77C158.239 154.837 158.216 154.893 158.169 154.94C158.122 154.98 158.066 155 157.999 155H157.509ZM163.018 155.1C162.385 155.1 161.895 154.897 161.548 154.49C161.201 154.077 161.028 153.53 161.028 152.85V150.03C161.028 149.963 161.048 149.91 161.088 149.87C161.135 149.823 161.191 149.8 161.258 149.8H161.758C161.825 149.8 161.878 149.823 161.918 149.87C161.965 149.91 161.988 149.963 161.988 150.03V152.8C161.988 153.793 162.421 154.29 163.288 154.29C163.708 154.29 164.041 154.16 164.288 153.9C164.535 153.633 164.658 153.267 164.658 152.8V150.03C164.658 149.963 164.678 149.91 164.718 149.87C164.765 149.823 164.821 149.8 164.888 149.8H165.388C165.455 149.8 165.508 149.823 165.548 149.87C165.588 149.91 165.608 149.963 165.608 150.03V154.77C165.608 154.837 165.588 154.893 165.548 154.94C165.508 154.98 165.455 155 165.388 155H164.918C164.851 155 164.795 154.98 164.748 154.94C164.708 154.893 164.688 154.837 164.688 154.77V154.33C164.501 154.583 164.275 154.777 164.008 154.91C163.741 155.037 163.411 155.1 163.018 155.1ZM169.194 155.1C168.48 155.1 167.92 154.9 167.514 154.5C167.114 154.093 166.9 153.527 166.874 152.8L166.864 152.4L166.874 152C166.9 151.273 167.114 150.71 167.514 150.31C167.92 149.903 168.48 149.7 169.194 149.7C169.674 149.7 170.08 149.787 170.414 149.96C170.747 150.133 170.994 150.347 171.154 150.6C171.32 150.853 171.41 151.107 171.424 151.36C171.43 151.427 171.41 151.48 171.364 151.52C171.317 151.56 171.26 151.58 171.194 151.58H170.714C170.647 151.58 170.597 151.567 170.564 151.54C170.53 151.513 170.497 151.46 170.464 151.38C170.35 151.06 170.19 150.833 169.984 150.7C169.777 150.56 169.517 150.49 169.204 150.49C168.79 150.49 168.46 150.62 168.214 150.88C167.974 151.133 167.844 151.523 167.824 152.05L167.814 152.41L167.824 152.75C167.844 153.283 167.974 153.677 168.214 153.93C168.454 154.183 168.784 154.31 169.204 154.31C169.517 154.31 169.777 154.243 169.984 154.11C170.19 153.97 170.35 153.74 170.464 153.42C170.497 153.34 170.53 153.287 170.564 153.26C170.597 153.227 170.647 153.21 170.714 153.21H171.194C171.26 153.21 171.317 153.233 171.364 153.28C171.41 153.32 171.43 153.373 171.424 153.44C171.41 153.687 171.32 153.94 171.154 154.2C170.994 154.453 170.747 154.667 170.414 154.84C170.087 155.013 169.68 155.1 169.194 155.1ZM174.641 155C173.588 155 173.061 154.413 173.061 153.24V150.6H172.281C172.214 150.6 172.158 150.58 172.111 150.54C172.071 150.493 172.051 150.437 172.051 150.37V150.03C172.051 149.963 172.071 149.91 172.111 149.87C172.158 149.823 172.214 149.8 172.281 149.8H173.061V148.13C173.061 148.063 173.081 148.01 173.121 147.97C173.168 147.923 173.224 147.9 173.291 147.9H173.761C173.828 147.9 173.881 147.923 173.921 147.97C173.968 148.01 173.991 148.063 173.991 148.13V149.8H175.231C175.298 149.8 175.351 149.823 175.391 149.87C175.438 149.91 175.461 149.963 175.461 150.03V150.37C175.461 150.437 175.438 150.493 175.391 150.54C175.351 150.58 175.298 150.6 175.231 150.6H173.991V153.17C173.991 153.503 174.048 153.757 174.161 153.93C174.274 154.097 174.461 154.18 174.721 154.18H175.331C175.398 154.18 175.451 154.203 175.491 154.25C175.538 154.29 175.561 154.343 175.561 154.41V154.77C175.561 154.837 175.538 154.893 175.491 154.94C175.451 154.98 175.398 155 175.331 155H174.641ZM178.457 155.1C177.824 155.1 177.334 154.897 176.987 154.49C176.641 154.077 176.467 153.53 176.467 152.85V150.03C176.467 149.963 176.487 149.91 176.527 149.87C176.574 149.823 176.631 149.8 176.697 149.8H177.197C177.264 149.8 177.317 149.823 177.357 149.87C177.404 149.91 177.427 149.963 177.427 150.03V152.8C177.427 153.793 177.861 154.29 178.727 154.29C179.147 154.29 179.481 154.16 179.727 153.9C179.974 153.633 180.097 153.267 180.097 152.8V150.03C180.097 149.963 180.117 149.91 180.157 149.87C180.204 149.823 180.261 149.8 180.327 149.8H180.827C180.894 149.8 180.947 149.823 180.987 149.87C181.027 149.91 181.047 149.963 181.047 150.03V154.77C181.047 154.837 181.027 154.893 180.987 154.94C180.947 154.98 180.894 155 180.827 155H180.357C180.291 155 180.234 154.98 180.187 154.94C180.147 154.893 180.127 154.837 180.127 154.77V154.33C179.941 154.583 179.714 154.777 179.447 154.91C179.181 155.037 178.851 155.1 178.457 155.1ZM182.763 155C182.696 155 182.64 154.98 182.593 154.94C182.553 154.893 182.533 154.837 182.533 154.77V150.04C182.533 149.973 182.553 149.917 182.593 149.87C182.64 149.823 182.696 149.8 182.763 149.8H183.223C183.29 149.8 183.346 149.823 183.393 149.87C183.44 149.917 183.463 149.973 183.463 150.04V150.48C183.736 150.027 184.203 149.8 184.863 149.8H185.253C185.32 149.8 185.373 149.823 185.413 149.87C185.46 149.91 185.483 149.963 185.483 150.03V150.44C185.483 150.507 185.46 150.56 185.413 150.6C185.373 150.64 185.32 150.66 185.253 150.66H184.653C184.293 150.66 184.01 150.767 183.803 150.98C183.596 151.187 183.493 151.47 183.493 151.83V154.77C183.493 154.837 183.47 154.893 183.423 154.94C183.376 154.98 183.32 155 183.253 155H182.763ZM188.314 155.1C187.627 155.1 187.077 154.89 186.664 154.47C186.257 154.043 186.034 153.463 185.994 152.73L185.984 152.39L185.994 152.06C186.041 151.34 186.267 150.767 186.674 150.34C187.087 149.913 187.631 149.7 188.304 149.7C189.044 149.7 189.617 149.937 190.024 150.41C190.431 150.877 190.634 151.51 190.634 152.31V152.48C190.634 152.547 190.611 152.603 190.564 152.65C190.524 152.69 190.471 152.71 190.404 152.71H186.944V152.8C186.964 153.233 187.094 153.603 187.334 153.91C187.581 154.21 187.904 154.36 188.304 154.36C188.611 154.36 188.861 154.3 189.054 154.18C189.254 154.053 189.401 153.923 189.494 153.79C189.554 153.71 189.597 153.663 189.624 153.65C189.657 153.63 189.714 153.62 189.794 153.62H190.284C190.344 153.62 190.394 153.637 190.434 153.67C190.474 153.703 190.494 153.75 190.494 153.81C190.494 153.957 190.401 154.133 190.214 154.34C190.034 154.547 189.777 154.727 189.444 154.88C189.117 155.027 188.741 155.1 188.314 155.1ZM189.684 152.02V151.99C189.684 151.53 189.557 151.157 189.304 150.87C189.057 150.577 188.724 150.43 188.304 150.43C187.884 150.43 187.551 150.577 187.304 150.87C187.064 151.157 186.944 151.53 186.944 151.99V152.02H189.684ZM196.411 155.1C195.678 155.1 195.108 154.893 194.701 154.48C194.301 154.067 194.088 153.517 194.061 152.83L194.051 152.4L194.061 151.97C194.088 151.29 194.304 150.743 194.711 150.33C195.118 149.91 195.684 149.7 196.411 149.7C197.138 149.7 197.704 149.91 198.111 150.33C198.518 150.743 198.734 151.29 198.761 151.97C198.768 152.043 198.771 152.187 198.771 152.4C198.771 152.613 198.768 152.757 198.761 152.83C198.734 153.517 198.518 154.067 198.111 154.48C197.711 154.893 197.144 155.1 196.411 155.1ZM196.411 154.33C196.831 154.33 197.161 154.197 197.401 153.93C197.648 153.663 197.781 153.28 197.801 152.78C197.808 152.713 197.811 152.587 197.811 152.4C197.811 152.213 197.808 152.087 197.801 152.02C197.781 151.52 197.648 151.137 197.401 150.87C197.161 150.603 196.831 150.47 196.411 150.47C195.991 150.47 195.658 150.603 195.411 150.87C195.164 151.137 195.034 151.52 195.021 152.02L195.011 152.4L195.021 152.78C195.034 153.28 195.164 153.663 195.411 153.93C195.658 154.197 195.991 154.33 196.411 154.33ZM200.715 155C200.648 155 200.591 154.98 200.545 154.94C200.505 154.893 200.485 154.837 200.485 154.77V150.6H199.635C199.568 150.6 199.511 150.58 199.465 150.54C199.425 150.493 199.405 150.437 199.405 150.37V150.03C199.405 149.963 199.425 149.91 199.465 149.87C199.511 149.823 199.568 149.8 199.635 149.8H200.485V149.3C200.485 148.167 201.058 147.6 202.205 147.6H202.805C202.871 147.6 202.925 147.623 202.965 147.67C203.011 147.71 203.035 147.763 203.035 147.83V148.17C203.035 148.237 203.011 148.293 202.965 148.34C202.925 148.38 202.871 148.4 202.805 148.4H202.225C201.925 148.4 201.715 148.48 201.595 148.64C201.475 148.793 201.415 149.03 201.415 149.35V149.8H202.705C202.771 149.8 202.825 149.823 202.865 149.87C202.911 149.91 202.935 149.963 202.935 150.03V150.37C202.935 150.437 202.911 150.493 202.865 150.54C202.825 150.58 202.771 150.6 202.705 150.6H201.415V154.77C201.415 154.837 201.391 154.893 201.345 154.94C201.305 154.98 201.251 155 201.185 155H200.715ZM208.209 156.59C207.635 156.59 207.175 156.427 206.829 156.1C206.489 155.773 206.242 155.27 206.089 154.59C205.942 153.91 205.869 153.017 205.869 151.91C205.869 150.803 205.942 149.91 206.089 149.23C206.242 148.55 206.489 148.05 206.829 147.73C207.175 147.403 207.635 147.24 208.209 147.24C208.275 147.24 208.329 147.263 208.369 147.31C208.415 147.35 208.439 147.403 208.439 147.47V147.82C208.439 147.88 208.419 147.933 208.379 147.98C208.339 148.027 208.292 148.05 208.239 148.05C207.859 148.057 207.562 148.183 207.349 148.43C207.135 148.677 206.982 149.077 206.889 149.63C206.795 150.183 206.749 150.943 206.749 151.91C206.749 152.877 206.795 153.637 206.889 154.19C206.982 154.743 207.135 155.143 207.349 155.39C207.562 155.643 207.859 155.773 208.239 155.78C208.292 155.78 208.339 155.803 208.379 155.85C208.419 155.897 208.439 155.95 208.439 156.01V156.36C208.439 156.427 208.415 156.48 208.369 156.52C208.329 156.567 208.275 156.59 208.209 156.59ZM211.618 154.67C211.551 154.67 211.494 154.65 211.448 154.61C211.408 154.563 211.388 154.507 211.388 154.44V152.36H209.338C209.271 152.36 209.214 152.34 209.168 152.3C209.128 152.253 209.108 152.197 209.108 152.13V151.81C209.108 151.743 209.128 151.69 209.168 151.65C209.214 151.603 209.271 151.58 209.338 151.58H211.388V149.56C211.388 149.493 211.408 149.44 211.448 149.4C211.494 149.353 211.551 149.33 211.618 149.33H211.968C212.034 149.33 212.088 149.353 212.128 149.4C212.174 149.44 212.198 149.493 212.198 149.56V151.58H214.258C214.324 151.58 214.378 151.603 214.418 151.65C214.464 151.69 214.488 151.743 214.488 151.81V152.13C214.488 152.197 214.464 152.253 214.418 152.3C214.378 152.34 214.324 152.36 214.258 152.36H212.198V154.44C212.198 154.507 212.174 154.563 212.128 154.61C212.088 154.65 212.034 154.67 211.968 154.67H211.618ZM215.378 156.59C215.318 156.59 215.265 156.567 215.218 156.52C215.172 156.48 215.148 156.427 215.148 156.36V156.01C215.148 155.95 215.168 155.897 215.208 155.85C215.255 155.803 215.305 155.78 215.358 155.78C215.732 155.773 216.025 155.643 216.238 155.39C216.458 155.143 216.615 154.743 216.708 154.19C216.802 153.637 216.848 152.877 216.848 151.91C216.848 150.943 216.802 150.183 216.708 149.63C216.615 149.077 216.458 148.677 216.238 148.43C216.025 148.183 215.732 148.057 215.358 148.05C215.305 148.05 215.255 148.027 215.208 147.98C215.168 147.933 215.148 147.88 215.148 147.82V147.47C215.148 147.403 215.172 147.35 215.218 147.31C215.265 147.263 215.318 147.24 215.378 147.24C215.958 147.24 216.418 147.403 216.758 147.73C217.098 148.05 217.342 148.55 217.488 149.23C217.642 149.903 217.718 150.797 217.718 151.91C217.718 153.023 217.642 153.92 217.488 154.6C217.342 155.273 217.098 155.773 216.758 156.1C216.418 156.427 215.958 156.59 215.378 156.59ZM219.217 152.42C219.15 152.42 219.094 152.4 219.047 152.36C219.007 152.313 218.987 152.257 218.987 152.19V151.81C218.987 151.743 219.007 151.69 219.047 151.65C219.094 151.603 219.15 151.58 219.217 151.58H222.217C222.284 151.58 222.337 151.603 222.377 151.65C222.424 151.69 222.447 151.743 222.447 151.81V152.19C222.447 152.257 222.424 152.313 222.377 152.36C222.337 152.4 222.284 152.42 222.217 152.42H219.217ZM226.291 154.87C226.191 155.137 226.104 155.423 226.031 155.73C225.957 156.037 225.901 156.333 225.861 156.62C225.821 156.913 225.801 157.173 225.801 157.4H224.851C224.851 157.213 224.871 156.98 224.911 156.7C224.957 156.42 225.017 156.123 225.091 155.81C225.171 155.503 225.261 155.213 225.361 154.94L223.191 149.64H224.101L225.231 152.45C225.304 152.623 225.377 152.817 225.451 153.03C225.524 153.243 225.591 153.447 225.651 153.64C225.711 153.833 225.751 153.99 225.771 154.11H225.811C225.831 154.003 225.867 153.85 225.921 153.65C225.981 153.45 226.044 153.243 226.111 153.03C226.184 152.817 226.247 152.637 226.301 152.49L227.361 149.64H228.271L226.291 154.87ZM229.236 152.42C229.17 152.42 229.113 152.4 229.066 152.36C229.026 152.313 229.006 152.257 229.006 152.19V151.81C229.006 151.743 229.026 151.69 229.066 151.65C229.113 151.603 229.17 151.58 229.236 151.58H232.236C232.303 151.58 232.356 151.603 232.396 151.65C232.443 151.69 232.466 151.743 232.466 151.81V152.19C232.466 152.257 232.443 152.313 232.396 152.36C232.356 152.4 232.303 152.42 232.236 152.42H229.236ZM234.14 156.9C234.073 156.9 234.017 156.877 233.97 156.83C233.93 156.79 233.91 156.737 233.91 156.67V150.03C233.91 149.963 233.93 149.91 233.97 149.87C234.017 149.823 234.073 149.8 234.14 149.8H234.6C234.667 149.8 234.72 149.823 234.76 149.87C234.807 149.91 234.83 149.963 234.83 150.03V150.47C235.203 149.957 235.75 149.7 236.47 149.7C237.17 149.7 237.693 149.92 238.04 150.36C238.393 150.8 238.583 151.367 238.61 152.06C238.617 152.133 238.62 152.247 238.62 152.4C238.62 152.553 238.617 152.667 238.61 152.74C238.583 153.427 238.393 153.993 238.04 154.44C237.687 154.88 237.163 155.1 236.47 155.1C235.777 155.1 235.237 154.85 234.85 154.35V156.67C234.85 156.737 234.83 156.79 234.79 156.83C234.75 156.877 234.697 156.9 234.63 156.9H234.14ZM236.26 154.29C236.733 154.29 237.077 154.143 237.29 153.85C237.51 153.557 237.63 153.17 237.65 152.69C237.657 152.623 237.66 152.527 237.66 152.4C237.66 151.14 237.193 150.51 236.26 150.51C235.8 150.51 235.453 150.663 235.22 150.97C234.993 151.27 234.87 151.63 234.85 152.05L234.84 152.43L234.85 152.82C234.863 153.213 234.99 153.557 235.23 153.85C235.47 154.143 235.813 154.29 236.26 154.29ZM241.937 155.1C241.251 155.1 240.701 154.89 240.287 154.47C239.881 154.043 239.657 153.463 239.617 152.73L239.607 152.39L239.617 152.06C239.664 151.34 239.891 150.767 240.297 150.34C240.711 149.913 241.254 149.7 241.927 149.7C242.667 149.7 243.241 149.937 243.647 150.41C244.054 150.877 244.257 151.51 244.257 152.31V152.48C244.257 152.547 244.234 152.603 244.187 152.65C244.147 152.69 244.094 152.71 244.027 152.71H240.567V152.8C240.587 153.233 240.717 153.603 240.957 153.91C241.204 154.21 241.527 154.36 241.927 154.36C242.234 154.36 242.484 154.3 242.677 154.18C242.877 154.053 243.024 153.923 243.117 153.79C243.177 153.71 243.221 153.663 243.247 153.65C243.281 153.63 243.337 153.62 243.417 153.62H243.907C243.967 153.62 244.017 153.637 244.057 153.67C244.097 153.703 244.117 153.75 244.117 153.81C244.117 153.957 244.024 154.133 243.837 154.34C243.657 154.547 243.401 154.727 243.067 154.88C242.741 155.027 242.364 155.1 241.937 155.1ZM243.307 152.02V151.99C243.307 151.53 243.181 151.157 242.927 150.87C242.681 150.577 242.347 150.43 241.927 150.43C241.507 150.43 241.174 150.577 240.927 150.87C240.687 151.157 240.567 151.53 240.567 151.99V152.02H243.307ZM245.693 155C245.626 155 245.57 154.98 245.523 154.94C245.483 154.893 245.463 154.837 245.463 154.77V148.13C245.463 148.063 245.483 148.01 245.523 147.97C245.57 147.923 245.626 147.9 245.693 147.9H246.163C246.23 147.9 246.283 147.923 246.323 147.97C246.37 148.01 246.393 148.063 246.393 148.13V154.77C246.393 154.837 246.37 154.893 246.323 154.94C246.283 154.98 246.23 155 246.163 155H245.693ZM249.335 155.1C249.008 155.1 248.705 155.033 248.425 154.9C248.145 154.767 247.921 154.587 247.755 154.36C247.595 154.127 247.515 153.87 247.515 153.59C247.515 153.15 247.695 152.79 248.055 152.51C248.421 152.223 248.915 152.037 249.535 151.95L251.025 151.74V151.45C251.025 150.77 250.635 150.43 249.855 150.43C249.561 150.43 249.321 150.493 249.135 150.62C248.948 150.74 248.808 150.883 248.715 151.05C248.695 151.11 248.668 151.153 248.635 151.18C248.608 151.207 248.568 151.22 248.515 151.22H248.085C248.025 151.22 247.971 151.2 247.925 151.16C247.885 151.113 247.865 151.06 247.865 151C247.871 150.84 247.945 150.66 248.085 150.46C248.231 150.253 248.455 150.077 248.755 149.93C249.055 149.777 249.425 149.7 249.865 149.7C250.611 149.7 251.148 149.877 251.475 150.23C251.801 150.577 251.965 151.01 251.965 151.53V154.77C251.965 154.837 251.941 154.893 251.895 154.94C251.855 154.98 251.801 155 251.735 155H251.275C251.208 155 251.151 154.98 251.105 154.94C251.065 154.893 251.045 154.837 251.045 154.77V154.34C250.898 154.553 250.685 154.733 250.405 154.88C250.125 155.027 249.768 155.1 249.335 155.1ZM249.545 154.35C249.978 154.35 250.331 154.21 250.605 153.93C250.885 153.643 251.025 153.233 251.025 152.7V152.42L249.865 152.59C249.391 152.657 249.035 152.77 248.795 152.93C248.555 153.083 248.435 153.28 248.435 153.52C248.435 153.787 248.545 153.993 248.765 154.14C248.985 154.28 249.245 154.35 249.545 154.35ZM253.632 155C253.565 155 253.509 154.98 253.462 154.94C253.422 154.893 253.402 154.837 253.402 154.77V150.04C253.402 149.973 253.422 149.917 253.462 149.87C253.509 149.823 253.565 149.8 253.632 149.8H254.092C254.159 149.8 254.215 149.823 254.262 149.87C254.309 149.917 254.332 149.973 254.332 150.04V150.48C254.605 150.027 255.072 149.8 255.732 149.8H256.122C256.189 149.8 256.242 149.823 256.282 149.87C256.329 149.91 256.352 149.963 256.352 150.03V150.44C256.352 150.507 256.329 150.56 256.282 150.6C256.242 150.64 256.189 150.66 256.122 150.66H255.522C255.162 150.66 254.879 150.767 254.672 150.98C254.465 151.187 254.362 151.47 254.362 151.83V154.77C254.362 154.837 254.339 154.893 254.292 154.94C254.245 154.98 254.189 155 254.122 155H253.632ZM259.224 157.2C258.677 157.2 258.237 157.107 257.904 156.92C257.57 156.74 257.334 156.533 257.194 156.3C257.054 156.067 256.977 155.857 256.964 155.67C256.957 155.603 256.977 155.547 257.024 155.5C257.077 155.453 257.134 155.43 257.194 155.43H257.674C257.734 155.43 257.784 155.443 257.824 155.47C257.864 155.503 257.897 155.56 257.924 155.64C258.004 155.853 258.134 156.037 258.314 156.19C258.5 156.35 258.787 156.43 259.174 156.43C259.667 156.43 260.03 156.323 260.264 156.11C260.497 155.903 260.614 155.533 260.614 155V154.32C260.44 154.54 260.22 154.717 259.954 154.85C259.687 154.977 259.37 155.04 259.004 155.04C258.297 155.04 257.767 154.817 257.414 154.37C257.067 153.917 256.884 153.343 256.864 152.65L256.854 152.37L256.864 152.1C256.884 151.413 257.07 150.843 257.424 150.39C257.777 149.93 258.304 149.7 259.004 149.7C259.704 149.7 260.25 149.957 260.644 150.47V150.04C260.644 149.973 260.664 149.917 260.704 149.87C260.75 149.823 260.807 149.8 260.874 149.8H261.334C261.4 149.8 261.457 149.823 261.504 149.87C261.55 149.917 261.574 149.973 261.574 150.04V154.89C261.574 156.43 260.79 157.2 259.224 157.2ZM259.204 154.24C259.657 154.24 260 154.09 260.234 153.79C260.467 153.49 260.594 153.133 260.614 152.72C260.62 152.66 260.624 152.543 260.624 152.37C260.624 152.203 260.62 152.09 260.614 152.03C260.594 151.617 260.467 151.26 260.234 150.96C260.007 150.66 259.664 150.51 259.204 150.51C258.73 150.51 258.387 150.657 258.174 150.95C257.96 151.243 257.844 151.63 257.824 152.11L257.814 152.37L257.824 152.64C257.844 153.113 257.96 153.5 258.174 153.8C258.387 154.093 258.73 154.24 259.204 154.24ZM265.19 155.1C264.457 155.1 263.887 154.893 263.48 154.48C263.08 154.067 262.867 153.517 262.84 152.83L262.83 152.4L262.84 151.97C262.867 151.29 263.084 150.743 263.49 150.33C263.897 149.91 264.464 149.7 265.19 149.7C265.917 149.7 266.484 149.91 266.89 150.33C267.297 150.743 267.514 151.29 267.54 151.97C267.547 152.043 267.55 152.187 267.55 152.4C267.55 152.613 267.547 152.757 267.54 152.83C267.514 153.517 267.297 154.067 266.89 154.48C266.49 154.893 265.924 155.1 265.19 155.1ZM265.19 154.33C265.61 154.33 265.94 154.197 266.18 153.93C266.427 153.663 266.56 153.28 266.58 152.78C266.587 152.713 266.59 152.587 266.59 152.4C266.59 152.213 266.587 152.087 266.58 152.02C266.56 151.52 266.427 151.137 266.18 150.87C265.94 150.603 265.61 150.47 265.19 150.47C264.77 150.47 264.437 150.603 264.19 150.87C263.944 151.137 263.814 151.52 263.8 152.02L263.79 152.4L263.8 152.78C263.814 153.28 263.944 153.663 264.19 153.93C264.437 154.197 264.77 154.33 265.19 154.33ZM269.033 155C268.966 155 268.909 154.98 268.863 154.94C268.823 154.893 268.803 154.837 268.803 154.77V150.03C268.803 149.963 268.823 149.91 268.863 149.87C268.909 149.823 268.966 149.8 269.033 149.8H269.503C269.569 149.8 269.623 149.823 269.663 149.87C269.709 149.91 269.733 149.963 269.733 150.03V150.47C269.926 150.223 270.153 150.033 270.413 149.9C270.679 149.767 271.009 149.7 271.403 149.7C272.043 149.7 272.539 149.907 272.893 150.32C273.253 150.727 273.433 151.27 273.433 151.95V154.77C273.433 154.837 273.409 154.893 273.363 154.94C273.323 154.98 273.269 155 273.202 155H272.703C272.636 155 272.579 154.98 272.533 154.94C272.493 154.893 272.473 154.837 272.473 154.77V152C272.473 151.527 272.356 151.16 272.123 150.9C271.896 150.64 271.566 150.51 271.133 150.51C270.713 150.51 270.379 150.643 270.133 150.91C269.886 151.17 269.763 151.533 269.763 152V154.77C269.763 154.837 269.739 154.893 269.693 154.94C269.653 154.98 269.599 155 269.532 155H269.033ZM276.997 155.1C276.264 155.1 275.694 154.893 275.287 154.48C274.887 154.067 274.674 153.517 274.647 152.83L274.637 152.4L274.647 151.97C274.674 151.29 274.89 150.743 275.297 150.33C275.704 149.91 276.27 149.7 276.997 149.7C277.724 149.7 278.29 149.91 278.697 150.33C279.104 150.743 279.32 151.29 279.347 151.97C279.354 152.043 279.357 152.187 279.357 152.4C279.357 152.613 279.354 152.757 279.347 152.83C279.32 153.517 279.104 154.067 278.697 154.48C278.297 154.893 277.73 155.1 276.997 155.1ZM276.997 154.33C277.417 154.33 277.747 154.197 277.987 153.93C278.234 153.663 278.367 153.28 278.387 152.78C278.394 152.713 278.397 152.587 278.397 152.4C278.397 152.213 278.394 152.087 278.387 152.02C278.367 151.52 278.234 151.137 277.987 150.87C277.747 150.603 277.417 150.47 276.997 150.47C276.577 150.47 276.244 150.603 275.997 150.87C275.75 151.137 275.62 151.52 275.607 152.02L275.597 152.4L275.607 152.78C275.62 153.28 275.75 153.663 275.997 153.93C276.244 154.197 276.577 154.33 276.997 154.33ZM280.849 155C280.782 155 280.726 154.98 280.679 154.94C280.639 154.893 280.619 154.837 280.619 154.77V148.13C280.619 148.063 280.639 148.01 280.679 147.97C280.726 147.923 280.782 147.9 280.849 147.9H281.319C281.386 147.9 281.439 147.923 281.479 147.97C281.526 148.01 281.549 148.063 281.549 148.13V154.77C281.549 154.837 281.526 154.893 281.479 154.94C281.439 154.98 281.386 155 281.319 155H280.849ZM284.491 155.1C284.164 155.1 283.861 155.033 283.581 154.9C283.301 154.767 283.077 154.587 282.911 154.36C282.751 154.127 282.671 153.87 282.671 153.59C282.671 153.15 282.851 152.79 283.211 152.51C283.577 152.223 284.071 152.037 284.691 151.95L286.181 151.74V151.45C286.181 150.77 285.791 150.43 285.011 150.43C284.717 150.43 284.477 150.493 284.291 150.62C284.104 150.74 283.964 150.883 283.871 151.05C283.851 151.11 283.824 151.153 283.791 151.18C283.764 151.207 283.724 151.22 283.671 151.22H283.241C283.181 151.22 283.127 151.2 283.081 151.16C283.041 151.113 283.021 151.06 283.021 151C283.027 150.84 283.101 150.66 283.241 150.46C283.387 150.253 283.611 150.077 283.911 149.93C284.211 149.777 284.581 149.7 285.021 149.7C285.767 149.7 286.304 149.877 286.631 150.23C286.957 150.577 287.121 151.01 287.121 151.53V154.77C287.121 154.837 287.097 154.893 287.051 154.94C287.011 154.98 286.957 155 286.891 155H286.431C286.364 155 286.307 154.98 286.261 154.94C286.221 154.893 286.201 154.837 286.201 154.77V154.34C286.054 154.553 285.841 154.733 285.561 154.88C285.281 155.027 284.924 155.1 284.491 155.1ZM284.701 154.35C285.134 154.35 285.487 154.21 285.761 153.93C286.041 153.643 286.181 153.233 286.181 152.7V152.42L285.021 152.59C284.547 152.657 284.191 152.77 283.951 152.93C283.711 153.083 283.591 153.28 283.591 153.52C283.591 153.787 283.701 153.993 283.921 154.14C284.141 154.28 284.401 154.35 284.701 154.35ZM290.658 155.1C289.945 155.1 289.385 154.9 288.978 154.5C288.578 154.093 288.365 153.527 288.338 152.8L288.328 152.4L288.338 152C288.365 151.273 288.578 150.71 288.978 150.31C289.385 149.903 289.945 149.7 290.658 149.7C291.138 149.7 291.545 149.787 291.878 149.96C292.212 150.133 292.458 150.347 292.618 150.6C292.785 150.853 292.875 151.107 292.888 151.36C292.895 151.427 292.875 151.48 292.828 151.52C292.782 151.56 292.725 151.58 292.658 151.58H292.178C292.112 151.58 292.062 151.567 292.028 151.54C291.995 151.513 291.962 151.46 291.928 151.38C291.815 151.06 291.655 150.833 291.448 150.7C291.242 150.56 290.982 150.49 290.668 150.49C290.255 150.49 289.925 150.62 289.678 150.88C289.438 151.133 289.308 151.523 289.288 152.05L289.278 152.41L289.288 152.75C289.308 153.283 289.438 153.677 289.678 153.93C289.918 154.183 290.248 154.31 290.668 154.31C290.982 154.31 291.242 154.243 291.448 154.11C291.655 153.97 291.815 153.74 291.928 153.42C291.962 153.34 291.995 153.287 292.028 153.26C292.062 153.227 292.112 153.21 292.178 153.21H292.658C292.725 153.21 292.782 153.233 292.828 153.28C292.875 153.32 292.895 153.373 292.888 153.44C292.875 153.687 292.785 153.94 292.618 154.2C292.458 154.453 292.212 154.667 291.878 154.84C291.552 155.013 291.145 155.1 290.658 155.1ZM296.106 155C295.053 155 294.526 154.413 294.526 153.24V150.6H293.746C293.679 150.6 293.623 150.58 293.576 150.54C293.536 150.493 293.516 150.437 293.516 150.37V150.03C293.516 149.963 293.536 149.91 293.576 149.87C293.623 149.823 293.679 149.8 293.746 149.8H294.526V148.13C294.526 148.063 294.546 148.01 294.586 147.97C294.633 147.923 294.689 147.9 294.756 147.9H295.226C295.293 147.9 295.346 147.923 295.386 147.97C295.433 148.01 295.456 148.063 295.456 148.13V149.8H296.696C296.763 149.8 296.816 149.823 296.856 149.87C296.903 149.91 296.926 149.963 296.926 150.03V150.37C296.926 150.437 296.903 150.493 296.856 150.54C296.816 150.58 296.763 150.6 296.696 150.6H295.456V153.17C295.456 153.503 295.513 153.757 295.626 153.93C295.739 154.097 295.926 154.18 296.186 154.18H296.796C296.863 154.18 296.916 154.203 296.956 154.25C297.003 154.29 297.026 154.343 297.026 154.41V154.77C297.026 154.837 297.003 154.893 296.956 154.94C296.916 154.98 296.863 155 296.796 155H296.106ZM300.112 155.1C299.379 155.1 298.809 154.893 298.402 154.48C298.002 154.067 297.789 153.517 297.762 152.83L297.752 152.4L297.762 151.97C297.789 151.29 298.006 150.743 298.412 150.33C298.819 149.91 299.386 149.7 300.112 149.7C300.839 149.7 301.406 149.91 301.812 150.33C302.219 150.743 302.436 151.29 302.462 151.97C302.469 152.043 302.472 152.187 302.472 152.4C302.472 152.613 302.469 152.757 302.462 152.83C302.436 153.517 302.219 154.067 301.812 154.48C301.412 154.893 300.846 155.1 300.112 155.1ZM300.112 154.33C300.532 154.33 300.862 154.197 301.102 153.93C301.349 153.663 301.482 153.28 301.502 152.78C301.509 152.713 301.512 152.587 301.512 152.4C301.512 152.213 301.509 152.087 301.502 152.02C301.482 151.52 301.349 151.137 301.102 150.87C300.862 150.603 300.532 150.47 300.112 150.47C299.692 150.47 299.359 150.603 299.112 150.87C298.866 151.137 298.736 151.52 298.722 152.02L298.712 152.4L298.722 152.78C298.736 153.28 298.866 153.663 299.112 153.93C299.359 154.197 299.692 154.33 300.112 154.33ZM303.954 155C303.888 155 303.831 154.98 303.784 154.94C303.744 154.893 303.724 154.837 303.724 154.77V150.03C303.724 149.963 303.744 149.91 303.784 149.87C303.831 149.823 303.888 149.8 303.954 149.8H304.424C304.491 149.8 304.544 149.823 304.584 149.87C304.631 149.91 304.654 149.963 304.654 150.03V150.47C304.848 150.223 305.074 150.033 305.334 149.9C305.601 149.767 305.931 149.7 306.324 149.7C306.964 149.7 307.461 149.907 307.814 150.32C308.174 150.727 308.354 151.27 308.354 151.95V154.77C308.354 154.837 308.331 154.893 308.284 154.94C308.244 154.98 308.191 155 308.124 155H307.624C307.558 155 307.501 154.98 307.454 154.94C307.414 154.893 307.394 154.837 307.394 154.77V152C307.394 151.527 307.278 151.16 307.044 150.9C306.818 150.64 306.488 150.51 306.054 150.51C305.634 150.51 305.301 150.643 305.054 150.91C304.808 151.17 304.684 151.533 304.684 152V154.77C304.684 154.837 304.661 154.893 304.614 154.94C304.574 154.98 304.521 155 304.454 155H303.954ZM311.869 155.1C311.182 155.1 310.632 154.89 310.219 154.47C309.812 154.043 309.589 153.463 309.549 152.73L309.539 152.39L309.549 152.06C309.595 151.34 309.822 150.767 310.229 150.34C310.642 149.913 311.185 149.7 311.859 149.7C312.599 149.7 313.172 149.937 313.579 150.41C313.985 150.877 314.189 151.51 314.189 152.31V152.48C314.189 152.547 314.165 152.603 314.119 152.65C314.079 152.69 314.025 152.71 313.959 152.71H310.499V152.8C310.519 153.233 310.649 153.603 310.889 153.91C311.135 154.21 311.459 154.36 311.859 154.36C312.165 154.36 312.415 154.3 312.609 154.18C312.809 154.053 312.955 153.923 313.049 153.79C313.109 153.71 313.152 153.663 313.179 153.65C313.212 153.63 313.269 153.62 313.349 153.62H313.839C313.899 153.62 313.949 153.637 313.989 153.67C314.029 153.703 314.049 153.75 314.049 153.81C314.049 153.957 313.955 154.133 313.769 154.34C313.589 154.547 313.332 154.727 312.999 154.88C312.672 155.027 312.295 155.1 311.869 155.1ZM313.239 152.02V151.99C313.239 151.53 313.112 151.157 312.859 150.87C312.612 150.577 312.279 150.43 311.859 150.43C311.439 150.43 311.105 150.577 310.859 150.87C310.619 151.157 310.499 151.53 310.499 151.99V152.02H313.239Z" fill="white"/>
</g>
</g>
</svg>
