<svg width="387" height="227" viewBox="0 0 387 227" fill="none" xmlns="http://www.w3.org/2000/svg">
<g id="Group 126">
<g id="Group 99">
<rect id="Rectangle 114" x="0.25" y="0.25" width="386.5" height="226.5" fill="#CACACA" fill-opacity="0.3" stroke="white" stroke-width="0.5"/>
<g id="Group 84">
<path id="Vector 113" d="M311.371 27.6289H317.976V187.089H311.371" stroke="#3D9BD0"/>
<path id="Vector 112" d="M239.661 67.2578L273.629 99.3385" stroke="#3D9BD0"/>
<path id="Vector 111" d="M239.661 66.3145V97.4515L255.701 111.605" stroke="#3D9BD0"/>
<path id="Vector 110" d="M260.419 116.322L273.629 128.588" stroke="#3D9BD0"/>
<path id="Vector 109" d="M237.773 131.419L273.628 99.3384L297.217 113.492L273.628 129.532L239.661 160.669V133.306" stroke="#3D9BD0"/>
<path id="Vector 107" d="M235.887 66.3145V96.508" stroke="#3D9BD0"/>
<path id="Vector 108" d="M235.887 132.363V161.613" stroke="#3D9BD0"/>
<path id="Vector 106" d="M209.468 124.814L229.282 144.629" stroke="#3D9BD0"/>
<path id="Vector 105" d="M208.523 104.056L228.338 83.2983" stroke="#3D9BD0"/>
<path id="Vector 103" d="M111.338 114.436L121.717 117.266" stroke="#3D9BD0"/>
<path id="Vector 104" d="M111.338 118.209L120.773 121.04" stroke="#3D9BD0"/>
<path id="Vector 101" d="M153.798 81.4111L174.556 101.226" stroke="#3D9BD0"/>
<path id="Vector 102" d="M153.798 146.516L173.612 125.758" stroke="#3D9BD0"/>
<path id="Vector 99" d="M83.0322 53.1045L91.5242 84.2416" stroke="#3D9BD0"/>
<path id="Vector 100" d="M83.9756 136.137L92.4675 103.113" stroke="#3D9BD0"/>
<path id="Vector 114" d="M44.3466 27.6299H39.6289V186.146H46.2337" stroke="#3D9BD0"/>
<g id="Vector 98">
<path d="M107.564 116.322L119.83 158.782L111.338 116.322L121.718 73.8627L83.032 52.1611L117.943 75.7498L107.564 116.322Z" fill="#3D9BD0"/>
<path d="M54.7256 60.6531V136.137H83.032L119.83 158.782M119.83 158.782H141.532M119.83 158.782L107.564 116.322L117.943 75.7498L83.032 52.1611M119.83 158.782L111.338 116.322L121.718 73.8627M83.032 52.1611H63.2175M83.032 52.1611L121.718 73.8627M121.718 73.8627H139.645" stroke="#3D9BD0"/>
</g>
</g>
<path id="O" d="M52.6017 52.2245C51.2044 52.2245 50.1217 51.8618 49.3537 51.1365C48.5964 50.4005 48.1964 49.2965 48.1537 47.8245C48.1431 47.5045 48.1377 47.0511 48.1377 46.4645C48.1377 45.8778 48.1431 45.4298 48.1537 45.1205C48.1964 43.6805 48.6124 42.5871 49.4017 41.8405C50.1911 41.0831 51.2577 40.7045 52.6017 40.7045C53.9351 40.7045 54.9964 41.0831 55.7857 41.8405C56.5751 42.5871 56.9911 43.6805 57.0337 45.1205C57.0551 45.7391 57.0657 46.1871 57.0657 46.4645C57.0657 46.7311 57.0551 47.1845 57.0337 47.8245C56.9911 49.2965 56.5857 50.4005 55.8177 51.1365C55.0604 51.8618 53.9884 52.2245 52.6017 52.2245ZM52.6017 50.8645C53.4444 50.8645 54.1164 50.6085 54.6177 50.0965C55.1191 49.5845 55.3911 48.8005 55.4337 47.7445C55.4551 47.1045 55.4657 46.6778 55.4657 46.4645C55.4657 46.2298 55.4551 45.8031 55.4337 45.1845C55.3911 44.1285 55.1137 43.3445 54.6017 42.8325C54.1004 42.3205 53.4337 42.0645 52.6017 42.0645C51.7591 42.0645 51.0817 42.3205 50.5697 42.8325C50.0684 43.3445 49.7964 44.1285 49.7537 45.1845C49.7431 45.4938 49.7377 45.9205 49.7377 46.4645C49.7377 46.9978 49.7431 47.4245 49.7537 47.7445C49.7964 48.8005 50.0684 49.5845 50.5697 50.0965C51.0817 50.6085 51.7591 50.8645 52.6017 50.8645Z" fill="white"/>
<path id="O_2" d="M94.1174 97.515C92.72 97.515 91.6374 97.1523 90.8694 96.427C90.112 95.691 89.712 94.587 89.6694 93.115C89.6587 92.795 89.6534 92.3416 89.6534 91.755C89.6534 91.1683 89.6587 90.7203 89.6694 90.411C89.712 88.971 90.128 87.8776 90.9174 87.131C91.7067 86.3736 92.7734 85.995 94.1174 85.995C95.4507 85.995 96.512 86.3736 97.3014 87.131C98.0907 87.8776 98.5067 88.971 98.5494 90.411C98.5707 91.0296 98.5814 91.4776 98.5814 91.755C98.5814 92.0216 98.5707 92.475 98.5494 93.115C98.5067 94.587 98.1014 95.691 97.3334 96.427C96.576 97.1523 95.504 97.515 94.1174 97.515ZM94.1174 96.155C94.96 96.155 95.632 95.899 96.1334 95.387C96.6347 94.875 96.9067 94.091 96.9494 93.035C96.9707 92.395 96.9814 91.9683 96.9814 91.755C96.9814 91.5203 96.9707 91.0936 96.9494 90.475C96.9067 89.419 96.6294 88.635 96.1174 88.123C95.616 87.611 94.9494 87.355 94.1174 87.355C93.2747 87.355 92.5974 87.611 92.0854 88.123C91.584 88.635 91.312 89.419 91.2694 90.475C91.2587 90.7843 91.2534 91.211 91.2534 91.755C91.2534 92.2883 91.2587 92.715 91.2694 93.035C91.312 94.091 91.584 94.875 92.0854 95.387C92.5974 95.899 93.2747 96.155 94.1174 96.155Z" fill="white"/>
<path id="O_3" d="M129.973 125.821C128.575 125.821 127.493 125.458 126.725 124.733C125.967 123.997 125.567 122.893 125.525 121.421C125.514 121.101 125.509 120.648 125.509 120.061C125.509 119.474 125.514 119.026 125.525 118.717C125.567 117.277 125.983 116.184 126.773 115.437C127.562 114.68 128.629 114.301 129.973 114.301C131.306 114.301 132.367 114.68 133.157 115.437C133.946 116.184 134.362 117.277 134.405 118.717C134.426 119.336 134.437 119.784 134.437 120.061C134.437 120.328 134.426 120.781 134.405 121.421C134.362 122.893 133.957 123.997 133.189 124.733C132.431 125.458 131.359 125.821 129.973 125.821ZM129.973 124.461C130.815 124.461 131.487 124.205 131.989 123.693C132.49 123.181 132.762 122.397 132.805 121.341C132.826 120.701 132.837 120.274 132.837 120.061C132.837 119.826 132.826 119.4 132.805 118.781C132.762 117.725 132.485 116.941 131.973 116.429C131.471 115.917 130.805 115.661 129.973 115.661C129.13 115.661 128.453 115.917 127.941 116.429C127.439 116.941 127.167 117.725 127.125 118.781C127.114 119.09 127.109 119.517 127.109 120.061C127.109 120.594 127.114 121.021 127.125 121.341C127.167 122.397 127.439 123.181 127.941 123.693C128.453 124.205 129.13 124.461 129.973 124.461Z" fill="white"/>
<path id="P" d="M143.292 76.5967C143.186 76.5967 143.095 76.5647 143.02 76.5007C142.956 76.426 142.924 76.3353 142.924 76.2287V65.7807C142.924 65.6633 142.956 65.5727 143.02 65.5087C143.095 65.434 143.186 65.3967 143.292 65.3967H147.356C148.562 65.3967 149.511 65.69 150.204 66.2767C150.898 66.8633 151.244 67.7113 151.244 68.8207C151.244 69.93 150.898 70.778 150.204 71.3647C149.522 71.9407 148.572 72.2287 147.356 72.2287H144.524V76.2287C144.524 76.3353 144.487 76.426 144.412 76.5007C144.338 76.5647 144.247 76.5967 144.14 76.5967H143.292ZM147.276 70.8847C148.055 70.8847 148.642 70.7087 149.036 70.3567C149.442 70.0047 149.644 69.4927 149.644 68.8207C149.644 68.1487 149.447 67.6367 149.052 67.2847C148.658 66.922 148.066 66.7407 147.276 66.7407H144.508V70.8847H147.276Z" fill="white"/>
<path id="P_2" d="M145.179 165.291C145.072 165.291 144.982 165.259 144.907 165.195C144.843 165.12 144.811 165.029 144.811 164.923V154.475C144.811 154.357 144.843 154.267 144.907 154.203C144.982 154.128 145.072 154.091 145.179 154.091H149.243C150.448 154.091 151.398 154.384 152.091 154.971C152.784 155.557 153.131 156.405 153.131 157.515C153.131 158.624 152.784 159.472 152.091 160.059C151.408 160.635 150.459 160.923 149.243 160.923H146.411V164.923C146.411 165.029 146.374 165.12 146.299 165.195C146.224 165.259 146.134 165.291 146.027 165.291H145.179ZM149.163 159.579C149.942 159.579 150.528 159.403 150.923 159.051C151.328 158.699 151.531 158.187 151.531 157.515C151.531 156.843 151.334 156.331 150.939 155.979C150.544 155.616 149.952 155.435 149.163 155.435H146.395V159.579H149.163Z" fill="white"/>
<path id="4" d="M363.243 135.532C363.196 135.532 363.156 135.518 363.124 135.49C363.096 135.458 363.082 135.418 363.082 135.371V134.363H360.814C360.767 134.363 360.727 134.349 360.695 134.321C360.667 134.289 360.653 134.249 360.653 134.202V133.922C360.653 133.852 360.678 133.782 360.73 133.712L362.83 130.751C362.853 130.714 362.888 130.686 362.935 130.667C362.981 130.644 363.033 130.632 363.089 130.632H363.593C363.639 130.632 363.677 130.649 363.705 130.681C363.737 130.709 363.754 130.747 363.754 130.793V133.754H364.384C364.43 133.754 364.47 133.771 364.503 133.803C364.535 133.831 364.552 133.869 364.552 133.915V134.202C364.552 134.249 364.535 134.289 364.503 134.321C364.475 134.349 364.437 134.363 364.391 134.363H363.754V135.371C363.754 135.418 363.737 135.458 363.705 135.49C363.677 135.518 363.639 135.532 363.593 135.532H363.243ZM363.089 133.768V131.367L361.402 133.768H363.089Z" fill="white"/>
<path id="-" d="M368.627 124.291C368.581 124.291 368.541 124.277 368.508 124.249C368.48 124.216 368.466 124.176 368.466 124.13V123.864C368.466 123.817 368.48 123.78 368.508 123.752C368.541 123.719 368.581 123.703 368.627 123.703H370.727C370.774 123.703 370.811 123.719 370.839 123.752C370.872 123.78 370.888 123.817 370.888 123.864V124.13C370.888 124.176 370.872 124.216 370.839 124.249C370.811 124.277 370.774 124.291 370.727 124.291H368.627Z" fill="white"/>
<path id="+" d="M320.97 18.3012C320.923 18.3012 320.884 18.2872 320.851 18.2592C320.823 18.2266 320.809 18.1869 320.809 18.1402V16.6842H319.374C319.327 16.6842 319.288 16.6702 319.255 16.6422C319.227 16.6096 319.213 16.5699 319.213 16.5232V16.2992C319.213 16.2526 319.227 16.2152 319.255 16.1872C319.288 16.1546 319.327 16.1382 319.374 16.1382H320.809V14.7242C320.809 14.6776 320.823 14.6402 320.851 14.6122C320.884 14.5796 320.923 14.5632 320.97 14.5632H321.215C321.262 14.5632 321.299 14.5796 321.327 14.6122C321.36 14.6402 321.376 14.6776 321.376 14.7242V16.1382H322.818C322.865 16.1382 322.902 16.1546 322.93 16.1872C322.963 16.2152 322.979 16.2526 322.979 16.2992V16.5232C322.979 16.5699 322.963 16.6096 322.93 16.6422C322.902 16.6702 322.865 16.6842 322.818 16.6842H321.376V18.1402C321.376 18.1869 321.36 18.2266 321.327 18.2592C321.299 18.2872 321.262 18.3012 321.215 18.3012H320.97Z" fill="white"/>
<path id="Rh" d="M181.034 118.113C180.928 118.113 180.837 118.081 180.762 118.017C180.698 117.942 180.666 117.851 180.666 117.745V107.297C180.666 107.179 180.698 107.089 180.762 107.025C180.837 106.95 180.928 106.913 181.034 106.913H184.938C186.165 106.913 187.125 107.201 187.818 107.777C188.512 108.353 188.858 109.185 188.858 110.273C188.858 111.083 188.656 111.75 188.25 112.273C187.856 112.795 187.296 113.158 186.57 113.361L189.034 117.617C189.066 117.681 189.082 117.739 189.082 117.793C189.082 117.878 189.045 117.953 188.97 118.017C188.906 118.081 188.832 118.113 188.746 118.113H187.978C187.818 118.113 187.69 118.075 187.594 118.001C187.509 117.926 187.429 117.819 187.354 117.681L185.034 113.617H182.234V117.745C182.234 117.851 182.197 117.942 182.122 118.017C182.048 118.081 181.957 118.113 181.85 118.113H181.034ZM184.874 112.257C186.464 112.257 187.258 111.59 187.258 110.257C187.258 108.923 186.464 108.257 184.874 108.257H182.234V112.257H184.874ZM191.327 118.113C191.22 118.113 191.129 118.081 191.055 118.017C190.991 117.942 190.959 117.851 190.959 117.745V107.121C190.959 107.014 190.991 106.929 191.055 106.865C191.129 106.79 191.22 106.753 191.327 106.753H192.127C192.233 106.753 192.319 106.79 192.383 106.865C192.457 106.929 192.495 107.014 192.495 107.121V110.849C192.804 110.454 193.167 110.155 193.583 109.953C193.999 109.739 194.516 109.633 195.135 109.633C196.159 109.633 196.953 109.963 197.519 110.625C198.095 111.275 198.383 112.145 198.383 113.233V117.745C198.383 117.851 198.345 117.942 198.271 118.017C198.207 118.081 198.121 118.113 198.015 118.113H197.215C197.108 118.113 197.017 118.081 196.943 118.017C196.879 117.942 196.847 117.851 196.847 117.745V113.313C196.847 112.555 196.66 111.969 196.287 111.553C195.924 111.137 195.396 110.929 194.703 110.929C194.031 110.929 193.492 111.142 193.087 111.569C192.692 111.985 192.495 112.566 192.495 113.313V117.745C192.495 117.851 192.457 117.942 192.383 118.017C192.319 118.081 192.233 118.113 192.127 118.113H191.327Z" fill="white"/>
<path id="ClO" d="M335.666 131.483C334.237 131.483 333.149 131.099 332.402 130.331C331.666 129.563 331.272 128.501 331.218 127.147C331.208 126.859 331.202 126.389 331.202 125.739C331.202 125.077 331.208 124.597 331.218 124.299C331.272 122.955 331.672 121.899 332.418 121.131C333.165 120.352 334.248 119.963 335.666 119.963C336.616 119.963 337.421 120.133 338.082 120.475C338.744 120.805 339.245 121.243 339.586 121.787C339.928 122.331 340.114 122.912 340.146 123.531V123.563C340.146 123.648 340.109 123.723 340.034 123.787C339.97 123.84 339.896 123.867 339.81 123.867H338.93C338.717 123.867 338.584 123.744 338.53 123.499C338.349 122.699 338.024 122.139 337.554 121.819C337.085 121.488 336.456 121.323 335.666 121.323C333.832 121.323 332.882 122.341 332.818 124.379C332.808 124.667 332.802 125.109 332.802 125.707C332.802 126.304 332.808 126.757 332.818 127.067C332.882 129.104 333.832 130.123 335.666 130.123C336.456 130.123 337.085 129.963 337.554 129.643C338.034 129.312 338.36 128.747 338.53 127.947C338.562 127.808 338.61 127.712 338.674 127.659C338.738 127.605 338.824 127.579 338.93 127.579H339.81C339.906 127.579 339.986 127.611 340.05 127.675C340.125 127.728 340.157 127.803 340.146 127.899C340.114 128.528 339.928 129.115 339.586 129.659C339.245 130.203 338.744 130.645 338.082 130.987C337.421 131.317 336.616 131.483 335.666 131.483ZM342.466 131.323C342.36 131.323 342.269 131.291 342.194 131.227C342.13 131.152 342.098 131.061 342.098 130.955V120.331C342.098 120.224 342.13 120.139 342.194 120.075C342.269 120 342.36 119.963 342.466 119.963H343.218C343.325 119.963 343.41 120 343.474 120.075C343.549 120.139 343.586 120.224 343.586 120.331V130.955C343.586 131.061 343.549 131.152 343.474 131.227C343.41 131.291 343.325 131.323 343.218 131.323H342.466ZM350.213 131.483C348.816 131.483 347.733 131.12 346.965 130.395C346.208 129.659 345.808 128.555 345.765 127.083C345.754 126.763 345.749 126.309 345.749 125.723C345.749 125.136 345.754 124.688 345.765 124.379C345.808 122.939 346.224 121.845 347.013 121.099C347.802 120.341 348.869 119.963 350.213 119.963C351.546 119.963 352.608 120.341 353.397 121.099C354.186 121.845 354.602 122.939 354.645 124.379C354.666 124.997 354.677 125.445 354.677 125.723C354.677 125.989 354.666 126.443 354.645 127.083C354.602 128.555 354.197 129.659 353.429 130.395C352.672 131.12 351.6 131.483 350.213 131.483ZM350.213 130.123C351.056 130.123 351.728 129.867 352.229 129.355C352.73 128.843 353.002 128.059 353.045 127.003C353.066 126.363 353.077 125.936 353.077 125.723C353.077 125.488 353.066 125.061 353.045 124.443C353.002 123.387 352.725 122.603 352.213 122.091C351.712 121.579 351.045 121.323 350.213 121.323C349.37 121.323 348.693 121.579 348.181 122.091C347.68 122.603 347.408 123.387 347.365 124.443C347.354 124.752 347.349 125.179 347.349 125.723C347.349 126.256 347.354 126.683 347.365 127.003C347.408 128.059 347.68 128.843 348.181 129.355C348.693 129.867 349.37 130.123 350.213 130.123Z" fill="white"/>
</g>
<path id="Figure 3. Chiral rhodium catalyst, using levoglucosan" d="M66.1 212C66.0333 212 65.9767 211.98 65.93 211.94C65.89 211.893 65.87 211.837 65.87 211.77V205.24C65.87 205.167 65.89 205.11 65.93 205.07C65.9767 205.023 66.0333 205 66.1 205H70.18C70.2533 205 70.31 205.023 70.35 205.07C70.3967 205.11 70.42 205.167 70.42 205.24V205.64C70.42 205.707 70.3967 205.763 70.35 205.81C70.31 205.85 70.2533 205.87 70.18 205.87H66.84V208.2H69.98C70.0533 208.2 70.11 208.223 70.15 208.27C70.1967 208.31 70.22 208.367 70.22 208.44V208.84C70.22 208.907 70.1967 208.963 70.15 209.01C70.1033 209.05 70.0467 209.07 69.98 209.07H66.84V211.77C66.84 211.837 66.8167 211.893 66.77 211.94C66.7233 211.98 66.6667 212 66.6 212H66.1ZM71.7298 205.83C71.6632 205.83 71.6065 205.81 71.5598 205.77C71.5198 205.723 71.4998 205.667 71.4998 205.6V205.06C71.4998 204.993 71.5198 204.937 71.5598 204.89C71.6065 204.843 71.6632 204.82 71.7298 204.82H72.3598C72.4265 204.82 72.4832 204.843 72.5298 204.89C72.5765 204.937 72.5998 204.993 72.5998 205.06V205.6C72.5998 205.667 72.5765 205.723 72.5298 205.77C72.4832 205.81 72.4265 205.83 72.3598 205.83H71.7298ZM71.8098 212C71.7432 212 71.6865 211.98 71.6398 211.94C71.5998 211.893 71.5798 211.837 71.5798 211.77V207.03C71.5798 206.963 71.5998 206.91 71.6398 206.87C71.6865 206.823 71.7432 206.8 71.8098 206.8H72.2898C72.3565 206.8 72.4098 206.823 72.4498 206.87C72.4965 206.91 72.5198 206.963 72.5198 207.03V211.77C72.5198 211.837 72.4965 211.893 72.4498 211.94C72.4098 211.98 72.3565 212 72.2898 212H71.8098ZM76.1317 214.2C75.5851 214.2 75.1451 214.107 74.8117 213.92C74.4784 213.74 74.2417 213.533 74.1017 213.3C73.9617 213.067 73.8851 212.857 73.8717 212.67C73.8651 212.603 73.8851 212.547 73.9317 212.5C73.9851 212.453 74.0417 212.43 74.1017 212.43H74.5817C74.6417 212.43 74.6917 212.443 74.7317 212.47C74.7717 212.503 74.8051 212.56 74.8317 212.64C74.9117 212.853 75.0417 213.037 75.2217 213.19C75.4084 213.35 75.6951 213.43 76.0817 213.43C76.5751 213.43 76.9384 213.323 77.1717 213.11C77.4051 212.903 77.5217 212.533 77.5217 212V211.32C77.3484 211.54 77.1284 211.717 76.8617 211.85C76.5951 211.977 76.2784 212.04 75.9117 212.04C75.2051 212.04 74.6751 211.817 74.3217 211.37C73.9751 210.917 73.7917 210.343 73.7717 209.65L73.7617 209.37L73.7717 209.1C73.7917 208.413 73.9784 207.843 74.3317 207.39C74.6851 206.93 75.2117 206.7 75.9117 206.7C76.6117 206.7 77.1584 206.957 77.5517 207.47V207.04C77.5517 206.973 77.5717 206.917 77.6117 206.87C77.6584 206.823 77.7151 206.8 77.7817 206.8H78.2417C78.3084 206.8 78.3651 206.823 78.4117 206.87C78.4584 206.917 78.4817 206.973 78.4817 207.04V211.89C78.4817 213.43 77.6984 214.2 76.1317 214.2ZM76.1117 211.24C76.5651 211.24 76.9084 211.09 77.1417 210.79C77.3751 210.49 77.5017 210.133 77.5217 209.72C77.5284 209.66 77.5317 209.543 77.5317 209.37C77.5317 209.203 77.5284 209.09 77.5217 209.03C77.5017 208.617 77.3751 208.26 77.1417 207.96C76.9151 207.66 76.5717 207.51 76.1117 207.51C75.6384 207.51 75.2951 207.657 75.0817 207.95C74.8684 208.243 74.7517 208.63 74.7317 209.11L74.7217 209.37L74.7317 209.64C74.7517 210.113 74.8684 210.5 75.0817 210.8C75.2951 211.093 75.6384 211.24 76.1117 211.24ZM81.9085 212.1C81.2752 212.1 80.7852 211.897 80.4385 211.49C80.0918 211.077 79.9185 210.53 79.9185 209.85V207.03C79.9185 206.963 79.9385 206.91 79.9785 206.87C80.0252 206.823 80.0818 206.8 80.1485 206.8H80.6485C80.7152 206.8 80.7685 206.823 80.8085 206.87C80.8552 206.91 80.8785 206.963 80.8785 207.03V209.8C80.8785 210.793 81.3118 211.29 82.1785 211.29C82.5985 211.29 82.9318 211.16 83.1785 210.9C83.4252 210.633 83.5485 210.267 83.5485 209.8V207.03C83.5485 206.963 83.5685 206.91 83.6085 206.87C83.6552 206.823 83.7118 206.8 83.7785 206.8H84.2785C84.3452 206.8 84.3985 206.823 84.4385 206.87C84.4785 206.91 84.4985 206.963 84.4985 207.03V211.77C84.4985 211.837 84.4785 211.893 84.4385 211.94C84.3985 211.98 84.3452 212 84.2785 212H83.8085C83.7418 212 83.6852 211.98 83.6385 211.94C83.5985 211.893 83.5785 211.837 83.5785 211.77V211.33C83.3918 211.583 83.1652 211.777 82.8985 211.91C82.6318 212.037 82.3018 212.1 81.9085 212.1ZM86.2141 212C86.1475 212 86.0908 211.98 86.0441 211.94C86.0041 211.893 85.9841 211.837 85.9841 211.77V207.04C85.9841 206.973 86.0041 206.917 86.0441 206.87C86.0908 206.823 86.1475 206.8 86.2141 206.8H86.6741C86.7408 206.8 86.7975 206.823 86.8441 206.87C86.8908 206.917 86.9141 206.973 86.9141 207.04V207.48C87.1875 207.027 87.6541 206.8 88.3141 206.8H88.7041C88.7708 206.8 88.8241 206.823 88.8641 206.87C88.9108 206.91 88.9341 206.963 88.9341 207.03V207.44C88.9341 207.507 88.9108 207.56 88.8641 207.6C88.8241 207.64 88.7708 207.66 88.7041 207.66H88.1041C87.7441 207.66 87.4608 207.767 87.2541 207.98C87.0475 208.187 86.9441 208.47 86.9441 208.83V211.77C86.9441 211.837 86.9208 211.893 86.8741 211.94C86.8275 211.98 86.7708 212 86.7041 212H86.2141ZM91.7653 212.1C91.0786 212.1 90.5286 211.89 90.1153 211.47C89.7086 211.043 89.4853 210.463 89.4453 209.73L89.4353 209.39L89.4453 209.06C89.492 208.34 89.7186 207.767 90.1253 207.34C90.5386 206.913 91.082 206.7 91.7553 206.7C92.4953 206.7 93.0686 206.937 93.4753 207.41C93.882 207.877 94.0853 208.51 94.0853 209.31V209.48C94.0853 209.547 94.062 209.603 94.0153 209.65C93.9753 209.69 93.922 209.71 93.8553 209.71H90.3953V209.8C90.4153 210.233 90.5453 210.603 90.7853 210.91C91.032 211.21 91.3553 211.36 91.7553 211.36C92.062 211.36 92.312 211.3 92.5053 211.18C92.7053 211.053 92.852 210.923 92.9453 210.79C93.0053 210.71 93.0486 210.663 93.0753 210.65C93.1086 210.63 93.1653 210.62 93.2453 210.62H93.7353C93.7953 210.62 93.8453 210.637 93.8853 210.67C93.9253 210.703 93.9453 210.75 93.9453 210.81C93.9453 210.957 93.852 211.133 93.6653 211.34C93.4853 211.547 93.2286 211.727 92.8953 211.88C92.5686 212.027 92.192 212.1 91.7653 212.1ZM93.1353 209.02V208.99C93.1353 208.53 93.0086 208.157 92.7553 207.87C92.5086 207.577 92.1753 207.43 91.7553 207.43C91.3353 207.43 91.002 207.577 90.7553 207.87C90.5153 208.157 90.3953 208.53 90.3953 208.99V209.02H93.1353ZM99.9722 212.1C99.4455 212.1 98.9889 212.017 98.6022 211.85C98.2222 211.677 97.9322 211.453 97.7322 211.18C97.5389 210.907 97.4355 210.62 97.4222 210.32C97.4222 210.26 97.4422 210.213 97.4822 210.18C97.5222 210.14 97.5722 210.12 97.6322 210.12H98.1222C98.2622 210.12 98.3555 210.193 98.4022 210.34C98.4889 210.673 98.6755 210.91 98.9622 211.05C99.2489 211.183 99.5855 211.25 99.9722 211.25C100.446 211.25 100.822 211.14 101.102 210.92C101.382 210.693 101.522 210.37 101.522 209.95C101.522 209.143 101.032 208.74 100.052 208.74H99.1022C99.0355 208.74 98.9789 208.72 98.9322 208.68C98.8922 208.633 98.8722 208.577 98.8722 208.51V208.24C98.8722 208.147 98.9089 208.057 98.9822 207.97L100.922 205.85H97.9722C97.9055 205.85 97.8489 205.83 97.8022 205.79C97.7622 205.743 97.7422 205.687 97.7422 205.62V205.24C97.7422 205.173 97.7622 205.117 97.8022 205.07C97.8489 205.023 97.9055 205 97.9722 205H101.962C102.036 205 102.092 205.023 102.132 205.07C102.179 205.11 102.202 205.167 102.202 205.24V205.6C102.202 205.68 102.166 205.757 102.092 205.83L100.162 207.98L100.322 207.99C101.002 208.01 101.539 208.187 101.932 208.52C102.326 208.853 102.522 209.34 102.522 209.98C102.522 210.413 102.412 210.79 102.192 211.11C101.972 211.43 101.669 211.677 101.282 211.85C100.896 212.017 100.459 212.1 99.9722 212.1ZM103.898 212C103.831 212 103.775 211.98 103.728 211.94C103.688 211.893 103.668 211.837 103.668 211.77V211.05C103.668 210.983 103.688 210.93 103.728 210.89C103.775 210.843 103.831 210.82 103.898 210.82H104.618C104.685 210.82 104.741 210.843 104.788 210.89C104.835 210.93 104.858 210.983 104.858 211.05V211.77C104.858 211.837 104.835 211.893 104.788 211.94C104.741 211.98 104.685 212 104.618 212H103.898ZM111.359 212.1C110.465 212.1 109.785 211.86 109.319 211.38C108.859 210.9 108.612 210.237 108.579 209.39C108.572 209.21 108.569 208.917 108.569 208.51C108.569 208.097 108.572 207.797 108.579 207.61C108.612 206.77 108.862 206.11 109.329 205.63C109.795 205.143 110.472 204.9 111.359 204.9C111.952 204.9 112.455 205.007 112.869 205.22C113.282 205.427 113.595 205.7 113.809 206.04C114.022 206.38 114.139 206.743 114.159 207.13V207.15C114.159 207.203 114.135 207.25 114.089 207.29C114.049 207.323 114.002 207.34 113.949 207.34H113.399C113.265 207.34 113.182 207.263 113.149 207.11C113.035 206.61 112.832 206.26 112.539 206.06C112.245 205.853 111.852 205.75 111.359 205.75C110.212 205.75 109.619 206.387 109.579 207.66C109.572 207.84 109.569 208.117 109.569 208.49C109.569 208.863 109.572 209.147 109.579 209.34C109.619 210.613 110.212 211.25 111.359 211.25C111.852 211.25 112.245 211.15 112.539 210.95C112.839 210.743 113.042 210.39 113.149 209.89C113.169 209.803 113.199 209.743 113.239 209.71C113.279 209.677 113.332 209.66 113.399 209.66H113.949C114.009 209.66 114.059 209.68 114.099 209.72C114.145 209.753 114.165 209.8 114.159 209.86C114.139 210.253 114.022 210.62 113.809 210.96C113.595 211.3 113.282 211.577 112.869 211.79C112.455 211.997 111.952 212.1 111.359 212.1ZM115.609 212C115.542 212 115.486 211.98 115.439 211.94C115.399 211.893 115.379 211.837 115.379 211.77V205.13C115.379 205.063 115.399 205.01 115.439 204.97C115.486 204.923 115.542 204.9 115.609 204.9H116.109C116.176 204.9 116.229 204.923 116.269 204.97C116.316 205.01 116.339 205.063 116.339 205.13V207.46C116.532 207.213 116.759 207.027 117.019 206.9C117.279 206.767 117.602 206.7 117.989 206.7C118.629 206.7 119.126 206.907 119.479 207.32C119.839 207.727 120.019 208.27 120.019 208.95V211.77C120.019 211.837 119.996 211.893 119.949 211.94C119.909 211.98 119.856 212 119.789 212H119.289C119.222 212 119.166 211.98 119.119 211.94C119.079 211.893 119.059 211.837 119.059 211.77V209C119.059 208.527 118.942 208.16 118.709 207.9C118.482 207.64 118.152 207.51 117.719 207.51C117.299 207.51 116.962 207.643 116.709 207.91C116.462 208.17 116.339 208.533 116.339 209V211.77C116.339 211.837 116.316 211.893 116.269 211.94C116.229 211.98 116.176 212 116.109 212H115.609ZM121.613 205.83C121.546 205.83 121.489 205.81 121.443 205.77C121.403 205.723 121.383 205.667 121.383 205.6V205.06C121.383 204.993 121.403 204.937 121.443 204.89C121.489 204.843 121.546 204.82 121.613 204.82H122.243C122.309 204.82 122.366 204.843 122.413 204.89C122.459 204.937 122.483 204.993 122.483 205.06V205.6C122.483 205.667 122.459 205.723 122.413 205.77C122.366 205.81 122.309 205.83 122.243 205.83H121.613ZM121.693 212C121.626 212 121.569 211.98 121.523 211.94C121.483 211.893 121.463 211.837 121.463 211.77V207.03C121.463 206.963 121.483 206.91 121.523 206.87C121.569 206.823 121.626 206.8 121.693 206.8H122.173C122.239 206.8 122.293 206.823 122.333 206.87C122.379 206.91 122.403 206.963 122.403 207.03V211.77C122.403 211.837 122.379 211.893 122.333 211.94C122.293 211.98 122.239 212 122.173 212H121.693ZM124.115 212C124.048 212 123.991 211.98 123.945 211.94C123.905 211.893 123.885 211.837 123.885 211.77V207.04C123.885 206.973 123.905 206.917 123.945 206.87C123.991 206.823 124.048 206.8 124.115 206.8H124.575C124.641 206.8 124.698 206.823 124.745 206.87C124.791 206.917 124.815 206.973 124.815 207.04V207.48C125.088 207.027 125.555 206.8 126.215 206.8H126.605C126.671 206.8 126.725 206.823 126.765 206.87C126.811 206.91 126.835 206.963 126.835 207.03V207.44C126.835 207.507 126.811 207.56 126.765 207.6C126.725 207.64 126.671 207.66 126.605 207.66H126.005C125.645 207.66 125.361 207.767 125.155 207.98C124.948 208.187 124.845 208.47 124.845 208.83V211.77C124.845 211.837 124.821 211.893 124.775 211.94C124.728 211.98 124.671 212 124.605 212H124.115ZM129.055 212.1C128.729 212.1 128.425 212.033 128.145 211.9C127.865 211.767 127.642 211.587 127.475 211.36C127.315 211.127 127.235 210.87 127.235 210.59C127.235 210.15 127.415 209.79 127.775 209.51C128.142 209.223 128.635 209.037 129.255 208.95L130.745 208.74V208.45C130.745 207.77 130.355 207.43 129.575 207.43C129.282 207.43 129.042 207.493 128.855 207.62C128.669 207.74 128.529 207.883 128.435 208.05C128.415 208.11 128.389 208.153 128.355 208.18C128.329 208.207 128.289 208.22 128.235 208.22H127.805C127.745 208.22 127.692 208.2 127.645 208.16C127.605 208.113 127.585 208.06 127.585 208C127.592 207.84 127.665 207.66 127.805 207.46C127.952 207.253 128.175 207.077 128.475 206.93C128.775 206.777 129.145 206.7 129.585 206.7C130.332 206.7 130.869 206.877 131.195 207.23C131.522 207.577 131.685 208.01 131.685 208.53V211.77C131.685 211.837 131.662 211.893 131.615 211.94C131.575 211.98 131.522 212 131.455 212H130.995C130.929 212 130.872 211.98 130.825 211.94C130.785 211.893 130.765 211.837 130.765 211.77V211.34C130.619 211.553 130.405 211.733 130.125 211.88C129.845 212.027 129.489 212.1 129.055 212.1ZM129.265 211.35C129.699 211.35 130.052 211.21 130.325 210.93C130.605 210.643 130.745 210.233 130.745 209.7V209.42L129.585 209.59C129.112 209.657 128.755 209.77 128.515 209.93C128.275 210.083 128.155 210.28 128.155 210.52C128.155 210.787 128.265 210.993 128.485 211.14C128.705 211.28 128.965 211.35 129.265 211.35ZM133.363 212C133.296 212 133.239 211.98 133.193 211.94C133.153 211.893 133.133 211.837 133.133 211.77V205.13C133.133 205.063 133.153 205.01 133.193 204.97C133.239 204.923 133.296 204.9 133.363 204.9H133.833C133.899 204.9 133.953 204.923 133.993 204.97C134.039 205.01 134.063 205.063 134.063 205.13V211.77C134.063 211.837 134.039 211.893 133.993 211.94C133.953 211.98 133.899 212 133.833 212H133.363ZM138.236 212C138.169 212 138.112 211.98 138.066 211.94C138.026 211.893 138.006 211.837 138.006 211.77V207.04C138.006 206.973 138.026 206.917 138.066 206.87C138.112 206.823 138.169 206.8 138.236 206.8H138.696C138.762 206.8 138.819 206.823 138.866 206.87C138.912 206.917 138.936 206.973 138.936 207.04V207.48C139.209 207.027 139.676 206.8 140.336 206.8H140.726C140.792 206.8 140.846 206.823 140.886 206.87C140.932 206.91 140.956 206.963 140.956 207.03V207.44C140.956 207.507 140.932 207.56 140.886 207.6C140.846 207.64 140.792 207.66 140.726 207.66H140.126C139.766 207.66 139.482 207.767 139.276 207.98C139.069 208.187 138.966 208.47 138.966 208.83V211.77C138.966 211.837 138.942 211.893 138.896 211.94C138.849 211.98 138.792 212 138.726 212H138.236ZM142.044 212C141.978 212 141.921 211.98 141.874 211.94C141.834 211.893 141.814 211.837 141.814 211.77V205.13C141.814 205.063 141.834 205.01 141.874 204.97C141.921 204.923 141.978 204.9 142.044 204.9H142.544C142.611 204.9 142.664 204.923 142.704 204.97C142.751 205.01 142.774 205.063 142.774 205.13V207.46C142.968 207.213 143.194 207.027 143.454 206.9C143.714 206.767 144.038 206.7 144.424 206.7C145.064 206.7 145.561 206.907 145.914 207.32C146.274 207.727 146.454 208.27 146.454 208.95V211.77C146.454 211.837 146.431 211.893 146.384 211.94C146.344 211.98 146.291 212 146.224 212H145.724C145.658 212 145.601 211.98 145.554 211.94C145.514 211.893 145.494 211.837 145.494 211.77V209C145.494 208.527 145.378 208.16 145.144 207.9C144.918 207.64 144.588 207.51 144.154 207.51C143.734 207.51 143.398 207.643 143.144 207.91C142.898 208.17 142.774 208.533 142.774 209V211.77C142.774 211.837 142.751 211.893 142.704 211.94C142.664 211.98 142.611 212 142.544 212H142.044ZM150.028 212.1C149.295 212.1 148.725 211.893 148.318 211.48C147.918 211.067 147.705 210.517 147.678 209.83L147.668 209.4L147.678 208.97C147.705 208.29 147.922 207.743 148.328 207.33C148.735 206.91 149.302 206.7 150.028 206.7C150.755 206.7 151.322 206.91 151.728 207.33C152.135 207.743 152.352 208.29 152.378 208.97C152.385 209.043 152.388 209.187 152.388 209.4C152.388 209.613 152.385 209.757 152.378 209.83C152.352 210.517 152.135 211.067 151.728 211.48C151.328 211.893 150.762 212.1 150.028 212.1ZM150.028 211.33C150.448 211.33 150.778 211.197 151.018 210.93C151.265 210.663 151.398 210.28 151.418 209.78C151.425 209.713 151.428 209.587 151.428 209.4C151.428 209.213 151.425 209.087 151.418 209.02C151.398 208.52 151.265 208.137 151.018 207.87C150.778 207.603 150.448 207.47 150.028 207.47C149.608 207.47 149.275 207.603 149.028 207.87C148.782 208.137 148.652 208.52 148.638 209.02L148.628 209.4L148.638 209.78C148.652 210.28 148.782 210.663 149.028 210.93C149.275 211.197 149.608 211.33 150.028 211.33ZM155.54 212.1C154.847 212.1 154.324 211.873 153.97 211.42C153.617 210.967 153.43 210.393 153.41 209.7L153.4 209.4L153.41 209.1C153.43 208.413 153.617 207.843 153.97 207.39C154.324 206.93 154.847 206.7 155.54 206.7C156.227 206.7 156.767 206.943 157.16 207.43V205.13C157.16 205.063 157.18 205.01 157.22 204.97C157.267 204.923 157.324 204.9 157.39 204.9H157.87C157.937 204.9 157.99 204.923 158.03 204.97C158.077 205.01 158.1 205.063 158.1 205.13V211.77C158.1 211.837 158.077 211.893 158.03 211.94C157.99 211.98 157.937 212 157.87 212H157.42C157.354 212 157.297 211.98 157.25 211.94C157.21 211.893 157.19 211.837 157.19 211.77V211.35C156.804 211.85 156.254 212.1 155.54 212.1ZM155.75 211.29C156.21 211.29 156.554 211.14 156.78 210.84C157.014 210.533 157.14 210.17 157.16 209.75C157.167 209.677 157.17 209.55 157.17 209.37C157.17 209.183 157.167 209.053 157.16 208.98C157.147 208.587 157.02 208.243 156.78 207.95C156.54 207.657 156.197 207.51 155.75 207.51C155.277 207.51 154.93 207.657 154.71 207.95C154.497 208.243 154.38 208.63 154.36 209.11L154.35 209.4C154.35 210.66 154.817 211.29 155.75 211.29ZM159.738 205.83C159.671 205.83 159.614 205.81 159.568 205.77C159.528 205.723 159.508 205.667 159.508 205.6V205.06C159.508 204.993 159.528 204.937 159.568 204.89C159.614 204.843 159.671 204.82 159.738 204.82H160.368C160.434 204.82 160.491 204.843 160.538 204.89C160.584 204.937 160.608 204.993 160.608 205.06V205.6C160.608 205.667 160.584 205.723 160.538 205.77C160.491 205.81 160.434 205.83 160.368 205.83H159.738ZM159.818 212C159.751 212 159.694 211.98 159.648 211.94C159.608 211.893 159.588 211.837 159.588 211.77V207.03C159.588 206.963 159.608 206.91 159.648 206.87C159.694 206.823 159.751 206.8 159.818 206.8H160.298C160.364 206.8 160.418 206.823 160.458 206.87C160.504 206.91 160.528 206.963 160.528 207.03V211.77C160.528 211.837 160.504 211.893 160.458 211.94C160.418 211.98 160.364 212 160.298 212H159.818ZM163.95 212.1C163.316 212.1 162.826 211.897 162.48 211.49C162.133 211.077 161.96 210.53 161.96 209.85V207.03C161.96 206.963 161.98 206.91 162.02 206.87C162.066 206.823 162.123 206.8 162.19 206.8H162.69C162.756 206.8 162.81 206.823 162.85 206.87C162.896 206.91 162.92 206.963 162.92 207.03V209.8C162.92 210.793 163.353 211.29 164.22 211.29C164.64 211.29 164.973 211.16 165.22 210.9C165.466 210.633 165.59 210.267 165.59 209.8V207.03C165.59 206.963 165.61 206.91 165.65 206.87C165.696 206.823 165.753 206.8 165.82 206.8H166.32C166.386 206.8 166.44 206.823 166.48 206.87C166.52 206.91 166.54 206.963 166.54 207.03V211.77C166.54 211.837 166.52 211.893 166.48 211.94C166.44 211.98 166.386 212 166.32 212H165.85C165.783 212 165.726 211.98 165.68 211.94C165.64 211.893 165.62 211.837 165.62 211.77V211.33C165.433 211.583 165.206 211.777 164.94 211.91C164.673 212.037 164.343 212.1 163.95 212.1ZM168.255 212C168.188 212 168.132 211.98 168.085 211.94C168.045 211.893 168.025 211.837 168.025 211.77V207.03C168.025 206.963 168.045 206.91 168.085 206.87C168.132 206.823 168.188 206.8 168.255 206.8H168.705C168.772 206.8 168.825 206.823 168.865 206.87C168.912 206.91 168.935 206.963 168.935 207.03V207.38C169.282 206.927 169.765 206.7 170.385 206.7C171.125 206.7 171.648 207.007 171.955 207.62C172.115 207.34 172.342 207.117 172.635 206.95C172.928 206.783 173.258 206.7 173.625 206.7C174.172 206.7 174.618 206.887 174.965 207.26C175.312 207.633 175.485 208.173 175.485 208.88V211.77C175.485 211.837 175.462 211.893 175.415 211.94C175.375 211.98 175.322 212 175.255 212H174.785C174.718 212 174.662 211.98 174.615 211.94C174.575 211.893 174.555 211.837 174.555 211.77V208.97C174.555 208.45 174.445 208.077 174.225 207.85C174.012 207.623 173.728 207.51 173.375 207.51C173.062 207.51 172.792 207.627 172.565 207.86C172.338 208.087 172.225 208.457 172.225 208.97V211.77C172.225 211.837 172.202 211.893 172.155 211.94C172.115 211.98 172.062 212 171.995 212H171.525C171.458 212 171.402 211.98 171.355 211.94C171.315 211.893 171.295 211.837 171.295 211.77V208.97C171.295 208.45 171.182 208.077 170.955 207.85C170.735 207.623 170.455 207.51 170.115 207.51C169.802 207.51 169.532 207.627 169.305 207.86C169.078 208.087 168.965 208.453 168.965 208.96V211.77C168.965 211.837 168.942 211.893 168.895 211.94C168.855 211.98 168.802 212 168.735 212H168.255ZM181.463 212.1C180.75 212.1 180.19 211.9 179.783 211.5C179.383 211.093 179.17 210.527 179.143 209.8L179.133 209.4L179.143 209C179.17 208.273 179.383 207.71 179.783 207.31C180.19 206.903 180.75 206.7 181.463 206.7C181.943 206.7 182.35 206.787 182.683 206.96C183.016 207.133 183.263 207.347 183.423 207.6C183.59 207.853 183.68 208.107 183.693 208.36C183.7 208.427 183.68 208.48 183.633 208.52C183.586 208.56 183.53 208.58 183.463 208.58H182.983C182.916 208.58 182.866 208.567 182.833 208.54C182.8 208.513 182.766 208.46 182.733 208.38C182.62 208.06 182.46 207.833 182.253 207.7C182.046 207.56 181.786 207.49 181.473 207.49C181.06 207.49 180.73 207.62 180.483 207.88C180.243 208.133 180.113 208.523 180.093 209.05L180.083 209.41L180.093 209.75C180.113 210.283 180.243 210.677 180.483 210.93C180.723 211.183 181.053 211.31 181.473 211.31C181.786 211.31 182.046 211.243 182.253 211.11C182.46 210.97 182.62 210.74 182.733 210.42C182.766 210.34 182.8 210.287 182.833 210.26C182.866 210.227 182.916 210.21 182.983 210.21H183.463C183.53 210.21 183.586 210.233 183.633 210.28C183.68 210.32 183.7 210.373 183.693 210.44C183.68 210.687 183.59 210.94 183.423 211.2C183.263 211.453 183.016 211.667 182.683 211.84C182.356 212.013 181.95 212.1 181.463 212.1ZM186.331 212.1C186.004 212.1 185.701 212.033 185.421 211.9C185.141 211.767 184.917 211.587 184.751 211.36C184.591 211.127 184.511 210.87 184.511 210.59C184.511 210.15 184.691 209.79 185.051 209.51C185.417 209.223 185.911 209.037 186.531 208.95L188.021 208.74V208.45C188.021 207.77 187.631 207.43 186.851 207.43C186.557 207.43 186.317 207.493 186.131 207.62C185.944 207.74 185.804 207.883 185.711 208.05C185.691 208.11 185.664 208.153 185.631 208.18C185.604 208.207 185.564 208.22 185.511 208.22H185.081C185.021 208.22 184.967 208.2 184.921 208.16C184.881 208.113 184.861 208.06 184.861 208C184.867 207.84 184.941 207.66 185.081 207.46C185.227 207.253 185.451 207.077 185.751 206.93C186.051 206.777 186.421 206.7 186.861 206.7C187.607 206.7 188.144 206.877 188.471 207.23C188.797 207.577 188.961 208.01 188.961 208.53V211.77C188.961 211.837 188.937 211.893 188.891 211.94C188.851 211.98 188.797 212 188.731 212H188.271C188.204 212 188.147 211.98 188.101 211.94C188.061 211.893 188.041 211.837 188.041 211.77V211.34C187.894 211.553 187.681 211.733 187.401 211.88C187.121 212.027 186.764 212.1 186.331 212.1ZM186.541 211.35C186.974 211.35 187.327 211.21 187.601 210.93C187.881 210.643 188.021 210.233 188.021 209.7V209.42L186.861 209.59C186.387 209.657 186.031 209.77 185.791 209.93C185.551 210.083 185.431 210.28 185.431 210.52C185.431 210.787 185.541 210.993 185.761 211.14C185.981 211.28 186.241 211.35 186.541 211.35ZM192.379 212C191.326 212 190.799 211.413 190.799 210.24V207.6H190.019C189.953 207.6 189.896 207.58 189.849 207.54C189.809 207.493 189.789 207.437 189.789 207.37V207.03C189.789 206.963 189.809 206.91 189.849 206.87C189.896 206.823 189.953 206.8 190.019 206.8H190.799V205.13C190.799 205.063 190.819 205.01 190.859 204.97C190.906 204.923 190.963 204.9 191.029 204.9H191.499C191.566 204.9 191.619 204.923 191.659 204.97C191.706 205.01 191.729 205.063 191.729 205.13V206.8H192.969C193.036 206.8 193.089 206.823 193.129 206.87C193.176 206.91 193.199 206.963 193.199 207.03V207.37C193.199 207.437 193.176 207.493 193.129 207.54C193.089 207.58 193.036 207.6 192.969 207.6H191.729V210.17C191.729 210.503 191.786 210.757 191.899 210.93C192.013 211.097 192.199 211.18 192.459 211.18H193.069C193.136 211.18 193.189 211.203 193.229 211.25C193.276 211.29 193.299 211.343 193.299 211.41V211.77C193.299 211.837 193.276 211.893 193.229 211.94C193.189 211.98 193.136 212 193.069 212H192.379ZM195.706 212.1C195.379 212.1 195.076 212.033 194.796 211.9C194.516 211.767 194.292 211.587 194.126 211.36C193.966 211.127 193.886 210.87 193.886 210.59C193.886 210.15 194.066 209.79 194.426 209.51C194.792 209.223 195.286 209.037 195.906 208.95L197.396 208.74V208.45C197.396 207.77 197.006 207.43 196.226 207.43C195.932 207.43 195.692 207.493 195.506 207.62C195.319 207.74 195.179 207.883 195.086 208.05C195.066 208.11 195.039 208.153 195.006 208.18C194.979 208.207 194.939 208.22 194.886 208.22H194.456C194.396 208.22 194.342 208.2 194.296 208.16C194.256 208.113 194.236 208.06 194.236 208C194.242 207.84 194.316 207.66 194.456 207.46C194.602 207.253 194.826 207.077 195.126 206.93C195.426 206.777 195.796 206.7 196.236 206.7C196.982 206.7 197.519 206.877 197.846 207.23C198.172 207.577 198.336 208.01 198.336 208.53V211.77C198.336 211.837 198.312 211.893 198.266 211.94C198.226 211.98 198.172 212 198.106 212H197.646C197.579 212 197.522 211.98 197.476 211.94C197.436 211.893 197.416 211.837 197.416 211.77V211.34C197.269 211.553 197.056 211.733 196.776 211.88C196.496 212.027 196.139 212.1 195.706 212.1ZM195.916 211.35C196.349 211.35 196.702 211.21 196.976 210.93C197.256 210.643 197.396 210.233 197.396 209.7V209.42L196.236 209.59C195.762 209.657 195.406 209.77 195.166 209.93C194.926 210.083 194.806 210.28 194.806 210.52C194.806 210.787 194.916 210.993 195.136 211.14C195.356 211.28 195.616 211.35 195.916 211.35ZM200.013 212C199.947 212 199.89 211.98 199.843 211.94C199.803 211.893 199.783 211.837 199.783 211.77V205.13C199.783 205.063 199.803 205.01 199.843 204.97C199.89 204.923 199.947 204.9 200.013 204.9H200.483C200.55 204.9 200.603 204.923 200.643 204.97C200.69 205.01 200.713 205.063 200.713 205.13V211.77C200.713 211.837 200.69 211.893 200.643 211.94C200.603 211.98 200.55 212 200.483 212H200.013ZM203.115 213.9C203.062 213.9 203.015 213.88 202.975 213.84C202.935 213.8 202.915 213.753 202.915 213.7C202.915 213.653 202.932 213.593 202.965 213.52L203.735 211.69L201.825 207.18C201.792 207.093 201.775 207.037 201.775 207.01C201.775 206.95 201.795 206.9 201.835 206.86C201.875 206.82 201.925 206.8 201.985 206.8H202.475C202.582 206.8 202.662 206.857 202.715 206.97L204.235 210.61L205.795 206.97C205.848 206.857 205.932 206.8 206.045 206.8H206.515C206.575 206.8 206.625 206.82 206.665 206.86C206.705 206.9 206.725 206.947 206.725 207C206.725 207.02 206.708 207.08 206.675 207.18L203.835 213.73C203.782 213.843 203.698 213.9 203.585 213.9H203.115ZM209.366 212.1C208.9 212.1 208.506 212.027 208.186 211.88C207.873 211.727 207.636 211.553 207.476 211.36C207.323 211.167 207.246 211.007 207.246 210.88C207.246 210.813 207.27 210.763 207.316 210.73C207.37 210.69 207.423 210.67 207.476 210.67H207.926C207.993 210.67 208.053 210.703 208.106 210.77C208.266 210.957 208.44 211.103 208.626 211.21C208.813 211.317 209.063 211.37 209.376 211.37C209.723 211.37 210.003 211.303 210.216 211.17C210.436 211.03 210.546 210.84 210.546 210.6C210.546 210.44 210.5 210.31 210.406 210.21C210.32 210.103 210.166 210.013 209.946 209.94C209.733 209.86 209.413 209.773 208.986 209.68C208.406 209.553 207.993 209.37 207.746 209.13C207.506 208.89 207.386 208.58 207.386 208.2C207.386 207.947 207.46 207.707 207.606 207.48C207.76 207.247 207.98 207.06 208.266 206.92C208.56 206.773 208.91 206.7 209.316 206.7C209.743 206.7 210.106 206.77 210.406 206.91C210.706 207.05 210.93 207.217 211.076 207.41C211.23 207.597 211.306 207.753 211.306 207.88C211.306 207.94 211.283 207.99 211.236 208.03C211.196 208.07 211.146 208.09 211.086 208.09H210.666C210.586 208.09 210.52 208.057 210.466 207.99C210.36 207.863 210.266 207.767 210.186 207.7C210.113 207.627 210.003 207.563 209.856 207.51C209.716 207.457 209.536 207.43 209.316 207.43C208.996 207.43 208.75 207.5 208.576 207.64C208.403 207.773 208.316 207.95 208.316 208.17C208.316 208.31 208.353 208.43 208.426 208.53C208.5 208.623 208.64 208.71 208.846 208.79C209.06 208.87 209.366 208.953 209.766 209.04C210.4 209.173 210.846 209.367 211.106 209.62C211.373 209.867 211.506 210.183 211.506 210.57C211.506 210.857 211.423 211.117 211.256 211.35C211.09 211.583 210.843 211.767 210.516 211.9C210.196 212.033 209.813 212.1 209.366 212.1ZM214.684 212C213.631 212 213.104 211.413 213.104 210.24V207.6H212.324C212.257 207.6 212.201 207.58 212.154 207.54C212.114 207.493 212.094 207.437 212.094 207.37V207.03C212.094 206.963 212.114 206.91 212.154 206.87C212.201 206.823 212.257 206.8 212.324 206.8H213.104V205.13C213.104 205.063 213.124 205.01 213.164 204.97C213.211 204.923 213.267 204.9 213.334 204.9H213.804C213.871 204.9 213.924 204.923 213.964 204.97C214.011 205.01 214.034 205.063 214.034 205.13V206.8H215.274C215.341 206.8 215.394 206.823 215.434 206.87C215.481 206.91 215.504 206.963 215.504 207.03V207.37C215.504 207.437 215.481 207.493 215.434 207.54C215.394 207.58 215.341 207.6 215.274 207.6H214.034V210.17C214.034 210.503 214.091 210.757 214.204 210.93C214.317 211.097 214.504 211.18 214.764 211.18H215.374C215.441 211.18 215.494 211.203 215.534 211.25C215.581 211.29 215.604 211.343 215.604 211.41V211.77C215.604 211.837 215.581 211.893 215.534 211.94C215.494 211.98 215.441 212 215.374 212H214.684ZM216.49 212.75C216.437 212.75 216.394 212.73 216.36 212.69C216.334 212.65 216.324 212.6 216.33 212.54L216.56 211.11C216.587 210.917 216.68 210.82 216.84 210.82H217.51C217.557 210.82 217.594 210.837 217.62 210.87C217.654 210.903 217.67 210.943 217.67 210.99C217.67 211.023 217.66 211.077 217.64 211.15L217.11 212.52C217.077 212.6 217.04 212.657 217 212.69C216.96 212.73 216.9 212.75 216.82 212.75H216.49ZM223.442 212.1C222.808 212.1 222.318 211.897 221.972 211.49C221.625 211.077 221.452 210.53 221.452 209.85V207.03C221.452 206.963 221.472 206.91 221.512 206.87C221.558 206.823 221.615 206.8 221.682 206.8H222.182C222.248 206.8 222.302 206.823 222.342 206.87C222.388 206.91 222.412 206.963 222.412 207.03V209.8C222.412 210.793 222.845 211.29 223.712 211.29C224.132 211.29 224.465 211.16 224.712 210.9C224.958 210.633 225.082 210.267 225.082 209.8V207.03C225.082 206.963 225.102 206.91 225.142 206.87C225.188 206.823 225.245 206.8 225.312 206.8H225.812C225.878 206.8 225.932 206.823 225.972 206.87C226.012 206.91 226.032 206.963 226.032 207.03V211.77C226.032 211.837 226.012 211.893 225.972 211.94C225.932 211.98 225.878 212 225.812 212H225.342C225.275 212 225.218 211.98 225.172 211.94C225.132 211.893 225.112 211.837 225.112 211.77V211.33C224.925 211.583 224.698 211.777 224.432 211.91C224.165 212.037 223.835 212.1 223.442 212.1ZM229.317 212.1C228.851 212.1 228.457 212.027 228.137 211.88C227.824 211.727 227.587 211.553 227.427 211.36C227.274 211.167 227.197 211.007 227.197 210.88C227.197 210.813 227.221 210.763 227.267 210.73C227.321 210.69 227.374 210.67 227.427 210.67H227.877C227.944 210.67 228.004 210.703 228.057 210.77C228.217 210.957 228.391 211.103 228.577 211.21C228.764 211.317 229.014 211.37 229.327 211.37C229.674 211.37 229.954 211.303 230.167 211.17C230.387 211.03 230.497 210.84 230.497 210.6C230.497 210.44 230.451 210.31 230.357 210.21C230.271 210.103 230.117 210.013 229.897 209.94C229.684 209.86 229.364 209.773 228.937 209.68C228.357 209.553 227.944 209.37 227.697 209.13C227.457 208.89 227.337 208.58 227.337 208.2C227.337 207.947 227.411 207.707 227.557 207.48C227.711 207.247 227.931 207.06 228.217 206.92C228.511 206.773 228.861 206.7 229.267 206.7C229.694 206.7 230.057 206.77 230.357 206.91C230.657 207.05 230.881 207.217 231.027 207.41C231.181 207.597 231.257 207.753 231.257 207.88C231.257 207.94 231.234 207.99 231.187 208.03C231.147 208.07 231.097 208.09 231.037 208.09H230.617C230.537 208.09 230.471 208.057 230.417 207.99C230.311 207.863 230.217 207.767 230.137 207.7C230.064 207.627 229.954 207.563 229.807 207.51C229.667 207.457 229.487 207.43 229.267 207.43C228.947 207.43 228.701 207.5 228.527 207.64C228.354 207.773 228.267 207.95 228.267 208.17C228.267 208.31 228.304 208.43 228.377 208.53C228.451 208.623 228.591 208.71 228.797 208.79C229.011 208.87 229.317 208.953 229.717 209.04C230.351 209.173 230.797 209.367 231.057 209.62C231.324 209.867 231.457 210.183 231.457 210.57C231.457 210.857 231.374 211.117 231.207 211.35C231.041 211.583 230.794 211.767 230.467 211.9C230.147 212.033 229.764 212.1 229.317 212.1ZM232.765 205.83C232.698 205.83 232.642 205.81 232.595 205.77C232.555 205.723 232.535 205.667 232.535 205.6V205.06C232.535 204.993 232.555 204.937 232.595 204.89C232.642 204.843 232.698 204.82 232.765 204.82H233.395C233.462 204.82 233.518 204.843 233.565 204.89C233.612 204.937 233.635 204.993 233.635 205.06V205.6C233.635 205.667 233.612 205.723 233.565 205.77C233.518 205.81 233.462 205.83 233.395 205.83H232.765ZM232.845 212C232.778 212 232.722 211.98 232.675 211.94C232.635 211.893 232.615 211.837 232.615 211.77V207.03C232.615 206.963 232.635 206.91 232.675 206.87C232.722 206.823 232.778 206.8 232.845 206.8H233.325C233.392 206.8 233.445 206.823 233.485 206.87C233.532 206.91 233.555 206.963 233.555 207.03V211.77C233.555 211.837 233.532 211.893 233.485 211.94C233.445 211.98 233.392 212 233.325 212H232.845ZM235.267 212C235.2 212 235.144 211.98 235.097 211.94C235.057 211.893 235.037 211.837 235.037 211.77V207.03C235.037 206.963 235.057 206.91 235.097 206.87C235.144 206.823 235.2 206.8 235.267 206.8H235.737C235.804 206.8 235.857 206.823 235.897 206.87C235.944 206.91 235.967 206.963 235.967 207.03V207.47C236.16 207.223 236.387 207.033 236.647 206.9C236.914 206.767 237.244 206.7 237.637 206.7C238.277 206.7 238.774 206.907 239.127 207.32C239.487 207.727 239.667 208.27 239.667 208.95V211.77C239.667 211.837 239.644 211.893 239.597 211.94C239.557 211.98 239.504 212 239.437 212H238.937C238.87 212 238.814 211.98 238.767 211.94C238.727 211.893 238.707 211.837 238.707 211.77V209C238.707 208.527 238.59 208.16 238.357 207.9C238.13 207.64 237.8 207.51 237.367 207.51C236.947 207.51 236.614 207.643 236.367 207.91C236.12 208.17 235.997 208.533 235.997 209V211.77C235.997 211.837 235.974 211.893 235.927 211.94C235.887 211.98 235.834 212 235.767 212H235.267ZM243.231 214.2C242.685 214.2 242.245 214.107 241.911 213.92C241.578 213.74 241.341 213.533 241.201 213.3C241.061 213.067 240.985 212.857 240.971 212.67C240.965 212.603 240.985 212.547 241.031 212.5C241.085 212.453 241.141 212.43 241.201 212.43H241.681C241.741 212.43 241.791 212.443 241.831 212.47C241.871 212.503 241.905 212.56 241.931 212.64C242.011 212.853 242.141 213.037 242.321 213.19C242.508 213.35 242.795 213.43 243.181 213.43C243.675 213.43 244.038 213.323 244.271 213.11C244.505 212.903 244.621 212.533 244.621 212V211.32C244.448 211.54 244.228 211.717 243.961 211.85C243.695 211.977 243.378 212.04 243.011 212.04C242.305 212.04 241.775 211.817 241.421 211.37C241.075 210.917 240.891 210.343 240.871 209.65L240.861 209.37L240.871 209.1C240.891 208.413 241.078 207.843 241.431 207.39C241.785 206.93 242.311 206.7 243.011 206.7C243.711 206.7 244.258 206.957 244.651 207.47V207.04C244.651 206.973 244.671 206.917 244.711 206.87C244.758 206.823 244.815 206.8 244.881 206.8H245.341C245.408 206.8 245.465 206.823 245.511 206.87C245.558 206.917 245.581 206.973 245.581 207.04V211.89C245.581 213.43 244.798 214.2 243.231 214.2ZM243.211 211.24C243.665 211.24 244.008 211.09 244.241 210.79C244.475 210.49 244.601 210.133 244.621 209.72C244.628 209.66 244.631 209.543 244.631 209.37C244.631 209.203 244.628 209.09 244.621 209.03C244.601 208.617 244.475 208.26 244.241 207.96C244.015 207.66 243.671 207.51 243.211 207.51C242.738 207.51 242.395 207.657 242.181 207.95C241.968 208.243 241.851 208.63 241.831 209.11L241.821 209.37L241.831 209.64C241.851 210.113 241.968 210.5 242.181 210.8C242.395 211.093 242.738 211.24 243.211 211.24ZM249.759 212C249.693 212 249.636 211.98 249.589 211.94C249.549 211.893 249.529 211.837 249.529 211.77V205.13C249.529 205.063 249.549 205.01 249.589 204.97C249.636 204.923 249.693 204.9 249.759 204.9H250.229C250.296 204.9 250.349 204.923 250.389 204.97C250.436 205.01 250.459 205.063 250.459 205.13V211.77C250.459 211.837 250.436 211.893 250.389 211.94C250.349 211.98 250.296 212 250.229 212H249.759ZM254.031 212.1C253.344 212.1 252.794 211.89 252.381 211.47C251.974 211.043 251.751 210.463 251.711 209.73L251.701 209.39L251.711 209.06C251.758 208.34 251.984 207.767 252.391 207.34C252.804 206.913 253.348 206.7 254.021 206.7C254.761 206.7 255.334 206.937 255.741 207.41C256.148 207.877 256.351 208.51 256.351 209.31V209.48C256.351 209.547 256.328 209.603 256.281 209.65C256.241 209.69 256.188 209.71 256.121 209.71H252.661V209.8C252.681 210.233 252.811 210.603 253.051 210.91C253.298 211.21 253.621 211.36 254.021 211.36C254.328 211.36 254.578 211.3 254.771 211.18C254.971 211.053 255.118 210.923 255.211 210.79C255.271 210.71 255.314 210.663 255.341 210.65C255.374 210.63 255.431 210.62 255.511 210.62H256.001C256.061 210.62 256.111 210.637 256.151 210.67C256.191 210.703 256.211 210.75 256.211 210.81C256.211 210.957 256.118 211.133 255.931 211.34C255.751 211.547 255.494 211.727 255.161 211.88C254.834 212.027 254.458 212.1 254.031 212.1ZM255.401 209.02V208.99C255.401 208.53 255.274 208.157 255.021 207.87C254.774 207.577 254.441 207.43 254.021 207.43C253.601 207.43 253.268 207.577 253.021 207.87C252.781 208.157 252.661 208.53 252.661 208.99V209.02H255.401ZM259.181 212C259.008 212 258.884 211.917 258.811 211.75L256.961 207.11L256.941 207.01C256.941 206.95 256.961 206.9 257.001 206.86C257.041 206.82 257.091 206.8 257.151 206.8H257.631C257.744 206.8 257.828 206.857 257.881 206.97L259.401 210.91L260.921 206.97C260.981 206.857 261.061 206.8 261.161 206.8H261.651C261.704 206.8 261.751 206.82 261.791 206.86C261.838 206.9 261.861 206.95 261.861 207.01L261.841 207.11L259.981 211.75C259.908 211.917 259.784 212 259.611 212H259.181ZM264.852 212.1C264.119 212.1 263.549 211.893 263.142 211.48C262.742 211.067 262.529 210.517 262.502 209.83L262.492 209.4L262.502 208.97C262.529 208.29 262.746 207.743 263.152 207.33C263.559 206.91 264.126 206.7 264.852 206.7C265.579 206.7 266.146 206.91 266.552 207.33C266.959 207.743 267.176 208.29 267.202 208.97C267.209 209.043 267.212 209.187 267.212 209.4C267.212 209.613 267.209 209.757 267.202 209.83C267.176 210.517 266.959 211.067 266.552 211.48C266.152 211.893 265.586 212.1 264.852 212.1ZM264.852 211.33C265.272 211.33 265.602 211.197 265.842 210.93C266.089 210.663 266.222 210.28 266.242 209.78C266.249 209.713 266.252 209.587 266.252 209.4C266.252 209.213 266.249 209.087 266.242 209.02C266.222 208.52 266.089 208.137 265.842 207.87C265.602 207.603 265.272 207.47 264.852 207.47C264.432 207.47 264.099 207.603 263.852 207.87C263.606 208.137 263.476 208.52 263.462 209.02L263.452 209.4L263.462 209.78C263.476 210.28 263.606 210.663 263.852 210.93C264.099 211.197 264.432 211.33 264.852 211.33ZM270.595 214.2C270.048 214.2 269.608 214.107 269.275 213.92C268.941 213.74 268.705 213.533 268.565 213.3C268.425 213.067 268.348 212.857 268.335 212.67C268.328 212.603 268.348 212.547 268.395 212.5C268.448 212.453 268.505 212.43 268.565 212.43H269.045C269.105 212.43 269.155 212.443 269.195 212.47C269.235 212.503 269.268 212.56 269.295 212.64C269.375 212.853 269.505 213.037 269.685 213.19C269.871 213.35 270.158 213.43 270.545 213.43C271.038 213.43 271.401 213.323 271.635 213.11C271.868 212.903 271.985 212.533 271.985 212V211.32C271.811 211.54 271.591 211.717 271.325 211.85C271.058 211.977 270.741 212.04 270.375 212.04C269.668 212.04 269.138 211.817 268.785 211.37C268.438 210.917 268.255 210.343 268.235 209.65L268.225 209.37L268.235 209.1C268.255 208.413 268.441 207.843 268.795 207.39C269.148 206.93 269.675 206.7 270.375 206.7C271.075 206.7 271.621 206.957 272.015 207.47V207.04C272.015 206.973 272.035 206.917 272.075 206.87C272.121 206.823 272.178 206.8 272.245 206.8H272.705C272.771 206.8 272.828 206.823 272.875 206.87C272.921 206.917 272.945 206.973 272.945 207.04V211.89C272.945 213.43 272.161 214.2 270.595 214.2ZM270.575 211.24C271.028 211.24 271.371 211.09 271.605 210.79C271.838 210.49 271.965 210.133 271.985 209.72C271.991 209.66 271.995 209.543 271.995 209.37C271.995 209.203 271.991 209.09 271.985 209.03C271.965 208.617 271.838 208.26 271.605 207.96C271.378 207.66 271.035 207.51 270.575 207.51C270.101 207.51 269.758 207.657 269.545 207.95C269.331 208.243 269.215 208.63 269.195 209.11L269.185 209.37L269.195 209.64C269.215 210.113 269.331 210.5 269.545 210.8C269.758 211.093 270.101 211.24 270.575 211.24ZM274.671 212C274.605 212 274.548 211.98 274.501 211.94C274.461 211.893 274.441 211.837 274.441 211.77V205.13C274.441 205.063 274.461 205.01 274.501 204.97C274.548 204.923 274.605 204.9 274.671 204.9H275.141C275.208 204.9 275.261 204.923 275.301 204.97C275.348 205.01 275.371 205.063 275.371 205.13V211.77C275.371 211.837 275.348 211.893 275.301 211.94C275.261 211.98 275.208 212 275.141 212H274.671ZM278.803 212.1C278.17 212.1 277.68 211.897 277.333 211.49C276.986 211.077 276.813 210.53 276.813 209.85V207.03C276.813 206.963 276.833 206.91 276.873 206.87C276.92 206.823 276.976 206.8 277.043 206.8H277.543C277.61 206.8 277.663 206.823 277.703 206.87C277.75 206.91 277.773 206.963 277.773 207.03V209.8C277.773 210.793 278.206 211.29 279.073 211.29C279.493 211.29 279.826 211.16 280.073 210.9C280.32 210.633 280.443 210.267 280.443 209.8V207.03C280.443 206.963 280.463 206.91 280.503 206.87C280.55 206.823 280.606 206.8 280.673 206.8H281.173C281.24 206.8 281.293 206.823 281.333 206.87C281.373 206.91 281.393 206.963 281.393 207.03V211.77C281.393 211.837 281.373 211.893 281.333 211.94C281.293 211.98 281.24 212 281.173 212H280.703C280.636 212 280.58 211.98 280.533 211.94C280.493 211.893 280.473 211.837 280.473 211.77V211.33C280.286 211.583 280.06 211.777 279.793 211.91C279.526 212.037 279.196 212.1 278.803 212.1ZM284.979 212.1C284.265 212.1 283.705 211.9 283.299 211.5C282.899 211.093 282.685 210.527 282.659 209.8L282.649 209.4L282.659 209C282.685 208.273 282.899 207.71 283.299 207.31C283.705 206.903 284.265 206.7 284.979 206.7C285.459 206.7 285.865 206.787 286.199 206.96C286.532 207.133 286.779 207.347 286.939 207.6C287.105 207.853 287.195 208.107 287.209 208.36C287.215 208.427 287.195 208.48 287.149 208.52C287.102 208.56 287.045 208.58 286.979 208.58H286.499C286.432 208.58 286.382 208.567 286.349 208.54C286.315 208.513 286.282 208.46 286.249 208.38C286.135 208.06 285.975 207.833 285.769 207.7C285.562 207.56 285.302 207.49 284.989 207.49C284.575 207.49 284.245 207.62 283.999 207.88C283.759 208.133 283.629 208.523 283.609 209.05L283.599 209.41L283.609 209.75C283.629 210.283 283.759 210.677 283.999 210.93C284.239 211.183 284.569 211.31 284.989 211.31C285.302 211.31 285.562 211.243 285.769 211.11C285.975 210.97 286.135 210.74 286.249 210.42C286.282 210.34 286.315 210.287 286.349 210.26C286.382 210.227 286.432 210.21 286.499 210.21H286.979C287.045 210.21 287.102 210.233 287.149 210.28C287.195 210.32 287.215 210.373 287.209 210.44C287.195 210.687 287.105 210.94 286.939 211.2C286.779 211.453 286.532 211.667 286.199 211.84C285.872 212.013 285.465 212.1 284.979 212.1ZM290.526 212.1C289.793 212.1 289.223 211.893 288.816 211.48C288.416 211.067 288.203 210.517 288.176 209.83L288.166 209.4L288.176 208.97C288.203 208.29 288.42 207.743 288.826 207.33C289.233 206.91 289.8 206.7 290.526 206.7C291.253 206.7 291.82 206.91 292.226 207.33C292.633 207.743 292.85 208.29 292.876 208.97C292.883 209.043 292.886 209.187 292.886 209.4C292.886 209.613 292.883 209.757 292.876 209.83C292.85 210.517 292.633 211.067 292.226 211.48C291.826 211.893 291.26 212.1 290.526 212.1ZM290.526 211.33C290.946 211.33 291.276 211.197 291.516 210.93C291.763 210.663 291.896 210.28 291.916 209.78C291.923 209.713 291.926 209.587 291.926 209.4C291.926 209.213 291.923 209.087 291.916 209.02C291.896 208.52 291.763 208.137 291.516 207.87C291.276 207.603 290.946 207.47 290.526 207.47C290.106 207.47 289.773 207.603 289.526 207.87C289.28 208.137 289.15 208.52 289.136 209.02L289.126 209.4L289.136 209.78C289.15 210.28 289.28 210.663 289.526 210.93C289.773 211.197 290.106 211.33 290.526 211.33ZM295.938 212.1C295.472 212.1 295.078 212.027 294.758 211.88C294.445 211.727 294.208 211.553 294.048 211.36C293.895 211.167 293.818 211.007 293.818 210.88C293.818 210.813 293.842 210.763 293.888 210.73C293.942 210.69 293.995 210.67 294.048 210.67H294.498C294.565 210.67 294.625 210.703 294.678 210.77C294.838 210.957 295.012 211.103 295.198 211.21C295.385 211.317 295.635 211.37 295.948 211.37C296.295 211.37 296.575 211.303 296.788 211.17C297.008 211.03 297.118 210.84 297.118 210.6C297.118 210.44 297.072 210.31 296.978 210.21C296.892 210.103 296.738 210.013 296.518 209.94C296.305 209.86 295.985 209.773 295.558 209.68C294.978 209.553 294.565 209.37 294.318 209.13C294.078 208.89 293.958 208.58 293.958 208.2C293.958 207.947 294.032 207.707 294.178 207.48C294.332 207.247 294.552 207.06 294.838 206.92C295.132 206.773 295.482 206.7 295.888 206.7C296.315 206.7 296.678 206.77 296.978 206.91C297.278 207.05 297.502 207.217 297.648 207.41C297.802 207.597 297.878 207.753 297.878 207.88C297.878 207.94 297.855 207.99 297.808 208.03C297.768 208.07 297.718 208.09 297.658 208.09H297.238C297.158 208.09 297.092 208.057 297.038 207.99C296.932 207.863 296.838 207.767 296.758 207.7C296.685 207.627 296.575 207.563 296.428 207.51C296.288 207.457 296.108 207.43 295.888 207.43C295.568 207.43 295.322 207.5 295.148 207.64C294.975 207.773 294.888 207.95 294.888 208.17C294.888 208.31 294.925 208.43 294.998 208.53C295.072 208.623 295.212 208.71 295.418 208.79C295.632 208.87 295.938 208.953 296.338 209.04C296.972 209.173 297.418 209.367 297.678 209.62C297.945 209.867 298.078 210.183 298.078 210.57C298.078 210.857 297.995 211.117 297.828 211.35C297.662 211.583 297.415 211.767 297.088 211.9C296.768 212.033 296.385 212.1 295.938 212.1ZM300.686 212.1C300.359 212.1 300.056 212.033 299.776 211.9C299.496 211.767 299.273 211.587 299.106 211.36C298.946 211.127 298.866 210.87 298.866 210.59C298.866 210.15 299.046 209.79 299.406 209.51C299.773 209.223 300.266 209.037 300.886 208.95L302.376 208.74V208.45C302.376 207.77 301.986 207.43 301.206 207.43C300.913 207.43 300.673 207.493 300.486 207.62C300.299 207.74 300.159 207.883 300.066 208.05C300.046 208.11 300.019 208.153 299.986 208.18C299.959 208.207 299.919 208.22 299.866 208.22H299.436C299.376 208.22 299.323 208.2 299.276 208.16C299.236 208.113 299.216 208.06 299.216 208C299.223 207.84 299.296 207.66 299.436 207.46C299.583 207.253 299.806 207.077 300.106 206.93C300.406 206.777 300.776 206.7 301.216 206.7C301.963 206.7 302.499 206.877 302.826 207.23C303.153 207.577 303.316 208.01 303.316 208.53V211.77C303.316 211.837 303.293 211.893 303.246 211.94C303.206 211.98 303.153 212 303.086 212H302.626C302.559 212 302.503 211.98 302.456 211.94C302.416 211.893 302.396 211.837 302.396 211.77V211.34C302.249 211.553 302.036 211.733 301.756 211.88C301.476 212.027 301.119 212.1 300.686 212.1ZM300.896 211.35C301.329 211.35 301.683 211.21 301.956 210.93C302.236 210.643 302.376 210.233 302.376 209.7V209.42L301.216 209.59C300.743 209.657 300.386 209.77 300.146 209.93C299.906 210.083 299.786 210.28 299.786 210.52C299.786 210.787 299.896 210.993 300.116 211.14C300.336 211.28 300.596 211.35 300.896 211.35ZM304.984 212C304.917 212 304.86 211.98 304.814 211.94C304.774 211.893 304.754 211.837 304.754 211.77V207.03C304.754 206.963 304.774 206.91 304.814 206.87C304.86 206.823 304.917 206.8 304.984 206.8H305.454C305.52 206.8 305.574 206.823 305.614 206.87C305.66 206.91 305.684 206.963 305.684 207.03V207.47C305.877 207.223 306.104 207.033 306.364 206.9C306.63 206.767 306.96 206.7 307.354 206.7C307.994 206.7 308.49 206.907 308.844 207.32C309.204 207.727 309.384 208.27 309.384 208.95V211.77C309.384 211.837 309.36 211.893 309.314 211.94C309.274 211.98 309.22 212 309.154 212H308.654C308.587 212 308.53 211.98 308.484 211.94C308.444 211.893 308.424 211.837 308.424 211.77V209C308.424 208.527 308.307 208.16 308.074 207.9C307.847 207.64 307.517 207.51 307.084 207.51C306.664 207.51 306.33 207.643 306.084 207.91C305.837 208.17 305.714 208.533 305.714 209V211.77C305.714 211.837 305.69 211.893 305.644 211.94C305.604 211.98 305.55 212 305.484 212H304.984Z" fill="white"/>
</g>
</svg>
