<svg width="65" height="46" viewBox="0 0 65 46" fill="none" xmlns="http://www.w3.org/2000/svg">
<path d="M10.9531 9.45312C12.9219 9.45312 14.6406 9.9375 16.1094 10.9062C16.9062 11.4531 17.7188 12.25 18.5469 13.2969V10.1328H22.4375V32.9609C22.4375 36.1484 21.9688 38.6641 21.0312 40.5078C19.2812 43.9141 15.9766 45.6172 11.1172 45.6172C8.41406 45.6172 6.14062 45.0078 4.29688 43.7891C2.45312 42.5859 1.42188 40.6953 1.20312 38.1172H5.49219C5.69531 39.2422 6.10156 40.1094 6.71094 40.7188C7.66406 41.6562 9.16406 42.125 11.2109 42.125C14.4453 42.125 16.5625 40.9844 17.5625 38.7031C18.1562 37.3594 18.4297 34.9609 18.3828 31.5078C17.5391 32.7891 16.5234 33.7422 15.3359 34.3672C14.1484 34.9922 12.5781 35.3047 10.625 35.3047C7.90625 35.3047 5.52344 34.3438 3.47656 32.4219C1.44531 30.4844 0.429688 27.2891 0.429688 22.8359C0.429688 18.6328 1.45312 15.3516 3.5 12.9922C5.5625 10.6328 8.04688 9.45312 10.9531 9.45312ZM18.5469 22.3438C18.5469 19.2344 17.9062 16.9297 16.625 15.4297C15.3438 13.9297 13.7109 13.1797 11.7266 13.1797C8.75781 13.1797 6.72656 14.5703 5.63281 17.3516C5.05469 18.8359 4.76562 20.7812 4.76562 23.1875C4.76562 26.0156 5.33594 28.1719 6.47656 29.6562C7.63281 31.125 9.17969 31.8594 11.1172 31.8594C14.1484 31.8594 16.2812 30.4922 17.5156 27.7578C18.2031 26.2109 18.5469 24.4062 18.5469 22.3438ZM38.4922 9.17188C41.3203 9.17188 43.6172 9.85938 45.3828 11.2344C47.1641 12.6094 48.2344 14.9766 48.5938 18.3359H44.4922C44.2422 16.7891 43.6719 15.5078 42.7812 14.4922C41.8906 13.4609 40.4609 12.9453 38.4922 12.9453C35.8047 12.9453 33.8828 14.2578 32.7266 16.8828C31.9766 18.5859 31.6016 20.6875 31.6016 23.1875C31.6016 25.7031 32.1328 27.8203 33.1953 29.5391C34.2578 31.2578 35.9297 32.1172 38.2109 32.1172C39.9609 32.1172 41.3438 31.5859 42.3594 30.5234C43.3906 29.4453 44.1016 27.9766 44.4922 26.1172H48.5938C48.125 29.4453 46.9531 31.8828 45.0781 33.4297C43.2031 34.9609 40.8047 35.7266 37.8828 35.7266C34.6016 35.7266 31.9844 34.5312 30.0312 32.1406C28.0781 29.7344 27.1016 26.7344 27.1016 23.1406C27.1016 18.7344 28.1719 15.3047 30.3125 12.8516C32.4531 10.3984 35.1797 9.17188 38.4922 9.17188ZM52.9297 0.570312H57.1484V35H52.9297V0.570312ZM60.1016 13.4375H64.4844V18.3125H60.1016V13.4375Z" fill="black"/>
</svg>
