<svg width="245" height="245" viewBox="0 0 245 245" fill="none" xmlns="http://www.w3.org/2000/svg">
<rect width="245" height="245" rx="20" fill="#8C8C8C"/>
<path d="M71.6406 91.0604L84.2899 83.6196" stroke="white"/>
<path d="M73.127 94.4092L86.1483 86.5964" stroke="white"/>
<path d="M73.127 55.7166L86.5203 63.5293" stroke="white"/>
<path d="M71.2676 59.0652L84.2889 66.5059" stroke="white"/>
<path d="M102.891 39.7192V54.6007" stroke="white"/>
<path d="M106.238 97.7571L120.376 89.5723" stroke="white"/>
<path d="M136.374 91.0607L145.675 79.1555" stroke="white"/>
<path d="M137.118 95.5244L149.767 79.8988L143.071 67.9937" stroke="white"/>
<path d="M134.885 63.1575L120.004 64.6456" stroke="white"/>
<path d="M102.891 58.321L117.028 66.8779" stroke="white"/>
<path d="M123.725 127.52L137.862 119.335" stroke="white"/>
<path d="M123.354 143.89L137.863 152.447" stroke="white"/>
<path d="M94.707 131.241L104.008 119.708" stroke="white"/>
<path d="M153.861 124.172L167.255 116.359" stroke="white"/>
<path d="M155.719 127.52L169.112 119.335" stroke="white"/>
<path d="M155.719 143.518L169.484 151.702" stroke="white"/>
<path d="M137.863 171.049V156.539" stroke="white"/>
<path d="M154.232 147.239L167.626 155.051" stroke="white"/>
<path d="M102.89 95.5252L84.2881 85.4802V64.6461L102.89 54.6011L120.004 64.6461V85.4802M102.89 95.5252L120.004 85.4802M102.89 95.5252V115.243M120.004 85.4802L137.117 95.5252L137.861 115.243L120.004 124.916L102.89 115.243M102.89 115.243L90.6127 130.869L97.3094 142.774" stroke="white"/>
<path d="M137.862 115.242L155.719 125.287V146.121L137.862 156.538L120.004 145.749V124.915" stroke="white"/>
<path d="M120.004 145.749L105.494 147.609" stroke="white"/>
<path d="M61.1828 59.5597C59.7855 59.5597 58.7028 59.197 57.9348 58.4717C57.1775 57.7357 56.7775 56.6317 56.7348 55.1597C56.7241 54.8397 56.7188 54.3863 56.7188 53.7997C56.7188 53.213 56.7241 52.765 56.7348 52.4557C56.7775 51.0157 57.1935 49.9223 57.9828 49.1757C58.7721 48.4183 59.8388 48.0397 61.1828 48.0397C62.5161 48.0397 63.5775 48.4183 64.3668 49.1757C65.1561 49.9223 65.5721 51.0157 65.6148 52.4557C65.6361 53.0743 65.6468 53.5223 65.6468 53.7997C65.6468 54.0663 65.6361 54.5197 65.6148 55.1597C65.5721 56.6317 65.1668 57.7357 64.3988 58.4717C63.6415 59.197 62.5695 59.5597 61.1828 59.5597ZM61.1828 58.1997C62.0255 58.1997 62.6975 57.9437 63.1988 57.4317C63.7001 56.9197 63.9721 56.1357 64.0148 55.0797C64.0361 54.4397 64.0468 54.013 64.0468 53.7997C64.0468 53.565 64.0361 53.1383 64.0148 52.5197C63.9721 51.4637 63.6948 50.6797 63.1828 50.1677C62.6815 49.6557 62.0148 49.3997 61.1828 49.3997C60.3401 49.3997 59.6628 49.6557 59.1508 50.1677C58.6495 50.6797 58.3775 51.4637 58.3348 52.5197C58.3241 52.829 58.3188 53.2557 58.3188 53.7997C58.3188 54.333 58.3241 54.7597 58.3348 55.0797C58.3775 56.1357 58.6495 56.9197 59.1508 57.4317C59.6628 57.9437 60.3401 58.1997 61.1828 58.1997Z" fill="white"/>
<path d="M174.907 116.422C173.51 116.422 172.427 116.06 171.659 115.334C170.902 114.598 170.502 113.494 170.459 112.022C170.449 111.702 170.443 111.249 170.443 110.662C170.443 110.076 170.449 109.628 170.459 109.318C170.502 107.878 170.918 106.785 171.707 106.038C172.497 105.281 173.563 104.902 174.907 104.902C176.241 104.902 177.302 105.281 178.091 106.038C178.881 106.785 179.297 107.878 179.339 109.318C179.361 109.937 179.371 110.385 179.371 110.662C179.371 110.929 179.361 111.382 179.339 112.022C179.297 113.494 178.891 114.598 178.123 115.334C177.366 116.06 176.294 116.422 174.907 116.422ZM174.907 115.062C175.75 115.062 176.422 114.806 176.923 114.294C177.425 113.782 177.697 112.998 177.739 111.942C177.761 111.302 177.771 110.876 177.771 110.662C177.771 110.428 177.761 110.001 177.739 109.382C177.697 108.326 177.419 107.542 176.907 107.03C176.406 106.518 175.739 106.262 174.907 106.262C174.065 106.262 173.387 106.518 172.875 107.03C172.374 107.542 172.102 108.326 172.059 109.382C172.049 109.692 172.043 110.118 172.043 110.662C172.043 111.196 172.049 111.622 172.059 111.942C172.102 112.998 172.374 113.782 172.875 114.294C173.387 114.806 174.065 115.062 174.907 115.062Z" fill="white"/>
<path d="M174.907 162.946C173.51 162.946 172.427 162.584 171.659 161.858C170.902 161.122 170.502 160.018 170.459 158.546C170.449 158.226 170.443 157.773 170.443 157.186C170.443 156.6 170.449 156.152 170.459 155.842C170.502 154.402 170.918 153.309 171.707 152.562C172.497 151.805 173.563 151.426 174.907 151.426C176.241 151.426 177.302 151.805 178.091 152.562C178.881 153.309 179.297 154.402 179.339 155.842C179.361 156.461 179.371 156.909 179.371 157.186C179.371 157.453 179.361 157.906 179.339 158.546C179.297 160.018 178.891 161.122 178.123 161.858C177.366 162.584 176.294 162.946 174.907 162.946ZM174.907 161.586C175.75 161.586 176.422 161.33 176.923 160.818C177.425 160.306 177.697 159.522 177.739 158.466C177.761 157.826 177.771 157.4 177.771 157.186C177.771 156.952 177.761 156.525 177.739 155.906C177.697 154.85 177.419 154.066 176.907 153.554C176.406 153.042 175.739 152.786 174.907 152.786C174.065 152.786 173.387 153.042 172.875 153.554C172.374 154.066 172.102 154.85 172.059 155.906C172.049 156.216 172.043 156.642 172.043 157.186C172.043 157.72 172.049 158.146 172.059 158.466C172.102 159.522 172.374 160.306 172.875 160.818C173.387 161.33 174.065 161.586 174.907 161.586Z" fill="white"/>
<path d="M62.9054 104.36C61.5081 104.36 60.4254 103.998 59.6574 103.272C58.9001 102.536 58.5001 101.432 58.4574 99.9602C58.4468 99.6402 58.4414 99.1869 58.4414 98.6002C58.4414 98.0135 58.4468 97.5655 58.4574 97.2562C58.5001 95.8162 58.9161 94.7229 59.7054 93.9762C60.4948 93.2189 61.5614 92.8402 62.9054 92.8402C64.2388 92.8402 65.3001 93.2189 66.0894 93.9762C66.8788 94.7229 67.2948 95.8162 67.3374 97.2562C67.3588 97.8749 67.3694 98.3229 67.3694 98.6002C67.3694 98.8669 67.3588 99.3202 67.3374 99.9602C67.2948 101.432 66.8894 102.536 66.1214 103.272C65.3641 103.998 64.2921 104.36 62.9054 104.36ZM62.9054 103C63.7481 103 64.4201 102.744 64.9214 102.232C65.4228 101.72 65.6948 100.936 65.7374 99.8802C65.7588 99.2402 65.7694 98.8135 65.7694 98.6002C65.7694 98.3655 65.7588 97.9389 65.7374 97.3202C65.6948 96.2642 65.4174 95.4802 64.9054 94.9682C64.4041 94.4562 63.7374 94.2002 62.9054 94.2002C62.0628 94.2002 61.3854 94.4562 60.8734 94.9682C60.3721 95.4802 60.1001 96.2642 60.0574 97.3202C60.0468 97.6295 60.0414 98.0562 60.0414 98.6002C60.0414 99.1335 60.0468 99.5602 60.0574 99.8802C60.1001 100.936 60.3721 101.72 60.8734 102.232C61.3854 102.744 62.0628 103 62.9054 103Z" fill="white"/>
<path d="M131.83 188.793C130.401 188.793 129.313 188.409 128.566 187.641C127.83 186.873 127.436 185.811 127.382 184.457C127.372 184.169 127.366 183.699 127.366 183.049C127.366 182.387 127.372 181.907 127.382 181.609C127.436 180.265 127.836 179.209 128.582 178.441C129.329 177.662 130.412 177.273 131.83 177.273C132.78 177.273 133.585 177.443 134.246 177.785C134.908 178.115 135.409 178.553 135.75 179.097C136.092 179.641 136.278 180.222 136.31 180.841V180.873C136.31 180.958 136.273 181.033 136.198 181.097C136.134 181.15 136.06 181.177 135.974 181.177H135.094C134.881 181.177 134.748 181.054 134.694 180.809C134.513 180.009 134.188 179.449 133.718 179.129C133.249 178.798 132.62 178.633 131.83 178.633C129.996 178.633 129.046 179.651 128.982 181.689C128.972 181.977 128.966 182.419 128.966 183.017C128.966 183.614 128.972 184.067 128.982 184.377C129.046 186.414 129.996 187.433 131.83 187.433C132.62 187.433 133.249 187.273 133.718 186.953C134.198 186.622 134.524 186.057 134.694 185.257C134.726 185.118 134.774 185.022 134.838 184.969C134.902 184.915 134.988 184.889 135.094 184.889H135.974C136.07 184.889 136.15 184.921 136.214 184.985C136.289 185.038 136.321 185.113 136.31 185.209C136.278 185.838 136.092 186.425 135.75 186.969C135.409 187.513 134.908 187.955 134.246 188.297C133.585 188.627 132.78 188.793 131.83 188.793ZM138.823 188.633C138.716 188.633 138.625 188.601 138.551 188.537C138.487 188.462 138.455 188.371 138.455 188.265V177.817C138.455 177.699 138.487 177.609 138.551 177.545C138.625 177.47 138.716 177.433 138.823 177.433H139.639C139.756 177.433 139.847 177.47 139.911 177.545C139.985 177.609 140.023 177.699 140.023 177.817V182.233H145.527V177.817C145.527 177.699 145.559 177.609 145.623 177.545C145.697 177.47 145.788 177.433 145.895 177.433H146.711C146.828 177.433 146.919 177.47 146.983 177.545C147.057 177.609 147.095 177.699 147.095 177.817V188.265C147.095 188.371 147.057 188.462 146.983 188.537C146.908 188.601 146.817 188.633 146.711 188.633H145.895C145.788 188.633 145.697 188.601 145.623 188.537C145.559 188.462 145.527 188.371 145.527 188.265V183.673H140.023V188.265C140.023 188.371 139.985 188.462 139.911 188.537C139.836 188.601 139.745 188.633 139.639 188.633H138.823Z" fill="white"/>
<path d="M97.3683 35.4359C95.939 35.4359 94.851 35.0519 94.1043 34.2839C93.3683 33.5159 92.9737 32.4545 92.9203 31.0999C92.9097 30.8119 92.9043 30.3425 92.9043 29.6919C92.9043 29.0305 92.9097 28.5505 92.9203 28.2519C92.9737 26.9079 93.3737 25.8519 94.1203 25.0839C94.867 24.3052 95.9497 23.9159 97.3683 23.9159C98.3177 23.9159 99.123 24.0865 99.7843 24.4279C100.446 24.7585 100.947 25.1959 101.288 25.7399C101.63 26.2839 101.816 26.8652 101.848 27.4839V27.5159C101.848 27.6012 101.811 27.6759 101.736 27.7399C101.672 27.7932 101.598 27.8199 101.512 27.8199H100.632C100.419 27.8199 100.286 27.6972 100.232 27.4519C100.051 26.6519 99.7257 26.0919 99.2563 25.7719C98.787 25.4412 98.1577 25.2759 97.3683 25.2759C95.5337 25.2759 94.5843 26.2945 94.5203 28.3319C94.5097 28.6199 94.5043 29.0625 94.5043 29.6599C94.5043 30.2572 94.5097 30.7105 94.5203 31.0199C94.5843 33.0572 95.5337 34.0759 97.3683 34.0759C98.1577 34.0759 98.787 33.9159 99.2563 33.5959C99.7363 33.2652 100.062 32.6999 100.232 31.8999C100.264 31.7612 100.312 31.6652 100.376 31.6119C100.44 31.5585 100.526 31.5319 100.632 31.5319H101.512C101.608 31.5319 101.688 31.5639 101.752 31.6279C101.827 31.6812 101.859 31.7559 101.848 31.8519C101.816 32.4812 101.63 33.0679 101.288 33.6119C100.947 34.1559 100.446 34.5985 99.7843 34.9399C99.123 35.2705 98.3177 35.4359 97.3683 35.4359ZM104.361 35.2759C104.254 35.2759 104.163 35.2439 104.089 35.1799C104.025 35.1052 103.993 35.0145 103.993 34.9079V24.4599C103.993 24.3425 104.025 24.2519 104.089 24.1879C104.163 24.1132 104.254 24.0759 104.361 24.0759H105.177C105.294 24.0759 105.385 24.1132 105.449 24.1879C105.523 24.2519 105.561 24.3425 105.561 24.4599V28.8759H111.065V24.4599C111.065 24.3425 111.097 24.2519 111.161 24.1879C111.235 24.1132 111.326 24.0759 111.433 24.0759H112.249C112.366 24.0759 112.457 24.1132 112.521 24.1879C112.595 24.2519 112.633 24.3425 112.633 24.4599V34.9079C112.633 35.0145 112.595 35.1052 112.521 35.1799C112.446 35.2439 112.355 35.2759 112.249 35.2759H111.433C111.326 35.2759 111.235 35.2439 111.161 35.1799C111.097 35.1052 111.065 35.0145 111.065 34.9079V30.3159H105.561V34.9079C105.561 35.0145 105.523 35.1052 105.449 35.1799C105.374 35.2439 105.283 35.2759 105.177 35.2759H104.361Z" fill="white"/>
<path d="M140.228 64.5684C140.121 64.5684 140.03 64.5364 139.956 64.4724C139.892 64.3977 139.86 64.307 139.86 64.2004V53.7524C139.86 53.635 139.892 53.5444 139.956 53.4804C140.03 53.4057 140.121 53.3684 140.228 53.3684H140.964C141.156 53.3684 141.289 53.443 141.364 53.5924L146.676 61.7524V53.7524C146.676 53.635 146.708 53.5444 146.772 53.4804C146.846 53.4057 146.937 53.3684 147.044 53.3684H147.812C147.929 53.3684 148.02 53.4057 148.084 53.4804C148.158 53.5444 148.196 53.635 148.196 53.7524V64.1844C148.196 64.291 148.158 64.3817 148.084 64.4564C148.02 64.531 147.934 64.5684 147.828 64.5684H147.06C146.9 64.5684 146.772 64.4937 146.676 64.3444L141.38 56.2644V64.2004C141.38 64.307 141.342 64.3977 141.268 64.4724C141.193 64.5364 141.102 64.5684 140.996 64.5684H140.228ZM151.353 64.5684C151.246 64.5684 151.155 64.5364 151.081 64.4724C151.017 64.3977 150.985 64.307 150.985 64.2004V53.7524C150.985 53.635 151.017 53.5444 151.081 53.4804C151.155 53.4057 151.246 53.3684 151.353 53.3684H152.169C152.286 53.3684 152.377 53.4057 152.441 53.4804C152.515 53.5444 152.553 53.635 152.553 53.7524V58.1684H158.057V53.7524C158.057 53.635 158.089 53.5444 158.153 53.4804C158.227 53.4057 158.318 53.3684 158.425 53.3684H159.241C159.358 53.3684 159.449 53.4057 159.513 53.4804C159.587 53.5444 159.625 53.635 159.625 53.7524V64.2004C159.625 64.307 159.587 64.3977 159.513 64.4724C159.438 64.5364 159.347 64.5684 159.241 64.5684H158.425C158.318 64.5684 158.227 64.5364 158.153 64.4724C158.089 64.3977 158.057 64.307 158.057 64.2004V59.6084H152.553V64.2004C152.553 64.307 152.515 64.3977 152.441 64.4724C152.366 64.5364 152.275 64.5684 152.169 64.5684H151.353Z" fill="white"/>
<path d="M79.9202 157.617C79.8135 157.617 79.7228 157.585 79.6482 157.521C79.5842 157.446 79.5522 157.355 79.5522 157.249V146.801C79.5522 146.683 79.5842 146.593 79.6482 146.529C79.7228 146.454 79.8135 146.417 79.9202 146.417H80.7362C80.8535 146.417 80.9442 146.454 81.0082 146.529C81.0828 146.593 81.1202 146.683 81.1202 146.801V151.217H86.6242V146.801C86.6242 146.683 86.6562 146.593 86.7202 146.529C86.7948 146.454 86.8855 146.417 86.9922 146.417H87.8082C87.9255 146.417 88.0162 146.454 88.0802 146.529C88.1548 146.593 88.1922 146.683 88.1922 146.801V157.249C88.1922 157.355 88.1548 157.446 88.0802 157.521C88.0055 157.585 87.9148 157.617 87.8082 157.617H86.9922C86.8855 157.617 86.7948 157.585 86.7202 157.521C86.6562 157.446 86.6242 157.355 86.6242 157.249V152.657H81.1202V157.249C81.1202 157.355 81.0828 157.446 81.0082 157.521C80.9335 157.585 80.8428 157.617 80.7362 157.617H79.9202ZM91.342 157.617C91.2354 157.617 91.1447 157.585 91.07 157.521C91.006 157.446 90.974 157.355 90.974 157.249V146.801C90.974 146.683 91.006 146.593 91.07 146.529C91.1447 146.454 91.2354 146.417 91.342 146.417H92.078C92.27 146.417 92.4034 146.491 92.478 146.641L97.79 154.801V146.801C97.79 146.683 97.822 146.593 97.886 146.529C97.9607 146.454 98.0514 146.417 98.158 146.417H98.926C99.0434 146.417 99.134 146.454 99.198 146.529C99.2727 146.593 99.31 146.683 99.31 146.801V157.233C99.31 157.339 99.2727 157.43 99.198 157.505C99.134 157.579 99.0487 157.617 98.942 157.617H98.174C98.014 157.617 97.886 157.542 97.79 157.393L92.494 149.313V157.249C92.494 157.355 92.4567 157.446 92.382 157.521C92.3074 157.585 92.2167 157.617 92.11 157.617H91.342Z" fill="white"/>
<path d="M82.68 229C82.5333 229 82.4133 228.953 82.32 228.86C82.2267 228.767 82.18 228.647 82.18 228.5V219.1C82.18 218.953 82.2267 218.833 82.32 218.74C82.4133 218.647 82.5333 218.6 82.68 218.6H84.86C85.0067 218.6 85.1267 218.647 85.22 218.74C85.3133 218.833 85.36 218.953 85.36 219.1V219.78C85.6667 219.38 86.0733 219.053 86.58 218.8C87.1 218.533 87.68 218.4 88.32 218.4C89.7867 218.4 90.8 218.973 91.36 220.12C91.68 219.613 92.1267 219.2 92.7 218.88C93.2733 218.56 93.8867 218.4 94.54 218.4C95.6333 218.4 96.52 218.773 97.2 219.52C97.8933 220.253 98.24 221.353 98.24 222.82V228.5C98.24 228.633 98.1933 228.753 98.1 228.86C98.0067 228.953 97.8867 229 97.74 229H95.42C95.2733 229 95.1467 228.953 95.04 228.86C94.9467 228.767 94.9 228.647 94.9 228.5V222.96C94.9 222.293 94.76 221.813 94.48 221.52C94.2133 221.227 93.8467 221.08 93.38 221.08C92.9533 221.08 92.6 221.233 92.32 221.54C92.04 221.833 91.9 222.307 91.9 222.96V228.5C91.9 228.633 91.8533 228.753 91.76 228.86C91.6667 228.953 91.5467 229 91.4 229H89.08C88.9333 229 88.8133 228.953 88.72 228.86C88.6267 228.767 88.58 228.647 88.58 228.5V222.96C88.58 222.307 88.4333 221.833 88.14 221.54C87.86 221.233 87.5 221.08 87.06 221.08C86.6333 221.08 86.2733 221.233 85.98 221.54C85.7 221.833 85.56 222.3 85.56 222.94V228.5C85.56 228.633 85.5133 228.753 85.42 228.86C85.3267 228.953 85.2067 229 85.06 229H82.68ZM105.3 229.2C103.7 229.2 102.44 228.767 101.52 227.9C100.6 227.033 100.12 225.773 100.08 224.12V223.42C100.134 221.847 100.62 220.62 101.54 219.74C102.474 218.847 103.72 218.4 105.28 218.4C106.414 218.4 107.367 218.633 108.14 219.1C108.927 219.553 109.514 220.18 109.9 220.98C110.3 221.78 110.5 222.7 110.5 223.74V224.22C110.5 224.353 110.454 224.473 110.36 224.58C110.267 224.673 110.147 224.72 110 224.72H103.6V224.86C103.627 225.487 103.78 225.993 104.06 226.38C104.34 226.767 104.747 226.96 105.28 226.96C105.614 226.96 105.887 226.893 106.1 226.76C106.314 226.613 106.507 226.44 106.68 226.24C106.8 226.093 106.894 226.007 106.96 225.98C107.04 225.94 107.16 225.92 107.32 225.92H109.8C109.92 225.92 110.02 225.96 110.1 226.04C110.194 226.107 110.24 226.2 110.24 226.32C110.24 226.667 110.04 227.067 109.64 227.52C109.254 227.973 108.687 228.367 107.94 228.7C107.194 229.033 106.314 229.2 105.3 229.2ZM106.98 222.74V222.7C106.98 222.047 106.827 221.533 106.52 221.16C106.227 220.773 105.814 220.58 105.28 220.58C104.76 220.58 104.347 220.773 104.04 221.16C103.747 221.533 103.6 222.047 103.6 222.7V222.74H106.98ZM112.875 229C112.742 229 112.622 228.953 112.515 228.86C112.422 228.753 112.375 228.633 112.375 228.5V215.3C112.375 215.153 112.422 215.033 112.515 214.94C112.622 214.847 112.742 214.8 112.875 214.8H115.235C115.382 214.8 115.502 214.847 115.595 214.94C115.689 215.033 115.735 215.153 115.735 215.3V228.5C115.735 228.647 115.689 228.767 115.595 228.86C115.502 228.953 115.382 229 115.235 229H112.875ZM121.218 229.2C120.511 229.2 119.865 229.067 119.278 228.8C118.705 228.52 118.251 228.147 117.918 227.68C117.598 227.2 117.438 226.673 117.438 226.1C117.438 225.18 117.811 224.44 118.558 223.88C119.318 223.32 120.358 222.933 121.678 222.72L124.178 222.34V222.06C124.178 221.553 124.071 221.18 123.858 220.94C123.645 220.7 123.285 220.58 122.778 220.58C122.471 220.58 122.218 220.633 122.018 220.74C121.818 220.847 121.611 220.993 121.398 221.18C121.211 221.34 121.071 221.447 120.978 221.5C120.938 221.607 120.865 221.66 120.758 221.66H118.578C118.445 221.66 118.331 221.62 118.238 221.54C118.158 221.447 118.125 221.34 118.138 221.22C118.151 220.86 118.325 220.46 118.658 220.02C119.005 219.58 119.525 219.2 120.218 218.88C120.925 218.56 121.791 218.4 122.818 218.4C124.458 218.4 125.671 218.767 126.458 219.5C127.245 220.22 127.638 221.193 127.638 222.42V228.5C127.638 228.633 127.591 228.753 127.498 228.86C127.405 228.953 127.285 229 127.138 229H124.818C124.685 229 124.565 228.953 124.458 228.86C124.365 228.753 124.318 228.633 124.318 228.5V227.8C124.025 228.213 123.611 228.553 123.078 228.82C122.558 229.073 121.938 229.2 121.218 229.2ZM122.158 226.92C122.771 226.92 123.265 226.72 123.638 226.32C124.025 225.92 124.218 225.333 124.218 224.56V224.28L122.518 224.58C121.318 224.793 120.718 225.213 120.718 225.84C120.718 226.173 120.858 226.44 121.138 226.64C121.418 226.827 121.758 226.92 122.158 226.92ZM130.395 229C130.248 229 130.128 228.953 130.035 228.86C129.942 228.767 129.895 228.647 129.895 228.5V219.1C129.895 218.953 129.942 218.833 130.035 218.74C130.128 218.647 130.248 218.6 130.395 218.6H132.695C132.842 218.6 132.962 218.647 133.055 218.74C133.162 218.833 133.215 218.953 133.215 219.1V219.86C133.575 219.42 134.035 219.067 134.595 218.8C135.168 218.533 135.815 218.4 136.535 218.4C137.708 218.4 138.662 218.8 139.395 219.6C140.128 220.387 140.495 221.493 140.495 222.92V228.5C140.495 228.633 140.448 228.753 140.355 228.86C140.262 228.953 140.142 229 139.995 229H137.475C137.342 229 137.222 228.953 137.115 228.86C137.022 228.753 136.975 228.633 136.975 228.5V223.04C136.975 222.413 136.822 221.933 136.515 221.6C136.208 221.253 135.768 221.08 135.195 221.08C134.635 221.08 134.195 221.253 133.875 221.6C133.555 221.933 133.395 222.413 133.395 223.04V228.5C133.395 228.633 133.348 228.753 133.255 228.86C133.162 228.953 133.042 229 132.895 229H130.395ZM143.226 217.1C143.08 217.1 142.96 217.053 142.866 216.96C142.773 216.867 142.726 216.747 142.726 216.6V214.8C142.726 214.653 142.773 214.533 142.866 214.44C142.96 214.347 143.08 214.3 143.226 214.3H145.626C145.773 214.3 145.893 214.347 145.986 214.44C146.08 214.533 146.126 214.653 146.126 214.8V216.6C146.126 216.747 146.08 216.867 145.986 216.96C145.893 217.053 145.773 217.1 145.626 217.1H143.226ZM143.246 229C143.1 229 142.98 228.953 142.886 228.86C142.793 228.767 142.746 228.647 142.746 228.5V219.1C142.746 218.953 142.793 218.833 142.886 218.74C142.98 218.647 143.1 218.6 143.246 218.6H145.606C145.753 218.6 145.873 218.647 145.966 218.74C146.06 218.833 146.106 218.953 146.106 219.1V228.5C146.106 228.633 146.06 228.753 145.966 228.86C145.873 228.953 145.753 229 145.606 229H143.246ZM148.969 229C148.822 229 148.702 228.953 148.609 228.86C148.516 228.767 148.469 228.647 148.469 228.5V219.1C148.469 218.953 148.516 218.833 148.609 218.74C148.702 218.647 148.822 218.6 148.969 218.6H151.269C151.416 218.6 151.536 218.647 151.629 218.74C151.736 218.833 151.789 218.953 151.789 219.1V219.86C152.149 219.42 152.609 219.067 153.169 218.8C153.742 218.533 154.389 218.4 155.109 218.4C156.282 218.4 157.236 218.8 157.969 219.6C158.702 220.387 159.069 221.493 159.069 222.92V228.5C159.069 228.633 159.022 228.753 158.929 228.86C158.836 228.953 158.716 229 158.569 229H156.049C155.916 229 155.796 228.953 155.689 228.86C155.596 228.753 155.549 228.633 155.549 228.5V223.04C155.549 222.413 155.396 221.933 155.089 221.6C154.782 221.253 154.342 221.08 153.769 221.08C153.209 221.08 152.769 221.253 152.449 221.6C152.129 221.933 151.969 222.413 151.969 223.04V228.5C151.969 228.633 151.922 228.753 151.829 228.86C151.736 228.953 151.616 229 151.469 229H148.969Z" fill="white"/>
</svg>
