<svg width="245" height="245" viewBox="0 0 245 245" fill="none" xmlns="http://www.w3.org/2000/svg">
<g id="Group 127">
<rect id="Rectangle 124" x="0.5" y="0.5" width="244" height="244" rx="19.5" fill="#C4C4C4" fill-opacity="0.3" stroke="#3D9BD0"/>
<g id="Group 110">
<g id="Group 106">
<g id="Group 83">
<path id="Vector 96" d="M74.8809 89.7845L87.5301 82.3438" stroke="#3D9BD0"/>
<path id="Vector 97" d="M76.3672 93.1336L89.3885 85.3208" stroke="#3D9BD0"/>
<path id="Vector 93" d="M76.3672 54.4404L89.7605 62.2532" stroke="#3D9BD0"/>
<path id="Vector 94" d="M74.5078 57.7896L87.5291 65.2303" stroke="#3D9BD0"/>
<path id="Vector 95" d="M106.131 38.4434V53.3248" stroke="#3D9BD0"/>
<path id="Vector 88" d="M109.479 96.4812L123.616 88.2964" stroke="#3D9BD0"/>
<path id="Vector 89" d="M139.613 89.7851L148.914 77.8799" stroke="#3D9BD0"/>
<path id="Vector 90" d="M140.357 94.2485L153.007 78.623L146.31 66.7178" stroke="#3D9BD0"/>
<path id="Vector 91" d="M138.126 61.8813L123.244 63.3695" stroke="#3D9BD0"/>
<path id="Vector 92" d="M106.131 57.0454L120.268 65.6023" stroke="#3D9BD0"/>
<path id="Vector 85" d="M126.965 126.244L141.102 118.059" stroke="#3D9BD0"/>
<path id="Vector 86" d="M126.594 142.614L141.103 151.171" stroke="#3D9BD0"/>
<path id="Vector 87" d="M97.9473 129.965L107.248 118.432" stroke="#3D9BD0"/>
<path id="Vector 84" d="M157.102 122.896L170.495 115.083" stroke="#3D9BD0"/>
<path id="Vector 83" d="M158.959 126.244L172.352 118.059" stroke="#3D9BD0"/>
<path id="Vector 82" d="M158.959 142.242L172.724 150.427" stroke="#3D9BD0"/>
<path id="Vector 80" d="M141.104 169.773V155.263" stroke="#3D9BD0"/>
<path id="Vector 81" d="M157.473 145.962L170.866 153.775" stroke="#3D9BD0"/>
<path id="Vector 77" d="M106.131 94.2493L87.5293 84.2043V63.3702L106.131 53.3252L123.245 63.3702V84.2043M106.131 94.2493L123.245 84.2043M106.131 94.2493V113.967M123.245 84.2043L140.359 94.2493L141.103 113.967L123.245 123.64L106.131 113.967M106.131 113.967L93.8539 129.593L100.551 141.498" stroke="#3D9BD0"/>
<path id="Vector 78" d="M141.102 113.966L158.96 124.011V144.845L141.102 155.262L123.244 144.473V123.639" stroke="#3D9BD0"/>
<path id="Vector 79" d="M123.244 144.473L108.734 146.333" stroke="#3D9BD0"/>
</g>
<path id="O" d="M64.424 58.284C63.0267 58.284 61.944 57.9214 61.176 57.196C60.4187 56.46 60.0187 55.356 59.976 53.884C59.9653 53.564 59.96 53.1107 59.96 52.524C59.96 51.9374 59.9653 51.4894 59.976 51.18C60.0187 49.74 60.4347 48.6467 61.224 47.9C62.0133 47.1427 63.08 46.764 64.424 46.764C65.7573 46.764 66.8187 47.1427 67.608 47.9C68.3973 48.6467 68.8133 49.74 68.856 51.18C68.8773 51.7987 68.888 52.2467 68.888 52.524C68.888 52.7907 68.8773 53.244 68.856 53.884C68.8133 55.356 68.408 56.46 67.64 57.196C66.8827 57.9214 65.8107 58.284 64.424 58.284ZM64.424 56.924C65.2667 56.924 65.9387 56.668 66.44 56.156C66.9413 55.644 67.2133 54.86 67.256 53.804C67.2773 53.164 67.288 52.7374 67.288 52.524C67.288 52.2894 67.2773 51.8627 67.256 51.244C67.2133 50.188 66.936 49.404 66.424 48.892C65.9227 48.38 65.256 48.124 64.424 48.124C63.5813 48.124 62.904 48.38 62.392 48.892C61.8907 49.404 61.6187 50.188 61.576 51.244C61.5653 51.5534 61.56 51.98 61.56 52.524C61.56 53.0574 61.5653 53.484 61.576 53.804C61.6187 54.86 61.8907 55.644 62.392 56.156C62.904 56.668 63.5813 56.924 64.424 56.924Z" fill="white"/>
<path id="O_2" d="M178.149 115.146C176.751 115.146 175.669 114.784 174.901 114.058C174.143 113.322 173.743 112.218 173.701 110.746C173.69 110.426 173.685 109.973 173.685 109.386C173.685 108.8 173.69 108.352 173.701 108.042C173.743 106.602 174.159 105.509 174.949 104.762C175.738 104.005 176.805 103.626 178.149 103.626C179.482 103.626 180.543 104.005 181.333 104.762C182.122 105.509 182.538 106.602 182.581 108.042C182.602 108.661 182.613 109.109 182.613 109.386C182.613 109.653 182.602 110.106 182.581 110.746C182.538 112.218 182.133 113.322 181.365 114.058C180.607 114.784 179.535 115.146 178.149 115.146ZM178.149 113.786C178.991 113.786 179.663 113.53 180.165 113.018C180.666 112.506 180.938 111.722 180.981 110.666C181.002 110.026 181.013 109.6 181.013 109.386C181.013 109.152 181.002 108.725 180.981 108.106C180.938 107.05 180.661 106.266 180.149 105.754C179.647 105.242 178.981 104.986 178.149 104.986C177.306 104.986 176.629 105.242 176.117 105.754C175.615 106.266 175.343 107.05 175.301 108.106C175.29 108.416 175.285 108.842 175.285 109.386C175.285 109.92 175.29 110.346 175.301 110.666C175.343 111.722 175.615 112.506 176.117 113.018C176.629 113.53 177.306 113.786 178.149 113.786Z" fill="white"/>
<path id="O_3" d="M178.149 161.67C176.751 161.67 175.669 161.308 174.901 160.582C174.143 159.846 173.743 158.742 173.701 157.27C173.69 156.95 173.685 156.497 173.685 155.91C173.685 155.324 173.69 154.876 173.701 154.566C173.743 153.126 174.159 152.033 174.949 151.286C175.738 150.529 176.805 150.15 178.149 150.15C179.482 150.15 180.543 150.529 181.333 151.286C182.122 152.033 182.538 153.126 182.581 154.566C182.602 155.185 182.613 155.633 182.613 155.91C182.613 156.177 182.602 156.63 182.581 157.27C182.538 158.742 182.133 159.846 181.365 160.582C180.607 161.308 179.535 161.67 178.149 161.67ZM178.149 160.31C178.991 160.31 179.663 160.054 180.165 159.542C180.666 159.03 180.938 158.246 180.981 157.19C181.002 156.55 181.013 156.124 181.013 155.91C181.013 155.676 181.002 155.249 180.981 154.63C180.938 153.574 180.661 152.79 180.149 152.278C179.647 151.766 178.981 151.51 178.149 151.51C177.306 151.51 176.629 151.766 176.117 152.278C175.615 152.79 175.343 153.574 175.301 154.63C175.29 154.94 175.285 155.366 175.285 155.91C175.285 156.444 175.29 156.87 175.301 157.19C175.343 158.246 175.615 159.03 176.117 159.542C176.629 160.054 177.306 160.31 178.149 160.31Z" fill="white"/>
<path id="O_4" d="M66.1467 103.084C64.7493 103.084 63.6667 102.722 62.8987 101.996C62.1413 101.26 61.7413 100.156 61.6987 98.6843C61.688 98.3643 61.6827 97.911 61.6827 97.3243C61.6827 96.7376 61.688 96.2896 61.6987 95.9803C61.7413 94.5403 62.1573 93.447 62.9467 92.7003C63.736 91.943 64.8027 91.5643 66.1467 91.5643C67.48 91.5643 68.5413 91.943 69.3307 92.7003C70.12 93.447 70.536 94.5403 70.5787 95.9803C70.6 96.599 70.6107 97.047 70.6107 97.3243C70.6107 97.591 70.6 98.0443 70.5787 98.6843C70.536 100.156 70.1307 101.26 69.3627 101.996C68.6053 102.722 67.5333 103.084 66.1467 103.084ZM66.1467 101.724C66.9893 101.724 67.6613 101.468 68.1627 100.956C68.664 100.444 68.936 99.6603 68.9787 98.6043C69 97.9643 69.0107 97.5376 69.0107 97.3243C69.0107 97.0896 69 96.663 68.9787 96.0443C68.936 94.9883 68.6587 94.2043 68.1467 93.6923C67.6453 93.1803 66.9787 92.9243 66.1467 92.9243C65.304 92.9243 64.6267 93.1803 64.1147 93.6923C63.6133 94.2043 63.3413 94.9883 63.2987 96.0443C63.288 96.3536 63.2827 96.7803 63.2827 97.3243C63.2827 97.8576 63.288 98.2843 63.2987 98.6043C63.3413 99.6603 63.6133 100.444 64.1147 100.956C64.6267 101.468 65.304 101.724 66.1467 101.724Z" fill="white"/>
<path id="CH" d="M135.07 187.517C133.641 187.517 132.553 187.133 131.806 186.365C131.07 185.597 130.676 184.536 130.622 183.181C130.612 182.893 130.606 182.424 130.606 181.773C130.606 181.112 130.612 180.632 130.622 180.333C130.676 178.989 131.076 177.933 131.822 177.165C132.569 176.386 133.652 175.997 135.07 175.997C136.02 175.997 136.825 176.168 137.486 176.509C138.148 176.84 138.649 177.277 138.99 177.821C139.332 178.365 139.518 178.946 139.55 179.565V179.597C139.55 179.682 139.513 179.757 139.438 179.821C139.374 179.874 139.3 179.901 139.214 179.901H138.334C138.121 179.901 137.988 179.778 137.934 179.533C137.753 178.733 137.428 178.173 136.958 177.853C136.489 177.522 135.86 177.357 135.07 177.357C133.236 177.357 132.286 178.376 132.222 180.413C132.212 180.701 132.206 181.144 132.206 181.741C132.206 182.338 132.212 182.792 132.222 183.101C132.286 185.138 133.236 186.157 135.07 186.157C135.86 186.157 136.489 185.997 136.958 185.677C137.438 185.346 137.764 184.781 137.934 183.981C137.966 183.842 138.014 183.746 138.078 183.693C138.142 183.64 138.228 183.613 138.334 183.613H139.214C139.31 183.613 139.39 183.645 139.454 183.709C139.529 183.762 139.561 183.837 139.55 183.933C139.518 184.562 139.332 185.149 138.99 185.693C138.649 186.237 138.148 186.68 137.486 187.021C136.825 187.352 136.02 187.517 135.07 187.517ZM142.063 187.357C141.956 187.357 141.865 187.325 141.791 187.261C141.727 187.186 141.695 187.096 141.695 186.989V176.541C141.695 176.424 141.727 176.333 141.791 176.269C141.865 176.194 141.956 176.157 142.063 176.157H142.879C142.996 176.157 143.087 176.194 143.151 176.269C143.225 176.333 143.263 176.424 143.263 176.541V180.957H148.767V176.541C148.767 176.424 148.799 176.333 148.863 176.269C148.937 176.194 149.028 176.157 149.135 176.157H149.951C150.068 176.157 150.159 176.194 150.223 176.269C150.297 176.333 150.335 176.424 150.335 176.541V186.989C150.335 187.096 150.297 187.186 150.223 187.261C150.148 187.325 150.057 187.357 149.951 187.357H149.135C149.028 187.357 148.937 187.325 148.863 187.261C148.799 187.186 148.767 187.096 148.767 186.989V182.397H143.263V186.989C143.263 187.096 143.225 187.186 143.151 187.261C143.076 187.325 142.985 187.357 142.879 187.357H142.063Z" fill="white"/>
<path id="CH_2" d="M100.61 34.16C99.1802 34.16 98.0922 33.776 97.3455 33.008C96.6095 32.24 96.2149 31.1787 96.1615 29.824C96.1509 29.536 96.1455 29.0667 96.1455 28.416C96.1455 27.7547 96.1509 27.2747 96.1615 26.976C96.2149 25.632 96.6149 24.576 97.3615 23.808C98.1082 23.0293 99.1909 22.64 100.61 22.64C101.559 22.64 102.364 22.8107 103.026 23.152C103.687 23.4827 104.188 23.92 104.53 24.464C104.871 25.008 105.058 25.5893 105.09 26.208V26.24C105.09 26.3253 105.052 26.4 104.978 26.464C104.914 26.5173 104.839 26.544 104.754 26.544H103.874C103.66 26.544 103.527 26.4213 103.474 26.176C103.292 25.376 102.967 24.816 102.498 24.496C102.028 24.1653 101.399 24 100.61 24C98.7749 24 97.8255 25.0187 97.7615 27.056C97.7509 27.344 97.7455 27.7867 97.7455 28.384C97.7455 28.9813 97.7509 29.4347 97.7615 29.744C97.8255 31.7813 98.7749 32.8 100.61 32.8C101.399 32.8 102.028 32.64 102.498 32.32C102.978 31.9893 103.303 31.424 103.474 30.624C103.506 30.4853 103.554 30.3893 103.618 30.336C103.682 30.2827 103.767 30.256 103.874 30.256H104.754C104.85 30.256 104.93 30.288 104.994 30.352C105.068 30.4053 105.1 30.48 105.09 30.576C105.058 31.2053 104.871 31.792 104.53 32.336C104.188 32.88 103.687 33.3227 103.026 33.664C102.364 33.9947 101.559 34.16 100.61 34.16ZM107.602 34C107.495 34 107.404 33.968 107.33 33.904C107.266 33.8293 107.234 33.7387 107.234 33.632V23.184C107.234 23.0667 107.266 22.976 107.33 22.912C107.404 22.8373 107.495 22.8 107.602 22.8H108.418C108.535 22.8 108.626 22.8373 108.69 22.912C108.764 22.976 108.802 23.0667 108.802 23.184V27.6H114.306V23.184C114.306 23.0667 114.338 22.976 114.402 22.912C114.476 22.8373 114.567 22.8 114.674 22.8H115.49C115.607 22.8 115.698 22.8373 115.762 22.912C115.836 22.976 115.874 23.0667 115.874 23.184V33.632C115.874 33.7387 115.836 33.8293 115.762 33.904C115.687 33.968 115.596 34 115.49 34H114.674C114.567 34 114.476 33.968 114.402 33.904C114.338 33.8293 114.306 33.7387 114.306 33.632V29.04H108.802V33.632C108.802 33.7387 108.764 33.8293 108.69 33.904C108.615 33.968 108.524 34 108.418 34H107.602Z" fill="white"/>
<path id="NH" d="M143.469 63.2925C143.362 63.2925 143.272 63.2605 143.197 63.1965C143.133 63.1218 143.101 63.0311 143.101 62.9245V52.4765C143.101 52.3591 143.133 52.2685 143.197 52.2045C143.272 52.1298 143.362 52.0925 143.469 52.0925H144.205C144.397 52.0925 144.53 52.1671 144.605 52.3165L149.917 60.4765V52.4765C149.917 52.3591 149.949 52.2685 150.013 52.2045C150.088 52.1298 150.178 52.0925 150.285 52.0925H151.053C151.17 52.0925 151.261 52.1298 151.325 52.2045C151.4 52.2685 151.437 52.3591 151.437 52.4765V62.9085C151.437 63.0151 151.4 63.1058 151.325 63.1805C151.261 63.2551 151.176 63.2925 151.069 63.2925H150.301C150.141 63.2925 150.013 63.2178 149.917 63.0685L144.621 54.9885V62.9245C144.621 63.0311 144.584 63.1218 144.509 63.1965C144.434 63.2605 144.344 63.2925 144.237 63.2925H143.469ZM154.594 63.2925C154.487 63.2925 154.397 63.2605 154.322 63.1965C154.258 63.1218 154.226 63.0311 154.226 62.9245V52.4765C154.226 52.3591 154.258 52.2685 154.322 52.2045C154.397 52.1298 154.487 52.0925 154.594 52.0925H155.41C155.527 52.0925 155.618 52.1298 155.682 52.2045C155.757 52.2685 155.794 52.3591 155.794 52.4765V56.8925H161.298V52.4765C161.298 52.3591 161.33 52.2685 161.394 52.2045C161.469 52.1298 161.559 52.0925 161.666 52.0925H162.482C162.599 52.0925 162.69 52.1298 162.754 52.2045C162.829 52.2685 162.866 52.3591 162.866 52.4765V62.9245C162.866 63.0311 162.829 63.1218 162.754 63.1965C162.679 63.2605 162.589 63.2925 162.482 63.2925H161.666C161.559 63.2925 161.469 63.2605 161.394 63.1965C161.33 63.1218 161.298 63.0311 161.298 62.9245V58.3325H155.794V62.9245C155.794 63.0311 155.757 63.1218 155.682 63.1965C155.607 63.2605 155.517 63.2925 155.41 63.2925H154.594Z" fill="white"/>
<path id="HN" d="M83.1604 156.341C83.0537 156.341 82.9631 156.309 82.8884 156.245C82.8244 156.17 82.7924 156.079 82.7924 155.973V145.525C82.7924 145.407 82.8244 145.317 82.8884 145.253C82.9631 145.178 83.0537 145.141 83.1604 145.141H83.9764C84.0937 145.141 84.1844 145.178 84.2484 145.253C84.3231 145.317 84.3604 145.407 84.3604 145.525V149.941H89.8644V145.525C89.8644 145.407 89.8964 145.317 89.9604 145.253C90.0351 145.178 90.1257 145.141 90.2324 145.141H91.0484C91.1657 145.141 91.2564 145.178 91.3204 145.253C91.3951 145.317 91.4324 145.407 91.4324 145.525V155.973C91.4324 156.079 91.3951 156.17 91.3204 156.245C91.2457 156.309 91.1551 156.341 91.0484 156.341H90.2324C90.1257 156.341 90.0351 156.309 89.9604 156.245C89.8964 156.17 89.8644 156.079 89.8644 155.973V151.381H84.3604V155.973C84.3604 156.079 84.3231 156.17 84.2484 156.245C84.1737 156.309 84.0831 156.341 83.9764 156.341H83.1604ZM94.5823 156.341C94.4756 156.341 94.3849 156.309 94.3103 156.245C94.2463 156.17 94.2143 156.079 94.2143 155.973V145.525C94.2143 145.407 94.2463 145.317 94.3103 145.253C94.3849 145.178 94.4756 145.141 94.5823 145.141H95.3183C95.5103 145.141 95.6436 145.215 95.7183 145.365L101.03 153.525V145.525C101.03 145.407 101.062 145.317 101.126 145.253C101.201 145.178 101.292 145.141 101.398 145.141H102.166C102.284 145.141 102.374 145.178 102.438 145.253C102.513 145.317 102.55 145.407 102.55 145.525V155.957C102.55 156.063 102.513 156.154 102.438 156.229C102.374 156.303 102.289 156.341 102.182 156.341H101.414C101.254 156.341 101.126 156.266 101.03 156.117L95.7343 148.037V155.973C95.7343 156.079 95.6969 156.17 95.6223 156.245C95.5476 156.309 95.4569 156.341 95.3503 156.341H94.5823Z" fill="white"/>
</g>
</g>
</g>
</svg>
