<?xml version="1.0" standalone="no"?>
<!DOCTYPE svg PUBLIC "-//W3C//DTD SVG 20010904//EN"
 "http://www.w3.org/TR/2001/REC-SVG-20010904/DTD/svg10.dtd">
<svg version="1.0" xmlns="http://www.w3.org/2000/svg"
 width="1040.000000pt" height="1040.000000pt" viewBox="0 0 1040.000000 1040.000000"
 preserveAspectRatio="xMidYMid meet">
<metadata>
Created by potrace 1.11, written by Peter Selinger 2001-2013
</metadata>
<g transform="translate(0.000000,1040.000000) scale(0.100000,-0.100000)"
fill="#000000" stroke="none">
<path d="M8470 8747 c-1 -48 -1 -5398 0 -5438 0 -26 2 -26 68 -28 37 -1 87 -1
112 -1 25 0 74 0 110 0 36 0 90 0 120 1 30 0 102 1 160 2 l104 2 0 2750 0
2750 -337 2 -337 2 0 -42z"/>
<path d="M6117 7414 c-1 -1 -47 -4 -102 -7 -55 -4 -125 -11 -155 -17 -30 -6
-66 -13 -80 -15 -27 -5 -58 -12 -90 -20 -11 -3 -29 -7 -39 -9 -49 -11 -175
-61 -268 -107 -235 -115 -437 -285 -612 -514 -17 -22 -34 -44 -39 -50 -33 -42
-162 -270 -167 -295 -1 -3 -10 -25 -21 -50 -22 -48 -48 -112 -50 -120 0 -3
-13 -45 -29 -95 -16 -49 -30 -94 -31 -100 -1 -5 -5 -21 -8 -35 -25 -108 -49
-234 -62 -330 -31 -227 -35 -590 -9 -805 14 -123 62 -359 85 -420 4 -11 27
-72 50 -135 24 -63 65 -158 92 -210 48 -92 160 -270 189 -300 8 -8 32 -37 54
-65 62 -76 217 -225 235 -225 6 0 10 -4 10 -8 0 -4 18 -19 40 -32 22 -14 40
-28 40 -32 0 -5 4 -8 10 -8 5 0 33 -15 62 -33 74 -46 183 -97 199 -93 3 0 12
-4 20 -10 14 -11 66 -27 72 -22 2 2 10 -2 18 -8 24 -19 208 -58 339 -71 123
-12 409 -6 513 12 18 3 43 7 57 9 14 2 36 7 50 10 14 3 37 8 51 10 40 6 175
45 214 62 19 8 35 12 35 10 0 -10 231 110 299 156 114 76 168 124 302 268 34
36 147 219 186 300 49 102 125 314 137 382 2 15 7 32 10 36 5 8 28 130 42 217
3 17 7 36 9 43 5 14 28 13 -349 14 -324 0 -309 3 -320 -55 -2 -15 -7 -30 -10
-35 -3 -5 -8 -23 -11 -41 -6 -36 -44 -150 -55 -166 -3 -5 -13 -29 -20 -53 -7
-24 -17 -45 -22 -48 -5 -3 -15 -21 -23 -41 -15 -36 -94 -160 -130 -202 -48
-58 -130 -133 -183 -169 -48 -32 -144 -84 -162 -88 -3 0 -30 -8 -61 -18 -108
-33 -174 -41 -324 -40 -153 0 -272 18 -360 53 -88 34 -181 87 -248 141 -52 42
-167 169 -167 185 0 3 -13 25 -28 48 -33 48 -94 167 -87 167 3 0 -1 10 -9 23
-15 23 -54 136 -79 227 -46 166 -70 371 -69 585 0 123 7 287 16 348 2 15 7 55
11 90 4 34 9 71 11 82 2 11 7 34 10 50 3 17 12 61 21 99 8 37 16 73 18 80 1 6
5 18 8 26 4 8 18 51 33 95 43 135 163 361 227 431 128 137 231 212 362 263 80
31 205 64 205 54 0 -3 6 -1 13 4 14 10 293 10 375 -1 132 -17 312 -88 391
-154 164 -136 298 -378 344 -621 9 -48 17 -65 32 -70 15 -5 540 -7 627 -2 10
1 15 8 12 19 -2 9 -5 33 -8 52 -3 19 -7 46 -10 60 -3 14 -7 45 -10 70 -5 41
-47 214 -76 315 -31 105 -164 371 -192 383 -5 2 -8 8 -8 13 0 32 -173 199
-283 273 -79 54 -224 131 -272 146 -5 1 -39 14 -75 28 -36 13 -74 26 -85 28
-11 1 -45 9 -75 18 -99 26 -223 44 -355 52 -98 6 -206 10 -208 8z"/>
<path d="M1607 7363 c-2 -1 -28 -5 -58 -8 -66 -8 -206 -40 -274 -62 -27 -10
-52 -18 -55 -18 -13 -4 -50 -20 -110 -47 -291 -135 -595 -424 -750 -713 -83
-155 -90 -171 -137 -300 -54 -147 -99 -329 -118 -475 -3 -25 -8 -63 -11 -84
-4 -22 -9 -63 -11 -90 -8 -77 -11 -656 -4 -656 3 0 6 -17 7 -38 1 -41 13 -156
19 -187 3 -11 7 -33 9 -50 3 -16 7 -41 11 -55 3 -14 7 -40 10 -58 10 -73 69
-266 109 -356 14 -32 26 -62 26 -67 0 -12 109 -200 134 -230 11 -14 30 -38 41
-54 60 -85 230 -234 378 -330 124 -80 404 -205 422 -187 3 3 5 0 5 -6 0 -6 7
-9 15 -6 8 4 22 1 30 -6 8 -6 19 -9 24 -6 5 4 12 2 16 -4 4 -6 10 -8 14 -6 4
3 25 1 47 -5 21 -5 66 -12 99 -16 70 -8 409 -7 475 1 47 7 158 25 175 30 6 1
26 6 45 10 255 57 495 219 681 459 79 101 71 111 70 -88 -1 -124 -9 -326 -16
-405 -15 -165 -31 -276 -49 -345 -2 -5 -6 -28 -11 -50 -4 -22 -12 -46 -18 -52
-5 -7 -7 -13 -3 -13 21 0 -92 -227 -149 -298 -42 -52 -136 -138 -191 -173 -83
-55 -230 -118 -305 -133 -13 -2 -45 -9 -71 -15 -84 -19 -159 -25 -338 -25
-188 0 -229 4 -336 29 -119 28 -201 61 -292 118 -42 27 -152 134 -152 149 0 3
-6 13 -12 20 -31 32 -108 227 -108 272 -1 49 4 48 -356 48 l-339 1 2 -24 c3
-55 14 -143 18 -149 2 -4 7 -20 9 -36 11 -59 15 -71 40 -147 33 -98 76 -183
137 -272 75 -109 130 -164 274 -273 50 -38 214 -124 310 -162 50 -20 85 -32
92 -32 4 0 16 -4 26 -10 10 -5 26 -11 35 -13 9 -2 37 -8 62 -14 25 -7 56 -14
70 -17 14 -2 32 -7 40 -9 25 -7 128 -22 220 -32 135 -14 542 -7 630 12 14 3
39 7 55 9 329 43 660 201 875 416 109 109 170 179 170 198 0 6 4 12 9 12 5 0
13 9 16 20 3 11 13 26 20 34 18 17 118 225 140 291 25 72 75 255 80 290 3 17
8 44 11 60 4 17 8 41 9 55 2 14 5 39 8 55 3 17 9 59 12 95 4 36 9 85 13 110 3
25 7 937 9 2028 l4 1983 -83 -1 c-46 -1 -87 -1 -93 1 -5 1 -14 0 -20 -1 -21
-4 -247 -1 -252 4 -3 3 -15 1 -27 -4 -13 -4 -29 -4 -39 1 -9 6 -17 6 -17 1 0
-4 -20 -7 -45 -5 -41 3 -45 1 -46 -19 0 -13 -1 -126 -1 -252 l-1 -229 -41 48
c-55 66 -234 245 -270 270 -15 11 -35 27 -44 35 -8 8 -23 19 -33 25 -117 69
-161 92 -221 117 -71 30 -206 72 -263 82 -16 2 -39 7 -50 9 -57 13 -155 20
-288 21 -81 1 -149 1 -150 -1z m489 -614 c49 -11 109 -27 134 -37 25 -9 47
-17 50 -17 14 -1 140 -71 140 -77 0 -5 5 -8 11 -8 41 0 299 -258 299 -299 0
-6 4 -11 8 -11 9 0 112 -202 112 -221 0 -4 5 -20 12 -36 6 -15 10 -32 9 -37
-1 -4 2 -13 7 -20 16 -18 62 -240 65 -308 1 -21 4 -38 7 -38 20 0 16 -573 -4
-677 -3 -11 -8 -43 -12 -70 -22 -152 -73 -324 -140 -471 -30 -67 -93 -174
-108 -184 -6 -4 -7 -8 -3 -8 12 0 -66 -93 -135 -162 -64 -64 -179 -145 -248
-176 -89 -40 -125 -54 -150 -58 -14 -3 -38 -9 -55 -15 -65 -21 -206 -35 -330
-33 -112 2 -167 9 -287 38 -46 12 -161 67 -223 108 -127 84 -235 208 -323 371
-17 31 -29 57 -25 57 3 0 1 6 -5 13 -36 44 -99 284 -117 447 -2 19 -4 35 -5
35 -6 0 -13 163 -13 320 -1 179 6 333 20 435 3 25 6 62 7 82 0 21 5 38 10 38
5 0 7 2 4 5 -3 3 1 36 9 73 8 37 16 77 19 90 20 103 136 385 170 413 8 6 14
16 14 21 0 30 209 258 236 258 3 0 23 13 43 29 20 16 38 29 41 28 3 0 24 10
46 21 74 38 209 77 324 95 76 12 302 3 386 -14z"/>
<path d="M9618 6718 c-2 -7 -4 -182 -3 -388 l1 -375 350 -3 351 -2 0 390 0
390 -348 0 c-269 0 -348 -3 -351 -12z"/>
</g>
</svg>
