<svg width="30" height="41" viewBox="0 0 30 41" fill="none" xmlns="http://www.w3.org/2000/svg">
<path d="M25 30.3448H15C12.2425 30.3448 10 28.1449 10 25.4397C10 24.0852 11.0981 22.9871 12.4526 22.9871H25C27.76 22.9871 30 20.7896 30 18.082C30 15.3744 27.76 13.1769 25 13.1769H17.3577C13.2942 13.1769 10 9.88273 10 5.81919C10 3.11156 7.76 0.914062 5 0.914062C2.24 0.914062 0 3.11156 0 5.81919V25.4397C0 33.5552 6.7275 40.1551 15 40.1551H25C27.76 40.1551 30 37.9576 30 35.25C30 32.5423 27.76 30.3448 25 30.3448Z" fill="black"/>
</svg>
